<?xml version="1.0" standalone="no"?>
<!DOCTYPE svg PUBLIC "-//W3C//DTD SVG 1.1//EN" "http://www.w3.org/Graphics/SVG/1.1/DTD/svg11.dtd" >
<svg xmlns="http://www.w3.org/2000/svg" xmlns:xlink="http://www.w3.org/1999/xlink" version="1.1">
<metadata>
Created by FontForge 20161013 at Wed Jun 24 23:48:33 2015
 By ,,,
(c) Copyright The Font Bureau, Inc. 2014. All rights reserved.
</metadata>
<defs>
<font id="InputMono-Light" horiz-adv-x="700" >
  <font-face 
    font-family="InputMono Light"
    font-weight="300"
    font-stretch="normal"
    units-per-em="1100"
    panose-1="2 0 5 9 2 0 0 9 0 4"
    ascent="850"
    descent="-250"
    x-height="600"
    cap-height="800"
    bbox="-227 -450 914 1400"
    underline-thickness="0"
    underline-position="0"
    unicode-range="U+000D-1F41B"
  />
<missing-glyph 
d="M50 -250v1100h600v-1100h-600zM135 -165h430v930h-430v-930z" />
    <glyph glyph-name=".notdef" 
d="M50 -250v1100h600v-1100h-600zM135 -165h430v930h-430v-930z" />
    <glyph glyph-name=".null" horiz-adv-x="0" 
 />
    <glyph glyph-name="nonmarkingreturn" unicode="&#xd;" horiz-adv-x="0" 
 />
    <glyph glyph-name="NULL" horiz-adv-x="0" 
 />
    <glyph glyph-name="space" unicode="&#xa0;" 
 />
    <glyph glyph-name="space" unicode=" " 
 />
    <glyph glyph-name="exclam" unicode="!" 
d="M318 300l-30 500h125l-30 -500h-65zM351 -10q-46 0 -67.5 20.5t-21.5 63.5v28q0 44 21.5 65t67.5 21q47 0 68 -21t21 -65v-28q0 -43 -21.5 -63.5t-67.5 -20.5z" />
    <glyph glyph-name="quotedbl" unicode="&#x22;" 
d="M454 410l-29 390h151l-30 -390h-92zM154 410l-29 390h151l-30 -390h-92z" />
    <glyph glyph-name="numbersign" unicode="#" 
d="M417 288l11 224h-143l-11 -224h143zM402 0l10 206h-143l-10 -206h-81l10 206h-130v82h135l11 224h-146v82h149l11 206h81l-11 -206h143l11 206h81l-11 -206h131v-82h-134l-11 -224h145v-82h-150l-10 -206h-81z" />
    <glyph glyph-name="dollar" unicode="$" 
d="M184 566q0 -40 30.5 -66t108.5 -51v226q-61 -1 -100 -24t-39 -85zM518 234q0 41 -31 67t-110 51v-235q61 2 101 30.5t40 86.5zM387 -50h-74v98q-54 4 -111 20.5t-96 44.5l28 71q42 -27 94 -43t95 -21v248q-119 34 -166.5 81t-47.5 123q0 87 50 132t154 48v98h74v-99
q52 -5 100.5 -18.5t83.5 -35.5l-30 -75q-37 20 -80.5 33t-83.5 17v-240q120 -36 168.5 -81t48.5 -118q0 -87 -53 -135t-154 -52v-96z" />
    <glyph glyph-name="percent" unicode="%" 
d="M196 444q-69 0 -111 38t-42 117v64q0 80 42.5 118.5t110.5 38.5t110 -38.5t42 -118.5v-64q0 -79 -42.5 -117t-109.5 -38zM196 522q31 0 49 18t18 58v66q0 40 -18 59t-49 19t-50 -19t-19 -59v-66q0 -40 19 -58t50 -18zM47 163l559 534l51 -51l-558 -534zM505 -22
q-68 0 -110 38t-42 117v64q0 80 42.5 118.5t109.5 38.5q69 0 110.5 -38.5t41.5 -118.5v-64q0 -79 -42 -117t-110 -38zM505 57q32 0 50 18t18 58v66q0 40 -18 59t-50 19q-31 0 -49.5 -19t-18.5 -59v-66q0 -40 18.5 -58t49.5 -18z" />
    <glyph glyph-name="ampersand" unicode="&#x26;" 
d="M665 -3q-62 19 -117 48t-104 65q-46 -56 -95 -88t-115 -32q-84 0 -137.5 54t-53.5 159q0 84 43 144.5t94 86.5q-23 51 -35.5 96t-12.5 78q0 93 45 147.5t129 54.5q69 0 119 -50t50 -121q0 -86 -49 -137.5t-156 -85.5q8 -18 18.5 -34.5t20.5 -32.5q25 -39 56 -76t65 -68
q29 45 56.5 101t50.5 120l75 -41q-30 -71 -70 -122t-75 -99l210 -84zM217 602q0 -34 8 -70t23 -73q80 34 114.5 75.5t34.5 95.5q0 43 -26.5 71.5t-60.5 28.5q-51 0 -72 -36t-21 -92zM234 70q40 0 78.5 23t75.5 64q-38 33 -70 70t-60 75q-14 21 -27.5 42t-24.5 40
q-35 -31 -58 -77.5t-23 -95.5q0 -61 27.5 -101t81.5 -40z" />
    <glyph glyph-name="quotesingle" unicode="'" 
d="M305 410l-29 390h148l-29 -390h-90z" />
    <glyph glyph-name="parenleft" unicode="(" 
d="M546 -210q-143 37 -240.5 168.5t-97.5 341.5q0 212 97.5 342.5t240.5 167.5l8 -68q-132 -37 -196.5 -159t-64.5 -283t64.5 -284t196.5 -160z" />
    <glyph glyph-name="parenright" unicode=")" 
d="M155 -210l-9 66q132 37 197 160.5t65 283.5q0 163 -65 284t-197 158l9 68q143 -37 240.5 -168.5t97.5 -341.5q0 -209 -97.5 -341t-240.5 -169z" />
    <glyph glyph-name="asterisk" unicode="*" 
d="M581 283l-200 160l25 -243h-114l25 242l-199 -159l-56 96l232 122l-232 122l56 96l199 -160l-25 241h114l-25 -242l200 161l56 -96l-232 -122l232 -122z" />
    <glyph glyph-name="plus" unicode="+" 
d="M305 42v264h-233v88h233v264h91v-264h233v-88h-233v-264h-91z" />
    <glyph glyph-name="comma" unicode="," 
d="M204 -210l92 390h187l-201 -390h-78z" />
    <glyph glyph-name="hyphen" unicode="&#x2011;" 
d="M72 306v86h557v-86h-557z" />
    <glyph glyph-name="hyphen" unicode="&#x2010;" 
d="M72 306v86h557v-86h-557z" />
    <glyph glyph-name="hyphen" unicode="&#xad;" 
d="M72 306v86h557v-86h-557z" />
    <glyph glyph-name="hyphen" unicode="-" 
d="M72 306v86h557v-86h-557z" />
    <glyph glyph-name="period" unicode="." 
d="M351 -10q-47 0 -76.5 21.5t-29.5 69.5v16q0 49 29.5 70.5t76.5 21.5q48 0 76.5 -21.5t28.5 -70.5v-16q0 -48 -29.5 -69.5t-75.5 -21.5z" />
    <glyph glyph-name="slash" unicode="/" 
d="M105 -200l400 1000h91l-400 -1000h-91z" />
    <glyph glyph-name="zero" unicode="0" 
d="M350 -10q-131 0 -198 89t-67 262v114q0 175 67.5 265t198.5 90t198 -90t67 -265v-114q0 -173 -67.5 -262t-198.5 -89zM350 70q95 0 136.5 62.5t41.5 204.5v122q0 144 -41.5 207.5t-136.5 63.5t-136 -63.5t-41 -207.5v-122q0 -142 41 -204.5t136 -62.5zM350 324
q-32 0 -52 11t-20 42v45q0 30 20 41.5t52 11.5t51.5 -11.5t19.5 -41.5v-45q0 -31 -20 -42t-51 -11z" />
    <glyph glyph-name="one" unicode="1" 
d="M138 0v78h223v614h-29q-37 -59 -91 -81t-125 -7l-10 88q77 -12 141.5 15t116.5 93h82v-722h204v-78h-512z" />
    <glyph glyph-name="two" unicode="2" 
d="M85 0v171q0 90 44.5 143t144.5 80l142 40q57 15 81 41.5t24 76.5v46q0 72 -35 102t-136 30q-91 0 -126.5 -38t-43.5 -143l-85 10q8 138 65 194.5t189 56.5q128 0 192.5 -49.5t64.5 -150.5v-71q0 -72 -42 -117t-143 -73l-143 -40q-45 -10 -76.5 -38.5t-31.5 -97.5v-95h446
v-78h-531z" />
    <glyph glyph-name="three" unicode="3" 
d="M338 -10q-154 0 -205 56t-58 168l85 10q10 -94 44 -126t133 -32q108 0 151 33t43 117v27q0 80 -40 112t-141 32h-98v79h98q89 0 125 25.5t36 88.5v32q0 69 -38 95.5t-134 26.5q-84 0 -117.5 -30t-41.5 -114l-85 10q7 113 68 161.5t177 48.5t186 -47t70 -155v-35
q0 -59 -41.5 -93t-117.5 -38v-29q93 -7 136 -56t43 -111v-29q0 -104 -60.5 -165.5t-217.5 -61.5z" />
    <glyph glyph-name="four" unicode="4" 
d="M176 293h285v416zM666 213h-120v-213h-85v213h-386v80l341 507h130v-507h120v-80z" />
    <glyph glyph-name="five" unicode="5" 
d="M349 -10q-154 0 -210.5 46.5t-63.5 178.5l85 10q7 -98 42 -126.5t148 -28.5q96 0 138.5 35.5t42.5 104.5v52q0 75 -33.5 108.5t-103.5 33.5h-289v396h469v-80h-384v-232h194q117 0 174.5 -55t57.5 -167v-62q0 -100 -70 -157t-197 -57z" />
    <glyph glyph-name="six" unicode="6" 
d="M350 -10q-140 0 -202.5 79t-62.5 207v243q0 139 69.5 215t197.5 76q117 0 176 -42.5t79 -135.5l-94 -23q-13 61 -43.5 91t-117.5 30q-99 0 -140.5 -48.5t-41.5 -161.5v-99h21q27 37 68.5 57.5t110.5 20.5q123 0 184.5 -67.5t61.5 -169.5v-22q0 -120 -69.5 -185
t-196.5 -65zM349 70q92 0 136 40t44 127v13q0 87 -44 126t-136 39t-135.5 -39t-43.5 -126v-13q0 -86 43.5 -126.5t135.5 -40.5z" />
    <glyph glyph-name="seven" unicode="7" 
d="M258 0q54 251 104 393.5t169 316.5h-446v90h531v-90q-116 -190 -172 -342t-93 -368h-93z" />
    <glyph glyph-name="eight" unicode="8" 
d="M350 -10q-140 0 -202.5 51t-62.5 166v22q0 75 41 123t114 55v29q-57 5 -96 45t-39 105v32q0 101 57.5 146.5t187.5 45.5t188 -45.5t58 -146.5v-32q0 -65 -39.5 -105t-96.5 -45v-29q73 -7 114.5 -55.5t41.5 -122.5v-22q0 -115 -63 -166t-203 -51zM350 460q90 0 125.5 27.5
t35.5 96.5v28q0 68 -35.5 95t-125.5 27t-125 -27t-35 -95v-28q0 -69 35 -96.5t125 -27.5zM350 66q100 0 140.5 31.5t40.5 115.5v18q0 86 -40.5 117.5t-140.5 31.5t-140 -31.5t-40 -117.5v-18q0 -84 40 -115.5t140 -31.5z" />
    <glyph glyph-name="nine" unicode="9" 
d="M351 385q90 0 135 40.5t45 124.5v13q0 84 -45 125.5t-135 41.5t-134.5 -40.5t-44.5 -126.5v-13q0 -84 44.5 -124.5t134.5 -40.5zM348 -10q-118 0 -176.5 42t-77.5 136l94 23q15 -69 49 -95t111 -26q96 0 139.5 49.5t43.5 160.5v99h-22q-29 -41 -75 -59.5t-109 -18.5
q-119 0 -179.5 67.5t-60.5 169.5v22q0 120 69 185t196 65q140 0 203 -79t63 -207v-243q0 -129 -64 -210t-204 -81z" />
    <glyph glyph-name="colon" unicode=":" 
d="M351 391q-49 0 -78.5 19t-29.5 62v46q0 43 29.5 63t78.5 20t78.5 -20t29.5 -63v-46q0 -43 -30.5 -62t-77.5 -19zM351 -11q-49 0 -78.5 19t-29.5 62v46q0 43 29.5 63t78.5 20t78.5 -20t29.5 -63v-46q0 -43 -30.5 -62t-77.5 -19z" />
    <glyph glyph-name="semicolon" unicode=";" 
d="M351 391q-49 0 -78.5 19t-29.5 62v46q0 43 29.5 63t78.5 20t78.5 -20t29.5 -63v-46q0 -43 -30.5 -62t-77.5 -19zM201 -214l94 398h190l-204 -398h-80z" />
    <glyph glyph-name="less" unicode="&#x3c;" 
d="M599 24l-497 286v80l497 286v-83l-423 -243l423 -243v-83z" />
    <glyph glyph-name="equal" unicode="=" 
d="M72 442v88h557v-88h-557zM72 170v88h557v-88h-557z" />
    <glyph glyph-name="greater" unicode="&#x3e;" 
d="M102 24v85l419 241l-419 241v85l497 -286v-80z" />
    <glyph glyph-name="question" unicode="?" 
d="M278 323l-20 71q178 28 237.5 63t59.5 95v32q0 61 -38.5 103.5t-166.5 42.5q-137 0 -172.5 -40.5t-42.5 -140.5l-85 10q7 142 69.5 196.5t229.5 54.5q168 0 229.5 -61.5t61.5 -151.5v-49q0 -107 -89 -151.5t-273 -73.5zM306 -10q-47 0 -68 20.5t-21 63.5v28q0 44 21 65
t68 21q46 0 67.5 -21t21.5 -65v-28q0 -43 -22 -63.5t-67 -20.5z" />
    <glyph glyph-name="at" unicode="@" 
d="M410 -110q-157 0 -234 85t-77 226v310q0 136 64.5 217.5t195.5 81.5q116 0 179 -79.5t63 -209.5v-254q-7 -81 -46.5 -120t-115.5 -39q-84 0 -123.5 44.5t-39.5 125.5v130q0 79 40.5 126.5t98.5 47.5q30 0 48 -16t28 -35h30q-2 99 -42.5 155t-120.5 56q-99 0 -141 -60.5
t-42 -170.5v-312q0 -115 54 -177.5t181 -62.5q51 0 96 6t83 18v-69q-37 -10 -85 -17t-94 -7zM439 182q41 0 64 19t23 79v120q0 57 -24.5 82.5t-62.5 25.5q-42 0 -65 -25t-23 -85v-110q0 -57 22.5 -81.5t65.5 -24.5z" />
    <glyph glyph-name="A" unicode="A" 
d="M464 318l-116 376l-115 -376h231zM563 0l-74 240h-280l-74 -240h-90l264 800h84l264 -800h-94z" />
    <glyph glyph-name="B" unicode="B" 
d="M108 0v800h238q123 0 182 -46t59 -142v-47q0 -48 -29.5 -83.5t-78.5 -43.5v-29q65 -6 103 -50t38 -113v-43q0 -103 -65 -153t-201 -50h-246zM193 456h167q75 0 109.5 28.5t34.5 91.5v24q0 63 -34.5 91.5t-109.5 28.5h-167v-264zM193 80h191q78 0 114.5 32t36.5 102v28
q0 70 -36.5 102t-114.5 32h-191v-296z" />
    <glyph glyph-name="C" unicode="C" 
d="M360 -10q-138 0 -206.5 73t-68.5 220v230q0 149 68.5 223t207.5 74q135 0 200.5 -64t74.5 -203l-85 -10q-10 111 -52 155t-139 44q-105 0 -147.5 -48t-42.5 -167v-238q0 -116 42.5 -163.5t147.5 -47.5q99 0 140 43t51 152l85 -10q-9 -137 -74.5 -200t-201.5 -63z" />
    <glyph glyph-name="D" unicode="D" 
d="M108 0v800h209q140 0 219.5 -79.5t79.5 -211.5v-222q0 -131 -80 -209t-220 -78h-208zM193 78h126q106 0 159 58.5t53 146.5v230q0 87 -53 148t-159 61h-126v-644z" />
    <glyph glyph-name="E" unicode="E" 
d="M108 0v800h508v-78h-423v-246h373v-78h-373v-320h423v-78h-508z" />
    <glyph glyph-name="F" unicode="F" 
d="M100 0v800h513v-78h-428v-332h358v-78h-358v-312h-85z" />
    <glyph glyph-name="G" unicode="G" 
d="M373 -10q-139 0 -213.5 75t-74.5 214v238q0 140 72 216.5t206 76.5q119 0 182 -61.5t71 -189.5l-85 -10q-9 99 -48 141t-122 42q-103 0 -147 -49t-44 -162v-246q0 -111 47 -159t156 -48q97 0 138.5 56t42.5 186h-204v78h289v-97q0 -144 -69 -222.5t-197 -78.5z" />
    <glyph glyph-name="H" unicode="H" 
d="M108 0v800h85v-328h315v328h85v-800h-85v394h-315v-394h-85z" />
    <glyph glyph-name="I" unicode="I" 
d="M108 0v78h200v644h-200v78h485v-78h-200v-644h200v-78h-485z" />
    <glyph glyph-name="J" unicode="J" 
d="M328 -10q-128 0 -192.5 64.5t-70.5 196.5l85 11q7 -115 43.5 -154.5t135.5 -39.5q91 0 136.5 48t45.5 141v465h-196v78h281v-540q0 -132 -69.5 -201t-198.5 -69z" />
    <glyph glyph-name="K" unicode="K" 
d="M193 389v-389h-85v800h85v-333h33l326 333h103l-361 -368l358 -432h-108l-315 389h-36z" />
    <glyph glyph-name="L" unicode="L" 
d="M158 0v800h85v-722h350v-78h-435z" />
    <glyph glyph-name="M" unicode="M" 
d="M304 190l-149 473l-3 -663h-77v800h127l151 -502l150 502h123v-800h-78l-3 667l-149 -477h-92z" />
    <glyph glyph-name="N" unicode="N" 
d="M463 0l-277 700v-700h-78v800h125l282 -713v713h78v-800h-130z" />
    <glyph glyph-name="O" unicode="O" 
d="M350 -10q-130 0 -197.5 74.5t-67.5 218.5v230q0 146 68 221.5t198 75.5q129 0 197 -75.5t68 -221.5v-230q0 -144 -68 -218.5t-198 -74.5zM350 68q98 0 139.5 48.5t41.5 162.5v238q0 117 -41.5 166t-139.5 49t-139 -49t-41 -166v-238q0 -114 41 -162.5t139 -48.5z" />
    <glyph glyph-name="P" unicode="P" 
d="M108 0v800h276q124 0 183.5 -52t59.5 -155v-96q0 -104 -60 -156.5t-184 -52.5h-190v-288h-85zM193 364h192q86 0 121.5 30.5t35.5 101.5v94q0 71 -35.5 101.5t-121.5 30.5h-192v-358z" />
    <glyph glyph-name="Q" unicode="Q" 
d="M656 -187q-142 -33 -221 11.5t-83 157.5q-132 0 -199.5 74.5t-67.5 220.5v236q0 148 67.5 222.5t198.5 74.5t198 -74.5t67 -222.5v-236q0 -116 -43.5 -187t-127.5 -95q1 -73 49.5 -99t147.5 -7zM350 76q98 0 139.5 45t41.5 152v244q0 110 -41.5 156.5t-139.5 46.5
t-139 -46.5t-41 -156.5v-244q0 -107 41 -152t139 -45z" />
    <glyph glyph-name="R" unicode="R" 
d="M193 392h215q85 0 121 31.5t36 106.5v63q0 70 -36 99.5t-121 29.5h-215v-330zM193 0h-85v800h296q124 0 186 -51.5t62 -157.5v-60q0 -99 -51 -153t-154 -62l211 -316h-100l-210 316h-155v-316z" />
    <glyph glyph-name="S" unicode="S" 
d="M366 -5q-88 0 -167 30t-142 116l76 51q40 -60 98 -89.5t138 -29.5q76 0 124.5 37t48.5 100q0 59 -40 92.5t-159 70.5q-147 44 -200 92t-53 136q0 103 69 152.5t161 49.5q85 0 161 -30t136 -116l-74 -54q-37 63 -98 92.5t-123 29.5q-65 0 -105.5 -27t-40.5 -91
q0 -56 44 -88.5t170 -70.5q138 -42 187.5 -88t49.5 -132q0 -115 -81 -174t-180 -59z" />
    <glyph glyph-name="T" unicode="T" 
d="M308 0v722h-255v78h594v-78h-254v-722h-85z" />
    <glyph glyph-name="U" unicode="U" 
d="M350 -10q-121 0 -181.5 72t-60.5 215v523h85v-525q0 -113 35.5 -161t121.5 -48t122 48t36 161v525h85v-523q0 -143 -61 -215t-182 -72z" />
    <glyph glyph-name="V" unicode="V" 
d="M391 0h-81l-265 800h94l213 -673l212 673h93z" />
    <glyph glyph-name="W" unicode="W" 
d="M476 0l-127 498l-125 -498h-89l-109 800h89l77 -663l111 463h100l111 -466l77 666h83l-109 -800h-89z" />
    <glyph glyph-name="X" unicode="X" 
d="M577 0l-225 344l-227 -344h-106l286 407l-261 393h102l215 -330l217 330h105l-275 -392l272 -408h-103z" />
    <glyph glyph-name="Y" unicode="Y" 
d="M393 0h-85v300l-294 500h99l244 -420l231 420h97l-292 -500v-300z" />
    <glyph glyph-name="Z" unicode="Z" 
d="M616 0h-531v78l424 644h-424v78h531v-78l-426 -644h426v-78z" />
    <glyph glyph-name="bracketleft" unicode="[" 
d="M208 -200v1000h335v-80h-250v-854h250v-66h-335z" />
    <glyph glyph-name="backslash" unicode="\" 
d="M505 -200l-400 1000h91l400 -1000h-91z" />
    <glyph glyph-name="bracketright" unicode="]" 
d="M158 -200v66h250v854h-250v80h335v-1000h-335z" />
    <glyph glyph-name="asciicircum" unicode="^" 
d="M577 200l-226 522l-216 -522h-80l253 600h85l264 -600h-80z" />
    <glyph glyph-name="underscore" unicode="_" 
d="M72 -200v86h557v-86h-557z" />
    <glyph glyph-name="grave" unicode="`" 
d="M395 410l-221 390h186l113 -390h-78z" />
    <glyph glyph-name="a" unicode="a" 
d="M277 69q55 0 101.5 21t79.5 73v96h-189q-46 0 -76 -20.5t-30 -71.5q0 -46 25.5 -72t88.5 -26zM270 -10q-74 0 -134.5 39.5t-60.5 130.5q0 78 50 123.5t114 45.5h219v89q0 49 -33.5 80t-102.5 31t-103 -20t-55 -91l-77 24q16 81 76 124.5t156 43.5q93 0 159 -43t66 -135
v-278q0 -57 31 -71.5t94 -3.5v-84q-59 -7 -114 10t-58 97h-18q-28 -48 -84 -80t-125 -32z" />
    <glyph glyph-name="b" unicode="b" 
d="M342 -11q-59 0 -121 18t-115 51v742h85v-298h30q27 51 73 79.5t101 28.5q95 0 147 -61t52 -173v-157q0 -109 -66.5 -169.5t-185.5 -60.5zM339 67q87 0 128.5 38.5t41.5 115.5v162q0 72 -31.5 107.5t-95.5 35.5q-52 0 -99 -28.5t-92 -87.5v-302q34 -21 70 -31t78 -10z" />
    <glyph glyph-name="c" unicode="c" 
d="M365 -10q-128 0 -193.5 57t-65.5 168v164q0 115 65 173t193 58q112 0 174 -50.5t69 -151.5l-84 -4q-4 63 -43.5 94.5t-115.5 31.5q-87 0 -130 -36.5t-43 -111.5v-169q0 -72 43.5 -107.5t131.5 -35.5q75 0 114.5 26.5t42.5 79.5l84 -4q-7 -90 -69.5 -136t-172.5 -46z" />
    <glyph glyph-name="d" unicode="d" 
d="M319 74q51 0 98 28.5t92 87.5v302q-32 22 -68.5 31.5t-79.5 9.5q-87 0 -128.5 -38t-41.5 -116v-163q0 -72 31.5 -107t96.5 -35zM479 98q-27 -51 -72 -79.5t-102 -28.5q-94 0 -146.5 60t-52.5 174v157q0 110 68 170t192 60q34 0 71.5 -8t71.5 -21v218h85v-800h-85v98h-30z
" />
    <glyph glyph-name="e" unicode="e" 
d="M594 130q-25 -73 -78.5 -106.5t-164.5 -33.5q-118 0 -181.5 57.5t-63.5 170.5v161q0 117 68.5 174t176.5 57q109 0 176 -58t67 -181v-87h-403v-65q0 -82 39.5 -117t118.5 -35q77 0 109.5 21.5t48.5 66.5zM191 375v-21h318v12q0 87 -40.5 126.5t-118.5 39.5t-118.5 -38.5
t-40.5 -118.5z" />
    <glyph glyph-name="f" unicode="f" 
d="M255 0v520h-172v80h172v42q0 78 62 120t152 42q47 0 82.5 -8.5t63.5 -17.5l-20 -76q-21 7 -52.5 13.5t-77.5 6.5q-57 0 -91 -17.5t-34 -58.5v-46h254v-80h-254v-520h-85z" />
    <glyph glyph-name="g" unicode="g" 
d="M647 -52q0 -81 -59 -119.5t-142 -38.5h-190q-86 0 -144.5 35t-58.5 113q0 48 25 76t74 32v21q-35 4 -57 27.5t-22 71.5q0 40 25 74.5t90 39.5v19q-48 16 -63.5 49.5t-15.5 60.5v32q0 68 57.5 113.5t166.5 45.5h285v-86l-153 24v-18q40 -11 60 -42t20 -62v-31
q0 -67 -50.5 -110.5t-172.5 -43.5h-126q-26 0 -39.5 -14t-13.5 -47t19.5 -49t59.5 -16h235q81 0 135.5 -36.5t54.5 -120.5zM329 304q64 0 98.5 23t34.5 74v28q0 51 -34 74t-99 23q-64 0 -98 -23t-34 -74v-28q0 -51 34 -74t98 -23zM253 -136h208q47 0 76 19t29 62
q0 42 -26 60.5t-67 18.5h-333v-73q0 -44 29 -65.5t84 -21.5z" />
    <glyph glyph-name="h" unicode="h" 
d="M106 0v800h85v-298h30q21 49 68 78.5t107 29.5q92 0 145 -56t53 -153v-401h-85v387q0 68 -32.5 103.5t-94.5 35.5q-47 0 -96 -27.5t-95 -81.5v-417h-85z" />
    <glyph glyph-name="i" unicode="i" 
d="M105 0v80h203v440h-203v80h288v-520h203v-80h-491zM348 714q-35 0 -57 11t-22 42v6q0 31 22 43t57 12t57 -12t22 -43v-6q0 -31 -22.5 -42t-56.5 -11z" />
    <glyph glyph-name="j" unicode="j" 
d="M261 -208q-37 0 -73 4.5t-79 17.5l20 90q37 -13 68.5 -17.5t63.5 -4.5q66 0 107 28.5t41 94.5v515h-285v80h370v-607q0 -104 -68 -152.5t-165 -48.5zM450 714q-35 0 -57 11t-22 42v6q0 31 22 43t57 12t57 -12t22 -43v-6q0 -31 -22.5 -42t-56.5 -11z" />
    <glyph glyph-name="k" unicode="k" 
d="M247 279v-279h-85v800h85v-447h53l198 247h110l-243 -281l240 -319h-100l-205 279h-53z" />
    <glyph glyph-name="l" unicode="l" 
d="M103 0v80h202v640h-202v80h287v-720h203v-80h-490z" />
    <glyph glyph-name="m" unicode="m" 
d="M145 431v-431h-82v600h82v-80h19q19 42 50.5 66.5t65.5 24.5q40 0 67 -24t37 -67h21q19 42 51.5 66.5t69.5 24.5q51 0 81 -41t30 -112v-458h-82v446q0 49 -13 74.5t-38 25.5q-20 0 -50.5 -31t-62.5 -84v-431h-82v446q0 49 -13.5 74.5t-38.5 25.5q-21 0 -49.5 -29
t-62.5 -86z" />
    <glyph glyph-name="n" unicode="n" 
d="M106 0v600h85v-98h30q22 49 68.5 78.5t104.5 29.5q92 0 146 -56.5t54 -153.5v-400h-85v383q0 70 -32.5 106.5t-94.5 36.5q-47 0 -95.5 -29t-95.5 -84v-413h-85z" />
    <glyph glyph-name="o" unicode="o" 
d="M350 -10q-119 0 -181.5 58.5t-62.5 168.5v162q0 112 63 171.5t182 59.5q118 0 180.5 -59.5t62.5 -170.5v-162q0 -111 -62.5 -169.5t-181.5 -58.5zM350 70q81 0 120 36t39 109v166q0 75 -39 112t-120 37t-120 -37t-39 -113v-166q0 -72 39 -108t120 -36z" />
    <glyph glyph-name="p" unicode="p" 
d="M339 67q90 0 130 36.5t40 117.5v164q0 75 -30 108t-97 33q-54 0 -99.5 -27.5t-91.5 -88.5v-303q31 -20 67 -30t81 -10zM335 -11q-34 0 -72 8t-72 21v-218h-85v800h85v-98h30q26 50 73 79t101 29q93 0 146 -63t53 -171v-157q0 -107 -69.5 -168.5t-189.5 -61.5z" />
    <glyph glyph-name="q" unicode="q" 
d="M509 -200v298h-30q-28 -55 -73 -81.5t-101 -26.5q-96 0 -147.5 59t-51.5 175v157q0 112 73.5 171t178.5 59q66 0 124.5 -16t111.5 -47v-748h-85zM319 74q51 0 97.5 28t92.5 88v302q-36 22 -72.5 31.5t-75.5 9.5q-70 0 -120 -38t-50 -116v-151q0 -79 31 -116.5t97 -37.5z
" />
    <glyph glyph-name="r" unicode="r" 
d="M161 0v600h85v-98h30q20 56 62.5 82t102.5 26q66 0 111.5 -44.5t45.5 -125.5v-86h-82v54q0 61 -27 89.5t-81 28.5q-49 0 -88.5 -24.5t-73.5 -75.5v-426h-85z" />
    <glyph glyph-name="s" unicode="s" 
d="M359 -11q-75 0 -145.5 23t-130.5 72l45 71q48 -40 107 -61t123 -21q54 0 105.5 16.5t51.5 73.5q0 45 -41 63.5t-154 33.5q-108 13 -162.5 52t-54.5 121q0 89 68 133t152 44q72 0 137.5 -25.5t121.5 -71.5l-46 -73q-44 38 -98.5 62t-115.5 24q-49 0 -92 -19t-43 -71
q0 -43 37.5 -63t147.5 -33q113 -13 170 -55.5t57 -117.5q0 -95 -76.5 -136.5t-163.5 -41.5z" />
    <glyph glyph-name="t" unicode="t" 
d="M447 -9q-96 0 -148.5 47t-52.5 148v334h-174v80h174v200h85v-200h266v-80h-266v-328q0 -59 29.5 -87.5t89.5 -28.5q40 0 73.5 6t62.5 14l20 -82q-36 -10 -73.5 -16.5t-85.5 -6.5z" />
    <glyph glyph-name="u" unicode="u" 
d="M304 -10q-90 0 -144 58.5t-54 151.5v400h85v-387q0 -72 30.5 -105.5t96.5 -33.5q49 0 95.5 26t95.5 83v417h85v-600h-85v98h-30q-20 -46 -67.5 -77t-107.5 -31z" />
    <glyph glyph-name="v" unicode="v" 
d="M402 0h-104l-219 600h97l174 -530l176 530h95z" />
    <glyph glyph-name="w" unicode="w" 
d="M440 0l-90 412l-85 -412h-105l-116 600h85l80 -549l80 451h118l87 -434l77 532h86l-116 -600h-101z" />
    <glyph glyph-name="x" unicode="x" 
d="M505 0l-161 239l-154 -239h-98l209 300l-203 300h99l155 -233l161 233h98l-215 -295l207 -305h-98z" />
    <glyph glyph-name="y" unicode="y" 
d="M169 -205q-22 0 -43 3t-42 8l18 79q24 -6 44.5 -8.5t38.5 -2.5q44 0 81 26.5t56 81.5l4 10h-24l-220 608h94l177 -530l173 530h92l-226 -627q-34 -91 -91 -134.5t-132 -43.5z" />
    <glyph glyph-name="z" unicode="z" 
d="M573 0h-445v80l334 440h-334v80h445v-80l-335 -440h335v-80z" />
    <glyph glyph-name="braceleft" unicode="{" 
d="M543 -210q-202 -4 -293.5 39t-91.5 127q0 51 21.5 86t43.5 59t43.5 46t21.5 50q0 47 -50.5 66.5t-179.5 22.5v52q129 3 179.5 22t50.5 65q0 27 -21.5 45t-44.5 39q-22 21 -43 53.5t-21 85.5q0 82 91.5 124t293.5 38v-80q-169 3 -234.5 -19t-65.5 -71q0 -20 14.5 -42
t51.5 -57q36 -35 50 -59t14 -52q0 -55 -47.5 -84t-129.5 -33v-5q82 -10 129.5 -43t47.5 -92q0 -22 -15.5 -46t-53.5 -61q-35 -31 -48 -53t-13 -50q0 -51 65.5 -74.5t234.5 -20.5v-78z" />
    <glyph glyph-name="bar" unicode="|" 
d="M310 -200v1000h80v-1000h-80z" />
    <glyph glyph-name="braceright" unicode="}" 
d="M543 -44q0 -84 -92 -127t-293 -39v78q169 -3 234.5 20.5t65.5 74.5q0 28 -13.5 50t-48.5 53q-38 37 -53 61t-15 46q0 59 47 92t130 43v5q-83 4 -130 33t-47 84q0 28 14 52t49 59q38 35 52.5 57t14.5 42q0 49 -65.5 71t-234.5 19v80q201 4 293 -38t92 -124
q0 -53 -21.5 -85.5t-43.5 -53.5q-23 -21 -44 -39t-21 -45q0 -46 50 -65t180 -22v-52q-130 -3 -180 -22.5t-50 -66.5q0 -28 21 -50t43 -46t44 -59t22 -86z" />
    <glyph glyph-name="asciitilde" unicode="~" 
d="M481 212q-57 0 -93.5 34t-75.5 130q-31 77 -50.5 100t-47.5 23t-47.5 -25.5t-19.5 -88.5v-163h-85v169q0 96 46 146.5t110 50.5q60 0 96.5 -34.5t76.5 -133.5q29 -74 48 -96.5t48 -22.5q28 0 48 27.5t20 95.5v158h85v-165q0 -99 -46 -152t-113 -53z" />
    <glyph glyph-name="exclamdown" unicode="&#xa1;" 
d="M350 810q47 0 68.5 -20.5t21.5 -63.5v-28q0 -44 -21.5 -65t-68.5 -21q-46 0 -67 21t-21 65v28q0 43 21.5 63.5t66.5 20.5zM383 500l30 -500h-125l30 500h65z" />
    <glyph glyph-name="cent" unicode="&#xa2;" 
d="M194 313q0 -69 34 -102t106 -39v456q-72 -5 -106 -38.5t-34 -102.5v-174zM325 -50v142q-118 8 -167.5 68t-49.5 167v150q0 104 49.5 164t167.5 67v142h74v-141q102 -6 152 -58t56 -155l-80 -4q-4 76 -36 105t-102 31v-455q69 1 101.5 27t36.5 98l80 -4q-7 -99 -57.5 -148
t-150.5 -55v-141h-74z" />
    <glyph glyph-name="sterling" unicode="&#xa3;" 
d="M634 205q-7 -105 -61 -160t-147 -55q-35 0 -68 19t-64 33q-32 13 -58.5 20t-53.5 -11l-92 -60l-54 65l79 47q36 22 62 75.5t26 104.5q0 34 -7 60t-17 48h-137v88h87q-13 24 -20.5 54t-7.5 72q0 92 60.5 148.5t176.5 56.5q123 0 185.5 -49t69.5 -160l-88 -10
q-7 83 -44.5 113t-122.5 30q-79 0 -113.5 -31t-34.5 -100q0 -39 11.5 -68.5t27.5 -55.5h211v-88h-164q8 -22 13 -46.5t5 -53.5q0 -34 -14 -78t-71 -88l10 -13q28 19 54 15.5t54 -13.5q29 -10 56 -25t58 -15q52 0 75 29.5t30 111.5z" />
    <glyph glyph-name="currency" unicode="&#xa4;" 
d="M350 168q63 0 95.5 34.5t32.5 114.5v162q0 78 -32.5 115.5t-95.5 37.5t-95 -37.5t-32 -115.5v-162q0 -80 32 -114.5t95 -34.5zM350 90q-49 0 -89.5 14.5t-68.5 43.5l-86 -88l-60 59l101 104q-5 20 -8.5 43.5t-3.5 50.5v162q0 28 3.5 52t9.5 45l-102 105l60 59l87 -89
q28 30 68.5 44.5t89.5 14.5t89.5 -15t68.5 -45l86 85l60 -59l-102 -102q6 -20 9.5 -44t3.5 -51v-162q0 -27 -3.5 -50.5t-10.5 -42.5l103 -100l-60 -59l-84 84q-29 -30 -70 -44.5t-91 -14.5z" />
    <glyph glyph-name="yen" unicode="&#xa5;" 
d="M593 100h-200v-100h-85v100h-200v88h200v112h-200v88h148l-243 412h95l242 -447l242 447h95l-243 -412h149v-88h-200v-112h200v-88z" />
    <glyph glyph-name="brokenbar" unicode="&#xa6;" 
d="M310 400v400h80v-400h-80zM310 -200v400h80v-400h-80z" />
    <glyph glyph-name="section" unicode="&#xa7;" 
d="M340 196l18 -4l18 -4q53 1 95 25t42 83q0 53 -44 72.5t-104 32.5l-18 4l-18 4q-53 -1 -94.5 -25t-41.5 -83q0 -53 43.5 -72.5t103.5 -32.5zM368 -207q-68 0 -130.5 24t-108.5 70l50 69q49 -44 93.5 -64.5t100.5 -20.5q58 0 101.5 23t43.5 78q0 69 -57.5 96.5t-132.5 43.5
q-105 21 -162.5 60t-57.5 121q0 58 35 94t89 52q-60 26 -92 67t-32 104q0 107 72.5 150.5t156.5 43.5q68 0 131 -24t109 -70l-49 -71q-49 45 -94 66t-102 21q-60 0 -102.5 -26t-42.5 -73q0 -70 56.5 -98t125.5 -42q111 -22 170 -61.5t59 -121.5q0 -57 -37 -92.5t-92 -50.5
q62 -27 95.5 -68t33.5 -106q0 -101 -68.5 -147.5t-161.5 -46.5z" />
    <glyph glyph-name="dieresis" unicode="&#xa8;" 
d="M237 714q-27 0 -43.5 11t-16.5 42v6q0 31 16.5 43t43.5 12t43.5 -12t16.5 -43v-6q0 -31 -17 -42t-43 -11zM463 714q-27 0 -43.5 11t-16.5 42v6q0 31 16.5 43t43.5 12t43.5 -12t16.5 -43v-6q0 -31 -17 -42t-43 -11z" />
    <glyph glyph-name="copyright" unicode="&#xa9;" 
d="M350 -110q-174 0 -252 96t-78 271v222q0 176 79 273.5t252 97.5q174 0 251.5 -97.5t77.5 -273.5v-222q0 -175 -78 -271t-252 -96zM350 -45q137 0 198.5 71t61.5 226v231q0 158 -61.5 230t-198.5 72t-198.5 -72.5t-61.5 -230.5v-229q0 -156 61.5 -227t198.5 -71zM359 106
q-81 0 -115.5 47t-34.5 135v167q0 87 35 133t114 46q68 0 99.5 -41t36.5 -127l-75 -6q-4 59 -17 79t-45 20q-34 0 -50 -21.5t-16 -72.5v-190q0 -50 16.5 -72t51.5 -22q31 0 43.5 17.5t16.5 72.5l75 -6q-5 -82 -36.5 -120.5t-98.5 -38.5z" />
    <glyph glyph-name="ordfeminine" unicode="&#xaa;" 
d="M290 397q40 0 73 18.5t59 61.5v50h-139q-39 0 -64.5 -14t-25.5 -49q0 -33 22 -50t75 -17zM273 329q-62 0 -108.5 31t-46.5 100q0 59 42 94t96 35h166v59q0 40 -25.5 68t-79.5 28t-81.5 -15t-43.5 -71l-63 21q13 62 57 96.5t128 34.5q76 0 128.5 -37.5t52.5 -112.5v-194
q0 -48 20 -58t74 -4v-72q-55 -2 -94 11.5t-40 82.5h-15q-23 -41 -66.5 -69t-100.5 -28z" />
    <glyph glyph-name="guillemotleft" unicode="&#xab;" 
d="M624 115l-254 194v80l254 194v-79l-200 -155l200 -155v-79zM332 115l-254 194v80l254 194v-79l-201 -155l201 -155v-79z" />
    <glyph glyph-name="logicalnot" unicode="&#xac;" 
d="M538 0v306h-466v88h557v-394h-91z" />
    <glyph glyph-name="registered" unicode="&#xae;" 
d="M350 142q-146 0 -211.5 75.5t-65.5 195.5v173q0 122 66 198t212 76t211 -76t65 -198v-173q0 -120 -65.5 -195.5t-211.5 -75.5zM350 198q111 0 163.5 55.5t52.5 171.5v149q0 119 -52.5 175t-163.5 56t-163.5 -56t-52.5 -175v-149q0 -116 52.5 -171.5t163.5 -55.5zM293 500
h68q26 0 36.5 10.5t10.5 32.5v27q0 28 -10.5 40.5t-36.5 12.5h-68v-123zM293 331h-54v346h119q51 0 78.5 -27.5t27.5 -79.5v-27q0 -37 -16.5 -61t-47.5 -33l66 -118h-63l-65 113h-45v-113z" />
    <glyph glyph-name="macron" unicode="&#x2c9;" 
d="M154 761v78h392v-78h-392z" />
    <glyph glyph-name="macron" unicode="&#xaf;" 
d="M154 761v78h392v-78h-392z" />
    <glyph glyph-name="degree" unicode="&#xb0;" 
d="M350 352q-87 0 -141 44.5t-54 137.5v87q0 93 54 139t141 46q89 0 142.5 -46t53.5 -139v-87q0 -93 -54.5 -137.5t-141.5 -44.5zM350 431q54 0 82 22.5t28 76.5v95q0 52 -28 77t-82 25q-55 0 -82 -25t-27 -77v-95q0 -54 27 -76.5t82 -22.5z" />
    <glyph glyph-name="plusminus" unicode="&#xb1;" 
d="M305 142v264h-233v88h233v264h91v-264h233v-88h-233v-264h-91zM72 1v88h557v-88h-557z" />
    <glyph glyph-name="two.sups" unicode="&#xb2;" 
d="M155 304v101q0 55 27 94.5t90 52.5l122 25q35 7 50 23t15 47v22q0 32 -21 52.5t-88 20.5t-85 -23t-22 -75l-82 7q4 77 44.5 116t144.5 39t147 -36t43 -96v-37q0 -57 -31.5 -85.5t-82.5 -38.5l-122 -25q-30 -5 -48.5 -21t-18.5 -61v-36h310v-66h-392z" />
    <glyph glyph-name="three.sups" unicode="&#xb3;" 
d="M347 298q-109 0 -151.5 35.5t-46.5 107.5l81 6q5 -46 24.5 -65.5t92.5 -19.5q72 0 95 20.5t23 57.5v16q0 39 -23 58t-92 19h-77v65h77q57 0 80 11.5t23 45.5v23q0 36 -30 50t-79 14q-51 0 -74 -17.5t-27 -57.5l-82 6q5 70 47.5 101.5t135.5 31.5q81 0 135.5 -26t54.5 -99
v-18q0 -38 -26 -60t-69 -26v-18q49 -4 78.5 -33t29.5 -72v-15q0 -71 -48 -106t-152 -35z" />
    <glyph glyph-name="acute" unicode="&#xb4;" 
d="M239 700l141 200h135l-191 -200h-85z" />
    <glyph glyph-name="mu1" unicode="&#xb5;" 
d="M178 20l10 -220h-105l10 220v580h85v-410q0 -63 36.5 -90t90.5 -27q47 0 83 22t68 59v446h85v-450q0 -56 27 -68.5t79 -2.5v-84q-74 -10 -113 18t-40 91h-19q-26 -45 -72.5 -79.5t-115.5 -34.5q-31 0 -59.5 13t-49.5 38v-21z" />
    <glyph glyph-name="paragraph" unicode="&#xb6;" 
d="M502 340h-103v-540h-93v540q-91 -1 -162.5 43t-71.5 154v52q0 110 69.5 160.5t159.5 50.5h293v-1000h-92v540z" />
    <glyph glyph-name="periodcentered" unicode="&#x2219;" 
d="M351 299q-47 0 -76.5 21.5t-29.5 69.5v16q0 49 29.5 70.5t76.5 21.5q48 0 76.5 -21.5t28.5 -70.5v-16q0 -48 -29.5 -69.5t-75.5 -21.5z" />
    <glyph glyph-name="periodcentered" unicode="&#xb7;" 
d="M351 299q-47 0 -76.5 21.5t-29.5 69.5v16q0 49 29.5 70.5t76.5 21.5q48 0 76.5 -21.5t28.5 -70.5v-16q0 -48 -29.5 -69.5t-75.5 -21.5z" />
    <glyph glyph-name="cedilla" unicode="&#xb8;" 
d="M320 0l20 42q38 -8 76 -38t38 -96q0 -63 -42 -92.5t-94 -29.5q-61 0 -100 23t-43 77l76 10q2 -19 16 -26.5t46 -7.5q31 0 47 13t16 47q0 36 -13 53t-43 25z" />
    <glyph glyph-name="one.sups" unicode="&#xb9;" 
d="M205 304v66h136v327h-14q-13 -39 -48.5 -63t-80.5 -24l-6 69q48 1 93.5 29.5t57.5 91.5h80v-430h124v-66h-342z" />
    <glyph glyph-name="ordmasculine" unicode="&#xba;" 
d="M350 329q-95 0 -152 45t-57 138v109q0 95 57 142t152 47t151.5 -47t56.5 -142v-109q0 -93 -57.5 -138t-150.5 -45zM350 397q66 0 100 26t34 86v113q0 61 -34 89.5t-100 28.5t-101 -28.5t-35 -89.5v-113q0 -60 35 -86t101 -26z" />
    <glyph glyph-name="guillemotright" unicode="&#xbb;" 
d="M78 115v79l200 155l-200 155v79l254 -194v-80zM370 115v79l201 155l-201 155v79l254 -194v-80z" />
    <glyph glyph-name="onequarter" unicode="&#xbc;" 
d="M182 410v69h136v224h-14q-6 -19 -18.5 -35t-29.5 -28q-18 -12 -38.5 -18.5t-42.5 -6.5l-6 69q25 1 49 8.5t45 21.5q21 15 36 38t21 54h80v-327h124v-69h-342zM0 251v94l318 -20v-54zM396 271v54l304 20v-94zM578 -114h-93v-96h-82v96h-254v64l226 266h110v-266h93v-64z
M222 -50h181v210z" />
    <glyph glyph-name="onehalf" unicode="&#xbd;" 
d="M182 410v69h136v224h-14q-6 -19 -18.5 -35t-29.5 -28q-18 -12 -38.5 -18.5t-42.5 -6.5l-6 69q25 1 49 8.5t45 21.5q21 15 36 38t21 54h80v-327h124v-69h-342zM0 251v94l318 -20v-54zM396 271v54l304 20v-94zM155 -210v81q0 24 6.5 44t20.5 36t36.5 27.5t53.5 17.5l122 25
q18 4 30.5 8t19.5 10q8 6 11.5 13.5t3.5 18.5v22q0 13 -4.5 22.5t-16.5 16.5t-33.5 10.5t-54.5 3.5q-34 0 -54 -4.5t-31 -13.5t-15.5 -23t-6.5 -37l-82 7q2 35 12.5 60.5t31.5 42.5q22 17 57.5 25.5t87.5 8.5t88.5 -8t58.5 -22q22 -15 32.5 -36t10.5 -48v-37q0 -24 -8 -41.5
t-23 -30.5q-15 -12 -35.5 -20t-47.5 -14l-122 -25q-18 -4 -29.5 -7.5t-20.5 -11.5q-8 -7 -12.5 -20.5t-4.5 -34.5h310v-66h-392z" />
    <glyph glyph-name="threequarters" unicode="&#xbe;" 
d="M347 404q-54 0 -91 7.5t-60 22.5t-34 38t-13 55l81 6q2 -18 7 -29t17 -18t34 -10.5t59 -3.5q36 0 59 3t36 8q13 6 18 14t5 19v16q0 11 -5 19t-18 13q-13 6 -35.5 8.5t-56.5 2.5h-43v69h43q29 0 48.5 2t31.5 8q12 5 17.5 14t5.5 23v23q0 8 -7.5 14t-21.5 10
q-15 3 -34.5 4.5t-45.5 1.5t-44.5 -3t-30.5 -9t-18 -16t-8 -25l-82 6q2 32 14 53.5t34 35.5q22 13 55 19.5t80 6.5q43 0 76.5 -4.5t59.5 -14.5q25 -11 39.5 -29.5t14.5 -46.5v-18q0 -17 -6.5 -31t-19.5 -24q-12 -9 -29.5 -15t-39.5 -8v-18q25 -2 45 -8.5t34 -15.5
q14 -10 21.5 -22.5t7.5 -26.5v-15q0 -29 -12 -50t-37 -34q-24 -14 -61.5 -20.5t-89.5 -6.5zM0 251v94l318 -20v-54zM396 271v54l304 20v-94zM578 -114h-93v-96h-82v96h-254v64l226 266h110v-266h93v-64zM222 -50h181v210z" />
    <glyph glyph-name="questiondown" unicode="&#xbf;" 
d="M394 810q47 0 68 -20.5t21 -63.5v-28q0 -44 -21 -65t-68 -21q-46 0 -67.5 21t-21.5 65v28q0 43 22 63.5t67 20.5zM423 477l20 -71q-178 -28 -238 -63t-60 -95v-32q0 -61 38.5 -103.5t166.5 -42.5q137 0 172.5 40.5t42.5 140.5l85 -10q-7 -142 -69.5 -196.5t-229.5 -54.5
q-168 0 -229.5 61.5t-61.5 151.5v49q0 107 89 151.5t274 73.5z" />
    <glyph glyph-name="Agrave" unicode="&#xc0;" 
d="M464 318l-116 376l-115 -376h231zM563 0l-74 240h-280l-74 -240h-90l264 800h84l264 -800h-94zM355 900l-191 200h135l141 -200h-85z" />
    <glyph glyph-name="Aacute" unicode="&#xc1;" 
d="M464 318l-116 376l-115 -376h231zM563 0l-74 240h-280l-74 -240h-90l264 800h84l264 -800h-94zM240 900l141 200h135l-191 -200h-85z" />
    <glyph glyph-name="Acircumflex" unicode="&#xc2;" 
d="M464 318l-116 376l-115 -376h231zM563 0l-74 240h-280l-74 -240h-90l264 800h84l264 -800h-94zM182 908l-35 60l173 147h60l175 -147l-35 -60l-170 118z" />
    <glyph glyph-name="Atilde" unicode="&#xc3;" 
d="M464 318l-116 376l-115 -376h231zM563 0l-74 240h-280l-74 -240h-90l264 800h84l264 -800h-94zM427 910q-32 0 -55 19t-41 41t-34 40.5t-33 18.5q-19 0 -33.5 -19t-13.5 -79v-11h-70v15q0 73 32.5 122t94.5 49q37 0 61 -18.5t41 -40.5t31 -41t31 -19q19 0 33 19t14 79v11
h70v-15q0 -75 -32.5 -123t-95.5 -48z" />
    <glyph glyph-name="Adieresis" unicode="&#xc4;" 
d="M464 318l-116 376l-115 -376h231zM563 0l-74 240h-280l-74 -240h-90l264 800h84l264 -800h-94zM238 914q-27 0 -43.5 11t-16.5 42v6q0 31 16.5 43t43.5 12t43.5 -12t16.5 -43v-6q0 -31 -17 -42t-43 -11zM464 914q-27 0 -43.5 11t-16.5 42v6q0 31 16.5 43t43.5 12
t43.5 -12t16.5 -43v-6q0 -31 -17 -42t-43 -11z" />
    <glyph glyph-name="Aring" unicode="&#xc5;" 
d="M464 318l-116 376l-115 -376h231zM563 0l-74 240h-280l-74 -240h-90l264 800h84l264 -800h-94zM351 887q-69 0 -111 35t-42 108v32q0 74 42 110t111 36t111 -36t42 -110v-32q0 -73 -42 -108t-111 -35zM351 954q41 0 62.5 17.5t21.5 58.5v32q0 40 -21.5 59.5t-62.5 19.5
q-42 0 -63 -19.5t-21 -59.5v-32q0 -41 21 -58.5t63 -17.5z" />
    <glyph glyph-name="AE" unicode="&#xc6;" 
d="M294 732l-126 -424h197v424h-71zM365 240h-218l-71 -240h-78l250 800h444v-68h-249v-268h240v-68h-240v-328h249v-68h-327v240z" />
    <glyph glyph-name="Ccedilla" unicode="&#xc7;" 
d="M360 -10q-138 0 -206.5 73t-68.5 220v230q0 149 68.5 223t207.5 74q135 0 200.5 -64t74.5 -203l-85 -10q-10 111 -52 155t-139 44q-105 0 -147.5 -48t-42.5 -167v-238q0 -116 42.5 -163.5t147.5 -47.5q99 0 140 43t51 152l85 -10q-9 -137 -74.5 -200t-201.5 -63zM329 0
l20 42q38 -8 76 -38t38 -96q0 -63 -42 -92.5t-94 -29.5q-61 0 -100 23t-43 77l76 10q2 -19 16 -26.5t46 -7.5q31 0 47 13t16 47q0 36 -13 53t-43 25z" />
    <glyph glyph-name="Egrave" unicode="&#xc8;" 
d="M108 0v800h508v-78h-423v-246h373v-78h-373v-320h423v-78h-508zM361 900l-191 200h135l141 -200h-85z" />
    <glyph glyph-name="Eacute" unicode="&#xc9;" 
d="M108 0v800h508v-78h-423v-246h373v-78h-373v-320h423v-78h-508zM269 900l141 200h135l-191 -200h-85z" />
    <glyph glyph-name="Ecircumflex" unicode="&#xca;" 
d="M108 0v800h508v-78h-423v-246h373v-78h-373v-320h423v-78h-508zM203 908l-35 60l173 147h60l175 -147l-35 -60l-170 118z" />
    <glyph glyph-name="Edieresis" unicode="&#xcb;" 
d="M108 0v800h508v-78h-423v-246h373v-78h-373v-320h423v-78h-508zM257 914q-27 0 -43.5 11t-16.5 42v6q0 31 16.5 43t43.5 12t43.5 -12t16.5 -43v-6q0 -31 -17 -42t-43 -11zM483 914q-27 0 -43.5 11t-16.5 42v6q0 31 16.5 43t43.5 12t43.5 -12t16.5 -43v-6q0 -31 -17 -42
t-43 -11z" />
    <glyph glyph-name="Igrave" unicode="&#xcc;" 
d="M108 0v78h200v644h-200v78h485v-78h-200v-644h200v-78h-485zM354 900l-191 200h135l141 -200h-85z" />
    <glyph glyph-name="Iacute" unicode="&#xcd;" 
d="M108 0v78h200v644h-200v78h485v-78h-200v-644h200v-78h-485zM239 900l141 200h135l-191 -200h-85z" />
    <glyph glyph-name="Icircumflex" unicode="&#xce;" 
d="M108 0v78h200v644h-200v78h485v-78h-200v-644h200v-78h-485zM181 908l-35 60l173 147h60l175 -147l-35 -60l-170 118z" />
    <glyph glyph-name="Idieresis" unicode="&#xcf;" 
d="M108 0v78h200v644h-200v78h485v-78h-200v-644h200v-78h-485zM237 914q-27 0 -43.5 11t-16.5 42v6q0 31 16.5 43t43.5 12t43.5 -12t16.5 -43v-6q0 -31 -17 -42t-43 -11zM463 914q-27 0 -43.5 11t-16.5 42v6q0 31 16.5 43t43.5 12t43.5 -12t16.5 -43v-6q0 -31 -17 -42
t-43 -11z" />
    <glyph glyph-name="Eth" unicode="&#xd0;" 
d="M108 0v398h-108v84h108v318h209q140 0 219.5 -79.5t79.5 -211.5v-222q0 -131 -80 -209t-220 -78h-208zM193 78h126q106 0 159 58.5t53 146.5v230q0 87 -53 148t-159 61h-126v-240h157v-84h-157v-320z" />
    <glyph glyph-name="Ntilde" unicode="&#xd1;" 
d="M463 0l-277 700v-700h-78v800h125l282 -713v713h78v-800h-130zM449 910q-32 0 -55 19t-41 41t-34 40.5t-33 18.5q-19 0 -33.5 -19t-13.5 -79v-11h-70v15q0 73 32.5 122t94.5 49q37 0 61 -18.5t41 -40.5t31 -41t31 -19q19 0 33 19t14 79v11h70v-15q0 -75 -32.5 -123
t-95.5 -48z" />
    <glyph glyph-name="Ograve" unicode="&#xd2;" 
d="M350 -10q-130 0 -197.5 74.5t-67.5 218.5v230q0 146 68 221.5t198 75.5q129 0 197 -75.5t68 -221.5v-230q0 -144 -68 -218.5t-198 -74.5zM350 68q98 0 139.5 48.5t41.5 162.5v238q0 117 -41.5 166t-139.5 49t-139 -49t-41 -166v-238q0 -114 41 -162.5t139 -48.5zM354 900
l-191 200h135l141 -200h-85z" />
    <glyph glyph-name="Oacute" unicode="&#xd3;" 
d="M350 -10q-130 0 -197.5 74.5t-67.5 218.5v230q0 146 68 221.5t198 75.5q129 0 197 -75.5t68 -221.5v-230q0 -144 -68 -218.5t-198 -74.5zM350 68q98 0 139.5 48.5t41.5 162.5v238q0 117 -41.5 166t-139.5 49t-139 -49t-41 -166v-238q0 -114 41 -162.5t139 -48.5zM281 900
l141 200h135l-191 -200h-85z" />
    <glyph glyph-name="Ocircumflex" unicode="&#xd4;" 
d="M350 -10q-130 0 -197.5 74.5t-67.5 218.5v230q0 146 68 221.5t198 75.5q129 0 197 -75.5t68 -221.5v-230q0 -144 -68 -218.5t-198 -74.5zM350 68q98 0 139.5 48.5t41.5 162.5v238q0 117 -41.5 166t-139.5 49t-139 -49t-41 -166v-238q0 -114 41 -162.5t139 -48.5zM181 908
l-35 60l173 147h60l175 -147l-35 -60l-170 118z" />
    <glyph glyph-name="Otilde" unicode="&#xd5;" 
d="M350 -10q-130 0 -197.5 74.5t-67.5 218.5v230q0 146 68 221.5t198 75.5q129 0 197 -75.5t68 -221.5v-230q0 -144 -68 -218.5t-198 -74.5zM350 68q98 0 139.5 48.5t41.5 162.5v238q0 117 -41.5 166t-139.5 49t-139 -49t-41 -166v-238q0 -114 41 -162.5t139 -48.5zM426 910
q-32 0 -55 19t-41 41t-34 40.5t-33 18.5q-19 0 -33.5 -19t-13.5 -79v-11h-70v15q0 73 32.5 122t94.5 49q37 0 61 -18.5t41 -40.5t31 -41t31 -19q19 0 33 19t14 79v11h70v-15q0 -75 -32.5 -123t-95.5 -48z" />
    <glyph glyph-name="Odieresis" unicode="&#xd6;" 
d="M350 -10q-130 0 -197.5 74.5t-67.5 218.5v230q0 146 68 221.5t198 75.5q129 0 197 -75.5t68 -221.5v-230q0 -144 -68 -218.5t-198 -74.5zM350 68q98 0 139.5 48.5t41.5 162.5v238q0 117 -41.5 166t-139.5 49t-139 -49t-41 -166v-238q0 -114 41 -162.5t139 -48.5zM237 914
q-27 0 -43.5 11t-16.5 42v6q0 31 16.5 43t43.5 12t43.5 -12t16.5 -43v-6q0 -31 -17 -42t-43 -11zM463 914q-27 0 -43.5 11t-16.5 42v6q0 31 16.5 43t43.5 12t43.5 -12t16.5 -43v-6q0 -31 -17 -42t-43 -11z" />
    <glyph glyph-name="multiply" unicode="&#xd7;" 
d="M128 49l-57 55l222 246l-222 246l57 55l222 -246l222 240l57 -55l-222 -240l222 -240l-57 -55l-222 240z" />
    <glyph glyph-name="Oslash" unicode="&#xd8;" 
d="M197 132l232 590q-16 5 -36 7.5t-43 2.5q-96 0 -136.5 -47.5t-40.5 -163.5v-246q0 -46 5.5 -81.5t18.5 -61.5zM350 68q96 0 137 47t41 160v246q0 60 -9.5 102t-28.5 69l-238 -607q19 -8 43.5 -12.5t54.5 -4.5zM350 -10q-34 0 -64.5 5.5t-55.5 15.5l-44 -111h-94l63 161
q-34 36 -52 91t-18 127v238q0 144 68 218.5t198 74.5q28 0 52.5 -3.5t46.5 -10.5l42 104h94l-59 -145q44 -36 66.5 -96t22.5 -142v-238q0 -141 -68.5 -215t-197.5 -74z" />
    <glyph glyph-name="Ugrave" unicode="&#xd9;" 
d="M350 -10q-121 0 -181.5 72t-60.5 215v523h85v-525q0 -113 35.5 -161t121.5 -48t122 48t36 161v525h85v-523q0 -143 -61 -215t-182 -72zM354 900l-191 200h135l141 -200h-85z" />
    <glyph glyph-name="Uacute" unicode="&#xda;" 
d="M350 -10q-121 0 -181.5 72t-60.5 215v523h85v-525q0 -113 35.5 -161t121.5 -48t122 48t36 161v525h85v-523q0 -143 -61 -215t-182 -72zM239 900l141 200h135l-191 -200h-85z" />
    <glyph glyph-name="Ucircumflex" unicode="&#xdb;" 
d="M350 -10q-121 0 -181.5 72t-60.5 215v523h85v-525q0 -113 35.5 -161t121.5 -48t122 48t36 161v525h85v-523q0 -143 -61 -215t-182 -72zM181 908l-35 60l173 147h60l175 -147l-35 -60l-170 118z" />
    <glyph glyph-name="Udieresis" unicode="&#xdc;" 
d="M350 -10q-121 0 -181.5 72t-60.5 215v523h85v-525q0 -113 35.5 -161t121.5 -48t122 48t36 161v525h85v-523q0 -143 -61 -215t-182 -72zM237 914q-27 0 -43.5 11t-16.5 42v6q0 31 16.5 43t43.5 12t43.5 -12t16.5 -43v-6q0 -31 -17 -42t-43 -11zM463 914q-27 0 -43.5 11
t-16.5 42v6q0 31 16.5 43t43.5 12t43.5 -12t16.5 -43v-6q0 -31 -17 -42t-43 -11z" />
    <glyph glyph-name="Yacute" unicode="&#xdd;" 
d="M393 0h-85v300l-294 500h99l244 -420l231 420h97l-292 -500v-300zM239 900l141 200h135l-191 -200h-85z" />
    <glyph glyph-name="Thorn" unicode="&#xde;" 
d="M108 0v800h85v-132h191q122 0 182.5 -52t60.5 -155v-88q0 -108 -61 -162.5t-183 -54.5h-190v-156h-85zM193 232h193q85 0 120.5 31.5t35.5 107.5v90q0 70 -35.5 99.5t-120.5 29.5h-193v-358z" />
    <glyph glyph-name="germandbls" unicode="&#xdf;" 
d="M457 -6q-66 0 -125.5 24t-100.5 68l57 73q34 -32 81.5 -56t100.5 -24q46 0 84.5 18.5t38.5 67.5q0 52 -33 71.5t-99 28.5q-112 18 -165.5 61t-53.5 113q0 81 66.5 130t159.5 48q-10 56 -55.5 79.5t-110.5 23.5q-63 0 -113.5 -35.5t-50.5 -119.5v-565h-86v578
q0 118 77.5 174t173.5 56q114 0 184 -62.5t70 -161.5v-40q-99 0 -163 -19t-64 -79q0 -46 42.5 -64t117.5 -28q99 -15 146 -59.5t47 -122.5q0 -97 -69.5 -137.5t-156.5 -40.5z" />
    <glyph glyph-name="agrave" unicode="&#xe0;" 
d="M277 69q55 0 101.5 21t79.5 73v96h-189q-46 0 -76 -20.5t-30 -71.5q0 -46 25.5 -72t88.5 -26zM270 -10q-74 0 -134.5 39.5t-60.5 130.5q0 78 50 123.5t114 45.5h219v89q0 49 -33.5 80t-102.5 31t-103 -20t-55 -91l-77 24q16 81 76 124.5t156 43.5q93 0 159 -43t66 -135
v-278q0 -57 31 -71.5t94 -3.5v-84q-59 -7 -114 10t-58 97h-18q-28 -48 -84 -80t-125 -32zM333 700l-191 200h135l141 -200h-85z" />
    <glyph glyph-name="aacute" unicode="&#xe1;" 
d="M277 69q55 0 101.5 21t79.5 73v96h-189q-46 0 -76 -20.5t-30 -71.5q0 -46 25.5 -72t88.5 -26zM270 -10q-74 0 -134.5 39.5t-60.5 130.5q0 78 50 123.5t114 45.5h219v89q0 49 -33.5 80t-102.5 31t-103 -20t-55 -91l-77 24q16 81 76 124.5t156 43.5q93 0 159 -43t66 -135
v-278q0 -57 31 -71.5t94 -3.5v-84q-59 -7 -114 10t-58 97h-18q-28 -48 -84 -80t-125 -32zM218 700l141 200h135l-191 -200h-85z" />
    <glyph glyph-name="acircumflex" unicode="&#xe2;" 
d="M277 69q55 0 101.5 21t79.5 73v96h-189q-46 0 -76 -20.5t-30 -71.5q0 -46 25.5 -72t88.5 -26zM270 -10q-74 0 -134.5 39.5t-60.5 130.5q0 78 50 123.5t114 45.5h219v89q0 49 -33.5 80t-102.5 31t-103 -20t-55 -91l-77 24q16 81 76 124.5t156 43.5q93 0 159 -43t66 -135
v-278q0 -57 31 -71.5t94 -3.5v-84q-59 -7 -114 10t-58 97h-18q-28 -48 -84 -80t-125 -32zM171 708l-35 60l173 147h60l175 -147l-35 -60l-170 118z" />
    <glyph glyph-name="atilde" unicode="&#xe3;" 
d="M277 69q55 0 101.5 21t79.5 73v96h-189q-46 0 -76 -20.5t-30 -71.5q0 -46 25.5 -72t88.5 -26zM270 -10q-74 0 -134.5 39.5t-60.5 130.5q0 78 50 123.5t114 45.5h219v89q0 49 -33.5 80t-102.5 31t-103 -20t-55 -91l-77 24q16 81 76 124.5t156 43.5q93 0 159 -43t66 -135
v-278q0 -57 31 -71.5t94 -3.5v-84q-59 -7 -114 10t-58 97h-18q-28 -48 -84 -80t-125 -32zM405 710q-32 0 -55 19t-41 41t-34 40.5t-33 18.5q-19 0 -33.5 -19t-13.5 -79v-11h-70v15q0 73 32.5 122t94.5 49q37 0 61 -18.5t41 -40.5t31 -41t31 -19q19 0 33 19t14 79v11h70v-15
q0 -75 -32.5 -123t-95.5 -48z" />
    <glyph glyph-name="adieresis" unicode="&#xe4;" 
d="M277 69q55 0 101.5 21t79.5 73v96h-189q-46 0 -76 -20.5t-30 -71.5q0 -46 25.5 -72t88.5 -26zM270 -10q-74 0 -134.5 39.5t-60.5 130.5q0 78 50 123.5t114 45.5h219v89q0 49 -33.5 80t-102.5 31t-103 -20t-55 -91l-77 24q16 81 76 124.5t156 43.5q93 0 159 -43t66 -135
v-278q0 -57 31 -71.5t94 -3.5v-84q-59 -7 -114 10t-58 97h-18q-28 -48 -84 -80t-125 -32zM216 714q-27 0 -43.5 11t-16.5 42v6q0 31 16.5 43t43.5 12t43.5 -12t16.5 -43v-6q0 -31 -17 -42t-43 -11zM442 714q-27 0 -43.5 11t-16.5 42v6q0 31 16.5 43t43.5 12t43.5 -12
t16.5 -43v-6q0 -31 -17 -42t-43 -11z" />
    <glyph glyph-name="aring" unicode="&#xe5;" 
d="M277 69q55 0 101.5 21t79.5 73v96h-189q-46 0 -76 -20.5t-30 -71.5q0 -46 25.5 -72t88.5 -26zM270 -10q-74 0 -134.5 39.5t-60.5 130.5q0 78 50 123.5t114 45.5h219v89q0 49 -33.5 80t-102.5 31t-103 -20t-55 -91l-77 24q16 81 76 124.5t156 43.5q93 0 159 -43t66 -135
v-278q0 -57 31 -71.5t94 -3.5v-84q-59 -7 -114 10t-58 97h-18q-28 -48 -84 -80t-125 -32zM330 687q-69 0 -111 35t-42 108v32q0 74 42 110t111 36t111 -36t42 -110v-32q0 -73 -42 -108t-111 -35zM330 754q41 0 62.5 17.5t21.5 58.5v32q0 40 -21.5 59.5t-62.5 19.5
q-42 0 -63 -19.5t-21 -59.5v-32q0 -41 21 -58.5t63 -17.5z" />
    <glyph glyph-name="ae" unicode="&#xe6;" 
d="M670 142q-9 -79 -48.5 -115.5t-124.5 -36.5q-57 0 -97.5 22t-60.5 68h-13q-25 -38 -58.5 -64t-89.5 -26q-49 0 -97.5 39.5t-48.5 132.5q0 78 46 122.5t106 44.5h129v91q0 54 -26 87.5t-75 33.5q-44 0 -63 -18t-36 -81l-69 24q13 67 54.5 105.5t125.5 38.5q40 0 73.5 -16
t54.5 -49q22 33 55 49t76 16q85 0 135.5 -48t50.5 -149v-129h-286v-107q0 -66 25 -94t77 -28q54 0 74.5 19t28.5 73zM383 417v-75h203v65q0 71 -25.5 104t-76.5 33q-49 0 -75 -31.5t-26 -95.5zM313 139v132h-102q-43 0 -71.5 -23t-28.5 -81q0 -51 18.5 -80.5t64.5 -29.5
q37 0 65.5 22.5t53.5 59.5z" />
    <glyph glyph-name="ccedilla" unicode="&#xe7;" 
d="M365 -10q-128 0 -193.5 57t-65.5 168v164q0 115 65 173t193 58q112 0 174 -50.5t69 -151.5l-84 -4q-4 63 -43.5 94.5t-115.5 31.5q-87 0 -130 -36.5t-43 -111.5v-169q0 -72 43.5 -107.5t131.5 -35.5q75 0 114.5 26.5t42.5 79.5l84 -4q-7 -90 -69.5 -136t-172.5 -46z
M309 0l20 42q38 -8 76 -38t38 -96q0 -63 -42 -92.5t-94 -29.5q-61 0 -100 23t-43 77l76 10q2 -19 16 -26.5t46 -7.5q31 0 47 13t16 47q0 36 -13 53t-43 25z" />
    <glyph glyph-name="egrave" unicode="&#xe8;" 
d="M594 130q-25 -73 -78.5 -106.5t-164.5 -33.5q-118 0 -181.5 57.5t-63.5 170.5v161q0 117 68.5 174t176.5 57q109 0 176 -58t67 -181v-87h-403v-65q0 -82 39.5 -117t118.5 -35q77 0 109.5 21.5t48.5 66.5zM191 375v-21h318v12q0 87 -40.5 126.5t-118.5 39.5t-118.5 -38.5
t-40.5 -118.5zM354 700l-191 200h135l141 -200h-85z" />
    <glyph glyph-name="eacute" unicode="&#xe9;" 
d="M594 130q-25 -73 -78.5 -106.5t-164.5 -33.5q-118 0 -181.5 57.5t-63.5 170.5v161q0 117 68.5 174t176.5 57q109 0 176 -58t67 -181v-87h-403v-65q0 -82 39.5 -117t118.5 -35q77 0 109.5 21.5t48.5 66.5zM191 375v-21h318v12q0 87 -40.5 126.5t-118.5 39.5t-118.5 -38.5
t-40.5 -118.5zM236 700l141 200h135l-191 -200h-85z" />
    <glyph glyph-name="ecircumflex" unicode="&#xea;" 
d="M594 130q-25 -73 -78.5 -106.5t-164.5 -33.5q-118 0 -181.5 57.5t-63.5 170.5v161q0 117 68.5 174t176.5 57q109 0 176 -58t67 -181v-87h-403v-65q0 -82 39.5 -117t118.5 -35q77 0 109.5 21.5t48.5 66.5zM191 375v-21h318v12q0 87 -40.5 126.5t-118.5 39.5t-118.5 -38.5
t-40.5 -118.5zM181 708l-35 60l173 147h60l175 -147l-35 -60l-170 118z" />
    <glyph glyph-name="edieresis" unicode="&#xeb;" 
d="M594 130q-25 -73 -78.5 -106.5t-164.5 -33.5q-118 0 -181.5 57.5t-63.5 170.5v161q0 117 68.5 174t176.5 57q109 0 176 -58t67 -181v-87h-403v-65q0 -82 39.5 -117t118.5 -35q77 0 109.5 21.5t48.5 66.5zM191 375v-21h318v12q0 87 -40.5 126.5t-118.5 39.5t-118.5 -38.5
t-40.5 -118.5zM237 714q-27 0 -43.5 11t-16.5 42v6q0 31 16.5 43t43.5 12t43.5 -12t16.5 -43v-6q0 -31 -17 -42t-43 -11zM463 714q-27 0 -43.5 11t-16.5 42v6q0 31 16.5 43t43.5 12t43.5 -12t16.5 -43v-6q0 -31 -17 -42t-43 -11z" />
    <glyph glyph-name="igrave" unicode="&#xec;" 
d="M105 0v80h203v440h-203v80h288v-520h203v-80h-491zM351 700l-191 200h135l141 -200h-85z" />
    <glyph glyph-name="iacute" unicode="&#xed;" 
d="M105 0v80h203v440h-203v80h288v-520h203v-80h-491zM239 700l141 200h135l-191 -200h-85z" />
    <glyph glyph-name="icircumflex" unicode="&#xee;" 
d="M105 0v80h203v440h-203v80h288v-520h203v-80h-491zM181 708l-35 60l173 147h60l175 -147l-35 -60l-170 118z" />
    <glyph glyph-name="idieresis" unicode="&#xef;" 
d="M105 0v80h203v440h-203v80h288v-520h203v-80h-491zM237 714q-27 0 -43.5 11t-16.5 42v6q0 31 16.5 43t43.5 12t43.5 -12t16.5 -43v-6q0 -31 -17 -42t-43 -11zM463 714q-27 0 -43.5 11t-16.5 42v6q0 31 16.5 43t43.5 12t43.5 -12t16.5 -43v-6q0 -31 -17 -42t-43 -11z" />
    <glyph glyph-name="eth" unicode="&#xf0;" 
d="M350 -10q-108 0 -175 56t-67 172v76q0 95 63.5 150.5t164.5 55.5q63 0 103 -22t56 -52h22q-4 65 -19 116t-43 90l-197 -90v76l146 67q-34 25 -79 44.5t-102 34.5l11 57q76 -21 134 -48t99 -61l191 86v-76l-139 -64q40 -53 57 -122t17 -157v-155q0 -122 -67 -178t-176 -56
zM351 70q86 0 121.5 36.5t35.5 111.5v63q0 69 -35.5 103.5t-121.5 34.5q-85 0 -120.5 -34.5t-35.5 -103.5v-63q0 -75 35.5 -111.5t120.5 -36.5z" />
    <glyph glyph-name="ntilde" unicode="&#xf1;" 
d="M106 0v600h85v-98h30q22 49 68.5 78.5t104.5 29.5q92 0 146 -56.5t54 -153.5v-400h-85v383q0 70 -32.5 106.5t-94.5 36.5q-47 0 -95.5 -29t-95.5 -84v-413h-85zM446 710q-32 0 -55 19t-41 41t-34 40.5t-33 18.5q-19 0 -33.5 -19t-13.5 -79v-11h-70v15q0 73 32.5 122
t94.5 49q37 0 61 -18.5t41 -40.5t31 -41t31 -19q19 0 33 19t14 79v11h70v-15q0 -75 -32.5 -123t-95.5 -48z" />
    <glyph glyph-name="ograve" unicode="&#xf2;" 
d="M350 -10q-119 0 -181.5 58.5t-62.5 168.5v162q0 112 63 171.5t182 59.5q118 0 180.5 -59.5t62.5 -170.5v-162q0 -111 -62.5 -169.5t-181.5 -58.5zM350 70q81 0 120 36t39 109v166q0 75 -39 112t-120 37t-120 -37t-39 -113v-166q0 -72 39 -108t120 -36zM354 700l-191 200
h135l141 -200h-85z" />
    <glyph glyph-name="oacute" unicode="&#xf3;" 
d="M350 -10q-119 0 -181.5 58.5t-62.5 168.5v162q0 112 63 171.5t182 59.5q118 0 180.5 -59.5t62.5 -170.5v-162q0 -111 -62.5 -169.5t-181.5 -58.5zM350 70q81 0 120 36t39 109v166q0 75 -39 112t-120 37t-120 -37t-39 -113v-166q0 -72 39 -108t120 -36zM239 700l141 200
h135l-191 -200h-85z" />
    <glyph glyph-name="ocircumflex" unicode="&#xf4;" 
d="M350 -10q-119 0 -181.5 58.5t-62.5 168.5v162q0 112 63 171.5t182 59.5q118 0 180.5 -59.5t62.5 -170.5v-162q0 -111 -62.5 -169.5t-181.5 -58.5zM350 70q81 0 120 36t39 109v166q0 75 -39 112t-120 37t-120 -37t-39 -113v-166q0 -72 39 -108t120 -36zM181 708l-35 60
l173 147h60l175 -147l-35 -60l-170 118z" />
    <glyph glyph-name="otilde" unicode="&#xf5;" 
d="M350 -10q-119 0 -181.5 58.5t-62.5 168.5v162q0 112 63 171.5t182 59.5q118 0 180.5 -59.5t62.5 -170.5v-162q0 -111 -62.5 -169.5t-181.5 -58.5zM350 70q81 0 120 36t39 109v166q0 75 -39 112t-120 37t-120 -37t-39 -113v-166q0 -72 39 -108t120 -36zM426 710
q-32 0 -55 19t-41 41t-34 40.5t-33 18.5q-19 0 -33.5 -19t-13.5 -79v-11h-70v15q0 73 32.5 122t94.5 49q37 0 61 -18.5t41 -40.5t31 -41t31 -19q19 0 33 19t14 79v11h70v-15q0 -75 -32.5 -123t-95.5 -48z" />
    <glyph glyph-name="odieresis" unicode="&#xf6;" 
d="M350 -10q-119 0 -181.5 58.5t-62.5 168.5v162q0 112 63 171.5t182 59.5q118 0 180.5 -59.5t62.5 -170.5v-162q0 -111 -62.5 -169.5t-181.5 -58.5zM350 70q81 0 120 36t39 109v166q0 75 -39 112t-120 37t-120 -37t-39 -113v-166q0 -72 39 -108t120 -36zM237 714
q-27 0 -43.5 11t-16.5 42v6q0 31 16.5 43t43.5 12t43.5 -12t16.5 -43v-6q0 -31 -17 -42t-43 -11zM463 714q-27 0 -43.5 11t-16.5 42v6q0 31 16.5 43t43.5 12t43.5 -12t16.5 -43v-6q0 -31 -17 -42t-43 -11z" />
    <glyph glyph-name="divide" unicode="&#xf7;" 
d="M350 529q-37 0 -60 15t-23 46v17q0 32 23 47.5t60 15.5t59.5 -15.5t22.5 -47.5v-17q0 -31 -23 -46t-59 -15zM72 304v92h557v-92h-557zM350 29q-37 0 -60 15t-23 46v17q0 32 23 47.5t60 15.5t59.5 -15.5t22.5 -47.5v-17q0 -31 -23 -46t-59 -15z" />
    <glyph glyph-name="oslash" unicode="&#xf8;" 
d="M196 214q0 -31 6 -55t19 -41l198 401q-15 4 -32.5 6.5t-36.5 2.5q-79 0 -116.5 -35t-37.5 -113v-166zM350 72q79 0 117 34.5t38 107.5v166q0 32 -6.5 57t-19.5 42l-199 -398q15 -4 32.5 -6.5t37.5 -2.5zM350 -10q-28 0 -53 3.5t-47 10.5l-51 -104h-97l72 145
q-32 28 -49 70.5t-17 101.5v162q0 119 68 175t175 56q28 0 52.5 -3.5t46.5 -10.5l52 104h97l-73 -145q32 -28 49.5 -72t17.5 -104v-162q0 -118 -68 -172.5t-175 -54.5z" />
    <glyph glyph-name="ugrave" unicode="&#xf9;" 
d="M304 -10q-90 0 -144 58.5t-54 151.5v400h85v-387q0 -72 30.5 -105.5t96.5 -33.5q49 0 95.5 26t95.5 83v417h85v-600h-85v98h-30q-20 -46 -67.5 -77t-107.5 -31zM318 700l-191 200h135l141 -200h-85z" />
    <glyph glyph-name="uacute" unicode="&#xfa;" 
d="M304 -10q-90 0 -144 58.5t-54 151.5v400h85v-387q0 -72 30.5 -105.5t96.5 -33.5q49 0 95.5 26t95.5 83v417h85v-600h-85v98h-30q-20 -46 -67.5 -77t-107.5 -31zM278 700l141 200h135l-191 -200h-85z" />
    <glyph glyph-name="ucircumflex" unicode="&#xfb;" 
d="M304 -10q-90 0 -144 58.5t-54 151.5v400h85v-387q0 -72 30.5 -105.5t96.5 -33.5q49 0 95.5 26t95.5 83v417h85v-600h-85v98h-30q-20 -46 -67.5 -77t-107.5 -31zM180 708l-35 60l173 147h60l175 -147l-35 -60l-170 118z" />
    <glyph glyph-name="udieresis" unicode="&#xfc;" 
d="M304 -10q-90 0 -144 58.5t-54 151.5v400h85v-387q0 -72 30.5 -105.5t96.5 -33.5q49 0 95.5 26t95.5 83v417h85v-600h-85v98h-30q-20 -46 -67.5 -77t-107.5 -31zM236 714q-27 0 -43.5 11t-16.5 42v6q0 31 16.5 43t43.5 12t43.5 -12t16.5 -43v-6q0 -31 -17 -42t-43 -11z
M462 714q-27 0 -43.5 11t-16.5 42v6q0 31 16.5 43t43.5 12t43.5 -12t16.5 -43v-6q0 -31 -17 -42t-43 -11z" />
    <glyph glyph-name="yacute" unicode="&#xfd;" 
d="M169 -205q-22 0 -43 3t-42 8l18 79q24 -6 44.5 -8.5t38.5 -2.5q44 0 81 26.5t56 81.5l4 10h-24l-220 608h94l177 -530l173 530h92l-226 -627q-34 -91 -91 -134.5t-132 -43.5zM239 700l141 200h135l-191 -200h-85z" />
    <glyph glyph-name="thorn" unicode="&#xfe;" 
d="M339 67q88 0 129 37.5t41 116.5v164q0 74 -30.5 107.5t-96.5 33.5q-53 0 -99 -28t-92 -88v-303q34 -20 70 -30t78 -10zM335 -11q-35 0 -74 8t-70 21v-218h-85v1000h85v-298h30q26 49 73 78.5t101 29.5q92 0 145.5 -63t53.5 -171v-157q0 -106 -70 -168t-189 -62z" />
    <glyph glyph-name="ydieresis" unicode="&#xff;" 
d="M169 -205q-22 0 -43 3t-42 8l18 79q24 -6 44.5 -8.5t38.5 -2.5q44 0 81 26.5t56 81.5l4 10h-24l-220 608h94l177 -530l173 530h92l-226 -627q-34 -91 -91 -134.5t-132 -43.5zM237 714q-27 0 -43.5 11t-16.5 42v6q0 31 16.5 43t43.5 12t43.5 -12t16.5 -43v-6
q0 -31 -17 -42t-43 -11zM463 714q-27 0 -43.5 11t-16.5 42v6q0 31 16.5 43t43.5 12t43.5 -12t16.5 -43v-6q0 -31 -17 -42t-43 -11z" />
    <glyph glyph-name="Amacron" unicode="&#x100;" 
d="M464 318l-116 376l-115 -376h231zM563 0l-74 240h-280l-74 -240h-90l264 800h84l264 -800h-94zM155 961v78h392v-78h-392z" />
    <glyph glyph-name="amacron" unicode="&#x101;" 
d="M277 69q55 0 101.5 21t79.5 73v96h-189q-46 0 -76 -20.5t-30 -71.5q0 -46 25.5 -72t88.5 -26zM270 -10q-74 0 -134.5 39.5t-60.5 130.5q0 78 50 123.5t114 45.5h219v89q0 49 -33.5 80t-102.5 31t-103 -20t-55 -91l-77 24q16 81 76 124.5t156 43.5q93 0 159 -43t66 -135
v-278q0 -57 31 -71.5t94 -3.5v-84q-59 -7 -114 10t-58 97h-18q-28 -48 -84 -80t-125 -32zM134 761v78h392v-78h-392z" />
    <glyph glyph-name="Abreve" unicode="&#x102;" 
d="M464 318l-116 376l-115 -376h231zM563 0l-74 240h-280l-74 -240h-90l264 800h84l264 -800h-94zM351 893q-91 0 -158.5 45t-68.5 159h91q1 -72 35 -102.5t101 -30.5t101 30.5t35 102.5h91q-1 -114 -68.5 -159t-158.5 -45z" />
    <glyph glyph-name="abreve" unicode="&#x103;" 
d="M277 69q55 0 101.5 21t79.5 73v96h-189q-46 0 -76 -20.5t-30 -71.5q0 -46 25.5 -72t88.5 -26zM270 -10q-74 0 -134.5 39.5t-60.5 130.5q0 78 50 123.5t114 45.5h219v89q0 49 -33.5 80t-102.5 31t-103 -20t-55 -91l-77 24q16 81 76 124.5t156 43.5q93 0 159 -43t66 -135
v-278q0 -57 31 -71.5t94 -3.5v-84q-59 -7 -114 10t-58 97h-18q-28 -48 -84 -80t-125 -32zM330 693q-91 0 -158.5 45t-68.5 159h91q1 -72 35 -102.5t101 -30.5t101 30.5t35 102.5h91q-1 -114 -68.5 -159t-158.5 -45z" />
    <glyph glyph-name="Aogonek" unicode="&#x104;" 
d="M464 318l-116 376l-115 -376h231zM563 0l-74 240h-280l-74 -240h-90l264 800h84l264 -800h-94zM622 -213q-60 0 -103 31.5t-43 85.5q0 45 36.5 81.5t80.5 55.5l27 -18q-34 -21 -47.5 -47t-13.5 -47q0 -28 19 -43t51 -15q18 0 46 3t43 7v-85q-16 -4 -45 -6.5t-51 -2.5z
" />
    <glyph glyph-name="aogonek" unicode="&#x105;" 
d="M277 69q55 0 101.5 21t79.5 73v96h-189q-46 0 -76 -20.5t-30 -71.5q0 -46 25.5 -72t88.5 -26zM270 -10q-74 0 -134.5 39.5t-60.5 130.5q0 78 50 123.5t114 45.5h219v89q0 49 -33.5 80t-102.5 31t-103 -20t-55 -91l-77 24q16 81 76 124.5t156 43.5q93 0 159 -43t66 -135
v-278q0 -57 31 -71.5t94 -3.5v-84q-59 -7 -114 10t-58 97h-18q-28 -48 -84 -80t-125 -32zM600 -213q-60 0 -103 31.5t-43 85.5q0 45 36.5 81.5t80.5 55.5l27 -18q-34 -21 -47.5 -47t-13.5 -47q0 -28 19 -43t51 -15q18 0 46 3t43 7v-85q-16 -4 -45 -6.5t-51 -2.5z" />
    <glyph glyph-name="Cacute" unicode="&#x106;" 
d="M360 -10q-138 0 -206.5 73t-68.5 220v230q0 149 68.5 223t207.5 74q135 0 200.5 -64t74.5 -203l-85 -10q-10 111 -52 155t-139 44q-105 0 -147.5 -48t-42.5 -167v-238q0 -116 42.5 -163.5t147.5 -47.5q99 0 140 43t51 152l85 -10q-9 -137 -74.5 -200t-201.5 -63zM291 900
l141 200h135l-191 -200h-85z" />
    <glyph glyph-name="cacute" unicode="&#x107;" 
d="M365 -10q-128 0 -193.5 57t-65.5 168v164q0 115 65 173t193 58q112 0 174 -50.5t69 -151.5l-84 -4q-4 63 -43.5 94.5t-115.5 31.5q-87 0 -130 -36.5t-43 -111.5v-169q0 -72 43.5 -107.5t131.5 -35.5q75 0 114.5 26.5t42.5 79.5l84 -4q-7 -90 -69.5 -136t-172.5 -46z
M239 700l141 200h135l-191 -200h-85z" />
    <glyph glyph-name="Ccircumflex" unicode="&#x108;" 
d="M360 -10q-138 0 -206.5 73t-68.5 220v230q0 149 68.5 223t207.5 74q135 0 200.5 -64t74.5 -203l-85 -10q-10 111 -52 155t-139 44q-105 0 -147.5 -48t-42.5 -167v-238q0 -116 42.5 -163.5t147.5 -47.5q99 0 140 43t51 152l85 -10q-9 -137 -74.5 -200t-201.5 -63zM190 908
l-35 60l173 147h60l175 -147l-35 -60l-170 118z" />
    <glyph glyph-name="ccircumflex" unicode="&#x109;" 
d="M365 -10q-128 0 -193.5 57t-65.5 168v164q0 115 65 173t193 58q112 0 174 -50.5t69 -151.5l-84 -4q-4 63 -43.5 94.5t-115.5 31.5q-87 0 -130 -36.5t-43 -111.5v-169q0 -72 43.5 -107.5t131.5 -35.5q75 0 114.5 26.5t42.5 79.5l84 -4q-7 -90 -69.5 -136t-172.5 -46z
M199 708l-35 60l173 147h60l175 -147l-35 -60l-170 118z" />
    <glyph glyph-name="Cdotaccent" unicode="&#x10a;" 
d="M360 -10q-138 0 -206.5 73t-68.5 220v230q0 149 68.5 223t207.5 74q135 0 200.5 -64t74.5 -203l-85 -10q-10 111 -52 155t-139 44q-105 0 -147.5 -48t-42.5 -167v-238q0 -116 42.5 -163.5t147.5 -47.5q99 0 140 43t51 152l85 -10q-9 -137 -74.5 -200t-201.5 -63zM359 914
q-35 0 -57 11t-22 42v6q0 31 22 43t57 12t57 -12t22 -43v-6q0 -31 -22.5 -42t-56.5 -11z" />
    <glyph glyph-name="cdotaccent" unicode="&#x10b;" 
d="M365 -10q-128 0 -193.5 57t-65.5 168v164q0 115 65 173t193 58q112 0 174 -50.5t69 -151.5l-84 -4q-4 63 -43.5 94.5t-115.5 31.5q-87 0 -130 -36.5t-43 -111.5v-169q0 -72 43.5 -107.5t131.5 -35.5q75 0 114.5 26.5t42.5 79.5l84 -4q-7 -90 -69.5 -136t-172.5 -46z
M356 714q-35 0 -57 11t-22 42v6q0 31 22 43t57 12t57 -12t22 -43v-6q0 -31 -22.5 -42t-56.5 -11z" />
    <glyph glyph-name="Ccaron" unicode="&#x10c;" 
d="M360 -10q-138 0 -206.5 73t-68.5 220v230q0 149 68.5 223t207.5 74q135 0 200.5 -64t74.5 -203l-85 -10q-10 111 -52 155t-139 44q-105 0 -147.5 -48t-42.5 -167v-238q0 -116 42.5 -163.5t147.5 -47.5q99 0 140 43t51 152l85 -10q-9 -137 -74.5 -200t-201.5 -63zM330 904
l-175 147l35 60l170 -118l168 118l35 -60l-173 -147h-60z" />
    <glyph glyph-name="ccaron" unicode="&#x10d;" 
d="M365 -10q-128 0 -193.5 57t-65.5 168v164q0 115 65 173t193 58q112 0 174 -50.5t69 -151.5l-84 -4q-4 63 -43.5 94.5t-115.5 31.5q-87 0 -130 -36.5t-43 -111.5v-169q0 -72 43.5 -107.5t131.5 -35.5q75 0 114.5 26.5t42.5 79.5l84 -4q-7 -90 -69.5 -136t-172.5 -46z
M327 704l-175 147l35 60l170 -118l168 118l35 -60l-173 -147h-60z" />
    <glyph glyph-name="Dcaron" unicode="&#x10e;" 
d="M108 0v800h209q140 0 219.5 -79.5t79.5 -211.5v-222q0 -131 -80 -209t-220 -78h-208zM193 78h126q106 0 159 58.5t53 146.5v230q0 87 -53 148t-159 61h-126v-644zM321 904l-175 147l35 60l170 -118l168 118l35 -60l-173 -147h-60z" />
    <glyph glyph-name="dcaron" unicode="&#x10f;" 
d="M319 74q51 0 98 28.5t92 87.5v302q-32 22 -68.5 31.5t-79.5 9.5q-87 0 -128.5 -38t-41.5 -116v-163q0 -72 31.5 -107t96.5 -35zM479 98q-27 -51 -72 -79.5t-102 -28.5q-94 0 -146.5 60t-52.5 174v157q0 110 68 170t192 60q34 0 71.5 -8t71.5 -21v218h85v-800h-85v98h-30z
M696 705l85 295h133l-152 -295h-66z" />
    <glyph glyph-name="Dcroat" unicode="&#x110;" 
d="M108 0v398h-108v84h108v318h209q140 0 219.5 -79.5t79.5 -211.5v-222q0 -131 -80 -209t-220 -78h-208zM193 78h126q106 0 159 58.5t53 146.5v230q0 87 -53 148t-159 61h-126v-240h157v-84h-157v-320z" />
    <glyph glyph-name="dcroat" unicode="&#x111;" 
d="M319 74q52 0 98 28t92 88v257q-31 20 -67 30t-80 10q-88 0 -128.5 -37.5t-40.5 -116.5v-105q0 -80 30 -117t96 -37zM479 98q-26 -51 -74 -79.5t-100 -28.5q-90 0 -144.5 62t-54.5 172v111q0 106 70.5 168t189.5 62q34 0 71.5 -8.5t71.5 -21.5v101h-206v76h206v88h85v-88
h100v-76h-100v-636h-85v98h-30z" />
    <glyph glyph-name="Emacron" unicode="&#x112;" 
d="M108 0v800h508v-78h-423v-246h373v-78h-373v-320h423v-78h-508zM176 961v78h392v-78h-392z" />
    <glyph glyph-name="emacron" unicode="&#x113;" 
d="M594 130q-25 -73 -78.5 -106.5t-164.5 -33.5q-118 0 -181.5 57.5t-63.5 170.5v161q0 117 68.5 174t176.5 57q109 0 176 -58t67 -181v-87h-403v-65q0 -82 39.5 -117t118.5 -35q77 0 109.5 21.5t48.5 66.5zM191 375v-21h318v12q0 87 -40.5 126.5t-118.5 39.5t-118.5 -38.5
t-40.5 -118.5zM154 761v78h392v-78h-392z" />
    <glyph glyph-name="Ebreve" unicode="&#x114;" 
d="M108 0v800h508v-78h-423v-246h373v-78h-373v-320h423v-78h-508zM372 893q-91 0 -158.5 45t-68.5 159h91q1 -72 35 -102.5t101 -30.5t101 30.5t35 102.5h91q-1 -114 -68.5 -159t-158.5 -45z" />
    <glyph glyph-name="ebreve" unicode="&#x115;" 
d="M594 130q-25 -73 -78.5 -106.5t-164.5 -33.5q-118 0 -181.5 57.5t-63.5 170.5v161q0 117 68.5 174t176.5 57q109 0 176 -58t67 -181v-87h-403v-65q0 -82 39.5 -117t118.5 -35q77 0 109.5 21.5t48.5 66.5zM191 375v-21h318v12q0 87 -40.5 126.5t-118.5 39.5t-118.5 -38.5
t-40.5 -118.5zM352 693q-91 0 -158.5 45t-68.5 159h91q1 -72 35 -102.5t101 -30.5t101 30.5t35 102.5h91q-1 -114 -68.5 -159t-158.5 -45z" />
    <glyph glyph-name="Edotaccent" unicode="&#x116;" 
d="M108 0v800h508v-78h-423v-246h373v-78h-373v-320h423v-78h-508zM372 914q-35 0 -57 11t-22 42v6q0 31 22 43t57 12t57 -12t22 -43v-6q0 -31 -22.5 -42t-56.5 -11z" />
    <glyph glyph-name="edotaccent" unicode="&#x117;" 
d="M594 130q-25 -73 -78.5 -106.5t-164.5 -33.5q-118 0 -181.5 57.5t-63.5 170.5v161q0 117 68.5 174t176.5 57q109 0 176 -58t67 -181v-87h-403v-65q0 -82 39.5 -117t118.5 -35q77 0 109.5 21.5t48.5 66.5zM191 375v-21h318v12q0 87 -40.5 126.5t-118.5 39.5t-118.5 -38.5
t-40.5 -118.5zM350 714q-35 0 -57 11t-22 42v6q0 31 22 43t57 12t57 -12t22 -43v-6q0 -31 -22.5 -42t-56.5 -11z" />
    <glyph glyph-name="Eogonek" unicode="&#x118;" 
d="M520 -213q-60 0 -103 31.5t-43 85.5q0 45 36.5 81.5t80.5 55.5l27 -18q-34 -21 -47.5 -47t-13.5 -47q0 -28 19 -43t51 -15q18 0 46 3t43 7v-85q-16 -4 -45 -6.5t-51 -2.5zM108 0v800h508v-78h-423v-246h373v-78h-373v-320h423v-78h-508z" />
    <glyph glyph-name="eogonek" unicode="&#x119;" 
d="M490 -213q-60 0 -103 31.5t-43 85.5q0 45 36.5 81.5t80.5 55.5l27 -18q-34 -21 -47.5 -47t-13.5 -47q0 -28 19 -43t51 -15q18 0 46 3t43 7v-85q-16 -4 -45 -6.5t-51 -2.5zM594 130q-25 -73 -78.5 -106.5t-164.5 -33.5q-118 0 -181.5 57.5t-63.5 170.5v161q0 117 68.5 174
t176.5 57q109 0 176 -58t67 -181v-87h-403v-65q0 -82 39.5 -117t118.5 -35q77 0 109.5 21.5t48.5 66.5zM191 375v-21h318v12q0 87 -40.5 126.5t-118.5 39.5t-118.5 -38.5t-40.5 -118.5z" />
    <glyph glyph-name="Ecaron" unicode="&#x11a;" 
d="M108 0v800h508v-78h-423v-246h373v-78h-373v-320h423v-78h-508zM354 904l-175 147l35 60l170 -118l168 118l35 -60l-173 -147h-60z" />
    <glyph glyph-name="ecaron" unicode="&#x11b;" 
d="M594 130q-25 -73 -78.5 -106.5t-164.5 -33.5q-118 0 -181.5 57.5t-63.5 170.5v161q0 117 68.5 174t176.5 57q109 0 176 -58t67 -181v-87h-403v-65q0 -82 39.5 -117t118.5 -35q77 0 109.5 21.5t48.5 66.5zM191 375v-21h318v12q0 87 -40.5 126.5t-118.5 39.5t-118.5 -38.5
t-40.5 -118.5zM321 704l-175 147l35 60l170 -118l168 118l35 -60l-173 -147h-60z" />
    <glyph glyph-name="Gcircumflex" unicode="&#x11c;" 
d="M373 -10q-139 0 -213.5 75t-74.5 214v238q0 140 72 216.5t206 76.5q119 0 182 -61.5t71 -189.5l-85 -10q-9 99 -48 141t-122 42q-103 0 -147 -49t-44 -162v-246q0 -111 47 -159t156 -48q97 0 138.5 56t42.5 186h-204v78h289v-97q0 -144 -69 -222.5t-197 -78.5zM204 908
l-35 60l173 147h60l175 -147l-35 -60l-170 118z" />
    <glyph glyph-name="gcircumflex" unicode="&#x11d;" 
d="M647 -52q0 -81 -59 -119.5t-142 -38.5h-190q-86 0 -144.5 35t-58.5 113q0 48 25 76t74 32v21q-35 4 -57 27.5t-22 71.5q0 40 25 74.5t90 39.5v19q-48 16 -63.5 49.5t-15.5 60.5v32q0 68 57.5 113.5t166.5 45.5h285v-86l-153 24v-18q40 -11 60 -42t20 -62v-31
q0 -67 -50.5 -110.5t-172.5 -43.5h-126q-26 0 -39.5 -14t-13.5 -47t19.5 -49t59.5 -16h235q81 0 135.5 -36.5t54.5 -120.5zM329 304q64 0 98.5 23t34.5 74v28q0 51 -34 74t-99 23q-64 0 -98 -23t-34 -74v-28q0 -51 34 -74t98 -23zM253 -136h208q47 0 76 19t29 62
q0 42 -26 60.5t-67 18.5h-333v-73q0 -44 29 -65.5t84 -21.5zM168 708l-35 60l173 147h60l175 -147l-35 -60l-170 118z" />
    <glyph glyph-name="Gbreve" unicode="&#x11e;" 
d="M373 -10q-139 0 -213.5 75t-74.5 214v238q0 140 72 216.5t206 76.5q119 0 182 -61.5t71 -189.5l-85 -10q-9 99 -48 141t-122 42q-103 0 -147 -49t-44 -162v-246q0 -111 47 -159t156 -48q97 0 138.5 56t42.5 186h-204v78h289v-97q0 -144 -69 -222.5t-197 -78.5zM373 893
q-91 0 -158.5 45t-68.5 159h91q1 -72 35 -102.5t101 -30.5t101 30.5t35 102.5h91q-1 -114 -68.5 -159t-158.5 -45z" />
    <glyph glyph-name="gbreve" unicode="&#x11f;" 
d="M647 -52q0 -81 -59 -119.5t-142 -38.5h-190q-86 0 -144.5 35t-58.5 113q0 48 25 76t74 32v21q-35 4 -57 27.5t-22 71.5q0 40 25 74.5t90 39.5v19q-48 16 -63.5 49.5t-15.5 60.5v32q0 68 57.5 113.5t166.5 45.5h285v-86l-153 24v-18q40 -11 60 -42t20 -62v-31
q0 -67 -50.5 -110.5t-172.5 -43.5h-126q-26 0 -39.5 -14t-13.5 -47t19.5 -49t59.5 -16h235q81 0 135.5 -36.5t54.5 -120.5zM329 304q64 0 98.5 23t34.5 74v28q0 51 -34 74t-99 23q-64 0 -98 -23t-34 -74v-28q0 -51 34 -74t98 -23zM253 -136h208q47 0 76 19t29 62
q0 42 -26 60.5t-67 18.5h-333v-73q0 -44 29 -65.5t84 -21.5zM350 693q-91 0 -158.5 45t-68.5 159h91q1 -72 35 -102.5t101 -30.5t101 30.5t35 102.5h91q-1 -114 -68.5 -159t-158.5 -45z" />
    <glyph glyph-name="Gdotaccent" unicode="&#x120;" 
d="M373 -10q-139 0 -213.5 75t-74.5 214v238q0 140 72 216.5t206 76.5q119 0 182 -61.5t71 -189.5l-85 -10q-9 99 -48 141t-122 42q-103 0 -147 -49t-44 -162v-246q0 -111 47 -159t156 -48q97 0 138.5 56t42.5 186h-204v78h289v-97q0 -144 -69 -222.5t-197 -78.5zM360 914
q-35 0 -57 11t-22 42v6q0 31 22 43t57 12t57 -12t22 -43v-6q0 -31 -22.5 -42t-56.5 -11z" />
    <glyph glyph-name="gdotaccent" unicode="&#x121;" 
d="M647 -52q0 -81 -59 -119.5t-142 -38.5h-190q-86 0 -144.5 35t-58.5 113q0 48 25 76t74 32v21q-35 4 -57 27.5t-22 71.5q0 40 25 74.5t90 39.5v19q-48 16 -63.5 49.5t-15.5 60.5v32q0 68 57.5 113.5t166.5 45.5h285v-86l-153 24v-18q40 -11 60 -42t20 -62v-31
q0 -67 -50.5 -110.5t-172.5 -43.5h-126q-26 0 -39.5 -14t-13.5 -47t19.5 -49t59.5 -16h235q81 0 135.5 -36.5t54.5 -120.5zM329 304q64 0 98.5 23t34.5 74v28q0 51 -34 74t-99 23q-64 0 -98 -23t-34 -74v-28q0 -51 34 -74t98 -23zM253 -136h208q47 0 76 19t29 62
q0 42 -26 60.5t-67 18.5h-333v-73q0 -44 29 -65.5t84 -21.5zM350 714q-35 0 -57 11t-22 42v6q0 31 22 43t57 12t57 -12t22 -43v-6q0 -31 -22.5 -42t-56.5 -11z" />
    <glyph glyph-name="Gcommaaccent" unicode="&#x122;" 
d="M232 -300l101 200h135l-151 -200h-85zM373 -10q-139 0 -213.5 75t-74.5 214v238q0 140 72 216.5t206 76.5q119 0 182 -61.5t71 -189.5l-85 -10q-9 99 -48 141t-122 42q-103 0 -147 -49t-44 -162v-246q0 -111 47 -159t156 -48q97 0 138.5 56t42.5 186h-204v78h289v-97
q0 -144 -69 -222.5t-197 -78.5z" />
    <glyph glyph-name="gcommaaccent" unicode="&#x123;" 
d="M647 -52q0 -81 -59 -119.5t-142 -38.5h-190q-86 0 -144.5 35t-58.5 113q0 48 25 76t74 32v21q-35 4 -57 27.5t-22 71.5q0 40 25 74.5t90 39.5v19q-48 16 -63.5 49.5t-15.5 60.5v32q0 68 57.5 113.5t166.5 45.5h285v-86l-153 24v-18q40 -11 60 -42t20 -62v-31
q0 -67 -50.5 -110.5t-172.5 -43.5h-126q-26 0 -39.5 -14t-13.5 -47t19.5 -49t59.5 -16h235q81 0 135.5 -36.5t54.5 -120.5zM329 304q64 0 98.5 23t34.5 74v28q0 51 -34 74t-99 23q-64 0 -98 -23t-34 -74v-28q0 -51 34 -74t98 -23zM253 -136h208q47 0 76 19t29 62
q0 42 -26 60.5t-67 18.5h-333v-73q0 -44 29 -65.5t84 -21.5zM262 700l151 200h85l-101 -200h-135z" />
    <glyph glyph-name="Hcircumflex" unicode="&#x124;" 
d="M108 0v800h85v-328h315v328h85v-800h-85v394h-315v-394h-85zM181 908l-35 60l173 147h60l175 -147l-35 -60l-170 118z" />
    <glyph glyph-name="hcircumflex" unicode="&#x125;" 
d="M106 0v800h85v-298h30q21 49 68 78.5t107 29.5q92 0 145 -56t53 -153v-401h-85v387q0 68 -32.5 103.5t-94.5 35.5q-47 0 -96 -27.5t-95 -81.5v-417h-85zM-20 908l-35 60l173 147h60l175 -147l-35 -60l-170 118z" />
    <glyph glyph-name="Hbar" unicode="&#x126;" 
d="M191 432h318v130h-318v-130zM191 354v-354h-85v562h-106v84h106v154h85v-154h318v154h85v-154h106v-84h-106v-562h-85v354h-318z" />
    <glyph glyph-name="hbar" unicode="&#x127;" 
d="M191 371v-371h-85v636h-100v76h100v88h85v-88h206v-76h-206v-180h30q22 50 71.5 79t112.5 29q88 0 138.5 -49t50.5 -133v-382h-85v364q0 59 -31 87.5t-96 28.5q-49 0 -95.5 -26.5t-95.5 -82.5z" />
    <glyph glyph-name="Itilde" unicode="&#x128;" 
d="M108 0v78h200v644h-200v78h485v-78h-200v-644h200v-78h-485zM426 910q-32 0 -55 19t-41 41t-34 40.5t-33 18.5q-19 0 -33.5 -19t-13.5 -79v-11h-70v15q0 73 32.5 122t94.5 49q37 0 61 -18.5t41 -40.5t31 -41t31 -19q19 0 33 19t14 79v11h70v-15q0 -75 -32.5 -123
t-95.5 -48z" />
    <glyph glyph-name="itilde" unicode="&#x129;" 
d="M105 0v80h203v440h-203v80h288v-520h203v-80h-491zM426 710q-32 0 -55 19t-41 41t-34 40.5t-33 18.5q-19 0 -33.5 -19t-13.5 -79v-11h-70v15q0 73 32.5 122t94.5 49q37 0 61 -18.5t41 -40.5t31 -41t31 -19q19 0 33 19t14 79v11h70v-15q0 -75 -32.5 -123t-95.5 -48z" />
    <glyph glyph-name="Imacron" unicode="&#x12a;" 
d="M108 0v78h200v644h-200v78h485v-78h-200v-644h200v-78h-485zM154 961v78h392v-78h-392z" />
    <glyph glyph-name="imacron" unicode="&#x12b;" 
d="M105 0v80h203v440h-203v80h288v-520h203v-80h-491zM154 761v78h392v-78h-392z" />
    <glyph glyph-name="Ibreve" unicode="&#x12c;" 
d="M108 0v78h200v644h-200v78h485v-78h-200v-644h200v-78h-485zM350 893q-91 0 -158.5 45t-68.5 159h91q1 -72 35 -102.5t101 -30.5t101 30.5t35 102.5h91q-1 -114 -68.5 -159t-158.5 -45z" />
    <glyph glyph-name="ibreve" unicode="&#x12d;" 
d="M105 0v80h203v440h-203v80h288v-520h203v-80h-491zM350 693q-91 0 -158.5 45t-68.5 159h91q1 -72 35 -102.5t101 -30.5t101 30.5t35 102.5h91q-1 -114 -68.5 -159t-158.5 -45z" />
    <glyph glyph-name="Iogonek" unicode="&#x12e;" 
d="M108 0v78h200v644h-200v78h485v-78h-200v-644h200v-78h-485zM422 -213q-60 0 -103 31.5t-43 85.5q0 45 36.5 81.5t80.5 55.5l27 -18q-34 -21 -47.5 -47t-13.5 -47q0 -28 19 -43t51 -15q18 0 46 3t43 7v-85q-16 -4 -45 -6.5t-51 -2.5z" />
    <glyph glyph-name="iogonek" unicode="&#x12f;" 
d="M348 714q-35 0 -57 11t-22 42v6q0 31 22 43t57 12t57 -12t22 -43v-6q0 -31 -22.5 -42t-56.5 -11zM105 0v80h203v440h-203v80h288v-520h203v-80h-491zM450 -213q-60 0 -103 31.5t-43 85.5q0 45 36.5 81.5t80.5 55.5l27 -18q-34 -21 -47.5 -47t-13.5 -47q0 -28 19 -43
t51 -15q18 0 46 3t43 7v-85q-16 -4 -45 -6.5t-51 -2.5z" />
    <glyph glyph-name="Idotaccent" unicode="&#x130;" 
d="M108 0v78h200v644h-200v78h485v-78h-200v-644h200v-78h-485zM350 914q-35 0 -57 11t-22 42v6q0 31 22 43t57 12t57 -12t22 -43v-6q0 -31 -22.5 -42t-56.5 -11z" />
    <glyph glyph-name="dotlessi" unicode="&#x131;" 
d="M105 0v80h203v440h-203v80h288v-520h203v-80h-491z" />
    <glyph glyph-name="IJ" unicode="&#x132;" 
d="M156 0h-93v800h93v-800zM436 -10q-85 0 -137 55.5t-61 209.5l93 11q8 -115 28.5 -154.5t77.5 -39.5q64 0 86.5 52t22.5 119v475h-199v82h291v-554q0 -119 -49 -187.5t-153 -68.5z" />
    <glyph glyph-name="ij" unicode="&#x133;" 
d="M174 714q-36 0 -58 11t-22 42v6q0 31 22 43t58 12t58 -12t22 -43v-6q0 -31 -22 -42t-58 -11zM548 714q-36 0 -58 11t-22 42v6q0 31 22 43t58 12t58 -12t22 -43v-6q0 -31 -22.5 -42t-57.5 -11zM217 0h-88v600h88v-600zM377 -208q-33 0 -64.5 5t-69.5 17l20 90
q32 -12 59 -17t55 -5q57 0 93 28.5t36 94.5v515h-130v80h218v-607q0 -104 -63 -152.5t-154 -48.5z" />
    <glyph glyph-name="Jcircumflex" unicode="&#x134;" 
d="M328 -10q-128 0 -192.5 64.5t-70.5 196.5l85 11q7 -115 43.5 -154.5t135.5 -39.5q91 0 136.5 48t45.5 141v465h-196v78h281v-540q0 -132 -69.5 -201t-198.5 -69zM276 908l-35 60l173 147h60l175 -147l-35 -60l-170 118z" />
    <glyph glyph-name="jcircumflex" unicode="&#x135;" 
d="M261 -208q-37 0 -73 4.5t-79 17.5l20 90q37 -13 68.5 -17.5t63.5 -4.5q66 0 107 28.5t41 94.5v515h-285v80h370v-607q0 -104 -68 -152.5t-165 -48.5zM249 708l-35 60l173 147h60l175 -147l-35 -60l-170 118z" />
    <glyph glyph-name="Kcommaaccent" unicode="&#x136;" 
d="M193 389v-389h-85v800h85v-333h33l326 333h103l-361 -368l358 -432h-108l-315 389h-36zM217 -300l101 200h135l-151 -200h-85z" />
    <glyph glyph-name="kcommaaccent" unicode="&#x137;" 
d="M247 279v-279h-85v800h85v-447h53l198 247h110l-243 -281l240 -319h-100l-205 279h-53zM209 -300l101 200h135l-151 -200h-85z" />
    <glyph glyph-name="kgreenlandic" unicode="&#x138;" 
d="M247 279v-279h-85v600h85v-247h53l198 247h110l-243 -281l240 -319h-100l-205 279h-53z" />
    <glyph glyph-name="Lacute" unicode="&#x139;" 
d="M158 0v800h85v-722h350v-78h-435zM199 900l141 200h135l-191 -200h-85z" />
    <glyph glyph-name="lacute" unicode="&#x13a;" 
d="M103 0v80h202v640h-202v80h287v-720h203v-80h-490zM257 900l141 200h135l-191 -200h-85z" />
    <glyph glyph-name="Lcommaaccent" unicode="&#x13b;" 
d="M158 0v800h85v-722h350v-78h-435zM231 -300l101 200h135l-151 -200h-85z" />
    <glyph glyph-name="lcommaaccent" unicode="&#x13c;" 
d="M103 0v80h202v640h-202v80h287v-720h203v-80h-490zM194 -300l101 200h135l-151 -200h-85z" />
    <glyph glyph-name="Lcaron" unicode="&#x13d;" 
d="M158 0v800h85v-722h350v-78h-435zM385 505l85 295h133l-152 -295h-66z" />
    <glyph glyph-name="lcaron" unicode="&#x13e;" 
d="M103 0v80h202v640h-202v80h287v-720h203v-80h-490zM489 705l85 295h133l-152 -295h-66z" />
    <glyph glyph-name="Ldot" unicode="&#x13f;" 
d="M158 0v800h85v-722h350v-78h-435zM590 415q-35 0 -57 11t-22 42v6q0 31 22 43t57 12t57 -12t22 -43v-6q0 -31 -22.5 -42t-56.5 -11z" />
    <glyph glyph-name="ldot" unicode="&#x140;" 
d="M103 0v80h202v640h-202v80h287v-720h203v-80h-490zM665 308q-35 0 -57 11t-22 42v6q0 31 22 43t57 12t57 -12t22 -43v-6q0 -31 -22.5 -42t-56.5 -11z" />
    <glyph glyph-name="Lslash" unicode="&#x141;" 
d="M158 0v368l-105 -32v72l105 32v360h85v-334l253 78v-72l-253 -78v-316h350v-78h-435z" />
    <glyph glyph-name="lslash" unicode="&#x142;" 
d="M103 0v80h202v277l-149 -41v72l149 41v291h-202v80h287v-348l159 44v-72l-159 -44v-300h203v-80h-490z" />
    <glyph glyph-name="Nacute" unicode="&#x143;" 
d="M463 0l-277 700v-700h-78v800h125l282 -713v713h78v-800h-130zM258 900l141 200h135l-191 -200h-85z" />
    <glyph glyph-name="nacute" unicode="&#x144;" 
d="M106 0v600h85v-98h30q22 49 68.5 78.5t104.5 29.5q92 0 146 -56.5t54 -153.5v-400h-85v383q0 70 -32.5 106.5t-94.5 36.5q-47 0 -95.5 -29t-95.5 -84v-413h-85zM259 700l141 200h135l-191 -200h-85z" />
    <glyph glyph-name="Ncommaaccent" unicode="&#x145;" 
d="M197 -300l101 200h135l-151 -200h-85zM463 0l-277 700v-700h-78v800h125l282 -713v713h78v-800h-130z" />
    <glyph glyph-name="ncommaaccent" unicode="&#x146;" 
d="M220 -300l101 200h135l-151 -200h-85zM106 0v600h85v-98h30q22 49 68.5 78.5t104.5 29.5q92 0 146 -56.5t54 -153.5v-400h-85v383q0 70 -32.5 106.5t-94.5 36.5q-47 0 -95.5 -29t-95.5 -84v-413h-85z" />
    <glyph glyph-name="Ncaron" unicode="&#x147;" 
d="M463 0l-277 700v-700h-78v800h125l282 -713v713h78v-800h-130zM344 904l-175 147l35 60l170 -118l168 118l35 -60l-173 -147h-60z" />
    <glyph glyph-name="ncaron" unicode="&#x148;" 
d="M106 0v600h85v-98h30q22 49 68.5 78.5t104.5 29.5q92 0 146 -56.5t54 -153.5v-400h-85v383q0 70 -32.5 106.5t-94.5 36.5q-47 0 -95.5 -29t-95.5 -84v-413h-85zM341 704l-175 147l35 60l170 -118l168 118l35 -60l-173 -147h-60z" />
    <glyph glyph-name="napostrophe" unicode="&#x149;" 
d="M106 0v600h85v-98h30q22 49 68.5 78.5t104.5 29.5q92 0 146 -56.5t54 -153.5v-400h-85v383q0 70 -32.5 106.5t-94.5 36.5q-47 0 -95.5 -29t-95.5 -84v-413h-85zM-11 700l141 200h135l-191 -200h-85z" />
    <glyph glyph-name="Eng" unicode="&#x14a;" 
d="M364 -208q-37 0 -75.5 10t-84.5 24l20 90q42 -16 75.5 -25t64.5 -9q64 0 104 42t40 141v513q0 81 -37 114.5t-89 33.5q-62 0 -101 -36t-88 -93v-597h-85v800h85v-118h30q25 59 74 93.5t108 34.5q89 0 138.5 -57.5t49.5 -156.5v-543q0 -132 -65 -196.5t-164 -64.5z" />
    <glyph glyph-name="eng" unicode="&#x14b;" 
d="M398 -208q-28 0 -59.5 6t-65.5 16l20 90q28 -10 55 -16t50 -6q49 0 80 28.5t31 94.5v401q0 60 -31 90t-96 30q-49 0 -95.5 -28t-95.5 -85v-413h-85v600h85v-98h30q21 48 70 78t113 30q88 0 139 -50t51 -132v-435q0 -101 -55 -151t-141 -50z" />
    <glyph glyph-name="Omacron" unicode="&#x14c;" 
d="M350 -10q-130 0 -197.5 74.5t-67.5 218.5v230q0 146 68 221.5t198 75.5q129 0 197 -75.5t68 -221.5v-230q0 -144 -68 -218.5t-198 -74.5zM350 68q98 0 139.5 48.5t41.5 162.5v238q0 117 -41.5 166t-139.5 49t-139 -49t-41 -166v-238q0 -114 41 -162.5t139 -48.5zM154 961
v78h392v-78h-392z" />
    <glyph glyph-name="omacron" unicode="&#x14d;" 
d="M350 -10q-119 0 -181.5 58.5t-62.5 168.5v162q0 112 63 171.5t182 59.5q118 0 180.5 -59.5t62.5 -170.5v-162q0 -111 -62.5 -169.5t-181.5 -58.5zM350 70q81 0 120 36t39 109v166q0 75 -39 112t-120 37t-120 -37t-39 -113v-166q0 -72 39 -108t120 -36zM154 761v78h392
v-78h-392z" />
    <glyph glyph-name="Obreve" unicode="&#x14e;" 
d="M350 -10q-130 0 -197.5 74.5t-67.5 218.5v230q0 146 68 221.5t198 75.5q129 0 197 -75.5t68 -221.5v-230q0 -144 -68 -218.5t-198 -74.5zM350 68q98 0 139.5 48.5t41.5 162.5v238q0 117 -41.5 166t-139.5 49t-139 -49t-41 -166v-238q0 -114 41 -162.5t139 -48.5zM350 893
q-91 0 -158.5 45t-68.5 159h91q1 -72 35 -102.5t101 -30.5t101 30.5t35 102.5h91q-1 -114 -68.5 -159t-158.5 -45z" />
    <glyph glyph-name="obreve" unicode="&#x14f;" 
d="M350 -10q-119 0 -181.5 58.5t-62.5 168.5v162q0 112 63 171.5t182 59.5q118 0 180.5 -59.5t62.5 -170.5v-162q0 -111 -62.5 -169.5t-181.5 -58.5zM350 70q81 0 120 36t39 109v166q0 75 -39 112t-120 37t-120 -37t-39 -113v-166q0 -72 39 -108t120 -36zM349 693
q-91 0 -158.5 45t-68.5 159h91q1 -72 35 -102.5t101 -30.5t101 30.5t35 102.5h91q-1 -114 -68.5 -159t-158.5 -45z" />
    <glyph glyph-name="Ohungarumlaut" unicode="&#x150;" 
d="M350 -10q-130 0 -197.5 74.5t-67.5 218.5v230q0 146 68 221.5t198 75.5q129 0 197 -75.5t68 -221.5v-230q0 -144 -68 -218.5t-198 -74.5zM350 68q98 0 139.5 48.5t41.5 162.5v238q0 117 -41.5 166t-139.5 49t-139 -49t-41 -166v-238q0 -114 41 -162.5t139 -48.5zM406 900
l58 200h132l-123 -200h-67zM176 900l57 200h133l-124 -200h-66z" />
    <glyph glyph-name="ohungarumlaut" unicode="&#x151;" 
d="M350 -10q-119 0 -181.5 58.5t-62.5 168.5v162q0 112 63 171.5t182 59.5q118 0 180.5 -59.5t62.5 -170.5v-162q0 -111 -62.5 -169.5t-181.5 -58.5zM350 70q81 0 120 36t39 109v166q0 75 -39 112t-120 37t-120 -37t-39 -113v-166q0 -72 39 -108t120 -36zM408 700l58 200
h132l-123 -200h-67zM178 700l57 200h133l-124 -200h-66z" />
    <glyph glyph-name="OE" unicode="&#x152;" 
d="M269 0q-123 0 -192.5 78t-69.5 208v222q0 133 69 212.5t191 79.5h436v-68h-260v-256h268v-68h-268v-340h260v-68h-434zM266 66h99v668h-99q-90 0 -135.5 -64t-45.5 -158v-230q0 -95 45.5 -155.5t135.5 -60.5z" />
    <glyph glyph-name="oe" unicode="&#x153;" 
d="M671 130q-9 -69 -49 -104.5t-125 -35.5q-53 0 -91 19.5t-58 59.5q-24 -40 -60.5 -59.5t-83.5 -19.5q-79 0 -127 58t-48 177v146q0 121 48.5 180t127.5 59q46 0 82.5 -19.5t59.5 -59.5q21 40 57 59.5t82 19.5q85 0 135 -50.5t50 -154.5v-121h-287v-99q0 -69 25.5 -99.5
t77.5 -30.5q53 0 73 17t28 63zM384 409v-67h208v58q0 75 -26.5 109.5t-77.5 34.5t-77.5 -33t-26.5 -102zM212 58q52 0 78 38.5t26 125.5v150q0 88 -26 129t-78 41q-51 0 -77.5 -41t-26.5 -129v-150q0 -87 26.5 -125.5t77.5 -38.5z" />
    <glyph glyph-name="Racute" unicode="&#x154;" 
d="M193 392h215q85 0 121 31.5t36 106.5v63q0 70 -36 99.5t-121 29.5h-215v-330zM193 0h-85v800h296q124 0 186 -51.5t62 -157.5v-60q0 -99 -51 -153t-154 -62l211 -316h-100l-210 316h-155v-316zM322 900l141 200h135l-191 -200h-85z" />
    <glyph glyph-name="racute" unicode="&#x155;" 
d="M161 0v600h85v-98h30q20 56 62.5 82t102.5 26q66 0 111.5 -44.5t45.5 -125.5v-86h-82v54q0 61 -27 89.5t-81 28.5q-49 0 -88.5 -24.5t-73.5 -75.5v-426h-85zM281 700l141 200h135l-191 -200h-85z" />
    <glyph glyph-name="Rcommaaccent" unicode="&#x156;" 
d="M193 392h215q85 0 121 31.5t36 106.5v63q0 70 -36 99.5t-121 29.5h-215v-330zM193 0h-85v800h296q124 0 186 -51.5t62 -157.5v-60q0 -99 -51 -153t-154 -62l211 -316h-100l-210 316h-155v-316zM207 -300l101 200h135l-151 -200h-85z" />
    <glyph glyph-name="rcommaaccent" unicode="&#x157;" 
d="M161 0v600h85v-98h30q20 56 62.5 82t102.5 26q66 0 111.5 -44.5t45.5 -125.5v-86h-82v54q0 61 -27 89.5t-81 28.5q-49 0 -88.5 -24.5t-73.5 -75.5v-426h-85zM86 -300l101 200h135l-151 -200h-85z" />
    <glyph glyph-name="Rcaron" unicode="&#x158;" 
d="M193 392h215q85 0 121 31.5t36 106.5v63q0 70 -36 99.5t-121 29.5h-215v-330zM193 0h-85v800h296q124 0 186 -51.5t62 -157.5v-60q0 -99 -51 -153t-154 -62l211 -316h-100l-210 316h-155v-316zM329 904l-175 147l35 60l170 -118l168 118l35 -60l-173 -147h-60z" />
    <glyph glyph-name="rcaron" unicode="&#x159;" 
d="M161 0v600h85v-98h30q20 56 62.5 82t102.5 26q66 0 111.5 -44.5t45.5 -125.5v-86h-82v54q0 61 -27 89.5t-81 28.5q-49 0 -88.5 -24.5t-73.5 -75.5v-426h-85zM363 704l-175 147l35 60l170 -118l168 118l35 -60l-173 -147h-60z" />
    <glyph glyph-name="Sacute" unicode="&#x15a;" 
d="M366 -5q-88 0 -167 30t-142 116l76 51q40 -60 98 -89.5t138 -29.5q76 0 124.5 37t48.5 100q0 59 -40 92.5t-159 70.5q-147 44 -200 92t-53 136q0 103 69 152.5t161 49.5q85 0 161 -30t136 -116l-74 -54q-37 63 -98 92.5t-123 29.5q-65 0 -105.5 -27t-40.5 -91
q0 -56 44 -88.5t170 -70.5q138 -42 187.5 -88t49.5 -132q0 -115 -81 -174t-180 -59zM240 900l141 200h135l-191 -200h-85z" />
    <glyph glyph-name="sacute" unicode="&#x15b;" 
d="M359 -11q-75 0 -145.5 23t-130.5 72l45 71q48 -40 107 -61t123 -21q54 0 105.5 16.5t51.5 73.5q0 45 -41 63.5t-154 33.5q-108 13 -162.5 52t-54.5 121q0 89 68 133t152 44q72 0 137.5 -25.5t121.5 -71.5l-46 -73q-44 38 -98.5 62t-115.5 24q-49 0 -92 -19t-43 -71
q0 -43 37.5 -63t147.5 -33q113 -13 170 -55.5t57 -117.5q0 -95 -76.5 -136.5t-163.5 -41.5zM236 700l141 200h135l-191 -200h-85z" />
    <glyph glyph-name="Scircumflex" unicode="&#x15c;" 
d="M366 -5q-88 0 -167 30t-142 116l76 51q40 -60 98 -89.5t138 -29.5q76 0 124.5 37t48.5 100q0 59 -40 92.5t-159 70.5q-147 44 -200 92t-53 136q0 103 69 152.5t161 49.5q85 0 161 -30t136 -116l-74 -54q-37 63 -98 92.5t-123 29.5q-65 0 -105.5 -27t-40.5 -91
q0 -56 44 -88.5t170 -70.5q138 -42 187.5 -88t49.5 -132q0 -115 -81 -174t-180 -59zM182 908l-35 60l173 147h60l175 -147l-35 -60l-170 118z" />
    <glyph glyph-name="scircumflex" unicode="&#x15d;" 
d="M359 -11q-75 0 -145.5 23t-130.5 72l45 71q48 -40 107 -61t123 -21q54 0 105.5 16.5t51.5 73.5q0 45 -41 63.5t-154 33.5q-108 13 -162.5 52t-54.5 121q0 89 68 133t152 44q72 0 137.5 -25.5t121.5 -71.5l-46 -73q-44 38 -98.5 62t-115.5 24q-49 0 -92 -19t-43 -71
q0 -43 37.5 -63t147.5 -33q113 -13 170 -55.5t57 -117.5q0 -95 -76.5 -136.5t-163.5 -41.5zM179 708l-35 60l173 147h60l175 -147l-35 -60l-170 118z" />
    <glyph glyph-name="Scedilla" unicode="&#x15e;" 
d="M366 -5q-88 0 -167 30t-142 116l76 51q40 -60 98 -89.5t138 -29.5q76 0 124.5 37t48.5 100q0 59 -40 92.5t-159 70.5q-147 44 -200 92t-53 136q0 103 69 152.5t161 49.5q85 0 161 -30t136 -116l-74 -54q-37 63 -98 92.5t-123 29.5q-65 0 -105.5 -27t-40.5 -91
q0 -56 44 -88.5t170 -70.5q138 -42 187.5 -88t49.5 -132q0 -115 -81 -174t-180 -59zM321 0l20 42q38 -8 76 -38t38 -96q0 -63 -42 -92.5t-94 -29.5q-61 0 -100 23t-43 77l76 10q2 -19 16 -26.5t46 -7.5q31 0 47 13t16 47q0 36 -13 53t-43 25z" />
    <glyph glyph-name="scedilla" unicode="&#x15f;" 
d="M359 -11q-75 0 -145.5 23t-130.5 72l45 71q48 -40 107 -61t123 -21q54 0 105.5 16.5t51.5 73.5q0 45 -41 63.5t-154 33.5q-108 13 -162.5 52t-54.5 121q0 89 68 133t152 44q72 0 137.5 -25.5t121.5 -71.5l-46 -73q-44 38 -98.5 62t-115.5 24q-49 0 -92 -19t-43 -71
q0 -43 37.5 -63t147.5 -33q113 -13 170 -55.5t57 -117.5q0 -95 -76.5 -136.5t-163.5 -41.5zM320 0l20 42q38 -8 76 -38t38 -96q0 -63 -42 -92.5t-94 -29.5q-61 0 -100 23t-43 77l76 10q2 -19 16 -26.5t46 -7.5q31 0 47 13t16 47q0 36 -13 53t-43 25z" />
    <glyph glyph-name="Scaron" unicode="&#x160;" 
d="M366 -5q-88 0 -167 30t-142 116l76 51q40 -60 98 -89.5t138 -29.5q76 0 124.5 37t48.5 100q0 59 -40 92.5t-159 70.5q-147 44 -200 92t-53 136q0 103 69 152.5t161 49.5q85 0 161 -30t136 -116l-74 -54q-37 63 -98 92.5t-123 29.5q-65 0 -105.5 -27t-40.5 -91
q0 -56 44 -88.5t170 -70.5q138 -42 187.5 -88t49.5 -132q0 -115 -81 -174t-180 -59zM322 904l-175 147l35 60l170 -118l168 118l35 -60l-173 -147h-60z" />
    <glyph glyph-name="scaron" unicode="&#x161;" 
d="M359 -11q-75 0 -145.5 23t-130.5 72l45 71q48 -40 107 -61t123 -21q54 0 105.5 16.5t51.5 73.5q0 45 -41 63.5t-154 33.5q-108 13 -162.5 52t-54.5 121q0 89 68 133t152 44q72 0 137.5 -25.5t121.5 -71.5l-46 -73q-44 38 -98.5 62t-115.5 24q-49 0 -92 -19t-43 -71
q0 -43 37.5 -63t147.5 -33q113 -13 170 -55.5t57 -117.5q0 -95 -76.5 -136.5t-163.5 -41.5zM319 704l-175 147l35 60l170 -118l168 118l35 -60l-173 -147h-60z" />
    <glyph glyph-name="Tcedilla" unicode="&#x162;" 
d="M308 0v722h-255v78h594v-78h-254v-722h-85zM307 0l20 42q38 -8 76 -38t38 -96q0 -63 -42 -92.5t-94 -29.5q-61 0 -100 23t-43 77l76 10q2 -19 16 -26.5t46 -7.5q31 0 47 13t16 47q0 36 -13 53t-43 25z" />
    <glyph glyph-name="tcedilla" unicode="&#x163;" 
d="M447 -9q-96 0 -148.5 47t-52.5 148v334h-174v80h174v200h85v-200h266v-80h-266v-328q0 -59 29.5 -87.5t89.5 -28.5q40 0 73.5 6t62.5 14l20 -82q-36 -10 -73.5 -16.5t-85.5 -6.5zM388 0l20 42q38 -8 76 -38t38 -96q0 -63 -42 -92.5t-94 -29.5q-61 0 -100 23t-43 77l76 10
q2 -19 16 -26.5t46 -7.5q31 0 47 13t16 47q0 36 -13 53t-43 25z" />
    <glyph glyph-name="Tcaron" unicode="&#x164;" 
d="M308 0v722h-255v78h594v-78h-254v-722h-85zM321 904l-175 147l35 60l170 -118l168 118l35 -60l-173 -147h-60z" />
    <glyph glyph-name="tcaron" unicode="&#x165;" 
d="M447 -9q-96 0 -148.5 47t-52.5 148v334h-174v80h174v200h85v-200h266v-80h-266v-328q0 -59 29.5 -87.5t89.5 -28.5q40 0 73.5 6t62.5 14l20 -82q-36 -10 -73.5 -16.5t-85.5 -6.5zM427 705l85 295h133l-152 -295h-66z" />
    <glyph glyph-name="Tbar" unicode="&#x166;" 
d="M308 0v314h-206v84h206v324h-255v78h594v-78h-254v-324h206v-84h-206v-314h-85z" />
    <glyph glyph-name="tbar" unicode="&#x167;" 
d="M447 -9q-96 0 -148.5 47t-52.5 148v100h-131v84h131v150h-174v80h174v200h85v-200h266v-80h-266v-150h235v-84h-235v-94q0 -59 29.5 -87.5t89.5 -28.5q40 0 73.5 6t62.5 14l20 -82q-36 -10 -73.5 -16.5t-85.5 -6.5z" />
    <glyph glyph-name="Utilde" unicode="&#x168;" 
d="M350 -10q-121 0 -181.5 72t-60.5 215v523h85v-525q0 -113 35.5 -161t121.5 -48t122 48t36 161v525h85v-523q0 -143 -61 -215t-182 -72zM426 910q-32 0 -55 19t-41 41t-34 40.5t-33 18.5q-19 0 -33.5 -19t-13.5 -79v-11h-70v15q0 73 32.5 122t94.5 49q37 0 61 -18.5
t41 -40.5t31 -41t31 -19q19 0 33 19t14 79v11h70v-15q0 -75 -32.5 -123t-95.5 -48z" />
    <glyph glyph-name="utilde" unicode="&#x169;" 
d="M304 -10q-90 0 -144 58.5t-54 151.5v400h85v-387q0 -72 30.5 -105.5t96.5 -33.5q49 0 95.5 26t95.5 83v417h85v-600h-85v98h-30q-20 -46 -67.5 -77t-107.5 -31zM426 710q-32 0 -55 19t-41 41t-34 40.5t-33 18.5q-19 0 -33.5 -19t-13.5 -79v-11h-70v15q0 73 32.5 122
t94.5 49q37 0 61 -18.5t41 -40.5t31 -41t31 -19q19 0 33 19t14 79v11h70v-15q0 -75 -32.5 -123t-95.5 -48z" />
    <glyph glyph-name="Umacron" unicode="&#x16a;" 
d="M350 -10q-121 0 -181.5 72t-60.5 215v523h85v-525q0 -113 35.5 -161t121.5 -48t122 48t36 161v525h85v-523q0 -143 -61 -215t-182 -72zM154 961v78h392v-78h-392z" />
    <glyph glyph-name="umacron" unicode="&#x16b;" 
d="M304 -10q-90 0 -144 58.5t-54 151.5v400h85v-387q0 -72 30.5 -105.5t96.5 -33.5q49 0 95.5 26t95.5 83v417h85v-600h-85v98h-30q-20 -46 -67.5 -77t-107.5 -31zM154 761v78h392v-78h-392z" />
    <glyph glyph-name="Ubreve" unicode="&#x16c;" 
d="M350 -10q-121 0 -181.5 72t-60.5 215v523h85v-525q0 -113 35.5 -161t121.5 -48t122 48t36 161v525h85v-523q0 -143 -61 -215t-182 -72zM350 893q-91 0 -158.5 45t-68.5 159h91q1 -72 35 -102.5t101 -30.5t101 30.5t35 102.5h91q-1 -114 -68.5 -159t-158.5 -45z" />
    <glyph glyph-name="ubreve" unicode="&#x16d;" 
d="M304 -10q-90 0 -144 58.5t-54 151.5v400h85v-387q0 -72 30.5 -105.5t96.5 -33.5q49 0 95.5 26t95.5 83v417h85v-600h-85v98h-30q-20 -46 -67.5 -77t-107.5 -31zM349 693q-91 0 -158.5 45t-68.5 159h91q1 -72 35 -102.5t101 -30.5t101 30.5t35 102.5h91
q-1 -114 -68.5 -159t-158.5 -45z" />
    <glyph glyph-name="Uring" unicode="&#x16e;" 
d="M350 -10q-121 0 -181.5 72t-60.5 215v523h85v-525q0 -113 35.5 -161t121.5 -48t122 48t36 161v525h85v-523q0 -143 -61 -215t-182 -72zM350 887q-69 0 -111 35t-42 108v32q0 74 42 110t111 36t111 -36t42 -110v-32q0 -73 -42 -108t-111 -35zM350 954q41 0 62.5 17.5
t21.5 58.5v32q0 40 -21.5 59.5t-62.5 19.5q-42 0 -63 -19.5t-21 -59.5v-32q0 -41 21 -58.5t63 -17.5z" />
    <glyph glyph-name="uring" unicode="&#x16f;" 
d="M304 -10q-90 0 -144 58.5t-54 151.5v400h85v-387q0 -72 30.5 -105.5t96.5 -33.5q49 0 95.5 26t95.5 83v417h85v-600h-85v98h-30q-20 -46 -67.5 -77t-107.5 -31zM349 687q-69 0 -111 35t-42 108v32q0 74 42 110t111 36t111 -36t42 -110v-32q0 -73 -42 -108t-111 -35z
M349 754q41 0 62.5 17.5t21.5 58.5v32q0 40 -21.5 59.5t-62.5 19.5q-42 0 -63 -19.5t-21 -59.5v-32q0 -41 21 -58.5t63 -17.5z" />
    <glyph glyph-name="Uhungarumlaut" unicode="&#x170;" 
d="M350 -10q-121 0 -181.5 72t-60.5 215v523h85v-525q0 -113 35.5 -161t121.5 -48t122 48t36 161v525h85v-523q0 -143 -61 -215t-182 -72zM416 900l58 200h132l-123 -200h-67zM186 900l57 200h133l-124 -200h-66z" />
    <glyph glyph-name="uhungarumlaut" unicode="&#x171;" 
d="M304 -10q-90 0 -144 58.5t-54 151.5v400h85v-387q0 -72 30.5 -105.5t96.5 -33.5q49 0 95.5 26t95.5 83v417h85v-600h-85v98h-30q-20 -46 -67.5 -77t-107.5 -31zM431 700l58 200h132l-123 -200h-67zM201 700l57 200h133l-124 -200h-66z" />
    <glyph glyph-name="Uogonek" unicode="&#x172;" 
d="M414 -213q-60 0 -103 31.5t-43 85.5q0 45 36.5 81.5t80.5 55.5l27 -18q-34 -21 -47.5 -47t-13.5 -47q0 -28 19 -43t51 -15q18 0 46 3t43 7v-85q-16 -4 -45 -6.5t-51 -2.5zM350 -10q-121 0 -181.5 72t-60.5 215v523h85v-525q0 -113 35.5 -161t121.5 -48t122 48t36 161v525
h85v-523q0 -143 -61 -215t-182 -72z" />
    <glyph glyph-name="uogonek" unicode="&#x173;" 
d="M588 -213q-60 0 -103 31.5t-43 85.5q0 45 36.5 81.5t80.5 55.5l27 -18q-34 -21 -47.5 -47t-13.5 -47q0 -28 19 -43t51 -15q18 0 46 3t43 7v-85q-16 -4 -45 -6.5t-51 -2.5zM304 -10q-90 0 -144 58.5t-54 151.5v400h85v-387q0 -72 30.5 -105.5t96.5 -33.5q49 0 95.5 26
t95.5 83v417h85v-600h-85v98h-30q-20 -46 -67.5 -77t-107.5 -31z" />
    <glyph glyph-name="Wcircumflex" unicode="&#x174;" 
d="M476 0l-127 498l-125 -498h-89l-109 800h89l77 -663l111 463h100l111 -466l77 666h83l-109 -800h-89zM181 908l-35 60l173 147h60l175 -147l-35 -60l-170 118z" />
    <glyph glyph-name="wcircumflex" unicode="&#x175;" 
d="M440 0l-90 412l-85 -412h-105l-116 600h85l80 -549l80 451h118l87 -434l77 532h86l-116 -600h-101zM180 708l-35 60l173 147h60l175 -147l-35 -60l-170 118z" />
    <glyph glyph-name="Ycircumflex" unicode="&#x176;" 
d="M393 0h-85v300l-294 500h99l244 -420l231 420h97l-292 -500v-300zM181 908l-35 60l173 147h60l175 -147l-35 -60l-170 118z" />
    <glyph glyph-name="ycircumflex" unicode="&#x177;" 
d="M169 -205q-22 0 -43 3t-42 8l18 79q24 -6 44.5 -8.5t38.5 -2.5q44 0 81 26.5t56 81.5l4 10h-24l-220 608h94l177 -530l173 530h92l-226 -627q-34 -91 -91 -134.5t-132 -43.5zM181 708l-35 60l173 147h60l175 -147l-35 -60l-170 118z" />
    <glyph glyph-name="Ydieresis" unicode="&#x178;" 
d="M393 0h-85v300l-294 500h99l244 -420l231 420h97l-292 -500v-300zM237 914q-27 0 -43.5 11t-16.5 42v6q0 31 16.5 43t43.5 12t43.5 -12t16.5 -43v-6q0 -31 -17 -42t-43 -11zM463 914q-27 0 -43.5 11t-16.5 42v6q0 31 16.5 43t43.5 12t43.5 -12t16.5 -43v-6q0 -31 -17 -42
t-43 -11z" />
    <glyph glyph-name="Zacute" unicode="&#x179;" 
d="M616 0h-531v78l424 644h-424v78h531v-78l-426 -644h426v-78zM269 900l141 200h135l-191 -200h-85z" />
    <glyph glyph-name="zacute" unicode="&#x17a;" 
d="M573 0h-445v80l334 440h-334v80h445v-80l-335 -440h335v-80zM232 700l141 200h135l-191 -200h-85z" />
    <glyph glyph-name="Zdotaccent" unicode="&#x17b;" 
d="M616 0h-531v78l424 644h-424v78h531v-78l-426 -644h426v-78zM350 914q-35 0 -57 11t-22 42v6q0 31 22 43t57 12t57 -12t22 -43v-6q0 -31 -22.5 -42t-56.5 -11z" />
    <glyph glyph-name="zdotaccent" unicode="&#x17c;" 
d="M573 0h-445v80l334 440h-334v80h445v-80l-335 -440h335v-80zM352 714q-35 0 -57 11t-22 42v6q0 31 22 43t57 12t57 -12t22 -43v-6q0 -31 -22.5 -42t-56.5 -11z" />
    <glyph glyph-name="Zcaron" unicode="&#x17d;" 
d="M616 0h-531v78l424 644h-424v78h531v-78l-426 -644h426v-78zM321 904l-175 147l35 60l170 -118l168 118l35 -60l-173 -147h-60z" />
    <glyph glyph-name="zcaron" unicode="&#x17e;" 
d="M573 0h-445v80l334 440h-334v80h445v-80l-335 -440h335v-80zM321 704l-175 147l35 60l170 -118l168 118l35 -60l-173 -147h-60z" />
    <glyph glyph-name="longs" unicode="&#x17f;" 
d="M308 0v520h-120v80h120v42q0 78 51.5 120t116.5 42q28 0 64.5 -8.5t61.5 -17.5l-20 -76q-20 8 -45.5 14t-52.5 6q-42 0 -66.5 -18t-24.5 -58v-646h-85z" />
    <glyph glyph-name="florin" unicode="&#x192;" 
d="M224 -6q-16 0 -36 1.5t-41 4.5t-40 7.5t-31 10.5l20 78q14 -6 29 -10t29 -6t26.5 -3t24.5 -1q30 0 49.5 5.5t31.5 17.5q12 13 17 33.5t5 51.5v230h-212v80h212v148q0 36 12 65.5t35 51.5q22 22 53 33.5t68 11.5q16 0 36 -1.5t41 -4.5t40 -7.5t32 -10.5l-20 -78
q-15 6 -30 10t-29 6t-26.5 3t-24.5 1q-30 0 -49.5 -5.5t-30.5 -18.5q-12 -12 -17 -32.5t-5 -51.5v-120h223v-80h-223v-258q0 -37 -12 -67t-34 -51t-53.5 -32.5t-69.5 -11.5z" />
    <glyph glyph-name="Aringacute" unicode="&#x1fa;" 
d="M464 318l-116 376l-115 -376h231zM563 0l-74 240h-280l-74 -240h-90l264 800h84l264 -800h-94zM351 887q-69 0 -111 35t-42 108v32q0 74 42 110t111 36t111 -36t42 -110v-32q0 -73 -42 -108t-111 -35zM351 954q41 0 62.5 17.5t21.5 58.5v32q0 40 -21.5 59.5t-62.5 19.5
q-42 0 -63 -19.5t-21 -59.5v-32q0 -41 21 -58.5t63 -17.5zM298 1200l141 200h135l-191 -200h-85z" />
    <glyph glyph-name="aringacute" unicode="&#x1fb;" 
d="M277 69q55 0 101.5 21t79.5 73v96h-189q-46 0 -76 -20.5t-30 -71.5q0 -46 25.5 -72t88.5 -26zM270 -10q-74 0 -134.5 39.5t-60.5 130.5q0 78 50 123.5t114 45.5h219v89q0 49 -33.5 80t-102.5 31t-103 -20t-55 -91l-77 24q16 81 76 124.5t156 43.5q93 0 159 -43t66 -135
v-278q0 -57 31 -71.5t94 -3.5v-84q-59 -7 -114 10t-58 97h-18q-28 -48 -84 -80t-125 -32zM330 687q-69 0 -111 35t-42 108v32q0 74 42 110t111 36t111 -36t42 -110v-32q0 -73 -42 -108t-111 -35zM330 754q41 0 62.5 17.5t21.5 58.5v32q0 40 -21.5 59.5t-62.5 19.5
q-42 0 -63 -19.5t-21 -59.5v-32q0 -41 21 -58.5t63 -17.5zM281 1000l141 200h135l-191 -200h-85z" />
    <glyph glyph-name="AEacute" unicode="&#x1fc;" 
d="M294 732l-126 -424h197v424h-71zM365 240h-218l-71 -240h-78l250 800h444v-68h-249v-268h240v-68h-240v-328h249v-68h-327v240zM371 900l141 200h135l-191 -200h-85z" />
    <glyph glyph-name="aeacute" unicode="&#x1fd;" 
d="M670 142q-9 -79 -48.5 -115.5t-124.5 -36.5q-57 0 -97.5 22t-60.5 68h-13q-25 -38 -58.5 -64t-89.5 -26q-49 0 -97.5 39.5t-48.5 132.5q0 78 46 122.5t106 44.5h129v91q0 54 -26 87.5t-75 33.5q-44 0 -63 -18t-36 -81l-69 24q13 67 54.5 105.5t125.5 38.5q40 0 73.5 -16
t54.5 -49q22 33 55 49t76 16q85 0 135.5 -48t50.5 -149v-129h-286v-107q0 -66 25 -94t77 -28q54 0 74.5 19t28.5 73zM383 417v-75h203v65q0 71 -25.5 104t-76.5 33q-49 0 -75 -31.5t-26 -95.5zM313 139v132h-102q-43 0 -71.5 -23t-28.5 -81q0 -51 18.5 -80.5t64.5 -29.5
q37 0 65.5 22.5t53.5 59.5zM284 700l141 200h135l-191 -200h-85z" />
    <glyph glyph-name="Oslashacute" unicode="&#x1fe;" 
d="M197 132l232 590q-16 5 -36 7.5t-43 2.5q-96 0 -136.5 -47.5t-40.5 -163.5v-246q0 -46 5.5 -81.5t18.5 -61.5zM350 68q96 0 137 47t41 160v246q0 60 -9.5 102t-28.5 69l-238 -607q19 -8 43.5 -12.5t54.5 -4.5zM350 -10q-34 0 -64.5 5.5t-55.5 15.5l-44 -111h-94l63 161
q-34 36 -52 91t-18 127v238q0 144 68 218.5t198 74.5q28 0 52.5 -3.5t46.5 -10.5l42 104h94l-59 -145q44 -36 66.5 -96t22.5 -142v-238q0 -141 -68.5 -215t-197.5 -74zM281 900l141 200h135l-191 -200h-85z" />
    <glyph glyph-name="oslashacute" unicode="&#x1ff;" 
d="M196 214q0 -31 6 -55t19 -41l198 401q-15 4 -32.5 6.5t-36.5 2.5q-79 0 -116.5 -35t-37.5 -113v-166zM350 72q79 0 117 34.5t38 107.5v166q0 32 -6.5 57t-19.5 42l-199 -398q15 -4 32.5 -6.5t37.5 -2.5zM350 -10q-28 0 -53 3.5t-47 10.5l-51 -104h-97l72 145
q-32 28 -49 70.5t-17 101.5v162q0 119 68 175t175 56q28 0 52.5 -3.5t46.5 -10.5l52 104h97l-73 -145q32 -28 49.5 -72t17.5 -104v-162q0 -118 -68 -172.5t-175 -54.5zM232 700l141 200h135l-191 -200h-85z" />
    <glyph glyph-name="Scommaaccent" unicode="&#x218;" 
d="M366 -5q-88 0 -167 30t-142 116l76 51q40 -60 98 -89.5t138 -29.5q76 0 124.5 37t48.5 100q0 59 -40 92.5t-159 70.5q-147 44 -200 92t-53 136q0 103 69 152.5t161 49.5q85 0 161 -30t136 -116l-74 -54q-37 63 -98 92.5t-123 29.5q-65 0 -105.5 -27t-40.5 -91
q0 -56 44 -88.5t170 -70.5q138 -42 187.5 -88t49.5 -132q0 -115 -81 -174t-180 -59zM200 -300l101 200h135l-151 -200h-85z" />
    <glyph glyph-name="scommaaccent" unicode="&#x219;" 
d="M359 -11q-75 0 -145.5 23t-130.5 72l45 71q48 -40 107 -61t123 -21q54 0 105.5 16.5t51.5 73.5q0 45 -41 63.5t-154 33.5q-108 13 -162.5 52t-54.5 121q0 89 68 133t152 44q72 0 137.5 -25.5t121.5 -71.5l-46 -73q-44 38 -98.5 62t-115.5 24q-49 0 -92 -19t-43 -71
q0 -43 37.5 -63t147.5 -33q113 -13 170 -55.5t57 -117.5q0 -95 -76.5 -136.5t-163.5 -41.5zM199 -300l101 200h135l-151 -200h-85z" />
    <glyph glyph-name="Tcommaaccent" unicode="&#x21a;" 
d="M308 0v722h-255v78h594v-78h-254v-722h-85zM197 -300l101 200h135l-151 -200h-85z" />
    <glyph glyph-name="tcommaaccent" unicode="&#x21b;" 
d="M447 -9q-96 0 -148.5 47t-52.5 148v334h-174v80h174v200h85v-200h266v-80h-266v-328q0 -59 29.5 -87.5t89.5 -28.5q40 0 73.5 6t62.5 14l20 -82q-36 -10 -73.5 -16.5t-85.5 -6.5zM216 -300l101 200h135l-151 -200h-85z" />
    <glyph glyph-name="dotlessj" unicode="&#xf6be;" 
d="M261 -208q-37 0 -73 4.5t-79 17.5l20 90q37 -13 68.5 -17.5t63.5 -4.5q66 0 107 28.5t41 94.5v515h-285v80h370v-607q0 -104 -68 -152.5t-165 -48.5z" />
    <glyph glyph-name="dotlessj" unicode="&#x237;" 
d="M261 -208q-37 0 -73 4.5t-79 17.5l20 90q37 -13 68.5 -17.5t63.5 -4.5q66 0 107 28.5t41 94.5v515h-285v80h370v-607q0 -104 -68 -152.5t-165 -48.5z" />
    <glyph glyph-name="quoteleft" unicode="&#x2018;" 
d="M207 410l221 390h78l-112 -390h-187z" />
    <glyph glyph-name="quoteleft" unicode="&#x2bb;" 
d="M207 410l221 390h78l-112 -390h-187z" />
    <glyph glyph-name="circumflex" unicode="&#x2c6;" 
d="M181 708l-35 60l173 147h60l175 -147l-35 -60l-170 118z" />
    <glyph glyph-name="caron" unicode="&#x2c7;" 
d="M321 704l-175 147l35 60l170 -118l168 118l35 -60l-173 -147h-60z" />
    <glyph glyph-name="breve" unicode="&#x2d8;" 
d="M350 693q-91 0 -158.5 45t-68.5 159h91q1 -72 35 -102.5t101 -30.5t101 30.5t35 102.5h91q-1 -114 -68.5 -159t-158.5 -45z" />
    <glyph glyph-name="dotaccent" unicode="&#x2d9;" 
d="M350 714q-35 0 -57 11t-22 42v6q0 31 22 43t57 12t57 -12t22 -43v-6q0 -31 -22.5 -42t-56.5 -11z" />
    <glyph glyph-name="ring" unicode="&#x2da;" 
d="M350 687q-69 0 -111 35t-42 108v32q0 74 42 110t111 36t111 -36t42 -110v-32q0 -73 -42 -108t-111 -35zM350 754q41 0 62.5 17.5t21.5 58.5v32q0 40 -21.5 59.5t-62.5 19.5q-42 0 -63 -19.5t-21 -59.5v-32q0 -41 21 -58.5t63 -17.5z" />
    <glyph glyph-name="ogonek" unicode="&#x2db;" 
d="M411 -213q-60 0 -103 31.5t-43 85.5q0 45 36.5 81.5t80.5 55.5l27 -18q-34 -21 -47.5 -47t-13.5 -47q0 -28 19 -43t51 -15q18 0 46 3t43 7v-85q-16 -4 -45 -6.5t-51 -2.5z" />
    <glyph glyph-name="tilde" unicode="&#x2dc;" 
d="M426 710q-32 0 -55 19t-41 41t-34 40.5t-33 18.5q-19 0 -33.5 -19t-13.5 -79v-11h-70v15q0 73 32.5 122t94.5 49q37 0 61 -18.5t41 -40.5t31 -41t31 -19q19 0 33 19t14 79v11h70v-15q0 -75 -32.5 -123t-95.5 -48z" />
    <glyph glyph-name="hungarumlaut" unicode="&#x2dd;" 
d="M432 700l58 200h132l-123 -200h-67zM202 700l57 200h133l-124 -200h-66z" />
    <glyph glyph-name="gravecmb" unicode="&#x300;" horiz-adv-x="0" 
d="M4 700l-191 200h135l141 -200h-85z" />
    <glyph glyph-name="acutecmb" unicode="&#x301;" horiz-adv-x="0" 
d="M-111 700l141 200h135l-191 -200h-85z" />
    <glyph glyph-name="circumflexcmb" unicode="&#x302;" horiz-adv-x="0" 
d="M-169 708l-35 60l173 147h60l175 -147l-35 -60l-170 118z" />
    <glyph glyph-name="tildecmb" unicode="&#x303;" horiz-adv-x="0" 
d="M76 710q-32 0 -55 19t-41 41t-34 40.5t-33 18.5q-19 0 -33.5 -19t-13.5 -79v-11h-70v15q0 73 32.5 122t94.5 49q37 0 61 -18.5t41 -40.5t31 -41t31 -19q19 0 33 19t14 79v11h70v-15q0 -75 -32.5 -123t-95.5 -48z" />
    <glyph glyph-name="macroncmb" unicode="&#x304;" horiz-adv-x="0" 
d="M-196 761v78h392v-78h-392z" />
    <glyph glyph-name="brevecmb" unicode="&#x306;" horiz-adv-x="0" 
d="M0 693q-91 0 -158.5 45t-68.5 159h91q1 -72 35 -102.5t101 -30.5t101 30.5t35 102.5h91q-1 -114 -68.5 -159t-158.5 -45z" />
    <glyph glyph-name="dotaccentcmb" unicode="&#x307;" horiz-adv-x="0" 
d="M0 714q-35 0 -57 11t-22 42v6q0 31 22 43t57 12t57 -12t22 -43v-6q0 -31 -22.5 -42t-56.5 -11z" />
    <glyph glyph-name="dieresiscmb" unicode="&#x308;" horiz-adv-x="0" 
d="M-113 714q-27 0 -43.5 11t-16.5 42v6q0 31 16.5 43t43.5 12t43.5 -12t16.5 -43v-6q0 -31 -17 -42t-43 -11zM113 714q-27 0 -43.5 11t-16.5 42v6q0 31 16.5 43t43.5 12t43.5 -12t16.5 -43v-6q0 -31 -17 -42t-43 -11z" />
    <glyph glyph-name="ringcmb" unicode="&#x30a;" horiz-adv-x="0" 
d="M0 687q-69 0 -111 35t-42 108v32q0 74 42 110t111 36t111 -36t42 -110v-32q0 -73 -42 -108t-111 -35zM0 754q41 0 62.5 17.5t21.5 58.5v32q0 40 -21.5 59.5t-62.5 19.5q-42 0 -63 -19.5t-21 -59.5v-32q0 -41 21 -58.5t63 -17.5z" />
    <glyph glyph-name="hungarumlautcmb" unicode="&#x30b;" horiz-adv-x="0" 
d="M82 700l58 200h132l-123 -200h-67zM-148 700l57 200h133l-124 -200h-66z" />
    <glyph glyph-name="caroncmb" unicode="&#x30c;" horiz-adv-x="0" 
d="M-29 704l-175 147l35 60l170 -118l168 118l35 -60l-173 -147h-60z" />
    <glyph glyph-name="commaturnedabovecmb" unicode="&#x312;" horiz-adv-x="0" 
d="M-131 700l151 200h85l-101 -200h-135z" />
    <glyph glyph-name="commaaccentcmb" unicode="&#x326;" horiz-adv-x="0" 
d="M-130 -300l101 200h135l-151 -200h-85z" />
    <glyph glyph-name="cedillacmb" unicode="&#x327;" horiz-adv-x="0" 
d="M-30 0l20 42q38 -8 76 -38t38 -96q0 -63 -42 -92.5t-94 -29.5q-61 0 -100 23t-43 77l76 10q2 -19 16 -26.5t46 -7.5q31 0 47 13t16 47q0 36 -13 53t-43 25z" />
    <glyph glyph-name="ogonekcmb" unicode="&#x328;" horiz-adv-x="0" 
d="M61 -213q-60 0 -103 31.5t-43 85.5q0 45 36.5 81.5t80.5 55.5l27 -18q-34 -21 -47.5 -47t-13.5 -47q0 -28 19 -43t51 -15q18 0 46 3t43 7v-85q-16 -4 -45 -6.5t-51 -2.5z" />
    <glyph glyph-name="tonos" unicode="&#x384;" 
d="M279 700l81 200h125l-131 -200h-75z" />
    <glyph glyph-name="dieresistonos" unicode="&#x385;" 
d="M290 700l46 200h112l-105 -200h-53zM182 702q-22 0 -36 11t-14 42v6q0 31 14 43t36 12t36.5 -12t14.5 -43v-6q0 -31 -14.5 -42t-36.5 -11zM518 702q-23 0 -37 11t-14 42v6q0 31 14 43t37 12q22 0 36 -12t14 -43v-6q0 -31 -14 -42t-36 -11z" />
    <glyph glyph-name="Alphatonos" unicode="&#x386;" 
d="M464 318l-116 376l-115 -376h231zM563 0l-74 240h-280l-74 -240h-90l264 800h84l264 -800h-94zM36 700l81 200h125l-131 -200h-75z" />
    <glyph glyph-name="anoteleia" unicode="&#x387;" 
d="M351 299q-47 0 -76.5 21.5t-29.5 69.5v16q0 49 29.5 70.5t76.5 21.5q48 0 76.5 -21.5t28.5 -70.5v-16q0 -48 -29.5 -69.5t-75.5 -21.5z" />
    <glyph glyph-name="Epsilontonos" unicode="&#x388;" 
d="M108 0v800h508v-78h-423v-246h373v-78h-373v-320h423v-78h-508zM-103 700l81 200h125l-131 -200h-75z" />
    <glyph glyph-name="Etatonos" unicode="&#x389;" 
d="M108 0v800h85v-328h315v328h85v-800h-85v394h-315v-394h-85zM-111 700l81 200h125l-131 -200h-75z" />
    <glyph glyph-name="Iotatonos" unicode="&#x38a;" 
d="M108 0v78h200v644h-200v78h485v-78h-200v-644h200v-78h-485zM-111 700l81 200h125l-131 -200h-75z" />
    <glyph glyph-name="Omicrontonos" unicode="&#x38c;" 
d="M356 -10q-130 0 -197.5 74.5t-67.5 218.5v230q0 146 68 221.5t198 75.5q129 0 197 -75.5t68 -221.5v-230q0 -144 -68 -218.5t-198 -74.5zM356 68q98 0 139.5 48.5t41.5 162.5v238q0 117 -41.5 166t-139.5 49t-139 -49t-41 -166v-238q0 -114 41 -162.5t139 -48.5zM-31 700
l81 200h125l-131 -200h-75z" />
    <glyph glyph-name="Upsilontonos" unicode="&#x38e;" 
d="M393 0h-85v300l-294 500h99l244 -420l231 420h97l-292 -500v-300zM-146 700l81 200h125l-131 -200h-75z" />
    <glyph glyph-name="Omegatonos" unicode="&#x38f;" 
d="M297 0h-222v84h133v90q-73 19 -103 84.5t-30 152.5v106q0 146 69 219.5t206 73.5t206.5 -73.5t69.5 -219.5v-106q0 -87 -30.5 -152.5t-102.5 -84.5v-90h133v-84h-223v230q83 13 110.5 61t27.5 120v104q0 117 -43.5 167t-147.5 50t-147 -50t-43 -167v-104q0 -72 27 -120
t110 -61v-230zM-54 700l81 200h125l-131 -200h-75z" />
    <glyph glyph-name="iotadieresistonos" unicode="&#x390;" 
d="M498 -4q-88 0 -137.5 51.5t-49.5 145.5v327h-229v80h314v-416q0 -54 24.5 -81.5t75.5 -27.5q20 0 50.5 5.5t49.5 13.5l19 -77q-21 -10 -52 -15.5t-65 -5.5zM280 700l46 200h112l-105 -200h-53zM172 702q-22 0 -36 11t-14 42v6q0 31 14 43t36 12t36.5 -12t14.5 -43v-6
q0 -31 -14.5 -42t-36.5 -11zM508 702q-23 0 -37 11t-14 42v6q0 31 14 43t37 12q22 0 36 -12t14 -43v-6q0 -31 -14 -42t-36 -11z" />
    <glyph glyph-name="Alpha" unicode="&#x391;" 
d="M464 318l-116 376l-115 -376h231zM563 0l-74 240h-280l-74 -240h-90l264 800h84l264 -800h-94z" />
    <glyph glyph-name="Beta" unicode="&#x392;" 
d="M108 0v800h238q123 0 182 -46t59 -142v-47q0 -48 -29.5 -83.5t-78.5 -43.5v-29q65 -6 103 -50t38 -113v-43q0 -103 -65 -153t-201 -50h-246zM193 456h167q75 0 109.5 28.5t34.5 91.5v24q0 63 -34.5 91.5t-109.5 28.5h-167v-264zM193 80h191q78 0 114.5 32t36.5 102v28
q0 70 -36.5 102t-114.5 32h-191v-296z" />
    <glyph glyph-name="Gamma" unicode="&#x393;" 
d="M100 0v800h513v-78h-428v-722h-85z" />
    <glyph glyph-name="Delta" unicode="&#x394;" 
d="M42 0v78l263 722h78l276 -722v-78h-617zM571 78l-223 621l-222 -621h445z" />
    <glyph glyph-name="Epsilon" unicode="&#x395;" 
d="M108 0v800h508v-78h-423v-246h373v-78h-373v-320h423v-78h-508z" />
    <glyph glyph-name="Zeta" unicode="&#x396;" 
d="M616 0h-531v78l424 644h-424v78h531v-78l-426 -644h426v-78z" />
    <glyph glyph-name="Eta" unicode="&#x397;" 
d="M108 0v800h85v-328h315v328h85v-800h-85v394h-315v-394h-85z" />
    <glyph glyph-name="Theta" unicode="&#x398;" 
d="M350 -10q-149 0 -224.5 73t-75.5 216v238q0 145 76 219t225 74q148 0 223.5 -74t75.5 -219v-238q0 -143 -75.5 -216t-224.5 -73zM350 68q116 0 163.5 47t47.5 160v246q0 116 -47.5 163.5t-163.5 47.5t-163 -47.5t-47 -163.5v-246q0 -113 47 -160t163 -47zM247 364v82h206
v-82h-206z" />
    <glyph glyph-name="Iota" unicode="&#x399;" 
d="M108 0v78h200v644h-200v78h485v-78h-200v-644h200v-78h-485z" />
    <glyph glyph-name="Kappa" unicode="&#x39a;" 
d="M193 389v-389h-85v800h85v-333h33l326 333h103l-361 -368l358 -432h-108l-315 389h-36z" />
    <glyph glyph-name="Lambda" unicode="&#x39b;" 
d="M563 0l-215 694l-213 -694h-90l264 800h84l264 -800h-94z" />
    <glyph glyph-name="Mu" unicode="&#x39c;" 
d="M304 190l-149 473l-3 -663h-77v800h127l151 -502l150 502h123v-800h-78l-3 667l-149 -477h-92z" />
    <glyph glyph-name="Nu" unicode="&#x39d;" 
d="M463 0l-277 700v-700h-78v800h125l282 -713v713h78v-800h-130z" />
    <glyph glyph-name="Xi" unicode="&#x39e;" 
d="M85 722v78h531v-78h-531zM110 398v78h481v-78h-481zM85 0v78h531v-78h-531z" />
    <glyph glyph-name="Omicron" unicode="&#x39f;" 
d="M350 -10q-130 0 -197.5 74.5t-67.5 218.5v230q0 146 68 221.5t198 75.5q129 0 197 -75.5t68 -221.5v-230q0 -144 -68 -218.5t-198 -74.5zM350 68q98 0 139.5 48.5t41.5 162.5v238q0 117 -41.5 166t-139.5 49t-139 -49t-41 -166v-238q0 -114 41 -162.5t139 -48.5z" />
    <glyph glyph-name="Pi" unicode="&#x3a0;" 
d="M108 0v800h485v-800h-85v722h-315v-722h-85z" />
    <glyph glyph-name="Rho" unicode="&#x3a1;" 
d="M108 0v800h276q124 0 183.5 -52t59.5 -155v-96q0 -104 -60 -156.5t-184 -52.5h-190v-288h-85zM193 364h192q86 0 121.5 30.5t35.5 101.5v94q0 71 -35.5 101.5t-121.5 30.5h-192v-358z" />
    <glyph glyph-name="Sigma" unicode="&#x3a3;" 
d="M620 0h-550v78l363 334l-363 310v78h550v-78h-428l308 -271v-70l-320 -303h440v-78z" />
    <glyph glyph-name="Tau" unicode="&#x3a4;" 
d="M308 0v722h-255v78h594v-78h-254v-722h-85z" />
    <glyph glyph-name="Upsilon" unicode="&#x3a5;" 
d="M393 0h-85v300l-294 500h99l244 -420l231 420h97l-292 -500v-300z" />
    <glyph glyph-name="Phi" unicode="&#x3a6;" 
d="M433 90h-37v-100h-91v100h-36q-114 0 -165.5 74.5t-51.5 192.5v82q0 119 51.5 195t164.5 76h37v100h91v-100h37q114 0 164.5 -76t50.5 -195v-82q0 -118 -50.5 -192.5t-164.5 -74.5zM431 630h-40v-460h40q69 0 98 41.5t29 145.5v82q0 107 -29 149t-98 42zM269 170h41v460
h-41q-69 0 -97.5 -42t-28.5 -149v-82q0 -104 28.5 -145.5t97.5 -41.5z" />
    <glyph glyph-name="Chi" unicode="&#x3a7;" 
d="M577 0l-225 344l-227 -344h-106l286 407l-261 393h102l215 -330l217 330h105l-275 -392l272 -408h-103z" />
    <glyph glyph-name="Psi" unicode="&#x3a8;" 
d="M396 0h-91v194q-115 12 -167 82.5t-52 180.5v343h85v-345q0 -84 31 -125.5t103 -50.5v521h91v-521q72 9 102.5 50.5t30.5 125.5v345h85v-343q0 -110 -52 -180.5t-166 -82.5v-194z" />
    <glyph glyph-name="Omega" unicode="&#x3a9;" 
d="M297 0h-222v84h133v90q-73 19 -103 84.5t-30 152.5v106q0 146 69 219.5t206 73.5t206.5 -73.5t69.5 -219.5v-106q0 -87 -30.5 -152.5t-102.5 -84.5v-90h133v-84h-223v230q83 13 110.5 61t27.5 120v104q0 117 -43.5 167t-147.5 50t-147 -50t-43 -167v-104q0 -72 27 -120
t110 -61v-230z" />
    <glyph glyph-name="Iotadieresis" unicode="&#x3aa;" 
d="M108 0v78h200v644h-200v78h485v-78h-200v-644h200v-78h-485zM237 914q-27 0 -43.5 11t-16.5 42v6q0 31 16.5 43t43.5 12t43.5 -12t16.5 -43v-6q0 -31 -17 -42t-43 -11zM463 914q-27 0 -43.5 11t-16.5 42v6q0 31 16.5 43t43.5 12t43.5 -12t16.5 -43v-6q0 -31 -17 -42
t-43 -11z" />
    <glyph glyph-name="Upsilondieresis" unicode="&#x3ab;" 
d="M393 0h-85v300l-294 500h99l244 -420l231 420h97l-292 -500v-300zM237 914q-27 0 -43.5 11t-16.5 42v6q0 31 16.5 43t43.5 12t43.5 -12t16.5 -43v-6q0 -31 -17 -42t-43 -11zM463 914q-27 0 -43.5 11t-16.5 42v6q0 31 16.5 43t43.5 12t43.5 -12t16.5 -43v-6q0 -31 -17 -42
t-43 -11z" />
    <glyph glyph-name="alphatonos" unicode="&#x3ac;" 
d="M297 74q53 0 95.5 29t88.5 87v220q-46 58 -88.5 87t-94.5 29q-60 0 -88 -38.5t-28 -115.5v-143q0 -76 29 -115.5t86 -39.5zM493 106h-30q-28 -55 -75 -85.5t-108 -30.5q-84 0 -134.5 60.5t-50.5 172.5v157q0 111 51 170.5t137 59.5q56 0 99 -29.5t69 -78.5h30v98h85v-450
q0 -56 26.5 -68.5t77.5 -2.5v-84q-79 -8 -126 15.5t-51 95.5zM326 700l81 200h125l-131 -200h-75z" />
    <glyph glyph-name="epsilontonos" unicode="&#x3ad;" 
d="M353 -10q-137 0 -203 44t-66 135v8q0 53 39 91.5t117 43.5v22q-64 4 -101 31.5t-37 74.5v12q0 80 60 119t191 39q117 0 176 -43.5t66 -132.5l-87 -8q-7 56 -43.5 79.5t-111.5 23.5q-90 0 -128 -19t-38 -62v-14q0 -37 36 -53t120 -16h56v-76h-56q-92 0 -133 -23.5
t-41 -80.5v-10q0 -58 43.5 -82t140.5 -24q81 0 123.5 26.5t49.5 89.5l87 -7q-7 -97 -73 -142.5t-187 -45.5zM276 700l81 200h125l-131 -200h-75z" />
    <glyph glyph-name="etatonos" unicode="&#x3ae;" 
d="M509 -200v606q0 60 -31 90t-96 30q-49 0 -95.5 -28t-95.5 -85v-413h-85v600h85v-98h30q22 49 71.5 78.5t111.5 29.5q87 0 138.5 -50t51.5 -132v-628h-85zM267 700l81 200h125l-131 -200h-75z" />
    <glyph glyph-name="iotatonos" unicode="&#x3af;" 
d="M498 -4q-88 0 -137.5 51.5t-49.5 145.5v327h-229v80h314v-416q0 -54 24.5 -81.5t75.5 -27.5q20 0 50.5 5.5t49.5 13.5l19 -77q-21 -10 -52 -15.5t-65 -5.5zM273 700l81 200h125l-131 -200h-75z" />
    <glyph glyph-name="upsilondieresistonos" unicode="&#x3b0;" 
d="M350 -10q-119 0 -181.5 56.5t-62.5 163.5v390h85v-391q0 -75 37 -108t122 -33t122 33t37 108v391h85v-390q0 -107 -62.5 -163.5t-181.5 -56.5zM290 700l46 200h112l-105 -200h-53zM182 702q-22 0 -36 11t-14 42v6q0 31 14 43t36 12t36.5 -12t14.5 -43v-6q0 -31 -14.5 -42
t-36.5 -11zM518 702q-23 0 -37 11t-14 42v6q0 31 14 43t37 12q22 0 36 -12t14 -43v-6q0 -31 -14 -42t-36 -11z" />
    <glyph glyph-name="alpha" unicode="&#x3b1;" 
d="M297 74q53 0 95.5 29t88.5 87v220q-46 58 -88.5 87t-94.5 29q-60 0 -88 -38.5t-28 -115.5v-143q0 -76 29 -115.5t86 -39.5zM493 106h-30q-28 -55 -75 -85.5t-108 -30.5q-84 0 -134.5 60.5t-50.5 172.5v157q0 111 51 170.5t137 59.5q56 0 99 -29.5t69 -78.5h30v98h85v-450
q0 -56 26.5 -68.5t77.5 -2.5v-84q-79 -8 -126 15.5t-51 95.5z" />
    <glyph glyph-name="beta" unicode="&#x3b2;" 
d="M340 66q86 0 126.5 38t40.5 113v46q0 60 -38.5 90.5t-116.5 30.5h-55v84h49q66 0 99.5 28.5t33.5 84.5v18q0 66 -36 99.5t-109 33.5q-72 0 -107.5 -38t-35.5 -114v-474q32 -21 69 -30.5t80 -9.5zM335 -10q-40 0 -77 8.5t-67 21.5v-220h-85v773q0 126 66.5 181.5
t161.5 55.5t161.5 -51t66.5 -146v-28q0 -52 -23.5 -89.5t-77.5 -47.5v-29q62 -6 96.5 -47.5t36.5 -95.5v-55q0 -128 -84.5 -179.5t-174.5 -51.5z" />
    <glyph glyph-name="gamma" unicode="&#x3b3;" 
d="M401 -200h-102l9 220l-226 580h96l176 -461l173 461h91l-225 -580z" />
    <glyph glyph-name="delta" unicode="&#x3b4;" 
d="M350 -10q-108 0 -176 55t-68 172v92q0 58 36 106t102 77q-58 25 -83 60t-25 87q0 83 53.5 122t157.5 39h182v-80h-182q-68 0 -100.5 -16t-32.5 -65q0 -37 31 -55.5t166 -61.5q100 -31 141.5 -76.5t41.5 -122.5v-106q0 -117 -68 -172t-176 -55zM350 70q79 0 119 34.5
t40 112.5v106q0 55 -42.5 85.5t-163.5 61.5q-54 -25 -83 -67.5t-29 -93.5v-92q0 -78 40 -112.5t119 -34.5z" />
    <glyph glyph-name="epsilon" unicode="&#x3b5;" 
d="M353 -10q-137 0 -203 44t-66 135v8q0 53 39 91.5t117 43.5v22q-64 4 -101 31.5t-37 74.5v12q0 80 60 119t191 39q117 0 176 -43.5t66 -132.5l-87 -8q-7 56 -43.5 79.5t-111.5 23.5q-90 0 -128 -19t-38 -62v-14q0 -37 36 -53t120 -16h56v-76h-56q-92 0 -133 -23.5
t-41 -80.5v-10q0 -58 43.5 -82t140.5 -24q81 0 123.5 26.5t49.5 89.5l87 -7q-7 -97 -73 -142.5t-187 -45.5z" />
    <glyph glyph-name="zeta" unicode="&#x3b6;" 
d="M412 -200h-106v82h124q37 0 59 13t22 54q0 40 -22 53t-59 13h-88q-126 0 -184 75t-58 162q0 52 22 109t58 94l155 169l-7 16q-104 -7 -161 48t-71 124l87 9q7 -61 66.5 -89.5t140.5 -3.5l202 92l45 -99l-157 -52l-224 -249q-32 -32 -51.5 -74t-19.5 -92q0 -70 38 -113.5
t119 -43.5h82q78 0 124 -35t46 -115q0 -71 -49 -109t-133 -38z" />
    <glyph glyph-name="eta" unicode="&#x3b7;" 
d="M509 -200v606q0 60 -31 90t-96 30q-49 0 -95.5 -28t-95.5 -85v-413h-85v600h85v-98h30q22 49 71.5 78.5t111.5 29.5q87 0 138.5 -50t51.5 -132v-628h-85z" />
    <glyph glyph-name="theta" unicode="&#x3b8;" 
d="M350 -10q-109 0 -176.5 54.5t-67.5 172.5v362q0 119 68.5 175t176.5 56q109 0 176 -56t67 -175v-362q0 -118 -67.5 -172.5t-176.5 -54.5zM193 580v-133h315v133q0 77 -39.5 113.5t-118.5 36.5t-118 -36.5t-39 -113.5zM350 70q79 0 118.5 36t39.5 108v149h-315v-149
q0 -72 39 -108t118 -36z" />
    <glyph glyph-name="iota" unicode="&#x3b9;" 
d="M498 -4q-88 0 -137.5 51.5t-49.5 145.5v327h-229v80h314v-416q0 -54 24.5 -81.5t75.5 -27.5q20 0 50.5 5.5t49.5 13.5l19 -77q-21 -10 -52 -15.5t-65 -5.5z" />
    <glyph glyph-name="kappa" unicode="&#x3ba;" 
d="M247 279v-279h-85v600h85v-247h53l198 247h110l-243 -281l240 -319h-100l-205 279h-53z" />
    <glyph glyph-name="lambda" unicode="&#x3bb;" 
d="M522 0l-173 527l-175 -527h-92l223 618h13l-7 21q-13 38 -40 63t-81 25q-19 0 -42 -3t-50 -10l-17 80q24 6 48 8.5t46 2.5q63 0 118.5 -30t82.5 -100l242 -675h-96z" />
    <glyph glyph-name="mu" unicode="&#x3bc;" 
d="M190 20l10 -220h-105l10 220v580h85v-410q0 -63 36.5 -90t90.5 -27q47 0 83 22t68 59v446h85v-450q0 -56 27 -68.5t79 -2.5v-84q-74 -10 -113 18t-40 91h-19q-26 -45 -72.5 -79.5t-115.5 -34.5q-31 0 -59.5 13t-49.5 38v-21z" />
    <glyph glyph-name="nu" unicode="&#x3bd;" 
d="M395 0h-90l-223 600h90l189 -548q75 137 118.5 276.5t55.5 271.5h83q-19 -169 -80 -320t-143 -280z" />
    <glyph glyph-name="xi" unicode="&#x3be;" 
d="M617 -53q0 -71 -50 -109t-131 -38h-108v82h126q37 0 58.5 13t21.5 54q0 40 -21.5 53t-58.5 13h-109q-110 0 -175 51t-65 137v29q0 62 44 109t133 54v23q-57 0 -87 30.5t-30 77.5q0 37 17.5 66.5t58.5 47.5v23q-90 6 -140 45.5t-64 103.5l87 9q7 -43 77.5 -67t155.5 -14
l201 80l45 -99l-215 -58l-60 -34q-42 -24 -60 -49t-18 -54q0 -44 23.5 -62t59.5 -18h194v-82h-190q-78 0 -112.5 -34t-34.5 -83v-29q0 -54 34.5 -87.5t111.5 -33.5h113q76 0 122 -35t46 -115z" />
    <glyph glyph-name="omicron" unicode="&#x3bf;" 
d="M350 -10q-119 0 -181.5 58.5t-62.5 168.5v162q0 112 63 171.5t182 59.5q118 0 180.5 -59.5t62.5 -170.5v-162q0 -111 -62.5 -169.5t-181.5 -58.5zM350 70q81 0 120 36t39 109v166q0 75 -39 112t-120 37t-120 -37t-39 -113v-166q0 -72 39 -108t120 -36z" />
    <glyph glyph-name="pi" unicode="&#x3c0;" 
d="M627 600v-80h-126v-370q0 -51 25 -66t98 -5v-84q-107 -7 -159 20.5t-52 92.5v412h-176v-520h-88v520h-104v80h582z" />
    <glyph glyph-name="rho" unicode="&#x3c1;" 
d="M382 74q64 0 95.5 38t31.5 116v151q0 75 -39.5 113.5t-120.5 38.5q-80 0 -119 -38.5t-39 -113.5v-189q45 -59 92.5 -87.5t98.5 -28.5zM106 -200v579q0 118 69.5 175t176.5 57t174.5 -57t67.5 -175v-157q0 -112 -53.5 -172t-140.5 -60q-59 0 -105 28.5t-74 79.5h-30v-298
h-85z" />
    <glyph glyph-name="sigma1" unicode="&#x3c2;" 
d="M312 -200v80h124q37 0 59 13.5t22 54.5q0 40 -22 53.5t-59 13.5h-85q-134 0 -189.5 60.5t-55.5 176.5v125q0 114 56.5 173.5t190.5 59.5q116 0 171 -51.5t61 -162.5l-78 -4q-4 72 -41 105t-113 33q-84 0 -123 -34t-39 -109v-149q0 -75 36.5 -109t115.5 -34h84
q80 0 126 -34.5t46 -114.5q0 -72 -48 -109t-129 -37h-110z" />
    <glyph glyph-name="sigma" unicode="&#x3c3;" 
d="M330 70q69 0 104 34t35 112v126q0 91 -35 133.5t-104 42.5t-104 -37t-35 -115v-150q0 -78 35 -112t104 -34zM330 -10q-99 0 -161.5 54.5t-62.5 172.5v150q0 113 63 173t162 60h369v-90l-227 19q39 -25 60 -69t21 -107v-136q0 -118 -62.5 -172.5t-161.5 -54.5z" />
    <glyph glyph-name="tau" unicode="&#x3c4;" 
d="M513 -5q-112 -7 -158.5 18.5t-46.5 94.5v414h-200v78h495v-78h-210v-372q0 -49 25 -64t95 -7v-84z" />
    <glyph glyph-name="upsilon" unicode="&#x3c5;" 
d="M350 -10q-119 0 -181.5 56.5t-62.5 163.5v390h85v-391q0 -75 37 -108t122 -33t122 33t37 108v391h85v-390q0 -107 -62.5 -163.5t-181.5 -56.5z" />
    <glyph glyph-name="phi" unicode="&#x3c6;" 
d="M391 -200h-82v191q-110 9 -178 72.5t-68 179.5v102q0 84 21.5 152.5t55.5 121.5l76 -32q-28 -46 -49.5 -107t-21.5 -135v-102q0 -80 41 -126.5t120 -56.5v540h96q105 0 170 -67t65 -212v-68q0 -120 -68 -186t-178 -76v-191zM394 532v-471q78 10 118 59t40 133v68
q0 110 -40 160.5t-118 50.5z" />
    <glyph glyph-name="chi" unicode="&#x3c7;" 
d="M499 -200l-159 332l-164 -332h-82l213 396l-196 404h84l161 -336l169 336h82l-217 -400l195 -400h-86z" />
    <glyph glyph-name="psi" unicode="&#x3c8;" 
d="M391 -200h-82v193q-128 10 -187 74.5t-59 165.5v367h82v-373q0 -73 39 -110.5t124 -43.5v527h84v-527q85 6 124 43.5t39 110.5v373h82v-367q0 -101 -59 -165.5t-187 -74.5v-193z" />
    <glyph glyph-name="omega" unicode="&#x3c9;" 
d="M214 -10q-67 0 -109 59t-42 172v96q0 93 20 179t45 121l77 -32q-17 -25 -38.5 -102.5t-21.5 -165.5v-96q0 -76 20.5 -114.5t63.5 -38.5q40 0 59.5 29t19.5 96v271h84v-271q0 -67 19.5 -96t59.5 -29q42 0 63 38.5t21 114.5v96q0 88 -21.5 165.5t-38.5 102.5l77 32
q25 -35 45 -121t20 -179v-96q0 -113 -42 -172t-108 -59q-44 0 -80.5 29.5t-51.5 97.5h-9q-16 -68 -52.5 -97.5t-79.5 -29.5z" />
    <glyph glyph-name="iotadieresis" unicode="&#x3ca;" 
d="M498 -4q-88 0 -137.5 51.5t-49.5 145.5v327h-229v80h314v-416q0 -54 24.5 -81.5t75.5 -27.5q20 0 50.5 5.5t49.5 13.5l19 -77q-21 -10 -52 -15.5t-65 -5.5zM232 714q-27 0 -43.5 11t-16.5 42v6q0 31 16.5 43t43.5 12t43.5 -12t16.5 -43v-6q0 -31 -17 -42t-43 -11z
M458 714q-27 0 -43.5 11t-16.5 42v6q0 31 16.5 43t43.5 12t43.5 -12t16.5 -43v-6q0 -31 -17 -42t-43 -11z" />
    <glyph glyph-name="upsilondieresis" unicode="&#x3cb;" 
d="M350 -10q-119 0 -181.5 56.5t-62.5 163.5v390h85v-391q0 -75 37 -108t122 -33t122 33t37 108v391h85v-390q0 -107 -62.5 -163.5t-181.5 -56.5zM237 714q-27 0 -43.5 11t-16.5 42v6q0 31 16.5 43t43.5 12t43.5 -12t16.5 -43v-6q0 -31 -17 -42t-43 -11zM463 714
q-27 0 -43.5 11t-16.5 42v6q0 31 16.5 43t43.5 12t43.5 -12t16.5 -43v-6q0 -31 -17 -42t-43 -11z" />
    <glyph glyph-name="omicrontonos" unicode="&#x3cc;" 
d="M350 -10q-119 0 -181.5 58.5t-62.5 168.5v162q0 112 63 171.5t182 59.5q118 0 180.5 -59.5t62.5 -170.5v-162q0 -111 -62.5 -169.5t-181.5 -58.5zM350 70q81 0 120 36t39 109v166q0 75 -39 112t-120 37t-120 -37t-39 -113v-166q0 -72 39 -108t120 -36zM279 700l81 200
h125l-131 -200h-75z" />
    <glyph glyph-name="upsilontonos" unicode="&#x3cd;" 
d="M350 -10q-119 0 -181.5 56.5t-62.5 163.5v390h85v-391q0 -75 37 -108t122 -33t122 33t37 108v391h85v-390q0 -107 -62.5 -163.5t-181.5 -56.5zM281 700l81 200h125l-131 -200h-75z" />
    <glyph glyph-name="omegatonos" unicode="&#x3ce;" 
d="M214 -10q-67 0 -109 59t-42 172v96q0 93 20 179t45 121l77 -32q-17 -25 -38.5 -102.5t-21.5 -165.5v-96q0 -76 20.5 -114.5t63.5 -38.5q40 0 59.5 29t19.5 96v271h84v-271q0 -67 19.5 -96t59.5 -29q42 0 63 38.5t21 114.5v96q0 88 -21.5 165.5t-38.5 102.5l77 32
q25 -35 45 -121t20 -179v-96q0 -113 -42 -172t-108 -59q-44 0 -80.5 29.5t-51.5 97.5h-9q-16 -68 -52.5 -97.5t-79.5 -29.5zM290 700l81 200h125l-131 -200h-75z" />
    <glyph glyph-name="IEgravecyrillic" unicode="&#x400;" 
d="M108 0v800h508v-78h-423v-246h373v-78h-373v-320h423v-78h-508zM392 900l-191 200h135l141 -200h-85z" />
    <glyph glyph-name="Iocyrillic" unicode="&#x401;" 
d="M108 0v800h508v-78h-423v-246h373v-78h-373v-320h423v-78h-508zM270 914q-27 0 -43.5 11t-16.5 42v6q0 31 16.5 43t43.5 12t43.5 -12t16.5 -43v-6q0 -31 -17 -42t-43 -11zM496 914q-27 0 -43.5 11t-16.5 42v6q0 31 16.5 43t43.5 12t43.5 -12t16.5 -43v-6q0 -31 -17 -42
t-43 -11z" />
    <glyph glyph-name="Djecyrillic" unicode="&#x402;" 
d="M189 0v722h-156v78h506v-78h-265v-202h139q115 0 169.5 -50.5t54.5 -154.5v-109q0 -105 -54.5 -155.5t-169.5 -50.5v76q63 0 100.5 28.5t37.5 103.5v105q0 75 -37.5 103t-100.5 28h-139v-444h-85z" />
    <glyph glyph-name="Gjecyrillic" unicode="&#x403;" 
d="M100 0v800h513v-78h-428v-722h-85zM286 900l141 200h135l-191 -200h-85z" />
    <glyph glyph-name="Ecyrillic" unicode="&#x404;" 
d="M636 253q-8 -128 -78.5 -195.5t-197.5 -67.5q-137 0 -206 73.5t-69 219.5v230q0 147 69.5 222t206.5 75q127 0 197.5 -69.5t77.5 -197.5l-85 -10q-10 107 -54 153t-137 46q-104 0 -147 -49t-43 -166v-41h238v-78h-238v-119q0 -115 43 -163t147 -48q93 0 137.5 45.5
t53.5 149.5z" />
    <glyph glyph-name="Dzecyrillic" unicode="&#x405;" 
d="M366 -5q-88 0 -167 30t-142 116l76 51q40 -60 98 -89.5t138 -29.5q76 0 124.5 37t48.5 100q0 59 -40 92.5t-159 70.5q-147 44 -200 92t-53 136q0 103 69 152.5t161 49.5q85 0 161 -30t136 -116l-74 -54q-37 63 -98 92.5t-123 29.5q-65 0 -105.5 -27t-40.5 -91
q0 -56 44 -88.5t170 -70.5q138 -42 187.5 -88t49.5 -132q0 -115 -81 -174t-180 -59z" />
    <glyph glyph-name="Icyrillic" unicode="&#x406;" 
d="M108 0v78h200v644h-200v78h485v-78h-200v-644h200v-78h-485z" />
    <glyph glyph-name="Yicyrillic" unicode="&#x407;" 
d="M108 0v78h200v644h-200v78h485v-78h-200v-644h200v-78h-485zM237 914q-27 0 -43.5 11t-16.5 42v6q0 31 16.5 43t43.5 12t43.5 -12t16.5 -43v-6q0 -31 -17 -42t-43 -11zM463 914q-27 0 -43.5 11t-16.5 42v6q0 31 16.5 43t43.5 12t43.5 -12t16.5 -43v-6q0 -31 -17 -42
t-43 -11z" />
    <glyph glyph-name="Jecyrillic" unicode="&#x408;" 
d="M328 -10q-128 0 -192.5 64.5t-70.5 196.5l85 11q7 -115 43.5 -154.5t135.5 -39.5q91 0 136.5 48t45.5 141v465h-196v78h281v-540q0 -132 -69.5 -201t-198.5 -69z" />
    <glyph glyph-name="Ljecyrillic" unicode="&#x409;" 
d="M170 170q-2 -96 -39.5 -136t-87.5 -40q-15 -1 -30.5 2t-31.5 8l20 81l18 -6t19 -3q19 -1 33.5 17t15.5 75l13 632h290v-288h42q102 0 153.5 -54.5t51.5 -162.5v-80q0 -107 -51.5 -161t-152.5 -54h-127v718h-126zM390 82h47q52 0 84 28.5t32 105.5v82q0 77 -32 105.5
t-84 28.5h-47v-350z" />
    <glyph glyph-name="Njecyrillic" unicode="&#x40a;" 
d="M390 82h58q48 0 76.5 29t28.5 105v82q0 77 -28.5 105.5t-76.5 28.5h-58v-350zM147 394v-394h-84v800h84v-328h159v328h84v-288h53q96 0 145 -55t49 -162v-80q0 -107 -48.5 -161t-144.5 -54h-138v394h-159z" />
    <glyph glyph-name="Tshecyrillic" unicode="&#x40b;" 
d="M263 0h-85v722h-156v78h504v-78h-263v-234h150q110 0 167 -53t57 -154v-281h-85v279q0 73 -31.5 103t-107.5 30h-150v-412z" />
    <glyph glyph-name="Kjecyrillic" unicode="&#x40c;" 
d="M193 389v-389h-85v800h85v-333h33l326 333h103l-361 -368l358 -432h-108l-315 389h-36zM307 900l141 200h135l-191 -200h-85z" />
    <glyph glyph-name="Igravecyrillic" unicode="&#x40d;" 
d="M515 0v703l-278 -703h-129v800h77v-711l283 711h125v-800h-78zM346 900l-191 200h135l141 -200h-85z" />
    <glyph glyph-name="Ushortcyrillic" unicode="&#x40e;" 
d="M197 0q-18 0 -37.5 2.5t-39.5 6.5l17 78q21 -4 38.5 -6.5t32.5 -2.5q48 0 73 26t45 77l4 9h-32l-251 610h86l220 -561l218 561h81l-265 -653q-36 -86 -84.5 -116.5t-105.5 -30.5zM350 893q-86 0 -144.5 43.5t-60.5 150.5l90 10q2 -72 26.5 -102.5t88.5 -30.5t88.5 30.5
t26.5 102.5l90 -10q-2 -107 -60.5 -150.5t-144.5 -43.5z" />
    <glyph glyph-name="Dzhecyrillic" unicode="&#x40f;" 
d="M308 -150v150h-200v800h85v-722h315v722h85v-800h-200v-150h-85z" />
    <glyph glyph-name="Acyrillic" unicode="&#x410;" 
d="M464 318l-116 376l-115 -376h231zM563 0l-74 240h-280l-74 -240h-90l264 800h84l264 -800h-94z" />
    <glyph glyph-name="Becyrillic" unicode="&#x411;" 
d="M108 0v800h462v-78h-377v-272h191q107 0 165 -49.5t58 -142.5v-52q0 -99 -58 -152.5t-164 -53.5h-277zM193 78h171q85 0 121.5 29.5t36.5 103.5v32q0 72 -36.5 101.5t-121.5 29.5h-171v-296z" />
    <glyph glyph-name="Vecyrillic" unicode="&#x412;" 
d="M108 0v800h238q123 0 182 -46t59 -142v-47q0 -48 -29.5 -83.5t-78.5 -43.5v-29q65 -6 103 -50t38 -113v-43q0 -103 -65 -153t-201 -50h-246zM193 456h167q75 0 109.5 28.5t34.5 91.5v24q0 63 -34.5 91.5t-109.5 28.5h-167v-264zM193 80h191q78 0 114.5 32t36.5 102v28
q0 70 -36.5 102t-114.5 32h-191v-296z" />
    <glyph glyph-name="Gecyrillic" unicode="&#x413;" 
d="M100 0v800h513v-78h-428v-722h-85z" />
    <glyph glyph-name="Decyrillic" unicode="&#x414;" 
d="M172 104v-26h317v644h-259l-3 -419q-1 -72 -9.5 -118.5t-45.5 -80.5zM100 0v-150h-88v228h60q35 28 52.5 83.5t18.5 147.5l3 491h431v-722h103v-228h-88v150h-492z" />
    <glyph glyph-name="Iecyrillic" unicode="&#x415;" 
d="M108 0v800h508v-78h-423v-246h373v-78h-373v-320h423v-78h-508z" />
    <glyph glyph-name="Zhecyrillic" unicode="&#x416;" 
d="M268 393l-174 -393h-92l201 428l-198 372h86l176 -337h43v337h82v-337h43l176 337h86l-198 -369l200 -431h-92l-173 393h-42v-393h-82v393h-42z" />
    <glyph glyph-name="Zecyrillic" unicode="&#x417;" 
d="M338 -10q-129 0 -192.5 54t-70.5 170l85 10q8 -85 49 -121.5t129 -36.5q104 0 148.5 34t44.5 116v27q0 78 -41 111t-140 33h-98v79h98q87 0 124 26.5t37 87.5v32q0 66 -39 94t-133 28q-79 0 -115.5 -33t-43.5 -111l-85 10q7 110 65.5 160t179.5 50q116 0 186 -47t70 -155
v-35q0 -60 -42 -93.5t-117 -37.5v-29q90 -7 134.5 -55.5t44.5 -111.5v-29q0 -106 -61.5 -166.5t-216.5 -60.5z" />
    <glyph glyph-name="Iicyrillic" unicode="&#x418;" 
d="M515 0v703l-278 -703h-129v800h77v-711l283 711h125v-800h-78z" />
    <glyph glyph-name="Iishortcyrillic" unicode="&#x419;" 
d="M515 0v703l-278 -703h-129v800h77v-711l283 711h125v-800h-78zM362 893q-86 0 -144.5 43.5t-60.5 150.5l90 10q2 -72 26.5 -102.5t88.5 -30.5t88.5 30.5t26.5 102.5l90 -10q-2 -107 -60.5 -150.5t-144.5 -43.5z" />
    <glyph glyph-name="Kacyrillic" unicode="&#x41a;" 
d="M193 389v-389h-85v800h85v-333h33l326 333h103l-361 -368l358 -432h-108l-315 389h-36z" />
    <glyph glyph-name="Elcyrillic" unicode="&#x41b;" 
d="M508 0v722h-259l-3 -487q-1 -128 -47 -186t-124 -58q-23 0 -43 3t-36 8l17 75q17 -6 30.5 -8t26.5 -2q50 0 72 44t23 137l3 552h425v-800h-85z" />
    <glyph glyph-name="Emcyrillic" unicode="&#x41c;" 
d="M304 190l-149 473l-3 -663h-77v800h127l151 -502l150 502h123v-800h-78l-3 667l-149 -477h-92z" />
    <glyph glyph-name="Encyrillic" unicode="&#x41d;" 
d="M108 0v800h85v-328h315v328h85v-800h-85v394h-315v-394h-85z" />
    <glyph glyph-name="Ocyrillic" unicode="&#x41e;" 
d="M350 -10q-130 0 -197.5 74.5t-67.5 218.5v230q0 146 68 221.5t198 75.5q129 0 197 -75.5t68 -221.5v-230q0 -144 -68 -218.5t-198 -74.5zM350 68q98 0 139.5 48.5t41.5 162.5v238q0 117 -41.5 166t-139.5 49t-139 -49t-41 -166v-238q0 -114 41 -162.5t139 -48.5z" />
    <glyph glyph-name="Pecyrillic" unicode="&#x41f;" 
d="M108 0v800h485v-800h-85v722h-315v-722h-85z" />
    <glyph glyph-name="Ercyrillic" unicode="&#x420;" 
d="M108 0v800h276q124 0 183.5 -52t59.5 -155v-96q0 -104 -60 -156.5t-184 -52.5h-190v-288h-85zM193 364h192q86 0 121.5 30.5t35.5 101.5v94q0 71 -35.5 101.5t-121.5 30.5h-192v-358z" />
    <glyph glyph-name="Escyrillic" unicode="&#x421;" 
d="M360 -10q-138 0 -206.5 73t-68.5 220v230q0 149 68.5 223t207.5 74q135 0 200.5 -64t74.5 -203l-85 -10q-10 111 -52 155t-139 44q-105 0 -147.5 -48t-42.5 -167v-238q0 -116 42.5 -163.5t147.5 -47.5q99 0 140 43t51 152l85 -10q-9 -137 -74.5 -200t-201.5 -63z" />
    <glyph glyph-name="Tecyrillic" unicode="&#x422;" 
d="M308 0v722h-255v78h594v-78h-254v-722h-85z" />
    <glyph glyph-name="Ucyrillic" unicode="&#x423;" 
d="M197 0q-18 0 -37.5 2.5t-39.5 6.5l17 78q21 -4 38.5 -6.5t32.5 -2.5q48 0 73 26t45 77l4 9h-32l-251 610h86l220 -561l218 561h81l-265 -653q-36 -86 -84.5 -116.5t-105.5 -30.5z" />
    <glyph glyph-name="Efcyrillic" unicode="&#x424;" 
d="M433 90h-37v-100h-91v100h-36q-114 0 -165.5 74.5t-51.5 192.5v82q0 119 51.5 195t164.5 76h37v100h91v-100h37q114 0 164.5 -76t50.5 -195v-82q0 -118 -50.5 -192.5t-164.5 -74.5zM431 630h-40v-460h40q69 0 98 41.5t29 145.5v82q0 107 -29 149t-98 42zM269 170h41v460
h-41q-69 0 -97.5 -42t-28.5 -149v-82q0 -104 28.5 -145.5t97.5 -41.5z" />
    <glyph glyph-name="Khacyrillic" unicode="&#x425;" 
d="M577 0l-225 344l-227 -344h-106l286 407l-261 393h102l215 -330l217 330h105l-275 -392l272 -408h-103z" />
    <glyph glyph-name="Tsecyrillic" unicode="&#x426;" 
d="M558 -150v150h-450v800h85v-722h262v722h85v-722h103v-228h-85z" />
    <glyph glyph-name="Checyrillic" unicode="&#x427;" 
d="M593 800v-800h-85v286h-157q-134 0 -188.5 45t-54.5 156v313h85v-311q0 -70 36 -98.5t122 -28.5h157v438h85z" />
    <glyph glyph-name="Shacyrillic" unicode="&#x428;" 
d="M63 0v800h82v-725h164v725h82v-725h164v725h82v-800h-574z" />
    <glyph glyph-name="Shchacyrillic" unicode="&#x429;" 
d="M682 -140h-86v140h-533v800h82v-725h164v725h82v-725h164v725h82v-725h45v-215z" />
    <glyph glyph-name="Hardsigncyrillic" unicode="&#x42a;" 
d="M424 0h-213v722h-199v78h284v-288h127q118 0 172 -50.5t54 -160.5v-92q0 -110 -53.5 -159.5t-171.5 -49.5zM296 78h131q74 0 105 30t31 102v94q0 72 -31 102t-105 30h-131v-358z" />
    <glyph glyph-name="Yericyrillic" unicode="&#x42b;" 
d="M86 0v800h82v-288h63q102 0 150 -51.5t48 -161.5v-88q0 -110 -48 -160.5t-149 -50.5h-146zM532 0v800h82v-800h-82zM168 75h64q51 0 82.5 29.5t31.5 107.5v90q0 78 -31.5 107.5t-82.5 29.5h-64v-364z" />
    <glyph glyph-name="Softsigncyrillic" unicode="&#x42c;" 
d="M108 0v800h85v-288h185q128 0 186.5 -50.5t58.5 -160.5v-92q0 -109 -58.5 -159t-185.5 -50h-271zM193 78h190q69 0 112 28.5t43 103.5v94q0 75 -43 103.5t-112 28.5h-190v-358z" />
    <glyph glyph-name="Ereversedcyrillic" unicode="&#x42d;" 
d="M363 -10q-125 0 -196 64.5t-79 198.5l85 10q9 -104 53 -149.5t137 -45.5q101 0 146 47t45 164v119h-285v78h285v41q0 118 -44 166.5t-147 48.5q-93 0 -137 -46t-53 -153l-85 10q8 137 79 202t195 65q143 0 210 -71.5t67 -225.5v-230q0 -152 -66.5 -222.5t-209.5 -70.5z
" />
    <glyph glyph-name="IUcyrillic" unicode="&#x42e;" 
d="M442 -10q-102 0 -148.5 73t-46.5 192v148h-102v-403h-82v800h82v-329h102v70q0 122 47 195.5t149 73.5t148 -73.5t46 -195.5v-286q0 -119 -46 -192t-149 -73zM442 63q61 0 87 43t26 149v286q0 107 -26 151t-87 44t-87 -44t-26 -151v-286q0 -106 26 -149t87 -43z" />
    <glyph glyph-name="IAcyrillic" unicode="&#x42f;" 
d="M293 392h215v330h-215q-86 0 -122 -29.5t-36 -98.5v-64q0 -75 36 -106.5t122 -31.5zM508 316h-158l-201 -316h-106l210 316q-105 7 -154.5 59t-49.5 156v60q0 109 59.5 159t187.5 50h297v-800h-85v316z" />
    <glyph glyph-name="acyrillic" unicode="&#x430;" 
d="M277 69q55 0 101.5 21t79.5 73v96h-189q-46 0 -76 -20.5t-30 -71.5q0 -46 25.5 -72t88.5 -26zM270 -10q-74 0 -134.5 39.5t-60.5 130.5q0 78 50 123.5t114 45.5h219v89q0 49 -33.5 80t-102.5 31t-103 -20t-55 -91l-77 24q16 81 76 124.5t156 43.5q93 0 159 -43t66 -135
v-278q0 -57 31 -71.5t94 -3.5v-84q-59 -7 -114 10t-58 97h-18q-28 -48 -84 -80t-125 -32z" />
    <glyph glyph-name="becyrillic" unicode="&#x431;" 
d="M350 -10q-107 0 -175.5 54t-68.5 176v314q0 113 69.5 166.5t166.5 72.5l209 41l15 -73l-211 -40q-87 -16 -131 -59.5t-43 -142.5v-27h23q14 25 56 46.5t117 21.5q110 0 163.5 -57t53.5 -153v-112q0 -116 -68.5 -172t-175.5 -56zM349 70q87 0 122.5 36.5t35.5 111.5v103
q0 69 -35.5 103.5t-122.5 34.5q-86 0 -122 -34.5t-36 -103.5v-103q0 -75 36 -111.5t122 -36.5z" />
    <glyph glyph-name="vecyrillic" unicode="&#x432;" 
d="M106 0v600h239q128 0 189 -38.5t61 -116.5v-12q0 -47 -37 -74t-101 -31v-22q78 -5 117 -41t39 -87v-8q0 -87 -67 -128.5t-201 -41.5h-239zM193 353h160q90 0 123 15.5t33 56.5v14q0 46 -35.5 63t-130.5 17h-150v-166zM193 79h150q105 0 144.5 19.5t39.5 75.5v10
q0 54 -37.5 73.5t-136.5 19.5h-160v-198z" />
    <glyph glyph-name="gecyrillic" unicode="&#x433;" 
d="M158 0v600h451v-78h-366v-522h-85z" />
    <glyph glyph-name="decyrillic" unicode="&#x434;" 
d="M221 104v-26h245v444h-202l-3 -279q-1 -44 -9.5 -79t-30.5 -60zM131 0v-150h-88v228h74q29 22 44 63.5t16 107.5l3 351h374v-522h103v-228h-88v150h-438z" />
    <glyph glyph-name="iecyrillic" unicode="&#x435;" 
d="M594 130q-25 -73 -78.5 -106.5t-164.5 -33.5q-118 0 -181.5 57.5t-63.5 170.5v161q0 117 68.5 174t176.5 57q109 0 176 -58t67 -181v-87h-403v-65q0 -82 39.5 -117t118.5 -35q77 0 109.5 21.5t48.5 66.5zM191 375v-21h318v12q0 87 -40.5 126.5t-118.5 39.5t-118.5 -38.5
t-40.5 -118.5z" />
    <glyph glyph-name="zhecyrillic" unicode="&#x436;" 
d="M280 292l-154 -292h-94l182 328l-185 272h94l154 -236h32v236h82v-236h32l156 236h92l-186 -271l183 -329h-93l-154 292h-30v-292h-82v292h-29z" />
    <glyph glyph-name="zecyrillic" unicode="&#x437;" 
d="M345 -10q-133 0 -193 43.5t-68 144.5l87 7q8 -68 47.5 -91t126.5 -23q100 0 141.5 20t41.5 84v10q0 63 -40 83.5t-134 20.5h-57v76h57q85 0 120.5 14t35.5 55v14q0 49 -37.5 65t-127.5 16q-77 0 -113 -20.5t-43 -82.5l-87 8q7 96 63 136t180 40q113 0 181.5 -36
t68.5 -122v-12q0 -47 -37 -74.5t-101 -31.5v-22q78 -5 117 -43.5t39 -91.5v-8q0 -84 -59.5 -131.5t-208.5 -47.5z" />
    <glyph glyph-name="iicyrillic" unicode="&#x438;" 
d="M510 0v500l-281 -500h-123v600h84v-505l286 505h118v-600h-84z" />
    <glyph glyph-name="iishortcyrillic" unicode="&#x439;" 
d="M510 0v500l-281 -500h-123v600h84v-505l286 505h118v-600h-84zM350 693q-86 0 -144.5 43.5t-60.5 150.5l90 10q2 -72 26.5 -102.5t88.5 -30.5t88.5 30.5t26.5 102.5l90 -10q-2 -107 -60.5 -150.5t-144.5 -43.5z" />
    <glyph glyph-name="kacyrillic" unicode="&#x43a;" 
d="M247 279v-279h-85v600h85v-247h53l198 247h110l-243 -281l240 -319h-100l-205 279h-53z" />
    <glyph glyph-name="elcyrillic" unicode="&#x43b;" 
d="M508 0v520h-234l-4 -283q-1 -129 -47.5 -187.5t-124.5 -58.5q-19 0 -36.5 3.5t-30.5 7.5l16 77q19 -7 29 -8.5t17 -1.5q54 0 74 40t21 141l3 350h402v-600h-85z" />
    <glyph glyph-name="emcyrillic" unicode="&#x43c;" 
d="M298 150l-121 388l-3 -538h-78v600h151l106 -371l106 371h145v-600h-78l-5 535l-120 -385h-103z" />
    <glyph glyph-name="encyrillic" unicode="&#x43d;" 
d="M106 0v600h85v-212h318v212h85v-600h-85v310h-318v-310h-85z" />
    <glyph glyph-name="ocyrillic" unicode="&#x43e;" 
d="M350 -10q-119 0 -181.5 58.5t-62.5 168.5v162q0 112 63 171.5t182 59.5q118 0 180.5 -59.5t62.5 -170.5v-162q0 -111 -62.5 -169.5t-181.5 -58.5zM350 70q81 0 120 36t39 109v166q0 75 -39 112t-120 37t-120 -37t-39 -113v-166q0 -72 39 -108t120 -36z" />
    <glyph glyph-name="pecyrillic" unicode="&#x43f;" 
d="M106 0v600h488v-600h-85v522h-318v-522h-85z" />
    <glyph glyph-name="ercyrillic" unicode="&#x440;" 
d="M339 67q90 0 130 36.5t40 117.5v164q0 75 -30 108t-97 33q-54 0 -99.5 -27.5t-91.5 -88.5v-303q31 -20 67 -30t81 -10zM335 -11q-34 0 -72 8t-72 21v-218h-85v800h85v-98h30q26 50 73 79t101 29q93 0 146 -63t53 -171v-157q0 -107 -69.5 -168.5t-189.5 -61.5z" />
    <glyph glyph-name="escyrillic" unicode="&#x441;" 
d="M365 -10q-128 0 -193.5 57t-65.5 168v164q0 115 65 173t193 58q112 0 174 -50.5t69 -151.5l-84 -4q-4 63 -43.5 94.5t-115.5 31.5q-87 0 -130 -36.5t-43 -111.5v-169q0 -72 43.5 -107.5t131.5 -35.5q75 0 114.5 26.5t42.5 79.5l84 -4q-7 -90 -69.5 -136t-172.5 -46z" />
    <glyph glyph-name="tecyrillic" unicode="&#x442;" 
d="M308 0v522h-235v78h554v-78h-234v-522h-85z" />
    <glyph glyph-name="ucyrillic" unicode="&#x443;" 
d="M169 -205q-22 0 -43 3t-42 8l18 79q24 -6 44.5 -8.5t38.5 -2.5q44 0 81 26.5t56 81.5l4 10h-24l-220 608h94l177 -530l173 530h92l-226 -627q-34 -91 -91 -134.5t-132 -43.5z" />
    <glyph glyph-name="efcyrillic" unicode="&#x444;" 
d="M425 0h-34v-200h-82v200h-34q-99 0 -155.5 65.5t-56.5 181.5v106q0 116 56.5 181.5t155.5 65.5h34v200h82v-200h34q99 0 155.5 -65.5t56.5 -181.5v-106q0 -116 -56.5 -181.5t-155.5 -65.5zM286 78h27v444h-27q-71 0 -105.5 -44.5t-34.5 -128.5v-100q0 -84 34.5 -127.5
t105.5 -43.5zM414 522h-27v-444h27q71 0 105.5 43.5t34.5 127.5v100q0 84 -34.5 128.5t-105.5 44.5z" />
    <glyph glyph-name="khacyrillic" unicode="&#x445;" 
d="M505 0l-161 239l-154 -239h-98l209 300l-203 300h99l155 -233l161 233h98l-215 -295l207 -305h-98z" />
    <glyph glyph-name="tsecyrillic" unicode="&#x446;" 
d="M563 -150v150h-457v600h85v-522h263v522h85v-522h104v-228h-80z" />
    <glyph glyph-name="checyrillic" unicode="&#x447;" 
d="M538 600v-600h-85v218q-26 -10 -60 -16t-72 -6q-120 0 -178 52.5t-58 162.5v189h85v-187q0 -81 39.5 -110.5t108.5 -30.5q43 -1 79.5 9t55.5 23v296h85z" />
    <glyph glyph-name="shacyrillic" unicode="&#x448;" 
d="M63 0v600h83v-530h163v530h82v-530h163v530h83v-600h-574z" />
    <glyph glyph-name="shchacyrillic" unicode="&#x449;" 
d="M694 -150h-82v150h-549v600h83v-530h163v530h82v-530h163v530h83v-520h57v-230z" />
    <glyph glyph-name="hardsigncyrillic" unicode="&#x44a;" 
d="M419 0h-269v522h-150v78h235v-208h183q96 0 150.5 -46t54.5 -127v-40q0 -84 -54 -131.5t-150 -47.5zM235 80h165q72 0 105 23t33 73v44q0 49 -33 71.5t-105 22.5h-165v-234z" />
    <glyph glyph-name="yericyrillic" unicode="&#x44b;" 
d="M86 0v600h82v-212h98q81 0 127.5 -47.5t46.5 -131.5v-28q0 -85 -46 -133t-127 -48h-181zM532 0v600h82v-600h-82zM168 77h75q60 0 86.5 24.5t26.5 75.5v38q0 50 -26.5 74t-86.5 24h-75v-236z" />
    <glyph glyph-name="softsigncyrillic" unicode="&#x44c;" 
d="M108 0v600h85v-208h233q94 0 147.5 -46t53.5 -127v-40q0 -84 -53.5 -131.5t-146.5 -47.5h-319zM193 80h215q70 0 102 23.5t32 73.5v44q0 49 -32 71t-102 22h-215v-234z" />
    <glyph glyph-name="ereversedcyrillic" unicode="&#x44d;" 
d="M336 -10q-112 0 -173 47t-68 136l84 4q2 -51 42 -77.5t114 -26.5q87 0 130.5 35.5t43.5 107.5v57h-237v74h237v31q0 75 -42.5 112t-129.5 37q-76 0 -115 -32.5t-43 -98.5l-84 4q7 102 68 156t174 54q128 0 192.5 -58.5t64.5 -172.5v-164q0 -111 -65 -168t-193 -57z" />
    <glyph glyph-name="iucyrillic" unicode="&#x44e;" 
d="M442 -10q-102 0 -148.5 56.5t-46.5 152.5v97h-93v-296h-91v600h91v-222h93v19q0 97 47 155t149 58q103 0 148.5 -58t45.5 -155v-198q0 -96 -46 -152.5t-149 -56.5zM442 72q61 0 88.5 29.5t27.5 97.5v198q0 71 -27.5 101t-88.5 30t-88 -30t-27 -101v-198q0 -68 27 -97.5
t88 -29.5z" />
    <glyph glyph-name="iacyrillic" unicode="&#x44f;" 
d="M294 296h215v222h-215q-57 0 -81.5 -23t-24.5 -72v-22q0 -54 24.5 -79.5t81.5 -25.5zM509 216h-103l-199 -216h-110l198 213q-93 1 -142.5 48.5t-49.5 134.5v20q0 89 51 136.5t147 47.5h293v-600h-85v216z" />
    <glyph glyph-name="iegravecyrillic" unicode="&#x450;" 
d="M594 130q-25 -73 -78.5 -106.5t-164.5 -33.5q-118 0 -181.5 57.5t-63.5 170.5v161q0 117 68.5 174t176.5 57q109 0 176 -58t67 -181v-87h-403v-65q0 -82 39.5 -117t118.5 -35q77 0 109.5 21.5t48.5 66.5zM191 375v-21h318v12q0 87 -40.5 126.5t-118.5 39.5t-118.5 -38.5
t-40.5 -118.5zM354 700l-191 200h135l141 -200h-85z" />
    <glyph glyph-name="iocyrillic" unicode="&#x451;" 
d="M594 130q-25 -73 -78.5 -106.5t-164.5 -33.5q-118 0 -181.5 57.5t-63.5 170.5v161q0 117 68.5 174t176.5 57q109 0 176 -58t67 -181v-87h-403v-65q0 -82 39.5 -117t118.5 -35q77 0 109.5 21.5t48.5 66.5zM191 375v-21h318v12q0 87 -40.5 126.5t-118.5 39.5t-118.5 -38.5
t-40.5 -118.5zM238 714q-27 0 -43.5 11t-16.5 42v6q0 31 16.5 43t43.5 12t43.5 -12t16.5 -43v-6q0 -31 -17 -42t-43 -11zM464 714q-27 0 -43.5 11t-16.5 42v6q0 31 16.5 43t43.5 12t43.5 -12t16.5 -43v-6q0 -31 -17 -42t-43 -11z" />
    <glyph glyph-name="djecyrillic" unicode="&#x452;" 
d="M400 -208q-28 0 -60 6t-66 16l20 90q28 -10 55 -16t51 -6q49 0 79 28.5t30 94.5v359q0 56 -32.5 86t-94.5 30q-47 0 -96 -28t-95 -81v-371h-85v636h-100v76h100v88h85v-88h206v-76h-206v-180h30q21 49 71 78.5t113 29.5q88 0 138.5 -49.5t50.5 -132.5v-389
q0 -101 -55 -151t-139 -50z" />
    <glyph glyph-name="gjecyrillic" unicode="&#x453;" 
d="M158 0v600h451v-78h-366v-522h-85zM325 700l141 200h135l-191 -200h-85z" />
    <glyph glyph-name="ecyrillic" unicode="&#x454;" 
d="M605 173q-7 -89 -68 -136t-173 -47q-128 0 -193 57t-65 168v164q0 114 64.5 172.5t192.5 58.5q113 0 174 -54t68 -156l-84 -4q-4 66 -43 98.5t-115 32.5q-86 0 -129 -37t-43 -112v-30h234v-76h-234v-56q0 -72 43.5 -107.5t130.5 -35.5q74 0 114 26.5t42 77.5z" />
    <glyph glyph-name="dzecyrillic" unicode="&#x455;" 
d="M359 -11q-75 0 -145.5 23t-130.5 72l45 71q48 -40 107 -61t123 -21q54 0 105.5 16.5t51.5 73.5q0 45 -41 63.5t-154 33.5q-108 13 -162.5 52t-54.5 121q0 89 68 133t152 44q72 0 137.5 -25.5t121.5 -71.5l-46 -73q-44 38 -98.5 62t-115.5 24q-49 0 -92 -19t-43 -71
q0 -43 37.5 -63t147.5 -33q113 -13 170 -55.5t57 -117.5q0 -95 -76.5 -136.5t-163.5 -41.5z" />
    <glyph glyph-name="icyrillic" unicode="&#x456;" 
d="M105 0v80h203v440h-203v80h288v-520h203v-80h-491zM348 714q-35 0 -57 11t-22 42v6q0 31 22 43t57 12t57 -12t22 -43v-6q0 -31 -22.5 -42t-56.5 -11z" />
    <glyph glyph-name="yicyrillic" unicode="&#x457;" 
d="M105 0v80h203v440h-203v80h288v-520h203v-80h-491zM237 714q-27 0 -43.5 11t-16.5 42v6q0 31 16.5 43t43.5 12t43.5 -12t16.5 -43v-6q0 -31 -17 -42t-43 -11zM463 714q-27 0 -43.5 11t-16.5 42v6q0 31 16.5 43t43.5 12t43.5 -12t16.5 -43v-6q0 -31 -17 -42t-43 -11z" />
    <glyph glyph-name="jecyrillic" unicode="&#x458;" 
d="M261 -208q-37 0 -73 4.5t-79 17.5l20 90q37 -13 68.5 -17.5t63.5 -4.5q66 0 107 28.5t41 94.5v515h-285v80h370v-607q0 -104 -68 -152.5t-165 -48.5zM450 714q-35 0 -57 11t-22 42v6q0 31 22 43t57 12t57 -12t22 -43v-6q0 -31 -22.5 -42t-56.5 -11z" />
    <glyph glyph-name="ljecyrillic" unicode="&#x459;" 
d="M212 516l-11 -370q-3 -81 -43.5 -118t-94.5 -37q-17 0 -35 3.5t-36 9.5l20 89q13 -5 26.5 -8t24.5 -3q22 0 37.5 15t16.5 55l13 448h271v-208h88q73 0 116 -47t43 -126v-58q0 -74 -43 -117.5t-115 -43.5h-172v516h-106zM401 79h70q48 1 71 24t23 69v50q0 46 -23 69.5
t-71 23.5h-70v-236z" />
    <glyph glyph-name="njecyrillic" unicode="&#x45a;" 
d="M390 79h70q47 0 70 21t23 61v58q0 46 -23 69t-70 23h-70v-232zM147 309v-309h-84v600h84v-214h159v214h84v-212h88q72 0 115.5 -47t43.5 -128v-48q0 -76 -43 -120.5t-115 -44.5h-173v309h-159z" />
    <glyph glyph-name="tshecyrillic" unicode="&#x45b;" 
d="M191 371v-371h-85v636h-100v76h100v88h85v-88h206v-76h-206v-180h30q22 50 71.5 79t112.5 29q88 0 138.5 -49t50.5 -133v-382h-85v364q0 59 -31 87.5t-96 28.5q-49 0 -95.5 -26.5t-95.5 -82.5z" />
    <glyph glyph-name="kjecyrillic" unicode="&#x45c;" 
d="M247 279v-279h-85v600h85v-247h53l198 247h110l-243 -281l240 -319h-100l-205 279h-53zM302 700l141 200h135l-191 -200h-85z" />
    <glyph glyph-name="igravecyrillic" unicode="&#x45d;" 
d="M510 0v500l-281 -500h-123v600h84v-505l286 505h118v-600h-84zM351 700l-191 200h135l141 -200h-85z" />
    <glyph glyph-name="ushortcyrillic" unicode="&#x45e;" 
d="M169 -205q-22 0 -43 3t-42 8l18 79q24 -6 44.5 -8.5t38.5 -2.5q44 0 81 26.5t56 81.5l4 10h-24l-220 608h94l177 -530l173 530h92l-226 -627q-34 -91 -91 -134.5t-132 -43.5zM350 693q-86 0 -144.5 43.5t-60.5 150.5l90 10q2 -72 26.5 -102.5t88.5 -30.5t88.5 30.5
t26.5 102.5l90 -10q-2 -107 -60.5 -150.5t-144.5 -43.5z" />
    <glyph glyph-name="dzhecyrillic" unicode="&#x45f;" 
d="M309 -150v150h-203v600h85v-522h318v522h85v-600h-203v-150h-82z" />
    <glyph glyph-name="Gheupturncyrillic" unicode="&#x490;" 
d="M100 0v800h428v150h85v-228h-428v-722h-85z" />
    <glyph glyph-name="gheupturncyrillic" unicode="&#x491;" 
d="M158 0v600h370v150h81v-228h-366v-522h-85z" />
    <glyph glyph-name="Wgrave" unicode="&#x1e80;" 
d="M476 0l-127 498l-125 -498h-89l-109 800h89l77 -663l111 463h100l111 -466l77 666h83l-109 -800h-89zM366 900l-191 200h135l141 -200h-85z" />
    <glyph glyph-name="wgrave" unicode="&#x1e81;" 
d="M440 0l-90 412l-85 -412h-105l-116 600h85l80 -549l80 451h118l87 -434l77 532h86l-116 -600h-101zM354 700l-191 200h135l141 -200h-85z" />
    <glyph glyph-name="Wacute" unicode="&#x1e82;" 
d="M476 0l-127 498l-125 -498h-89l-109 800h89l77 -663l111 463h100l111 -466l77 666h83l-109 -800h-89zM251 900l141 200h135l-191 -200h-85z" />
    <glyph glyph-name="wacute" unicode="&#x1e83;" 
d="M440 0l-90 412l-85 -412h-105l-116 600h85l80 -549l80 451h118l87 -434l77 532h86l-116 -600h-101zM232 700l141 200h135l-191 -200h-85z" />
    <glyph glyph-name="Wdieresis" unicode="&#x1e84;" 
d="M476 0l-127 498l-125 -498h-89l-109 800h89l77 -663l111 463h100l111 -466l77 666h83l-109 -800h-89zM236 914q-27 0 -43.5 11t-16.5 42v6q0 31 16.5 43t43.5 12t43.5 -12t16.5 -43v-6q0 -31 -17 -42t-43 -11zM462 914q-27 0 -43.5 11t-16.5 42v6q0 31 16.5 43t43.5 12
t43.5 -12t16.5 -43v-6q0 -31 -17 -42t-43 -11z" />
    <glyph glyph-name="wdieresis" unicode="&#x1e85;" 
d="M440 0l-90 412l-85 -412h-105l-116 600h85l80 -549l80 451h118l87 -434l77 532h86l-116 -600h-101zM236 714q-27 0 -43.5 11t-16.5 42v6q0 31 16.5 43t43.5 12t43.5 -12t16.5 -43v-6q0 -31 -17 -42t-43 -11zM462 714q-27 0 -43.5 11t-16.5 42v6q0 31 16.5 43t43.5 12
t43.5 -12t16.5 -43v-6q0 -31 -17 -42t-43 -11z" />
    <glyph glyph-name="Ygrave" unicode="&#x1ef2;" 
d="M393 0h-85v300l-294 500h99l244 -420l231 420h97l-292 -500v-300zM354 900l-191 200h135l141 -200h-85z" />
    <glyph glyph-name="ygrave" unicode="&#x1ef3;" 
d="M169 -205q-22 0 -43 3t-42 8l18 79q24 -6 44.5 -8.5t38.5 -2.5q44 0 81 26.5t56 81.5l4 10h-24l-220 608h94l177 -530l173 530h92l-226 -627q-34 -91 -91 -134.5t-132 -43.5zM354 700l-191 200h135l141 -200h-85z" />
    <glyph glyph-name="uni2000" unicode="&#x2000;" 
 />
    <glyph glyph-name="uni2001" unicode="&#x2001;" 
 />
    <glyph glyph-name="uni2002" unicode="&#x2002;" 
 />
    <glyph glyph-name="uni2003" unicode="&#x2003;" 
 />
    <glyph glyph-name="uni2004" unicode="&#x2004;" 
 />
    <glyph glyph-name="uni2005" unicode="&#x2005;" 
 />
    <glyph glyph-name="uni2007" unicode="&#x2007;" 
 />
    <glyph glyph-name="uni2009" unicode="&#x2009;" 
 />
    <glyph glyph-name="uni200A" unicode="&#x200a;" 
 />
    <glyph glyph-name="uni200B" unicode="&#x200b;" horiz-adv-x="0" 
 />
    <glyph glyph-name="endash" unicode="&#x2013;" 
d="M109 306v86h482v-86h-482z" />
    <glyph glyph-name="emdash" unicode="&#x2014;" 
d="M0 306v86h700v-86h-700z" />
    <glyph glyph-name="horizontalbar" unicode="&#x2015;" 
d="M0 306v86h700v-86h-700z" />
    <glyph glyph-name="underscoredbl" unicode="&#x2017;" 
d="M72 0v86h557v-86h-557zM72 -185v86h557v-86h-557z" />
    <glyph glyph-name="quoteright" unicode="&#x2019;" 
d="M194 410l112 390h187l-221 -390h-78z" />
    <glyph glyph-name="quotesinglbase" unicode="&#x201a;" 
d="M204 -210l92 390h187l-201 -390h-78z" />
    <glyph glyph-name="quotereversed" unicode="&#x201b;" 
d="M395 410l-221 390h186l113 -390h-78z" />
    <glyph glyph-name="quotedblleft" unicode="&#x201c;" 
d="M353 410l225 390h69l-115 -390h-179zM53 410l224 390h69l-114 -390h-179z" />
    <glyph glyph-name="quotedblright" unicode="&#x201d;" 
d="M354 410l114 390h179l-224 -390h-69zM53 410l115 390h179l-225 -390h-69z" />
    <glyph glyph-name="quotedblbase" unicode="&#x201e;" 
d="M239 -205l114 390h179l-224 -390h-69zM-62 -205l115 390h179l-225 -390h-69z" />
    <glyph glyph-name="dagger" unicode="&#x2020;" 
d="M305 -200v720h-105l-41 -208h-71l30 288h184l-7 200h110l-7 -200h185l30 -288h-71l-42 208h-105v-720h-90z" />
    <glyph glyph-name="daggerdbl" unicode="&#x2021;" 
d="M295 -200l7 206h-184l-30 224h73l40 -144h104v428h-104l-40 -144h-73l30 224h184l-7 206h110l-7 -206h184l30 -224h-73l-40 144h-104v-428h104l40 144h73l-30 -224h-184l7 -206h-110z" />
    <glyph glyph-name="bullet" unicode="&#x2022;" 
d="M351 236q-75 0 -121.5 30.5t-46.5 95.5v72q0 66 46.5 97.5t121.5 31.5t121 -31.5t46 -97.5v-72q0 -65 -47 -95.5t-120 -30.5z" />
    <glyph glyph-name="ellipsis" unicode="&#x2026;" 
d="M589 -9q-31 0 -50 20.5t-19 63.5v30q0 44 19 65t50 21t50.5 -21t19.5 -65v-30q0 -43 -20 -63.5t-50 -20.5zM350 -9q-31 0 -50 20.5t-19 63.5v30q0 44 19 65t50 21t50.5 -21t19.5 -65v-30q0 -43 -20 -63.5t-50 -20.5zM112 -9q-31 0 -50.5 20.5t-19.5 63.5v30q0 44 19.5 65
t50.5 21t50 -21t19 -65v-30q0 -43 -19.5 -63.5t-49.5 -20.5z" />
    <glyph glyph-name="perthousand" unicode="&#x2030;" 
d="M174 444q-58 0 -94.5 35t-36.5 108v88q0 74 37 109.5t94 35.5q59 0 95 -35.5t36 -109.5v-88q0 -73 -36.5 -108t-94.5 -35zM129 586q0 -34 12 -49t33 -15q22 0 33.5 15t11.5 49v90q0 34 -11.5 50t-33.5 16q-21 0 -33 -16t-12 -50v-90zM621 648l-552 -556l-55 54l552 557z
M580 -22q-28 0 -49 12t-34 34q-14 -22 -35 -34t-47 -12q-46 0 -74.5 35t-28.5 108v90q0 74 28.5 109.5t73.5 35.5q27 0 48.5 -12t34.5 -36q13 24 34.5 36t48.5 12q46 0 73 -35.5t27 -109.5v-90q0 -73 -27.5 -108t-72.5 -35zM389 108q0 -34 9.5 -49t25.5 -15q17 0 26 15t9 49
v116q0 34 -9 50t-26 16q-16 0 -25.5 -16t-9.5 -50v-116zM533 108q0 -34 10 -49t26 -15t25.5 15t9.5 49v116q0 34 -9.5 50t-25.5 16t-26 -16t-10 -50v-116z" />
    <glyph glyph-name="minute" unicode="&#x2032;" 
d="M194 410l112 390h187l-221 -390h-78z" />
    <glyph glyph-name="second" unicode="&#x2033;" 
d="M239 410l114 390h179l-224 -390h-69zM-62 410l115 390h179l-225 -390h-69z" />
    <glyph glyph-name="guilsinglleft" unicode="&#x2039;" 
d="M493 116l-285 194v80l285 194v-79l-227 -155l227 -155v-79z" />
    <glyph glyph-name="guilsinglright" unicode="&#x203a;" 
d="M208 116v79l227 155l-227 155v79l285 -194v-80z" />
    <glyph glyph-name="exclamdbl" unicode="&#x203c;" 
d="M448 300l-30 500h131l-30 -500h-71zM180 300l-30 500h131l-30 -500h-71zM484 -10q-24 0 -42 5t-29 15t-16.5 26t-5.5 38v28q0 22 5.5 38.5t16.5 26.5q11 11 29 16t42 5t41 -5t28 -16q11 -10 16.5 -26.5t5.5 -38.5v-28q0 -22 -5.5 -37.5t-16.5 -26.5q-11 -10 -28.5 -15
t-40.5 -5zM216 -10q-24 0 -42 5t-29 15t-16.5 26t-5.5 38v28q0 22 5.5 38.5t16.5 26.5q11 11 29 16t42 5t41 -5t28 -16q11 -10 16.5 -26.5t5.5 -38.5v-28q0 -22 -5.5 -37.5t-16.5 -26.5q-11 -10 -28.5 -15t-40.5 -5z" />
    <glyph glyph-name="overline" unicode="&#x203e;" 
d="M72 911v86h557v-86h-557z" />
    <glyph glyph-name="fraction" unicode="&#x2215;" 
d="M105 0l400 800h91l-400 -800h-91z" />
    <glyph glyph-name="fraction" unicode="&#x2044;" 
d="M105 0l400 800h91l-400 -800h-91z" />
    <glyph glyph-name="zero.sups" unicode="&#x2070;" 
d="M350 298q-102 0 -150.5 59t-48.5 158v71q0 101 49 160.5t151 59.5t151 -59.5t49 -160.5v-71q0 -99 -49 -158t-152 -59zM350 362q63 0 91 35t28 126v55q0 93 -28 128.5t-91 35.5t-90.5 -35.5t-27.5 -128.5v-55q0 -91 27.5 -126t90.5 -35z" />
    <glyph glyph-name="four.sups" unicode="&#x2074;" 
d="M220 496h183v242zM578 432h-93v-128h-82v128h-254v64l226 304h110v-304h93v-64z" />
    <glyph glyph-name="five.sups" unicode="&#x2075;" 
d="M349 298q-105 0 -150.5 30.5t-49.5 117.5l81 6q4 -57 28 -73.5t91 -16.5q63 0 89.5 18t26.5 62v28q0 43 -24 60.5t-81 17.5h-193v252h357v-64h-275v-119h125q82 0 127.5 -33.5t45.5 -103.5v-46q0 -61 -49.5 -98.5t-148.5 -37.5z" />
    <glyph glyph-name="six.sups" unicode="&#x2076;" 
d="M350 299q-102 0 -148.5 48t-46.5 129v150q0 83 46.5 132t150.5 49q92 0 134 -29t55 -89l-87 -15q-8 39 -29.5 54t-76.5 15q-69 0 -90 -32t-21 -84v-58h6q19 22 50.5 34t78.5 12q93 0 134 -40.5t41 -107.5v-13q0 -66 -46.5 -110.5t-150.5 -44.5zM350 363q66 0 90 26t24 65
v8q0 40 -25.5 66t-88.5 26t-88 -26t-25 -66v-8q0 -40 23 -65.5t90 -25.5z" />
    <glyph glyph-name="seven.sups" unicode="&#x2077;" 
d="M279 304q32 160 70.5 236t115.5 190h-310v70h392v-70q-75 -124 -117 -206t-63 -220h-88z" />
    <glyph glyph-name="eight.sups" unicode="&#x2078;" 
d="M350 298q-111 0 -153 36t-42 100v14q0 46 26 75t73 33v18q-37 4 -62 27.5t-25 63.5v20q0 63 48 92t135 29q88 0 136 -28t48 -93v-20q0 -40 -25.5 -63.5t-62.5 -27.5v-18q48 -4 74.5 -34t26.5 -74v-14q0 -66 -42 -101t-155 -35zM350 598q54 0 78.5 14.5t24.5 50.5v14
q0 35 -24.5 49t-78.5 14q-53 0 -77 -14t-24 -49v-14q0 -36 24 -50.5t77 -14.5zM350 364q75 0 95 21t20 58v7q0 37 -20 58.5t-95 21.5t-94 -21.5t-19 -58.5v-7q0 -37 19 -58t94 -21z" />
    <glyph glyph-name="nine.sups" unicode="&#x2079;" 
d="M351 551q63 0 88.5 26t25.5 66v8q0 40 -24 65.5t-90 25.5t-89.5 -26t-23.5 -65v-8q0 -40 25 -66t88 -26zM349 298q-91 0 -133.5 29t-54.5 89l87 15q8 -39 29.5 -54t76.5 -15q69 0 90 32t21 85v57h-7q-18 -21 -49 -33.5t-78 -12.5q-96 0 -136 41.5t-40 106.5v13
q0 67 46.5 111t148.5 44q103 0 150 -48t47 -129v-150q0 -83 -46.5 -132t-151.5 -49z" />
    <glyph glyph-name="nsuperior" unicode="&#x207f;" 
d="M158 304v498h69v-81h25q11 26 27 43.5t33 27.5q18 10 36.5 14t36.5 4q33 0 61.5 -11t50.5 -32t34 -51t12 -68v-344h-70v325q0 28 -7.5 49.5t-20.5 35.5q-14 13 -32 20t-40 7t-41.5 -6.5t-36.5 -17.5t-32.5 -26t-35.5 -37v-350h-69z" />
    <glyph glyph-name="zero.sinf" unicode="&#x2080;" 
d="M350 -6q-102 0 -150.5 59t-48.5 158v71q0 101 49 160.5t151 59.5t151 -59.5t49 -160.5v-71q0 -99 -49 -158t-152 -59zM350 58q63 0 91 35t28 126v55q0 93 -28 128.5t-91 35.5t-90.5 -35.5t-27.5 -128.5v-55q0 -91 27.5 -126t90.5 -35z" />
    <glyph glyph-name="one.sinf" unicode="&#x2081;" 
d="M205 0v66h136v327h-14q-13 -39 -48.5 -63t-80.5 -24l-6 69q48 1 93.5 29.5t57.5 91.5h80v-430h124v-66h-342z" />
    <glyph glyph-name="two.sinf" unicode="&#x2082;" 
d="M155 0v101q0 55 27 94.5t90 52.5l122 25q35 7 50 23t15 47v22q0 32 -21 52.5t-88 20.5t-85 -23t-22 -75l-82 7q4 77 44.5 116t144.5 39t147 -36t43 -96v-37q0 -57 -31.5 -85.5t-82.5 -38.5l-122 -25q-30 -5 -48.5 -21t-18.5 -61v-36h310v-66h-392z" />
    <glyph glyph-name="three.sinf" unicode="&#x2083;" 
d="M347 -6q-109 0 -151.5 35.5t-46.5 107.5l81 6q5 -46 24.5 -65.5t92.5 -19.5q72 0 95 20.5t23 57.5v16q0 39 -23 58t-92 19h-77v65h77q57 0 80 11.5t23 45.5v23q0 36 -30 50t-79 14q-51 0 -74 -17.5t-27 -57.5l-82 6q5 70 47.5 101.5t135.5 31.5q81 0 135.5 -26t54.5 -99
v-18q0 -38 -26 -60t-69 -26v-18q49 -4 78.5 -33t29.5 -72v-15q0 -71 -48 -106t-152 -35z" />
    <glyph glyph-name="four.sinf" unicode="&#x2084;" 
d="M220 192h183v242zM578 128h-93v-128h-82v128h-254v64l226 304h110v-304h93v-64z" />
    <glyph glyph-name="five.sinf" unicode="&#x2085;" 
d="M349 -6q-105 0 -150.5 30.5t-49.5 117.5l81 6q4 -57 28 -73.5t91 -16.5q63 0 89.5 18t26.5 62v28q0 43 -24 60.5t-81 17.5h-193v252h357v-64h-275v-119h125q82 0 127.5 -33.5t45.5 -103.5v-46q0 -61 -49.5 -98.5t-148.5 -37.5z" />
    <glyph glyph-name="six.sinf" unicode="&#x2086;" 
d="M350 -5q-102 0 -148.5 48t-46.5 129v150q0 83 46.5 132t150.5 49q92 0 134 -29t55 -89l-87 -15q-8 39 -29.5 54t-76.5 15q-69 0 -90 -32t-21 -84v-58h6q19 22 50.5 34t78.5 12q93 0 134 -40.5t41 -107.5v-13q0 -66 -46.5 -110.5t-150.5 -44.5zM350 59q66 0 90 26t24 65v8
q0 40 -25.5 66t-88.5 26t-88 -26t-25 -66v-8q0 -40 23 -65.5t90 -25.5z" />
    <glyph glyph-name="seven.sinf" unicode="&#x2087;" 
d="M279 0q32 160 70.5 236t115.5 190h-310v70h392v-70q-75 -124 -117 -206t-63 -220h-88z" />
    <glyph glyph-name="eight.sinf" unicode="&#x2088;" 
d="M350 -6q-111 0 -153 36t-42 100v14q0 46 26 75t73 33v18q-37 4 -62 27.5t-25 63.5v20q0 63 48 92t135 29q88 0 136 -28t48 -93v-20q0 -40 -25.5 -63.5t-62.5 -27.5v-18q48 -4 74.5 -34t26.5 -74v-14q0 -66 -42 -101t-155 -35zM350 294q54 0 78.5 14.5t24.5 50.5v14
q0 35 -24.5 49t-78.5 14q-53 0 -77 -14t-24 -49v-14q0 -36 24 -50.5t77 -14.5zM350 60q75 0 95 21t20 58v7q0 37 -20 58.5t-95 21.5t-94 -21.5t-19 -58.5v-7q0 -37 19 -58t94 -21z" />
    <glyph glyph-name="nine.sinf" unicode="&#x2089;" 
d="M351 247q63 0 88.5 26t25.5 66v8q0 40 -24 65.5t-90 25.5t-89.5 -26t-23.5 -65v-8q0 -40 25 -66t88 -26zM349 -6q-91 0 -133.5 29t-54.5 89l87 15q8 -39 29.5 -54t76.5 -15q69 0 90 32t21 85v57h-7q-18 -21 -49 -33.5t-78 -12.5q-96 0 -136 41.5t-40 106.5v13
q0 67 46.5 111t148.5 44q103 0 150 -48t47 -129v-150q0 -83 -46.5 -132t-151.5 -49z" />
    <glyph glyph-name="franc" unicode="&#x20a3;" 
d="M396 208h-208v-208h-85v208h-100v84h100v508h513v-78h-428v-228h358v-78h-358v-124h208v-84z" />
    <glyph glyph-name="lira" unicode="&#x20a4;" 
d="M669 205q-3 -53 -18.5 -93t-41.5 -67q-27 -27 -64 -41t-83 -14q-22 0 -43.5 4.5t-42.5 11.5q-10 4 -31.5 13t-53.5 23q-23 9 -41 15t-36 8q-18 3 -35 -0.5t-32 -13.5l-92 -60l-53 65l78 47q18 11 34.5 31t28.5 46q12 25 18.5 52.5t6.5 52.5l-161 14v76h142
q-2 6 -4.5 11.5t-5.5 9.5q-3 5 -7 12.5t-6 11.5q-16 27 -15.5 26.5t-4.5 7.5l-8.5 17t-8.5 18h-82v76h61q0 6 -0.5 10.5t-0.5 10.5q-1 5 -1 10.5v10.5q0 46 18.5 83.5t54.5 63.5q37 27 90.5 41.5t121.5 14.5t118 -12t84 -37t52.5 -64.5t21.5 -95.5l-88 -10q-3 42 -15 69.5
t-34 43.5t-56 23t-85 7q-53 0 -90.5 -7.5t-60.5 -22.5q-24 -15 -35 -39.5t-11 -59.5v-10.5t1 -10.5q0 -5 1 -10t2 -9h299v-76h-268l6 -10t10 -17q4 -5 6.5 -9.5t3.5 -6.5q6 -9 11 -17.5t9 -16.5q5 -9 9 -18.5t7 -18.5h206v-76h-191q0 -29 -3 -48t-12 -39q-10 -21 -28 -43
t-47 -44l11 -13q16 10 33 14.5t35 4.5q18 -1 35.5 -5t37.5 -11q13 -4 37.5 -13.5t39.5 -14.5q16 -6 32 -9.5t31 -3.5q32 0 53.5 9t33.5 26q12 18 18.5 43.5t9.5 62.5z" />
    <glyph glyph-name="peseta" unicode="&#x20a7;" 
d="M107 354h33q10 0 17 4.5t13 14.5q5 11 7.5 28t2.5 42v192q0 25 -2.5 42t-7.5 28q-6 10 -13 14.5t-17 4.5h-33v-370zM680 151q0 -37 -9 -67t-26 -51t-42.5 -32t-58.5 -11q-9 0 -17 1t-15 2q-8 2 -15 4.5t-15 5.5q-9 -3 -17 -5.5t-16 -3.5q-7 -2 -15 -2.5t-15 -0.5
q-22 0 -40 8.5t-31 27.5t-20.5 49t-7.5 71v377h-63v-83q0 -39 -7 -69t-22 -51q-14 -20 -37 -30.5t-54 -10.5h-31v-280h-76v800h108q32 0 54.5 -10.5t36.5 -30.5q14 -21 21 -50.5t7 -69.5v-39h63v200h77v-200h76v-56q7 16 17 28.5t22 20.5q12 9 27 13t33 4q15 0 28.5 -2.5
t26.5 -7.5t26 -13t27 -19l-45 -67q-11 9 -18.5 14.5t-13.5 9.5q-7 3 -13 5t-13 2q-12 0 -20.5 -5t-13.5 -14q-6 -10 -8.5 -24t-2.5 -33q0 -21 6 -39t16 -34t21 -28.5t32 -36.5q17 -20 29 -36t22 -36q10 -19 16 -43t6 -52zM544 68q16 0 27 5t19 15q7 9 10.5 23t3.5 33
q0 17 -6 35t-16 36q-10 17 -22 33.5t-29 37.5q-21 25 -32 38.5t-21 32.5q-10 18 -16 41t-6 51q0 11 0.5 21t1.5 19q2 10 3.5 18.5t4.5 16.5h-69v-390q0 -16 2 -28t5 -20t7.5 -12t10.5 -4q5 0 10 0.5t10 1.5q5 2 11 3.5t13 4.5l1 -2l14 21q13 -10 19.5 -14.5t13.5 -8.5
t14.5 -6t15.5 -2z" />
    <glyph glyph-name="Euro" unicode="&#x20ac;" 
d="M383 -10q-134 0 -195.5 75t-61.5 201v2h-103v76h103v110h-103v76h103v2q0 127 62.5 202.5t194.5 75.5q137 0 193.5 -54t62.5 -153l-90 -10q-5 65 -34.5 102t-131.5 37q-98 0 -133 -54t-35 -146v-2h207v-76h-206v-110h206v-76h-207v-2q0 -93 34.5 -145.5t133.5 -52.5
q100 0 130 34.5t36 100.5l90 -10q-6 -97 -62.5 -150t-193.5 -53z" />
    <glyph glyph-name="careof" unicode="&#x2105;" 
d="M263 579l86 -8q1 -32 -10 -56t-31 -39q-21 -16 -49 -24t-63 -8t-63 9.5t-48 28.5t-31 48.5t-11 68.5v64q0 39 11 69t31 49q20 20 48 29.5t63 9.5t63.5 -8t48.5 -24t31 -40.5t10 -56.5l-86 -6q0 15 -4.5 26t-13.5 18q-8 7 -20.5 10.5t-28.5 3.5t-28.5 -4.5t-21.5 -14.5
q-9 -9 -14 -24t-5 -35v-66q0 -20 5 -34.5t14 -23.5t21.5 -13.5t28.5 -4.5t28.5 3t20.5 10q9 7 13.5 17.5t4.5 25.5zM47 163l559 534l51 -51l-558 -534zM505 -22q-35 0 -62.5 9.5t-47.5 28.5q-21 19 -31.5 48.5t-10.5 68.5v64q0 39 11 69t31 49q20 20 48 29.5t62 9.5
q35 0 63 -9.5t48 -29.5q20 -19 30.5 -49t10.5 -69v-64q0 -39 -10.5 -68.5t-31.5 -48.5q-20 -19 -47.5 -28.5t-62.5 -9.5zM505 57q16 0 29 4.5t21 13.5q9 9 13.5 23.5t4.5 34.5v66q0 20 -4.5 35t-13.5 24q-9 10 -21.5 14.5t-28.5 4.5t-28.5 -4.5t-21.5 -14.5q-9 -9 -13.5 -24
t-4.5 -35v-66q0 -20 4.5 -34.5t13.5 -23.5t21.5 -13.5t28.5 -4.5z" />
    <glyph glyph-name="lsquare" unicode="&#x2113;" 
d="M334 334q25 0 45 4t36 12t26 20.5t13 30.5l39 236q4 21 2 38t-12 30t-29.5 20t-49.5 7q-25 0 -45.5 -4.5t-36.5 -13.5q-16 -8 -26 -21.5t-13 -31.5l-42 -242q-3 -19 0 -34t14 -27q10 -11 30 -17.5t49 -6.5zM480 25q-17 -7 -35.5 -13t-37.5 -10q-20 -4 -41.5 -6.5
t-43.5 -2.5q-54 0 -96.5 13.5t-69.5 39.5t-37.5 62t-2.5 80l82 471q7 37 25.5 65.5t46.5 47.5t63.5 28.5t75.5 9.5q48 0 83 -13t57 -36q21 -24 28.5 -56t0.5 -70l-38 -228q-7 -40 -25 -69.5t-45 -49.5q-28 -19 -62 -28.5t-73 -9.5q-20 0 -37 3.5t-31 9.5q-15 7 -26.5 16.5
t-20.5 21.5l-16 -98q-5 -30 0.5 -53t21.5 -38q16 -16 40.5 -24t56.5 -8q16 0 33.5 2t36.5 5q19 4 39.5 10t42.5 14z" />
    <glyph glyph-name="numero" unicode="&#x2116;" 
d="M182 735v-319h-78v384h105l309 -311v311h78v-384h-109zM444 -15q-68 0 -109 38t-41 116v55q0 78 41 117.5t109 39.5q69 0 109.5 -39.5t40.5 -117.5v-55q0 -78 -41.5 -116t-108.5 -38zM444 56q38 0 58 19t20 62v59q0 43 -19.5 64.5t-58.5 21.5t-58.5 -21.5t-19.5 -64.5
v-59q0 -43 19.5 -62t58.5 -19z" />
    <glyph glyph-name="uni2117" unicode="&#x2117;" 
d="M350 -110q-175 0 -254 96t-79 271v222q0 176 79.5 273.5t254.5 97.5t253.5 -97.5t78.5 -273.5v-222q0 -175 -79 -271t-254 -96zM350 -45q138 0 200.5 71t62.5 226v231q0 158 -62.5 230t-200.5 72t-200.5 -72.5t-62.5 -230.5v-229q0 -156 62.5 -227t200.5 -71zM224 128
v492h139q77 0 117 -41t40 -119v-37q0 -72 -40 -109t-118 -37h-57v-149h-81zM305 350h57q43 0 59 17t16 56v37q0 46 -16 65.5t-59 19.5h-57v-195z" />
    <glyph glyph-name="trademark" unicode="&#x2122;" 
d="M107 351v382h-95v67h252v-67h-84v-382h-73zM378 726v-375h-67v449h111l60 -199l68 199h97v-449h-66l-1 367l-76 -230h-48z" />
    <glyph glyph-name="Ohm" unicode="&#x2126;" 
d="M297 0h-222v84h133v90q-73 19 -103 84.5t-30 152.5v106q0 146 69 219.5t206 73.5t206.5 -73.5t69.5 -219.5v-106q0 -87 -30.5 -152.5t-102.5 -84.5v-90h133v-84h-223v230q83 13 110.5 61t27.5 120v104q0 117 -43.5 167t-147.5 50t-147 -50t-43 -167v-104q0 -72 27 -120
t110 -61v-230z" />
    <glyph glyph-name="estimated" unicode="&#x212e;" 
d="M345 -12q-137 0 -227 116t-90 298q0 187 89 300t232 113q137 0 226.5 -127t93.5 -338h-457v-228q31 -25 62 -38.5t71 -13.5q78 0 133 30t90 84l48 -60q-43 -65 -109.5 -100.5t-161.5 -35.5zM212 430h269v248q-31 24 -61.5 39.5t-72.5 15.5q-39 0 -71 -12t-64 -40v-251z
" />
    <glyph glyph-name="oneeighth" unicode="&#x215b;" 
d="M182 410v69h136v224h-14q-6 -19 -18.5 -35t-29.5 -28q-18 -12 -38.5 -18.5t-42.5 -6.5l-6 69q25 1 49 8.5t45 21.5q21 15 36 38t21 54h80v-327h124v-69h-342zM0 251v94l318 -20v-54zM396 271v54l304 20v-94zM355 -215q-55 0 -93 8t-61 23q-22 15 -32 36.5t-10 49.5v14
q0 19 6.5 34t19.5 26q13 12 31.5 18.5t41.5 8.5v18q-19 2 -34.5 7.5t-27.5 14.5t-18.5 21t-6.5 27v20q0 27 12 46t36 32q23 12 57 18t79 6t79 -5.5t57 -17.5q23 -13 35 -32.5t12 -46.5v-20q0 -15 -6.5 -27t-18.5 -21t-27.5 -14.5t-34.5 -7.5v-18q24 -2 42.5 -9t31.5 -18
q13 -12 19.5 -27t6.5 -33v-14q0 -29 -10 -50.5t-32 -36.5q-23 -15 -61 -22.5t-93 -7.5zM355 47q28 0 47 2.5t31 7.5t18 13t6 20v13q0 12 -6 20t-18 13t-31 7t-47 2t-47 -2t-31 -7t-18 -13t-6 -20v-13q0 -12 6 -20t18 -13t31 -7.5t47 -2.5zM355 -148q37 0 60 4t34 12
q12 7 16 17.5t4 25.5v8q0 15 -4 26t-16 18q-11 8 -34 12t-60 4t-60 -4t-35 -12q-11 -7 -15 -17.5t-4 -26.5v-8q0 -15 4 -25.5t15 -17.5q12 -8 35 -12t60 -4z" />
    <glyph glyph-name="threeeighths" unicode="&#x215c;" 
d="M347 404q-54 0 -91.5 7.5t-59.5 22.5q-23 15 -34 38t-13 55l81 6q2 -18 7 -29t17 -18t34 -10.5t59 -3.5q36 0 59 3t36 8q13 6 18 14t5 19v16q0 11 -5 19t-18 13q-13 6 -35.5 8.5t-56.5 2.5h-43v69h43q29 0 48.5 2t31.5 8q12 5 17.5 14t5.5 23v23q0 8 -7.5 14t-21.5 10
q-15 3 -34.5 4.5t-45.5 1.5t-44.5 -3t-30.5 -9t-18 -16t-8 -25l-82 6q2 31 13.5 52.5t33.5 35.5t55.5 20.5t80.5 6.5q43 0 77.5 -4.5t59.5 -15.5t39 -29.5t14 -45.5v-18q0 -17 -6.5 -31t-19.5 -24q-12 -9 -29.5 -15t-39.5 -8v-18q25 -2 45 -8.5t34 -15.5q14 -10 21.5 -22.5
t7.5 -26.5v-15q0 -28 -11.5 -49t-36.5 -34q-24 -14 -62 -21t-90 -7zM0 251v94l318 -20v-54zM396 271v54l304 20v-94zM355 -215q-55 0 -93 8t-61 23q-22 15 -32 36.5t-10 49.5v14q0 19 6.5 34t19.5 26q13 12 31.5 18.5t41.5 8.5v18q-19 2 -34.5 7.5t-27.5 14.5t-18.5 21
t-6.5 27v20q0 27 12 46t36 32q23 12 57 18t79 6t79 -5.5t57 -17.5q23 -13 35 -32.5t12 -46.5v-20q0 -15 -6.5 -27t-18.5 -21t-27.5 -14.5t-34.5 -7.5v-18q24 -2 42.5 -9t31.5 -18q13 -12 19.5 -27t6.5 -33v-14q0 -29 -10 -50.5t-32 -36.5q-23 -15 -61 -22.5t-93 -7.5z
M355 47q28 0 47 2.5t31 7.5t18 13t6 20v13q0 12 -6 20t-18 13t-31 7t-47 2t-47 -2t-31 -7t-18 -13t-6 -20v-13q0 -12 6 -20t18 -13t31 -7.5t47 -2.5zM355 -148q37 0 60 4t34 12q12 7 16 17.5t4 25.5v8q0 15 -4 26t-16 18q-11 8 -34 12t-60 4t-60 -4t-35 -12
q-11 -7 -15 -17.5t-4 -26.5v-8q0 -15 4 -25.5t15 -17.5q12 -8 35 -12t60 -4z" />
    <glyph glyph-name="fiveeighths" unicode="&#x215d;" 
d="M349 406q-55 0 -91.5 5.5t-59.5 18.5q-24 13 -35.5 36t-13.5 58l81 6q1 -19 7 -30.5t20 -17.5q13 -6 34.5 -8t57.5 -2q33 0 55 3t35 9q14 5 20 14t6 22v27q0 12 -5.5 21t-17.5 15q-12 5 -32 8t-50 3h-193v212h357v-66h-275v-73h125q42 0 74 -7t54 -21t33.5 -35t11.5 -49
v-34q0 -26 -12.5 -47t-37.5 -37q-25 -15 -62 -23t-86 -8zM0 251v94l318 -20v-54zM396 271v54l304 20v-94zM355 -215q-55 0 -93 8t-61 23q-22 15 -32 36.5t-10 49.5v14q0 19 6.5 34t19.5 26q13 12 31.5 18.5t41.5 8.5v18q-19 2 -34.5 7.5t-27.5 14.5t-18.5 21t-6.5 27v20
q0 27 12 46t36 32q23 12 57 18t79 6t79 -5.5t57 -17.5q23 -13 35 -32.5t12 -46.5v-20q0 -15 -6.5 -27t-18.5 -21t-27.5 -14.5t-34.5 -7.5v-18q24 -2 42.5 -9t31.5 -18q13 -12 19.5 -27t6.5 -33v-14q0 -29 -10 -50.5t-32 -36.5q-23 -15 -61 -22.5t-93 -7.5zM355 47
q28 0 47 2.5t31 7.5t18 13t6 20v13q0 12 -6 20t-18 13t-31 7t-47 2t-47 -2t-31 -7t-18 -13t-6 -20v-13q0 -12 6 -20t18 -13t31 -7.5t47 -2.5zM355 -148q37 0 60 4t34 12q12 7 16 17.5t4 25.5v8q0 15 -4 26t-16 18q-11 8 -34 12t-60 4t-60 -4t-35 -12q-11 -7 -15 -17.5
t-4 -26.5v-8q0 -15 4 -25.5t15 -17.5q12 -8 35 -12t60 -4z" />
    <glyph glyph-name="seveneighths" unicode="&#x215e;" 
d="M274 410q14 56 29.5 100t37.5 82q21 38 50 73t69 71h-310v70h392v-70q-39 -39 -68.5 -78.5t-51.5 -79.5t-37 -81.5t-23 -86.5h-88zM0 251v94l318 -20v-54zM396 271v54l304 20v-94zM355 -215q-55 0 -93 8t-61 23q-22 15 -32 36.5t-10 49.5v14q0 19 6.5 34t19.5 26
q13 12 31.5 18.5t41.5 8.5v18q-19 2 -34.5 7.5t-27.5 14.5t-18.5 21t-6.5 27v20q0 27 12 46t36 32q23 12 57 18t79 6t79 -5.5t57 -17.5q23 -13 35 -32.5t12 -46.5v-20q0 -15 -6.5 -27t-18.5 -21t-27.5 -14.5t-34.5 -7.5v-18q24 -2 42.5 -9t31.5 -18q13 -12 19.5 -27t6.5 -33
v-14q0 -29 -10 -50.5t-32 -36.5q-23 -15 -61 -22.5t-93 -7.5zM355 47q28 0 47 2.5t31 7.5t18 13t6 20v13q0 12 -6 20t-18 13t-31 7t-47 2t-47 -2t-31 -7t-18 -13t-6 -20v-13q0 -12 6 -20t18 -13t31 -7.5t47 -2.5zM355 -148q37 0 60 4t34 12q12 7 16 17.5t4 25.5v8
q0 15 -4 26t-16 18q-11 8 -34 12t-60 4t-60 -4t-35 -12q-11 -7 -15 -17.5t-4 -26.5v-8q0 -15 4 -25.5t15 -17.5q12 -8 35 -12t60 -4z" />
    <glyph glyph-name="arrowleft" unicode="&#x2190;" 
d="M323 85l-323 305v20l323 305h20v-275h357v-80h-357v-275h-20z" />
    <glyph glyph-name="arrowup" unicode="&#x2191;" 
d="M308 10v450h-279v20l311 310h20l311 -310v-20h-278v-450h-85z" />
    <glyph glyph-name="arrowright" unicode="&#x2192;" 
d="M358 85v275h-358v80h358v275h20l322 -305v-20l-322 -305h-20z" />
    <glyph glyph-name="arrowdown" unicode="&#x2193;" 
d="M340 20l-307 310v20h275v450h85v-450h275v-20l-308 -310h-20z" />
    <glyph glyph-name="arrowboth" unicode="&#x2194;" 
d="M282 360v-275h-20l-262 305v20l262 305h20v-275h137v275h20l261 -305v-20l-261 -305h-20v275h-137z" />
    <glyph glyph-name="arrowupdn" unicode="&#x2195;" 
d="M360 -90h-20l-311 320v20h279v300h-279v20l311 320h20l311 -320v-20h-278v-300h278v-20z" />
    <glyph glyph-name="arrowupdnbse" unicode="&#x21a8;" 
d="M72 -190v88h557v-88h-557zM360 -90h-20l-311 320v20h279v300h-279v20l311 320h20l311 -320v-20h-278v-300h278v-20z" />
    <glyph glyph-name="partialdiff" unicode="&#x2202;" 
d="M296 -10q-57 0 -101.5 14t-73.5 41q-29 28 -39 70.5t2 97.5l15 75q10 46 33.5 83.5t58.5 63.5t79 40t96 14q31 0 58.5 -5.5t48.5 -15.5q20 -10 33.5 -23.5t18.5 -28.5h23q10 62 4.5 110t-31.5 87q-27 39 -80 70t-138 53l39 68q99 -27 161.5 -65t93.5 -90
q30 -52 34 -119.5t-16 -158.5l-32 -152q-13 -59 -38 -102.5t-62 -71.5q-36 -28 -83 -41.5t-104 -13.5zM304 68q43 0 75.5 9t55.5 27t37.5 45t22.5 64l13 62q7 35 3.5 60t-19.5 42q-15 17 -43.5 25.5t-72.5 8.5t-77 -8.5t-55 -25.5q-23 -17 -37 -42t-21 -60l-13 -62
q-8 -37 -5 -64t19 -45q15 -18 44 -27t73 -9z" />
    <glyph glyph-name="Delta#1" unicode="&#x2206;" 
d="M42 0v78l263 722h78l276 -722v-78h-617zM571 78l-223 621l-222 -621h445z" />
    <glyph glyph-name="product" unicode="&#x220f;" 
d="M108 -200v1000h485v-1000h-85v922h-315v-922h-85z" />
    <glyph glyph-name="summation" unicode="&#x2211;" 
d="M620 -122v-78h-550v78l374 435l-374 409v78h550v-78h-451l343 -371v-70l-354 -403h462z" />
    <glyph glyph-name="minus" unicode="&#x2212;" 
d="M72 306v88h557v-88h-557z" />
    <glyph glyph-name="radical" unicode="&#x221a;" 
d="M345 0l-177 417l-109 -20v73l164 30l178 -448l192 848h77l-215 -900h-110z" />
    <glyph glyph-name="infinity" unicode="&#x221e;" 
d="M198 122q-31 0 -57 18t-46 54q-20 35 -31 87.5t-11 118.5t11.5 118.5t32.5 87.5q21 36 49 54t61 18q27 0 51 -16t43 -43q19 -28 32.5 -62.5t22.5 -72.5q15 44 30 79t33 60q17 26 39 40.5t47 14.5q30 0 56 -18t45 -54q19 -35 30 -87t11 -118q0 -67 -11.5 -119t-32.5 -88
t-50 -54t-63 -18q-27 0 -48.5 15.5t-38.5 42.5t-30.5 59.5t-27.5 75.5q-15 -45 -29.5 -79.5t-32.5 -59.5q-18 -26 -39 -40t-46 -14zM493 191q15 0 28 11.5t23 36.5t15.5 65t5.5 95q-1 56 -6.5 96.5t-15.5 65.5q-9 25 -22 36.5t-28 11.5q-17 0 -31 -16t-25 -43
q-6 -13 -18 -49t-31 -94q0 -1 17.5 -60.5t28.5 -88.5q11 -30 26 -48.5t33 -18.5zM208 191q16 0 29.5 16t24.5 42q12 26 30.5 83t19.5 59q-2 7 -18 64t-28 87q-11 30 -25.5 48.5t-32.5 18.5q-16 0 -29 -11.5t-22 -36.5q-10 -25 -15.5 -65t-5.5 -95q1 -57 6.5 -97.5
t14.5 -64.5q10 -25 22.5 -36.5t28.5 -11.5z" />
    <glyph glyph-name="orthogonal" unicode="&#x221f;" 
d="M100 0v700h85v-624h435v-76h-520z" />
    <glyph glyph-name="intersection" unicode="&#x2229;" 
d="M105 0v430q0 71 17.5 124.5t49.5 87.5q32 35 77 51.5t101 16.5t101 -16.5t77 -51.5q33 -34 50.5 -87.5t17.5 -124.5v-430h-85v433q0 54 -10 92t-31 61q-20 24 -49.5 35t-70.5 11t-70.5 -11t-49.5 -34q-20 -24 -30 -62t-10 -92v-433h-85z" />
    <glyph glyph-name="integral" unicode="&#x222b;" 
d="M205 -206q-22 0 -40 1.5t-33 4.5t-28.5 7.5t-27.5 10.5l20 78q14 -6 29 -10t29 -6t26.5 -3t24.5 -1q32 0 51.5 8t30.5 26q12 19 16.5 51t4.5 83v538q0 50 11.5 90.5t34.5 70.5q23 29 57 45t79 16q20 0 39 -1.5t35 -5.5q17 -3 32 -7.5t29 -9.5l-20 -78q-12 6 -25.5 10
t-26.5 6q-14 2 -28.5 3t-29.5 1q-31 0 -50.5 -8t-30.5 -27q-12 -19 -16.5 -51t-4.5 -82v-538q0 -49 -12 -90t-35 -71q-24 -29 -59.5 -45t-81.5 -16z" />
    <glyph glyph-name="approxequal" unicode="&#x2248;" 
d="M474 392q-26 0 -47 6t-39 19t-34 34t-32 53q-20 39 -34 61t-25 33q-11 10 -22.5 13.5t-28.5 3.5q-14 0 -26 -6.5t-21 -21.5q-9 -14 -14 -37.5t-5 -56.5v-97h-84v103q0 49 12 87.5t35 64.5q22 26 53 39.5t68 13.5q26 0 46 -6t38 -19t34 -34t32 -52q20 -39 33 -61t24 -33
t22.5 -14.5t29.5 -3.5q14 0 26.5 6.5t21.5 21.5q9 14 14 38t5 57v96h84v-103q0 -49 -12 -87.5t-34 -64.5q-23 -26 -53.5 -39.5t-66.5 -13.5zM474 -8q-26 0 -47 6t-39 19t-34 34t-32 53q-20 39 -33.5 61t-24.5 33q-11 10 -22.5 13.5t-28.5 3.5q-14 0 -26.5 -6.5t-21.5 -21.5
q-9 -14 -14 -37.5t-5 -56.5v-97h-84v103q0 49 12 87.5t35 64.5q22 26 53 39.5t68 13.5q26 0 46 -6t38 -19t34 -34t32 -52q20 -39 33 -61t24 -33t22.5 -14.5t29.5 -3.5q14 0 26.5 6.5t21.5 21.5q9 14 14 38t5 57v96h84v-103q0 -49 -12 -87.5t-34 -64.5q-23 -26 -53.5 -39.5
t-66.5 -13.5z" />
    <glyph glyph-name="notequal" unicode="&#x2260;" 
d="M629 195h-283l-49 -195h-94l49 195h-180v90h203l57 230h-260v90h283l48 195h94l-48 -195h180v-90h-203l-57 -230h260v-90z" />
    <glyph glyph-name="equivalence" unicode="&#x2261;" 
d="M72 496v88h557v-88h-557zM72 308v88h557v-88h-557zM72 120v88h557v-88h-557z" />
    <glyph glyph-name="lessequal" unicode="&#x2264;" 
d="M599 200l-497 260v80l497 260v-83l-415 -217l415 -217v-83zM102 0v81h497v-81h-497z" />
    <glyph glyph-name="greaterequal" unicode="&#x2265;" 
d="M102 200v83l414 217l-414 217v83l497 -260v-80zM599 0h-497v81h497v-81z" />
    <glyph glyph-name="logicalnotreversed" unicode="&#x2310;" 
d="M81 0v394h539v-88h-448v-306h-91z" />
    <glyph glyph-name="integralbt" unicode="&#x2321;" 
d="M206 -206q-12 0 -30 1.5t-38 4.5t-38.5 7.5t-31.5 10.5l20 78q14 -6 29 -10t29 -6t26.5 -3t24.5 -1q33 0 53.5 9t31.5 29q10 20 14 50.5t4 79.5v756h85v-784q0 -52 -12.5 -93.5t-35.5 -69.5q-24 -29 -57 -44t-74 -15z" />
    <glyph glyph-name="uni23af" unicode="&#x23af;" 
d="M0 360v80h700v-80h-700z" />
    <glyph glyph-name="lighthorzbxd" unicode="&#x2500;" 
d="M-20 342h740v-84h-740v84z" />
    <glyph glyph-name="heavyhorzbxd" unicode="&#x2501;" 
d="M-20 384h740v-168h-740v168z" />
    <glyph glyph-name="lightvertbxd" unicode="&#x2502;" 
d="M308 1050h84v-1500h-84v1500z" />
    <glyph glyph-name="heavyvertbxd" unicode="&#x2503;" 
d="M266 1050h168v-1500h-168v1500z" />
    <glyph glyph-name="lighttrpldashhorzbxd" unicode="&#x2504;" 
d="M38 342h156v-84h-156v84zM271 342h156v-84h-156v84zM504 342h156v-84h-156v84z" />
    <glyph glyph-name="heavytrpldashhorzbxd" unicode="&#x2505;" 
d="M38 384h156v-168h-156v168zM271 384h156v-168h-156v168zM504 384h156v-168h-156v168z" />
    <glyph glyph-name="lighttrpldashvertbxd" unicode="&#x2506;" 
d="M308 55h84v-244h-84v244zM308 421h84v-244h-84v244zM308 787h84v-244h-84v244zM308 1153h84v-244h-84v244z" />
    <glyph glyph-name="heavytrpldashvertbxd" unicode="&#x2507;" 
d="M266 55h168v-244h-168v244zM266 421h168v-244h-168v244zM266 787h168v-244h-168v244zM266 1153h168v-244h-168v244z" />
    <glyph glyph-name="lightquaddashhorzbxd" unicode="&#x2508;" 
d="M21 342h132v-84h-132v84zM196 342h132v-84h-132v84zM371 342h132v-84h-132v84zM546 342h132v-84h-132v84z" />
    <glyph glyph-name="heavyquaddashhorzbxd" unicode="&#x2509;" 
d="M21 384h132v-168h-132v168zM196 384h132v-168h-132v168zM371 384h132v-168h-132v168zM546 384h132v-168h-132v168z" />
    <glyph glyph-name="lightquaddashvertbxd" unicode="&#x250a;" 
d="M308 -9h84v-207h-84v207zM308 266h84v-207h-84v207zM308 541h84v-207h-84v207zM308 816h84v-207h-84v207z" />
    <glyph glyph-name="heavyquaddashvertbxd" unicode="&#x250b;" 
d="M266 -9h168v-207h-168v207zM266 266h168v-207h-168v207zM266 541h168v-207h-168v207zM266 816h168v-207h-168v207z" />
    <glyph glyph-name="lightdnrightbxd" unicode="&#x250c;" 
d="M308 342h412v-84h-328v-708h-84v792z" />
    <glyph glyph-name="dnlightrightheavybxd" unicode="&#x250d;" 
d="M308 384h412v-168h-328v-666h-84v834z" />
    <glyph glyph-name="dnheavyrightlightbxd" unicode="&#x250e;" 
d="M266 342h454v-84h-286v-708h-168v792z" />
    <glyph glyph-name="heavydnrightbxd" unicode="&#x250f;" 
d="M266 384h454v-168h-286v-666h-168v834z" />
    <glyph glyph-name="lightdnleftbxd" unicode="&#x2510;" 
d="M-20 342h412v-792h-84v708h-328v84z" />
    <glyph glyph-name="dnlightleftheavybxd" unicode="&#x2511;" 
d="M-20 384h412v-834h-84v666h-328v168z" />
    <glyph glyph-name="dnheavyleftlightbxd" unicode="&#x2512;" 
d="M-20 342h454v-792h-168v708h-286v84z" />
    <glyph glyph-name="heavydnleftbxd" unicode="&#x2513;" 
d="M-20 384h454v-834h-168v666h-286v168z" />
    <glyph glyph-name="lightuprightbxd" unicode="&#x2514;" 
d="M308 1050h84v-708h328v-84h-412v792z" />
    <glyph glyph-name="uplightrightheavybxd" unicode="&#x2515;" 
d="M308 1050h84v-666h328v-168h-412v834z" />
    <glyph glyph-name="upheavyrightlightbxd" unicode="&#x2516;" 
d="M266 1050h168v-708h286v-84h-454v792z" />
    <glyph glyph-name="heavyuprightbxd" unicode="&#x2517;" 
d="M266 1050h168v-666h286v-168h-454v834z" />
    <glyph glyph-name="lightupleftbxd" unicode="&#x2518;" 
d="M-20 342h328v708h84v-792h-412v84z" />
    <glyph glyph-name="uplightleftheavybxd" unicode="&#x2519;" 
d="M-20 384h328v666h84v-834h-412v168z" />
    <glyph glyph-name="upheavyleftlightbxd" unicode="&#x251a;" 
d="M-20 342h286v708h168v-792h-454v84z" />
    <glyph glyph-name="heavyupleftbxd" unicode="&#x251b;" 
d="M-20 384h286v666h168v-834h-454v168z" />
    <glyph glyph-name="lightvertrightbxd" unicode="&#x251c;" 
d="M308 1050h84v-708h328v-84h-328v-708h-84v1500z" />
    <glyph glyph-name="vertlightrightheavybxd" unicode="&#x251d;" 
d="M308 1050h84v-666h328v-168h-328v-666h-84v1500z" />
    <glyph glyph-name="upheavyrightdnlightbxd" unicode="&#x251e;" 
d="M266 1050h168v-708h286v-84h-328v-708h-84v708h-42v792z" />
    <glyph glyph-name="dnheavyrightuplightbxd" unicode="&#x251f;" 
d="M266 342h42v708h84v-708h328v-84h-286v-708h-168v792z" />
    <glyph glyph-name="vertheavyrightlightbxd" unicode="&#x2520;" 
d="M266 1050h168v-708h286v-84h-286v-708h-168v1500z" />
    <glyph glyph-name="dnlightrightupheavybxd" unicode="&#x2521;" 
d="M266 1050h168v-666h286v-168h-328v-666h-84v666h-42v834z" />
    <glyph glyph-name="uplightrightdnheavybxd" unicode="&#x2522;" 
d="M266 384h42v666h84v-666h328v-168h-286v-666h-168v834z" />
    <glyph glyph-name="heavyvertrightbxd" unicode="&#x2523;" 
d="M266 1050h168v-666h286v-168h-286v-666h-168v1500z" />
    <glyph glyph-name="lightvertleftbxd" unicode="&#x2524;" 
d="M-20 342h328v708h84v-1500h-84v708h-328v84z" />
    <glyph glyph-name="vertlightleftheavybxd" unicode="&#x2525;" 
d="M-20 384h328v666h84v-1500h-84v666h-328v168z" />
    <glyph glyph-name="upheavyleftdnlightbxd" unicode="&#x2526;" 
d="M-20 342h286v708h168v-792h-42v-708h-84v708h-328v84z" />
    <glyph glyph-name="dnheavyleftuplightbxd" unicode="&#x2527;" 
d="M-20 342h328v708h84v-708h42v-792h-168v708h-286v84z" />
    <glyph glyph-name="vertheavyleftlightbxd" unicode="&#x2528;" 
d="M-20 342h286v708h168v-1500h-168v708h-286v84z" />
    <glyph glyph-name="dnlightleftupheavybxd" unicode="&#x2529;" 
d="M-20 384h286v666h168v-834h-42v-666h-84v666h-328v168z" />
    <glyph glyph-name="uplightleftdnheavybxd" unicode="&#x252a;" 
d="M-20 384h328v666h84v-666h42v-834h-168v666h-286v168z" />
    <glyph glyph-name="heavyvertleftbxd" unicode="&#x252b;" 
d="M-20 384h286v666h168v-1500h-168v666h-286v168z" />
    <glyph glyph-name="lightdnhorzbxd" unicode="&#x252c;" 
d="M-20 342h740v-84h-328v-708h-84v708h-328v84z" />
    <glyph glyph-name="leftheavyrightdnlightbxd" unicode="&#x252d;" 
d="M-20 384h412v-42h328v-84h-328v-708h-84v666h-328v168z" />
    <glyph glyph-name="rightheavyleftdnlightbxd" unicode="&#x252e;" 
d="M-20 342h328v42h412v-168h-328v-666h-84v708h-328v84z" />
    <glyph glyph-name="dnlighthorzheavybxd" unicode="&#x252f;" 
d="M-20 384h740v-168h-328v-666h-84v666h-328v168z" />
    <glyph glyph-name="dnheavyhorzlightbxd" unicode="&#x2530;" 
d="M-20 342h740v-84h-286v-708h-168v708h-286v84z" />
    <glyph glyph-name="rightlightleftdnheavybxd" unicode="&#x2531;" 
d="M-20 384h454v-42h286v-84h-286v-708h-168v666h-286v168z" />
    <glyph glyph-name="leftlightrightdnheavybxd" unicode="&#x2532;" 
d="M-20 342h286v42h454v-168h-286v-666h-168v708h-286v84z" />
    <glyph glyph-name="heavydnhorzbxd" unicode="&#x2533;" 
d="M-20 384h740v-168h-286v-666h-168v666h-286v168z" />
    <glyph glyph-name="lightuphorzbxd" unicode="&#x2534;" 
d="M-20 342h328v708h84v-708h328v-84h-740v84z" />
    <glyph glyph-name="leftheavyrightuplightbxd" unicode="&#x2535;" 
d="M-20 384h328v666h84v-708h328v-84h-328v-42h-412v168z" />
    <glyph glyph-name="rightheavyleftuplightbxd" unicode="&#x2536;" 
d="M-20 342h328v708h84v-666h328v-168h-412v42h-328v84z" />
    <glyph glyph-name="uplighthorzheavybxd" unicode="&#x2537;" 
d="M-20 384h328v666h84v-666h328v-168h-740v168z" />
    <glyph glyph-name="upheavyhorzlightbxd" unicode="&#x2538;" 
d="M-20 342h286v708h168v-708h286v-84h-740v84z" />
    <glyph glyph-name="rightlightleftupheavybxd" unicode="&#x2539;" 
d="M-20 384h286v666h168v-708h286v-84h-286v-42h-454v168z" />
    <glyph glyph-name="leftlightrightupheavybxd" unicode="&#x253a;" 
d="M-20 342h286v708h168v-666h286v-168h-454v42h-286v84z" />
    <glyph glyph-name="heavyuphorzbxd" unicode="&#x253b;" 
d="M-20 384h286v666h168v-666h286v-168h-740v168z" />
    <glyph glyph-name="lightverthorzbxd" unicode="&#x253c;" 
d="M-20 342h328v708h84v-708h328v-84h-328v-708h-84v708h-328v84z" />
    <glyph glyph-name="leftheavyrightvertlightbxd" unicode="&#x253d;" 
d="M-20 384h328v666h84v-708h328v-84h-328v-708h-84v666h-328v168z" />
    <glyph glyph-name="rightheavyleftvertlightbxd" unicode="&#x253e;" 
d="M-20 342h328v708h84v-666h328v-168h-328v-666h-84v708h-328v84z" />
    <glyph glyph-name="vertlighthorzheavybxd" unicode="&#x253f;" 
d="M-20 384h328v666h84v-666h328v-168h-328v-666h-84v666h-328v168z" />
    <glyph glyph-name="upheavydnhorzlightbxd" unicode="&#x2540;" 
d="M-20 342h286v708h168v-708h286v-84h-328v-708h-84v708h-328v84z" />
    <glyph glyph-name="dnheavyuphorzlightbxd" unicode="&#x2541;" 
d="M-20 342h328v708h84v-708h328v-84h-286v-708h-168v708h-286v84z" />
    <glyph glyph-name="vertheavyhorzlightbxd" unicode="&#x2542;" 
d="M-20 342h286v708h168v-708h286v-84h-286v-708h-168v708h-286v84z" />
    <glyph glyph-name="leftupheavyrightdnlightbxd" unicode="&#x2543;" 
d="M-20 384h286v666h168v-708h286v-84h-286v-42h-42v-666h-84v666h-328v168z" />
    <glyph glyph-name="rightupheavyleftdnlightbxd" unicode="&#x2544;" 
d="M-20 342h286v708h168v-666h286v-168h-328v-666h-84v666h-42v42h-286v84z" />
    <glyph glyph-name="leftdnheavyrightuplightbxd" unicode="&#x2545;" 
d="M-20 384h328v666h84v-666h42v-42h286v-84h-286v-708h-168v666h-286v168z" />
    <glyph glyph-name="rightdnheavyleftuplightbxd" unicode="&#x2546;" 
d="M-20 342h286v42h42v666h84v-666h328v-168h-286v-666h-168v708h-286v84z" />
    <glyph glyph-name="dnlightuphorzheavybxd" unicode="&#x2547;" 
d="M-20 384h286v666h168v-666h286v-168h-328v-666h-84v666h-328v168z" />
    <glyph glyph-name="uplightdnhorzheavybxd" unicode="&#x2548;" 
d="M-20 384h328v666h84v-666h328v-168h-286v-666h-168v666h-286v168z" />
    <glyph glyph-name="rightlightleftvertheavybxd" unicode="&#x2549;" 
d="M-20 384h286v666h168v-708h286v-84h-286v-708h-168v666h-286v168z" />
    <glyph glyph-name="leftlightrightvertheavybxd" unicode="&#x254a;" 
d="M-20 342h286v708h168v-666h286v-168h-286v-666h-168v708h-286v84z" />
    <glyph glyph-name="heavyverthorzbxd" unicode="&#x254b;" 
d="M-20 384h286v666h168v-666h286v-168h-286v-666h-168v666h-286v168z" />
    <glyph glyph-name="lightdbldashhorzbxd" unicode="&#x254c;" 
d="M87 342h175v-84h-175v84zM437 342h175v-84h-175v84z" />
    <glyph glyph-name="heavydbldashhorzbxd" unicode="&#x254d;" 
d="M87 384h175v-168h-175v168zM437 384h175v-168h-175v168z" />
    <glyph glyph-name="lightdbldashvertbxd" unicode="&#x254e;" 
d="M308 162h84v-275h-84v275zM308 712h84v-275h-84v275z" />
    <glyph glyph-name="heavydbldashvertbxd" unicode="&#x254f;" 
d="M266 162h168v-275h-168v275zM266 712h168v-275h-168v275z" />
    <glyph glyph-name="dblhorzbxd" unicode="&#x2550;" 
d="M-20 426h740v-84h-740v84zM-20 258h740v-84h-740v84z" />
    <glyph glyph-name="dblvertbxd" unicode="&#x2551;" 
d="M224 1050h84v-1500h-84v1500zM392 1050h84v-1500h-84v1500z" />
    <glyph glyph-name="dnsngrightdblbxd" unicode="&#x2552;" 
d="M308 426h412v-84h-328v-84h328v-84h-328v-624h-84v876z" />
    <glyph glyph-name="dndblrightsngbxd" unicode="&#x2553;" 
d="M224 342h496v-84h-244v-708h-84v708h-84v-708h-84v792z" />
    <glyph glyph-name="dbldnrightbxd" unicode="&#x2554;" 
d="M224 426h496v-84h-412v-792h-84v876zM392 258h328v-84h-244v-624h-84v708z" />
    <glyph glyph-name="dnsngleftdblbxd" unicode="&#x2555;" 
d="M-20 426h412v-876h-84v624h-328v84h328v84h-328v84z" />
    <glyph glyph-name="dndblleftsngbxd" unicode="&#x2556;" 
d="M-20 342h496v-792h-84v708h-84v-708h-84v708h-244v84z" />
    <glyph glyph-name="dbldnleftbxd" unicode="&#x2557;" 
d="M-20 426h496v-876h-84v792h-412v84zM-20 258h328v-708h-84v624h-244v84z" />
    <glyph glyph-name="upsngrightdblbxd" unicode="&#x2558;" 
d="M308 1050h84v-624h328v-84h-328v-84h328v-84h-412v876z" />
    <glyph glyph-name="updblrightsngbxd" unicode="&#x2559;" 
d="M224 1050h84v-708h84v708h84v-708h244v-84h-496v792z" />
    <glyph glyph-name="dbluprightbxd" unicode="&#x255a;" 
d="M224 1050h84v-792h412v-84h-496v876zM392 1050h84v-624h244v-84h-328v708z" />
    <glyph glyph-name="upsngleftdblbxd" unicode="&#x255b;" 
d="M-20 426h328v624h84v-876h-412v84h328v84h-328v84z" />
    <glyph glyph-name="updblleftsngbxd" unicode="&#x255c;" 
d="M-20 342h244v708h84v-708h84v708h84v-792h-496v84z" />
    <glyph glyph-name="dblupleftbxd" unicode="&#x255d;" 
d="M-20 258h412v792h84v-876h-496v84zM-20 426h244v624h84v-708h-328v84z" />
    <glyph glyph-name="vertsngrightdblbxd" unicode="&#x255e;" 
d="M308 1050h84v-624h328v-84h-328v-84h328v-84h-328v-624h-84v1500z" />
    <glyph glyph-name="vertdblrightsngbxd" unicode="&#x255f;" 
d="M392 1050h84v-708h244v-84h-244v-708h-84v1500zM224 1050h84v-1500h-84v1500z" />
    <glyph glyph-name="dblvertrightbxd" unicode="&#x2560;" 
d="M224 1050h84v-1500h-84v1500zM392 1050h84v-624h244v-84h-328v708zM392 258h328v-84h-244v-624h-84v708z" />
    <glyph glyph-name="vertsngleftdblbxd" unicode="&#x2561;" 
d="M-20 426h328v624h84v-1500h-84v624h-328v84h328v84h-328v84z" />
    <glyph glyph-name="vertdblleftsngbxd" unicode="&#x2562;" 
d="M-20 342h244v708h84v-1500h-84v708h-244v84zM392 1050h84v-1500h-84v1500z" />
    <glyph glyph-name="dblvertleftbxd" unicode="&#x2563;" 
d="M392 1050h84v-1500h-84v1500zM-20 258h328v-708h-84v624h-244v84zM-20 426h244v624h84v-708h-328v84z" />
    <glyph glyph-name="dnsnghorzdblbxd" unicode="&#x2564;" 
d="M-20 258h740v-84h-328v-624h-84v624h-328v84zM-20 426h740v-84h-740v84z" />
    <glyph glyph-name="dndblhorzsngbxd" unicode="&#x2565;" 
d="M-20 342h740v-84h-244v-708h-84v708h-84v-708h-84v708h-244v84z" />
    <glyph glyph-name="dbldnhorzbxd" unicode="&#x2566;" 
d="M-20 258h328v-708h-84v624h-244v84zM392 258h328v-84h-244v-624h-84v708zM-20 426h740v-84h-740v84z" />
    <glyph glyph-name="upsnghorzdblbxd" unicode="&#x2567;" 
d="M-20 426h328v624h84v-624h328v-84h-740v84zM-20 258h740v-84h-740v84z" />
    <glyph glyph-name="updblhorzsngbxd" unicode="&#x2568;" 
d="M-20 342h244v708h84v-708h84v708h84v-708h244v-84h-740v84z" />
    <glyph glyph-name="dbluphorzbxd" unicode="&#x2569;" 
d="M-20 426h244v624h84v-708h-328v84zM392 1050h84v-624h244v-84h-328v708zM-20 258h740v-84h-740v84z" />
    <glyph glyph-name="vertsnghorzdblbxd" unicode="&#x256a;" 
d="M-20 426h328v624h84v-624h328v-84h-328v-84h328v-84h-328v-624h-84v624h-328v84h328v84h-328v84z" />
    <glyph glyph-name="vertdblhorzsngbxd" unicode="&#x256b;" 
d="M-20 342h244v708h84v-708h84v708h84v-708h244v-84h-244v-708h-84v708h-84v-708h-84v708h-244v84z" />
    <glyph glyph-name="dblverthorzbxd" unicode="&#x256c;" 
d="M-20 426h244v624h84v-708h-328v84zM-20 258h328v-708h-84v624h-244v84zM392 1050h84v-624h244v-84h-328v708zM392 258h328v-84h-244v-624h-84v708z" />
    <glyph glyph-name="lightarcdnrightbxd" unicode="&#x256d;" 
d="M308 -50q0 81 31 152.5t84 124.5t124.5 84t152.5 31h20v-84h-20q-64 0 -120 -24t-98 -66t-66 -98t-24 -120v-400h-84v400z" />
    <glyph glyph-name="lightarcdnleftbxd" unicode="&#x256e;" 
d="M392 -450h-84v400q0 64 -24 120t-66 98t-98 66t-120 24h-20v84h20q81 0 152.5 -31t124.5 -84t84 -124.5t31 -152.5v-400z" />
    <glyph glyph-name="lightarcupleftbxd" unicode="&#x256f;" 
d="M392 650q0 -81 -31 -152.5t-84 -124.5t-124.5 -84t-152.5 -31h-20v84h20q64 0 120 24t98 66t66 98t24 120v400h84v-400z" />
    <glyph glyph-name="lightarcuprightbxd" unicode="&#x2570;" 
d="M308 1050h84v-400q0 -64 24 -120t66 -98t98 -66t120 -24h20v-84h-20q-81 0 -152.5 31t-124.5 84t-84 124.5t-31 152.5v400z" />
    <glyph glyph-name="lightdiaguprightdnleftbxd" unicode="&#x2571;" 
d="M650 850h50v-78l-650 -1022h-50v78z" />
    <glyph glyph-name="lightdiagupleftdnrightbxd" unicode="&#x2572;" 
d="M700 -172v-78h-50l-650 1022v78h50z" />
    <glyph glyph-name="lightdiagcrossbxd" unicode="&#x2573;" 
d="M300 300l-300 472v78h50l300 -472l300 472h50v-78l-300 -472l300 -472v-78h-50l-300 471l-300 -471h-50v78z" />
    <glyph glyph-name="lightleftbxd" unicode="&#x2574;" 
d="M-20 342h412v-84h-412v84z" />
    <glyph glyph-name="lightupbxd" unicode="&#x2575;" 
d="M308 1050h84v-792h-84v792z" />
    <glyph glyph-name="lightrightbxd" unicode="&#x2576;" 
d="M308 342h412v-84h-412v84z" />
    <glyph glyph-name="lightdnbxd" unicode="&#x2577;" 
d="M308 342h84v-792h-84v792z" />
    <glyph glyph-name="heavyleftbxd" unicode="&#x2578;" 
d="M-20 384h412v-168h-412v168z" />
    <glyph glyph-name="heavyupbxd" unicode="&#x2579;" 
d="M266 1050h168v-792h-168v792z" />
    <glyph glyph-name="heavyrightbxd" unicode="&#x257a;" 
d="M308 384h412v-168h-412v168z" />
    <glyph glyph-name="heavydnbxd" unicode="&#x257b;" 
d="M266 342h168v-792h-168v792z" />
    <glyph glyph-name="lightleftheavyrightbxd" unicode="&#x257c;" 
d="M-20 342h328v42h412v-168h-412v42h-328v84z" />
    <glyph glyph-name="lightupheavydnbxd" unicode="&#x257d;" 
d="M266 342h42v708h84v-708h42v-792h-168v792z" />
    <glyph glyph-name="heavyleftlightrightbxd" unicode="&#x257e;" 
d="M-20 384h412v-42h328v-84h-328v-42h-412v168z" />
    <glyph glyph-name="heavyuplightdnbxd" unicode="&#x257f;" 
d="M266 1050h168v-792h-42v-708h-84v708h-42v792z" />
    <glyph glyph-name="uphalfblock" unicode="&#x2580;" 
d="M0 850h700v-550h-700v550z" />
    <glyph glyph-name="dneighthblock" unicode="&#x2581;" 
d="M0 -113h700v-137h-700v137z" />
    <glyph glyph-name="dnquarterblock" unicode="&#x2582;" 
d="M0 25h700v-275h-700v275z" />
    <glyph glyph-name="dnthreeeighthsblock" unicode="&#x2583;" 
d="M0 162h700v-412h-700v412z" />
    <glyph glyph-name="dnhalfblock" unicode="&#x2584;" 
d="M0 300h700v-550h-700v550z" />
    <glyph glyph-name="dnfiveeighthsblock" unicode="&#x2585;" 
d="M0 437h700v-687h-700v687z" />
    <glyph glyph-name="dnthreequartersblock" unicode="&#x2586;" 
d="M0 575h700v-825h-700v825z" />
    <glyph glyph-name="dnseveneighthsblock" unicode="&#x2587;" 
d="M0 712h700v-962h-700v962z" />
    <glyph glyph-name="fullblock" unicode="&#x2588;" 
d="M0 850h700v-1100h-700v1100z" />
    <glyph glyph-name="leftseveneighthsblock" unicode="&#x2589;" 
d="M0 850h612v-1100h-612v1100z" />
    <glyph glyph-name="leftthreequartersblock" unicode="&#x258a;" 
d="M0 850h525v-1100h-525v1100z" />
    <glyph glyph-name="leftfiveeighthsblock" unicode="&#x258b;" 
d="M0 850h437v-1100h-437v1100z" />
    <glyph glyph-name="lefthalfblock" unicode="&#x258c;" 
d="M0 850h350v-1100h-350v1100z" />
    <glyph glyph-name="leftthreeeighthsblock" unicode="&#x258d;" 
d="M0 850h262v-1100h-262v1100z" />
    <glyph glyph-name="leftquarterblock" unicode="&#x258e;" 
d="M0 850h175v-1100h-175v1100z" />
    <glyph glyph-name="lefteighthblock" unicode="&#x258f;" 
d="M0 850h87v-1100h-87v1100z" />
    <glyph glyph-name="righthalfblock" unicode="&#x2590;" 
d="M350 850h350v-1100h-350v1100z" />
    <glyph glyph-name="lightshade" unicode="&#x2591;" 
d="M0 -220h20v-30h-20v30zM50 -170h20v-30h-20v30zM0 -120h20v-30h-20v30zM50 -70h20v-30h-20v30zM0 -20h20v-30h-20v30zM50 30h20v-30h-20v30zM0 80h20v-30h-20v30zM50 130h20v-30h-20v30zM0 180h20v-30h-20v30zM50 230h20v-30h-20v30zM0 280h20v-30h-20v30zM50 330h20v-30
h-20v30zM0 380h20v-30h-20v30zM50 430h20v-30h-20v30zM0 480h20v-30h-20v30zM50 530h20v-30h-20v30zM0 580h20v-30h-20v30zM50 630h20v-30h-20v30zM0 680h20v-30h-20v30zM50 730h20v-30h-20v30zM0 780h20v-30h-20v30zM50 830h20v-30h-20v30zM100 -220h20v-30h-20v30z
M150 -170h20v-30h-20v30zM100 -120h20v-30h-20v30zM150 -70h20v-30h-20v30zM100 -20h20v-30h-20v30zM150 30h20v-30h-20v30zM100 80h20v-30h-20v30zM150 130h20v-30h-20v30zM100 180h20v-30h-20v30zM150 230h20v-30h-20v30zM100 280h20v-30h-20v30zM150 330h20v-30h-20v30z
M100 380h20v-30h-20v30zM150 430h20v-30h-20v30zM100 480h20v-30h-20v30zM150 530h20v-30h-20v30zM100 580h20v-30h-20v30zM150 630h20v-30h-20v30zM100 680h20v-30h-20v30zM150 730h20v-30h-20v30zM100 780h20v-30h-20v30zM150 830h20v-30h-20v30zM200 -220h20v-30h-20v30z
M250 -170h20v-30h-20v30zM200 -120h20v-30h-20v30zM250 -70h20v-30h-20v30zM200 -20h20v-30h-20v30zM250 30h20v-30h-20v30zM200 80h20v-30h-20v30zM250 130h20v-30h-20v30zM200 180h20v-30h-20v30zM250 230h20v-30h-20v30zM200 280h20v-30h-20v30zM250 330h20v-30h-20v30z
M200 380h20v-30h-20v30zM250 430h20v-30h-20v30zM200 480h20v-30h-20v30zM250 530h20v-30h-20v30zM200 580h20v-30h-20v30zM250 630h20v-30h-20v30zM200 680h20v-30h-20v30zM250 730h20v-30h-20v30zM200 780h20v-30h-20v30zM250 830h20v-30h-20v30zM300 -220h20v-30h-20v30z
M350 -170h20v-30h-20v30zM300 -120h20v-30h-20v30zM350 -70h20v-30h-20v30zM300 -20h20v-30h-20v30zM350 30h20v-30h-20v30zM300 80h20v-30h-20v30zM350 130h20v-30h-20v30zM300 180h20v-30h-20v30zM350 230h20v-30h-20v30zM300 280h20v-30h-20v30zM350 330h20v-30h-20v30z
M300 380h20v-30h-20v30zM350 430h20v-30h-20v30zM300 480h20v-30h-20v30zM350 530h20v-30h-20v30zM300 580h20v-30h-20v30zM350 630h20v-30h-20v30zM300 680h20v-30h-20v30zM350 730h20v-30h-20v30zM300 780h20v-30h-20v30zM350 830h20v-30h-20v30zM400 -220h20v-30h-20v30z
M450 -170h20v-30h-20v30zM400 -120h20v-30h-20v30zM450 -70h20v-30h-20v30zM400 -20h20v-30h-20v30zM450 30h20v-30h-20v30zM400 80h20v-30h-20v30zM450 130h20v-30h-20v30zM400 180h20v-30h-20v30zM450 230h20v-30h-20v30zM400 280h20v-30h-20v30zM450 330h20v-30h-20v30z
M400 380h20v-30h-20v30zM450 430h20v-30h-20v30zM400 480h20v-30h-20v30zM450 530h20v-30h-20v30zM400 580h20v-30h-20v30zM450 630h20v-30h-20v30zM400 680h20v-30h-20v30zM450 730h20v-30h-20v30zM400 780h20v-30h-20v30zM450 830h20v-30h-20v30zM500 -220h20v-30h-20v30z
M550 -170h20v-30h-20v30zM500 -120h20v-30h-20v30zM550 -70h20v-30h-20v30zM500 -20h20v-30h-20v30zM550 30h20v-30h-20v30zM500 80h20v-30h-20v30zM550 130h20v-30h-20v30zM500 180h20v-30h-20v30zM550 230h20v-30h-20v30zM500 280h20v-30h-20v30zM550 330h20v-30h-20v30z
M500 380h20v-30h-20v30zM550 430h20v-30h-20v30zM500 480h20v-30h-20v30zM550 530h20v-30h-20v30zM500 580h20v-30h-20v30zM550 630h20v-30h-20v30zM500 680h20v-30h-20v30zM550 730h20v-30h-20v30zM500 780h20v-30h-20v30zM550 830h20v-30h-20v30zM600 -220h20v-30h-20v30z
M650 -170h20v-30h-20v30zM600 -120h20v-30h-20v30zM650 -70h20v-30h-20v30zM600 -20h20v-30h-20v30zM650 30h20v-30h-20v30zM600 80h20v-30h-20v30zM650 130h20v-30h-20v30zM600 180h20v-30h-20v30zM650 230h20v-30h-20v30zM600 280h20v-30h-20v30zM650 330h20v-30h-20v30z
M600 380h20v-30h-20v30zM650 430h20v-30h-20v30zM600 480h20v-30h-20v30zM650 530h20v-30h-20v30zM600 580h20v-30h-20v30zM650 630h20v-30h-20v30zM600 680h20v-30h-20v30zM650 730h20v-30h-20v30zM600 780h20v-30h-20v30zM650 830h20v-30h-20v30z" />
    <glyph glyph-name="mediumshade" unicode="&#x2592;" 
d="M0 -200h40v-50h-40v50zM50 -150h40v-50h-40v50zM0 -100h40v-50h-40v50zM50 -50h40v-50h-40v50zM0 0h40v-50h-40v50zM50 50h40v-50h-40v50zM0 100h40v-50h-40v50zM50 150h40v-50h-40v50zM0 200h40v-50h-40v50zM50 250h40v-50h-40v50zM0 300h40v-50h-40v50zM50 350h40v-50
h-40v50zM0 400h40v-50h-40v50zM50 450h40v-50h-40v50zM0 500h40v-50h-40v50zM50 550h40v-50h-40v50zM0 600h40v-50h-40v50zM50 650h40v-50h-40v50zM0 700h40v-50h-40v50zM50 750h40v-50h-40v50zM0 800h40v-50h-40v50zM50 850h40v-50h-40v50zM100 -200h40v-50h-40v50z
M150 -150h40v-50h-40v50zM100 -100h40v-50h-40v50zM150 -50h40v-50h-40v50zM100 0h40v-50h-40v50zM150 50h40v-50h-40v50zM100 100h40v-50h-40v50zM150 150h40v-50h-40v50zM100 200h40v-50h-40v50zM150 250h40v-50h-40v50zM100 300h40v-50h-40v50zM150 350h40v-50h-40v50z
M100 400h40v-50h-40v50zM150 450h40v-50h-40v50zM100 500h40v-50h-40v50zM150 550h40v-50h-40v50zM100 600h40v-50h-40v50zM150 650h40v-50h-40v50zM100 700h40v-50h-40v50zM150 750h40v-50h-40v50zM100 800h40v-50h-40v50zM150 850h40v-50h-40v50zM200 -200h40v-50h-40v50z
M250 -150h40v-50h-40v50zM200 -100h40v-50h-40v50zM250 -50h40v-50h-40v50zM200 0h40v-50h-40v50zM250 50h40v-50h-40v50zM200 100h40v-50h-40v50zM250 150h40v-50h-40v50zM200 200h40v-50h-40v50zM250 250h40v-50h-40v50zM200 300h40v-50h-40v50zM250 350h40v-50h-40v50z
M200 400h40v-50h-40v50zM250 450h40v-50h-40v50zM200 500h40v-50h-40v50zM250 550h40v-50h-40v50zM200 600h40v-50h-40v50zM250 650h40v-50h-40v50zM200 700h40v-50h-40v50zM250 750h40v-50h-40v50zM200 800h40v-50h-40v50zM250 850h40v-50h-40v50zM300 -200h40v-50h-40v50z
M350 -150h40v-50h-40v50zM300 -100h40v-50h-40v50zM350 -50h40v-50h-40v50zM300 0h40v-50h-40v50zM350 50h40v-50h-40v50zM300 100h40v-50h-40v50zM350 150h40v-50h-40v50zM300 200h40v-50h-40v50zM350 250h40v-50h-40v50zM300 300h40v-50h-40v50zM350 350h40v-50h-40v50z
M300 400h40v-50h-40v50zM350 450h40v-50h-40v50zM300 500h40v-50h-40v50zM350 550h40v-50h-40v50zM300 600h40v-50h-40v50zM350 650h40v-50h-40v50zM300 700h40v-50h-40v50zM350 750h40v-50h-40v50zM300 800h40v-50h-40v50zM350 850h40v-50h-40v50zM400 -200h40v-50h-40v50z
M450 -150h40v-50h-40v50zM400 -100h40v-50h-40v50zM450 -50h40v-50h-40v50zM400 0h40v-50h-40v50zM450 50h40v-50h-40v50zM400 100h40v-50h-40v50zM450 150h40v-50h-40v50zM400 200h40v-50h-40v50zM450 250h40v-50h-40v50zM400 300h40v-50h-40v50zM450 350h40v-50h-40v50z
M400 400h40v-50h-40v50zM450 450h40v-50h-40v50zM400 500h40v-50h-40v50zM450 550h40v-50h-40v50zM400 600h40v-50h-40v50zM450 650h40v-50h-40v50zM400 700h40v-50h-40v50zM450 750h40v-50h-40v50zM400 800h40v-50h-40v50zM450 850h40v-50h-40v50zM500 -200h40v-50h-40v50z
M550 -150h40v-50h-40v50zM500 -100h40v-50h-40v50zM550 -50h40v-50h-40v50zM500 0h40v-50h-40v50zM550 50h40v-50h-40v50zM500 100h40v-50h-40v50zM550 150h40v-50h-40v50zM500 200h40v-50h-40v50zM550 250h40v-50h-40v50zM500 300h40v-50h-40v50zM550 350h40v-50h-40v50z
M500 400h40v-50h-40v50zM550 450h40v-50h-40v50zM500 500h40v-50h-40v50zM550 550h40v-50h-40v50zM500 600h40v-50h-40v50zM550 650h40v-50h-40v50zM500 700h40v-50h-40v50zM550 750h40v-50h-40v50zM500 800h40v-50h-40v50zM550 850h40v-50h-40v50zM600 -200h40v-50h-40v50z
M650 -150h40v-50h-40v50zM600 -100h40v-50h-40v50zM650 -50h40v-50h-40v50zM600 0h40v-50h-40v50zM650 50h40v-50h-40v50zM600 100h40v-50h-40v50zM650 150h40v-50h-40v50zM600 200h40v-50h-40v50zM650 250h40v-50h-40v50zM600 300h40v-50h-40v50zM650 350h40v-50h-40v50z
M600 400h40v-50h-40v50zM650 450h40v-50h-40v50zM600 500h40v-50h-40v50zM650 550h40v-50h-40v50zM600 600h40v-50h-40v50zM650 650h40v-50h-40v50zM600 700h40v-50h-40v50zM650 750h40v-50h-40v50zM600 800h40v-50h-40v50zM650 850h40v-50h-40v50z" />
    <glyph glyph-name="darkshade" unicode="&#x2593;" 
d="M0 -185h45v-65h-45v65zM50 -135h45v-65h-45v65zM0 -85h45v-65h-45v65zM50 -35h45v-65h-45v65zM0 15h45v-65h-45v65zM50 65h45v-65h-45v65zM0 115h45v-65h-45v65zM50 165h45v-65h-45v65zM0 215h45v-65h-45v65zM50 265h45v-65h-45v65zM0 315h45v-65h-45v65zM50 365h45v-65
h-45v65zM0 415h45v-65h-45v65zM50 465h45v-65h-45v65zM0 515h45v-65h-45v65zM50 565h45v-65h-45v65zM0 615h45v-65h-45v65zM50 665h45v-65h-45v65zM0 715h45v-65h-45v65zM50 765h45v-65h-45v65zM0 815h45v-65h-45v65zM50 865h45v-65h-45v65zM100 -185h45v-65h-45v65z
M150 -135h45v-65h-45v65zM100 -85h45v-65h-45v65zM150 -35h45v-65h-45v65zM100 15h45v-65h-45v65zM150 65h45v-65h-45v65zM100 115h45v-65h-45v65zM150 165h45v-65h-45v65zM100 215h45v-65h-45v65zM150 265h45v-65h-45v65zM100 315h45v-65h-45v65zM150 365h45v-65h-45v65z
M100 415h45v-65h-45v65zM150 465h45v-65h-45v65zM100 515h45v-65h-45v65zM150 565h45v-65h-45v65zM100 615h45v-65h-45v65zM150 665h45v-65h-45v65zM100 715h45v-65h-45v65zM150 765h45v-65h-45v65zM100 815h45v-65h-45v65zM150 865h45v-65h-45v65zM200 -185h45v-65h-45v65z
M250 -135h45v-65h-45v65zM200 -85h45v-65h-45v65zM250 -35h45v-65h-45v65zM200 15h45v-65h-45v65zM250 65h45v-65h-45v65zM200 115h45v-65h-45v65zM250 165h45v-65h-45v65zM200 215h45v-65h-45v65zM250 265h45v-65h-45v65zM200 315h45v-65h-45v65zM250 365h45v-65h-45v65z
M200 415h45v-65h-45v65zM250 465h45v-65h-45v65zM200 515h45v-65h-45v65zM250 565h45v-65h-45v65zM200 615h45v-65h-45v65zM250 665h45v-65h-45v65zM200 715h45v-65h-45v65zM250 765h45v-65h-45v65zM200 815h45v-65h-45v65zM250 865h45v-65h-45v65zM300 -185h45v-65h-45v65z
M350 -135h45v-65h-45v65zM300 -85h45v-65h-45v65zM350 -35h45v-65h-45v65zM300 15h45v-65h-45v65zM350 65h45v-65h-45v65zM300 115h45v-65h-45v65zM350 165h45v-65h-45v65zM300 215h45v-65h-45v65zM350 265h45v-65h-45v65zM300 315h45v-65h-45v65zM350 365h45v-65h-45v65z
M300 415h45v-65h-45v65zM350 465h45v-65h-45v65zM300 515h45v-65h-45v65zM350 565h45v-65h-45v65zM300 615h45v-65h-45v65zM350 665h45v-65h-45v65zM300 715h45v-65h-45v65zM350 765h45v-65h-45v65zM300 815h45v-65h-45v65zM350 865h45v-65h-45v65zM400 -185h45v-65h-45v65z
M450 -135h45v-65h-45v65zM400 -85h45v-65h-45v65zM450 -35h45v-65h-45v65zM400 15h45v-65h-45v65zM450 65h45v-65h-45v65zM400 115h45v-65h-45v65zM450 165h45v-65h-45v65zM400 215h45v-65h-45v65zM450 265h45v-65h-45v65zM400 315h45v-65h-45v65zM450 365h45v-65h-45v65z
M400 415h45v-65h-45v65zM450 465h45v-65h-45v65zM400 515h45v-65h-45v65zM450 565h45v-65h-45v65zM400 615h45v-65h-45v65zM450 665h45v-65h-45v65zM400 715h45v-65h-45v65zM450 765h45v-65h-45v65zM400 815h45v-65h-45v65zM450 865h45v-65h-45v65zM500 -185h45v-65h-45v65z
M550 -135h45v-65h-45v65zM500 -85h45v-65h-45v65zM550 -35h45v-65h-45v65zM500 15h45v-65h-45v65zM550 65h45v-65h-45v65zM500 115h45v-65h-45v65zM550 165h45v-65h-45v65zM500 215h45v-65h-45v65zM550 265h45v-65h-45v65zM500 315h45v-65h-45v65zM550 365h45v-65h-45v65z
M500 415h45v-65h-45v65zM550 465h45v-65h-45v65zM500 515h45v-65h-45v65zM550 565h45v-65h-45v65zM500 615h45v-65h-45v65zM550 665h45v-65h-45v65zM500 715h45v-65h-45v65zM550 765h45v-65h-45v65zM500 815h45v-65h-45v65zM550 865h45v-65h-45v65zM600 -185h45v-65h-45v65z
M650 -135h45v-65h-45v65zM600 -85h45v-65h-45v65zM650 -35h45v-65h-45v65zM600 15h45v-65h-45v65zM650 65h45v-65h-45v65zM600 115h45v-65h-45v65zM650 165h45v-65h-45v65zM600 215h45v-65h-45v65zM650 265h45v-65h-45v65zM600 315h45v-65h-45v65zM650 365h45v-65h-45v65z
M600 415h45v-65h-45v65zM650 465h45v-65h-45v65zM600 515h45v-65h-45v65zM650 565h45v-65h-45v65zM600 615h45v-65h-45v65zM650 665h45v-65h-45v65zM600 715h45v-65h-45v65zM650 765h45v-65h-45v65zM600 815h45v-65h-45v65zM650 865h45v-65h-45v65z" />
    <glyph glyph-name="upeighthblock" unicode="&#x2594;" 
d="M0 850h700v-138h-700v138z" />
    <glyph glyph-name="righteighthblock" unicode="&#x2595;" 
d="M612 850h88v-1100h-88v1100z" />
    <glyph glyph-name="dnleftquadrant" unicode="&#x2596;" 
d="M0 300h350v-550h-350v550z" />
    <glyph glyph-name="dnrightquadrant" unicode="&#x2597;" 
d="M350 300h350v-550h-350v550z" />
    <glyph glyph-name="upleftquadrant" unicode="&#x2598;" 
d="M0 850h350v-550h-350v550z" />
    <glyph glyph-name="upleftdnleftdnrightquadrant" unicode="&#x2599;" 
d="M0 850h350v-550h350v-550h-700v1100z" />
    <glyph glyph-name="upleftdnrightquadrant" unicode="&#x259a;" 
d="M0 850h350v-550h350v-550h-350v550h-350v550z" />
    <glyph glyph-name="upleftuprightdnleftquadrant" unicode="&#x259b;" 
d="M0 850h700v-550h-350v-550h-350v1100z" />
    <glyph glyph-name="upleftuprightdnrightquadrant" unicode="&#x259c;" 
d="M0 850h700v-1100h-350v550h-350v550z" />
    <glyph glyph-name="uprightquadrant" unicode="&#x259d;" 
d="M350 850h350v-550h-350v550z" />
    <glyph glyph-name="uprightdnleftquadrant" unicode="&#x259e;" 
d="M0 300h350v-550h-350v550zM350 850h350v-550h-350v550z" />
    <glyph glyph-name="uprightdnleftdnrightquadrant" unicode="&#x259f;" 
d="M0 300h350v550h350v-1100h-700v550z" />
    <glyph glyph-name="blacksquare" unicode="&#x25a0;" 
d="M50 700h600v-600h-600v600z" />
    <glyph glyph-name="H22073" unicode="&#x25a1;" 
d="M50 100v600h600v-600h-600zM150 190h400v420h-400v-420z" />
    <glyph glyph-name="blacksmallsquare" unicode="&#x25aa;" 
d="M204 546h292v-292h-292v292z" />
    <glyph glyph-name="whitesmallsquare" unicode="&#x25ab;" 
d="M536 214h-372v372h372v-372zM456 506h-212v-212h212v212z" />
    <glyph glyph-name="triagup" unicode="&#x25b2;" 
d="M360 700l240 -480v-20h-500v20l240 480h20z" />
    <glyph glyph-name="blackrightpointingpointer" unicode="&#x25ba;" 
d="M600 440l-480 -240h-20v500h20l480 -240v-20z" />
    <glyph glyph-name="blackdownpointingtriangle" unicode="&#x25bc;" 
d="M340 150l-240 480v20h500v-20l-240 -480h-20z" />
    <glyph glyph-name="triaglf" unicode="&#x25c4;" 
d="M100 460l480 240h20v-500h-20l-480 240v20z" />
    <glyph glyph-name="lozenge" unicode="&#x25ca;" 
d="M293 0l-253 400l253 400h106l262 -400l-262 -400h-106zM349 60l217 340l-217 340l-209 -340z" />
    <glyph glyph-name="circle" unicode="&#x25cb;" 
d="M352 86q-68 0 -126 23t-101 66q-43 42 -66 100t-23 126t23 126t66 101t101 66t126 23t126 -23t100 -66q43 -43 66 -101t23 -126t-23 -126t-66 -100q-42 -43 -100 -66t-126 -23zM352 174q47 0 86.5 16.5t68.5 46.5q29 31 44.5 72.5t15.5 91.5t-15.5 91.5t-44.5 72.5
q-29 30 -68.5 46.5t-86.5 16.5q-48 0 -88 -16.5t-68 -46.5q-29 -31 -44.5 -72.5t-15.5 -91.5t15.5 -91.5t44.5 -72.5q28 -30 68 -46.5t88 -16.5z" />
    <glyph glyph-name="H18533" unicode="&#x25cf;" 
d="M352 86q-68 0 -126 23t-101 66q-43 42 -66 100t-23 126t23 126t66 101t101 66t126 23t126 -23t100 -66q43 -43 66 -101t23 -126t-23 -126t-66 -100q-42 -43 -100 -66t-126 -23z" />
    </font>
</defs>
</svg>
