<?xml version="1.0" standalone="no"?>
<!DOCTYPE svg PUBLIC "-//W3C//DTD SVG 1.1//EN" "http://www.w3.org/Graphics/SVG/1.1/DTD/svg11.dtd" >
<svg xmlns="http://www.w3.org/2000/svg" xmlns:xlink="http://www.w3.org/1999/xlink" version="1.1">
<metadata>
Created by FontForge 20161013 at Wed Jun 24 23:48:37 2015
 By ,,,
(c) Copyright The Font Bureau, Inc. 2014. All rights reserved.
</metadata>
<defs>
<font id="InputMono-Bold" horiz-adv-x="700" >
  <font-face 
    font-family="InputMono"
    font-weight="700"
    font-stretch="normal"
    units-per-em="1100"
    panose-1="2 0 7 9 3 0 0 9 0 4"
    ascent="850"
    descent="-250"
    x-height="600"
    cap-height="800"
    bbox="-288 -450 973 1400"
    underline-thickness="0"
    underline-position="0"
    unicode-range="U+000D-1F41B"
  />
<missing-glyph 
d="M50 -250v1100h600v-1100h-600zM150 -150h400v900h-400v-900z" />
    <glyph glyph-name=".notdef" 
d="M50 -250v1100h600v-1100h-600zM150 -150h400v900h-400v-900z" />
    <glyph glyph-name=".null" horiz-adv-x="0" 
 />
    <glyph glyph-name="nonmarkingreturn" unicode="&#xd;" horiz-adv-x="0" 
 />
    <glyph glyph-name="NULL" horiz-adv-x="0" 
 />
    <glyph glyph-name="space" unicode="&#xa0;" 
 />
    <glyph glyph-name="space" unicode=" " 
 />
    <glyph glyph-name="exclam" unicode="!" 
d="M272 300l-30 500h210l-30 -500h-150zM351 -10q-66 0 -99 20.5t-33 63.5v28q0 44 33 65t99 21t98.5 -21t32.5 -65v-28q0 -43 -33.5 -63.5t-97.5 -20.5z" />
    <glyph glyph-name="quotedbl" unicode="&#x22;" 
d="M433 365l-34 435h202l-34 -435h-134zM133 365l-34 435h202l-34 -435h-134z" />
    <glyph glyph-name="numbersign" unicode="#" 
d="M408 297l10 206h-126l-10 -206h126zM393 0l9 179h-126l-9 -179h-132l9 179h-129v118h135l10 206h-145v118h151l9 179h132l-9 -179h126l9 179h132l-9 -179h129v-118h-135l-10 -206h145v-118h-151l-9 -179h-132z" />
    <glyph glyph-name="dollar" unicode="$" 
d="M214 563q0 -30 20.5 -49.5t71.5 -33.5v158q-47 -4 -69.5 -21t-22.5 -54zM502 239q0 31 -24 51t-84 35v-166q56 2 82 21t26 59zM404 -50h-108v94q-84 7 -144.5 29.5t-106.5 51.5l39 116q46 -28 98 -50.5t124 -29.5v181q-134 23 -190 68t-56 132t58.5 144.5t177.5 68.5v95
h108v-94q61 -6 120 -24.5t94 -43.5l-32 -112q-46 25 -91 40.5t-101 20.5v-175q145 -25 204 -72t59 -135q0 -93 -67 -148t-186 -64v-93z" />
    <glyph glyph-name="percent" unicode="%" 
d="M192 462q-75 0 -120.5 38t-45.5 117v46q0 80 46 118.5t120 38.5t119 -38.5t45 -118.5v-46q0 -79 -45.5 -117t-118.5 -38zM192 554q22 0 34.5 13.5t12.5 44.5v57q0 31 -12.5 45.5t-34.5 14.5t-35.5 -14.5t-13.5 -45.5v-57q0 -31 13.5 -44.5t35.5 -13.5zM35 186l566 510
l71 -80l-572 -512zM510 -22q-75 0 -120.5 38t-45.5 117v46q0 80 46 118.5t120 38.5t119 -38.5t45 -118.5v-46q0 -79 -45.5 -117t-118.5 -38zM510 66q22 0 34.5 13.5t12.5 44.5v57q0 31 -12.5 45.5t-34.5 14.5t-35.5 -14.5t-13.5 -45.5v-57q0 -31 13.5 -44.5t35.5 -13.5z" />
    <glyph glyph-name="ampersand" unicode="&#x26;" 
d="M666 -17q-55 15 -106.5 40.5t-97.5 58.5q-43 -43 -94.5 -67.5t-126.5 -24.5q-92 0 -153.5 54.5t-61.5 149.5q0 76 34.5 130t109.5 101q-22 48 -34.5 90.5t-12.5 75.5q0 102 54.5 161t150.5 59q91 0 139.5 -53.5t48.5 -117.5q0 -76 -40 -121.5t-165 -110.5q8 -16 18 -31.5
t20 -30.5q20 -29 44 -57t50 -53q19 36 40.5 84t44.5 107l130 -32q-31 -67 -69 -125.5t-75 -106.5l181 -60zM264 589q0 -25 4 -51t13 -51q48 26 76 58t28 75q0 40 -15 60t-43 20q-34 0 -48.5 -27.5t-14.5 -83.5zM286 100q28 0 52 10t46 34q-32 28 -60.5 59t-53.5 63
q-13 18 -26.5 36t-24.5 36q-19 -26 -28.5 -59.5t-9.5 -67.5q0 -57 27 -84t78 -27z" />
    <glyph glyph-name="quotesingle" unicode="'" 
d="M276 365l-34 435h216l-34 -435h-148z" />
    <glyph glyph-name="parenleft" unicode="(" 
d="M571 -210q-219 37 -312.5 179.5t-93.5 330.5q0 183 93.5 328t312.5 182l17 -114q-145 -37 -199 -139.5t-54 -256.5t54 -253.5t199 -136.5z" />
    <glyph glyph-name="parenright" unicode=")" 
d="M129 -210l-17 120q145 37 199 139t54 251q0 143 -54 251t-199 145l17 114q219 -37 312.5 -182t93.5 -328q0 -188 -93.5 -330.5t-312.5 -179.5z" />
    <glyph glyph-name="asterisk" unicode="*" 
d="M572 266l-190 176l42 -242h-150l43 241l-189 -175l-75 130l242 105l-242 105l75 130l189 -176l-43 240h150l-42 -241l190 177l75 -130l-243 -105l243 -105z" />
    <glyph glyph-name="plus" unicode="+" 
d="M279 33v246h-216v142h216v246h142v-246h216v-142h-216v-246h-142z" />
    <glyph glyph-name="comma" unicode="," 
d="M181 -165l80 435h257l-223 -435h-114z" />
    <glyph glyph-name="hyphen" unicode="&#x2011;" 
d="M63 279v149h574v-149h-574z" />
    <glyph glyph-name="hyphen" unicode="&#x2010;" 
d="M63 279v149h574v-149h-574z" />
    <glyph glyph-name="hyphen" unicode="&#xad;" 
d="M63 279v149h574v-149h-574z" />
    <glyph glyph-name="hyphen" unicode="-" 
d="M63 279v149h574v-149h-574z" />
    <glyph glyph-name="period" unicode="." 
d="M351 -10q-63 0 -101 27.5t-38 78.5v69q0 52 38 80t101 28q62 0 100 -28t38 -80v-69q0 -51 -39 -78.5t-99 -27.5z" />
    <glyph glyph-name="slash" unicode="/" 
d="M79 -200l400 1000h142l-400 -1000h-142z" />
    <glyph glyph-name="zero" unicode="0" 
d="M350 -10q-140 0 -215.5 86.5t-75.5 246.5v150q0 162 76 249.5t216 87.5t215 -87.5t75 -249.5v-150q0 -160 -75.5 -246.5t-215.5 -86.5zM350 115q74 0 104.5 50t30.5 172v122q0 124 -30.5 175t-104.5 51t-104.5 -51t-30.5 -175v-122q0 -122 30.5 -172t104.5 -50zM350 315
q-32 0 -52 11t-20 42v63q0 30 20 41.5t52 11.5t51.5 -11.5t19.5 -41.5v-63q0 -31 -20 -42t-51 -11z" />
    <glyph glyph-name="one" unicode="1" 
d="M95 0v132h206v506h-29q-22 -65 -73 -100t-117 -34l-10 133q78 3 140 47t92 116h167v-668h179v-132h-555z" />
    <glyph glyph-name="two" unicode="2" 
d="M59 0v167q0 95 41 147.5t148 93.5l108 40q54 20 79.5 39.5t25.5 69.5v23q0 59 -26 82t-85 23q-57 0 -81 -27t-30 -109l-170 10q8 134 73 192.5t207 58.5q146 0 214 -58.5t68 -169.5v-47q0 -87 -50.5 -132t-134.5 -76l-109 -40q-67 -27 -87.5 -47t-20.5 -71v-37h412v-132
h-582z" />
    <glyph glyph-name="three" unicode="3" 
d="M349 -10q-156 0 -224.5 59.5t-75.5 178.5l170 10q8 -77 35 -97.5t99 -20.5q64 0 91 24t27 78v27q0 57 -29.5 81.5t-91.5 24.5h-107v130h107q56 0 78.5 16.5t22.5 60.5v32q0 46 -24.5 66t-81.5 20q-52 0 -75.5 -21.5t-30.5 -77.5l-170 10q7 117 70.5 168t200.5 51
q143 0 212 -47t69 -154v-22q0 -67 -42.5 -104.5t-107.5 -44.5v-29q71 -6 120.5 -51.5t49.5 -119.5v-20q0 -123 -74 -175.5t-218 -52.5z" />
    <glyph glyph-name="four" unicode="4" 
d="M201 325h200v304zM691 200h-120v-200h-170v200h-352v125l307 475h215v-475h120v-125z" />
    <glyph glyph-name="five" unicode="5" 
d="M349 -10q-159 0 -226 55t-74 197l170 10q8 -85 34.5 -111t96.5 -26q71 0 96 29.5t25 92.5v34q0 60 -26 87.5t-103 27.5h-263v414h529v-125h-359v-156h143q124 0 186.5 -54.5t62.5 -166.5v-85q0 -96 -70.5 -159.5t-221.5 -63.5z" />
    <glyph glyph-name="six" unicode="6" 
d="M350 -10q-149 0 -220 73t-71 213v242q0 146 73.5 219t219.5 73q128 0 193 -47.5t87 -157.5l-179 -23q-13 61 -34.5 82t-78.5 21q-60 0 -85.5 -38t-25.5 -130v-87h13q25 31 65 50.5t112 19.5q107 0 164.5 -61t57.5 -177v-22q0 -125 -73 -187.5t-218 -62.5zM349 115
q66 0 93 33.5t27 92.5v13q0 64 -27 99t-93 35t-93 -35t-27 -99v-13q0 -64 27 -95t93 -31z" />
    <glyph glyph-name="seven" unicode="7" 
d="M215 0q49 231 97.5 366.5t158.5 298.5h-412v135h582v-135q-107 -178 -157.5 -323.5t-81.5 -341.5h-187z" />
    <glyph glyph-name="eight" unicode="8" 
d="M350 -10q-149 0 -220 53t-71 164v22q0 75 43.5 123t120.5 55v29q-61 6 -102.5 45.5t-41.5 104.5v32q0 99 66.5 145.5t204.5 46.5t204.5 -46.5t66.5 -145.5v-32q0 -65 -41.5 -104.5t-102.5 -45.5v-29q77 -7 120.5 -55.5t43.5 -122.5v-22q0 -111 -71 -164t-220 -53z
M350 483q52 0 76.5 19.5t24.5 68.5v23q0 49 -24.5 67.5t-76.5 18.5t-76.5 -18.5t-24.5 -67.5v-23q0 -49 24.5 -68.5t76.5 -19.5zM350 120q72 0 96.5 28t24.5 83v14q0 56 -24.5 84.5t-96.5 28.5t-96.5 -28.5t-24.5 -84.5v-14q0 -55 24.5 -83t96.5 -28z" />
    <glyph glyph-name="nine" unicode="9" 
d="M351 412q66 0 93 35.5t27 98.5v13q0 64 -27 95t-93 31t-93 -33.5t-27 -92.5v-13q0 -63 27 -98.5t93 -35.5zM348 -10q-127 0 -192 48.5t-88 156.5l179 23q14 -63 36.5 -83t77.5 -20q60 0 85 38.5t25 129.5v87h-13q-26 -32 -67 -51t-111 -19q-107 0 -164 61t-57 177v22
q0 125 73 187.5t218 62.5q149 0 220 -73t71 -213v-242q0 -143 -71.5 -217.5t-221.5 -74.5z" />
    <glyph glyph-name="colon" unicode=":" 
d="M351 387q-57 0 -93 24.5t-36 70.5v55q0 47 36 72t93 25t92 -25t35 -72v-55q0 -46 -36 -70.5t-91 -24.5zM351 -6q-57 0 -93 24.5t-36 70.5v55q0 47 36 72t93 25t92 -25t35 -72v-55q0 -46 -36 -70.5t-91 -24.5z" />
    <glyph glyph-name="semicolon" unicode=";" 
d="M351 387q-57 0 -93 24.5t-36 70.5v55q0 47 36 72t93 25t92 -25t35 -72v-55q0 -46 -36 -70.5t-91 -24.5zM194 -150l74 405h238l-207 -405h-105z" />
    <glyph glyph-name="less" unicode="&#x3c;" 
d="M607 6l-514 259v170l514 259v-137l-410 -207l410 -207v-137z" />
    <glyph glyph-name="equal" unicode="=" 
d="M63 433v142h574v-142h-574zM63 125v142h574v-142h-574z" />
    <glyph glyph-name="greater" unicode="&#x3e;" 
d="M93 6v130l424 214l-424 214v130l514 -259v-170z" />
    <glyph glyph-name="question" unicode="?" 
d="M235 278l-20 116q154 25 204.5 61.5t50.5 96.5v23q0 52 -24 81t-96 29q-77 0 -100 -30t-30 -106l-170 10q7 132 77.5 191.5t221.5 59.5q148 0 219.5 -65.5t71.5 -160.5v-36q0 -119 -96.5 -179t-308.5 -91zM302 -10q-66 0 -98.5 20.5t-32.5 63.5v28q0 44 32.5 65t98.5 21
t99 -21t33 -65v-28q0 -43 -34 -63.5t-98 -20.5z" />
    <glyph glyph-name="at" unicode="@" 
d="M401 -110q-178 0 -265.5 95t-87.5 252v256q0 143 77 230t234 87q141 0 217 -81.5t76 -225.5v-210q-1 -92 -56 -134t-152 -42q-104 0 -153 47.5t-49 131.5v94q0 83 41.5 133t110.5 50q55 0 89 -20t50 -49h30q-2 107 -46 160.5t-159 53.5q-112 0 -160.5 -59t-48.5 -166
v-249q0 -122 59 -190.5t193 -68.5q57 0 106 8.5t90 20.5v-96q-40 -10 -92.5 -19t-103.5 -9zM446 218q31 0 49 15.5t18 64.5v84q0 48 -18.5 69t-48.5 21q-31 0 -48.5 -21t-17.5 -71v-74q0 -47 17 -67.5t49 -20.5z" />
    <glyph glyph-name="A" unicode="A" 
d="M437 327l-84 338l-90 -338h174zM519 0l-49 195h-242l-52 -195h-157l230 800h203l230 -800h-163z" />
    <glyph glyph-name="B" unicode="B" 
d="M65 0v800h294q132 0 195 -46t63 -142v-37q0 -61 -28.5 -94t-87.5 -43v-29q67 -7 104 -47.5t37 -102.5v-50q0 -107 -69 -158t-214 -51h-294zM235 474h113q54 0 77.5 18.5t23.5 61.5v42q0 43 -23.5 61t-77.5 18h-113v-201zM235 125h116q66 0 93.5 21.5t27.5 72.5v46
q0 50 -27.5 71.5t-93.5 21.5h-116v-233z" />
    <glyph glyph-name="C" unicode="C" 
d="M360 -10q-151 0 -226 66.5t-75 199.5v284q0 135 75.5 202.5t226.5 67.5q152 0 222.5 -67t77.5 -218l-170 -10q-7 97 -33.5 130t-97.5 33t-101 -35t-30 -118v-255q0 -80 30 -114t101 -34q70 0 97 32t34 127l170 -10q-7 -149 -77.5 -215t-223.5 -66z" />
    <glyph glyph-name="D" unicode="D" 
d="M65 0v800h277q140 0 219.5 -79.5t79.5 -211.5v-222q0 -131 -79.5 -209t-220.5 -78h-276zM235 132h92q78 0 111 40t33 129v194q0 90 -33 131.5t-111 41.5h-92v-536z" />
    <glyph glyph-name="E" unicode="E" 
d="M65 0v800h576v-132h-406v-174h356v-132h-356v-230h406v-132h-576z" />
    <glyph glyph-name="F" unicode="F" 
d="M100 0v800h555v-132h-385v-233h315v-132h-315v-303h-170z" />
    <glyph glyph-name="G" unicode="G" 
d="M357 -10q-143 0 -220.5 72.5t-77.5 207.5v256q0 137 76 210.5t219 73.5q139 0 209.5 -64.5t77.5 -186.5l-170 -10q-6 72 -32 100.5t-84 28.5q-69 0 -97.5 -36.5t-28.5 -129.5v-228q0 -90 28.5 -126t98.5 -36q68 0 95 36.5t26 129.5h-127v132h297v-147q0 -137 -75 -210
t-215 -73z" />
    <glyph glyph-name="H" unicode="H" 
d="M65 0v800h170v-292h230v292h170v-800h-170v376h-230v-376h-170z" />
    <glyph glyph-name="I" unicode="I" 
d="M65 0v132h200v536h-200v132h570v-132h-200v-536h200v-132h-570z" />
    <glyph glyph-name="J" unicode="J" 
d="M336 -10q-149 0 -219.5 68.5t-77.5 219.5l170 11q7 -101 33.5 -134t92.5 -33q60 0 88 32t28 113v401h-221v132h391v-540q0 -128 -69.5 -199t-215.5 -71z" />
    <glyph glyph-name="K" unicode="K" 
d="M235 349v-349h-170v800h170v-319h38l226 319h178l-274 -369l271 -431h-177l-221 349h-41z" />
    <glyph glyph-name="L" unicode="L" 
d="M115 0v800h170v-668h350v-132h-520z" />
    <glyph glyph-name="M" unicode="M" 
d="M292 235l-109 314l16 -549h-150v800h170l134 -403l133 403h165v-800h-149l14 545l-107 -310h-117z" />
    <glyph glyph-name="N" unicode="N" 
d="M429 0l-218 570v-570h-146v800h193l231 -604v604h146v-800h-206z" />
    <glyph glyph-name="O" unicode="O" 
d="M350 -10q-143 0 -217 69.5t-74 196.5v284q0 128 74.5 199t217.5 71t216.5 -71t73.5 -199v-284q0 -127 -74 -196.5t-217 -69.5zM350 122q65 0 93 33.5t28 114.5v256q0 81 -28 116.5t-93 35.5t-93 -35.5t-28 -116.5v-256q0 -81 28 -114.5t93 -33.5z" />
    <glyph glyph-name="P" unicode="P" 
d="M65 0v800h303q131 0 203.5 -54.5t72.5 -169.5v-107q0 -111 -72 -163.5t-204 -52.5h-133v-253h-170zM235 383h124q59 0 87 21t28 78v84q0 59 -28 80.5t-87 21.5h-124v-285z" />
    <glyph glyph-name="Q" unicode="Q" 
d="M622 -205q-176 -28 -258 25t-81 197q-110 13 -167 80.5t-57 179.5v263q0 128 74.5 199t217.5 71t216.5 -71t73.5 -199v-263q0 -110 -56.5 -177.5t-165.5 -83.5q3 -61 45.5 -80.5t139.5 -1.5zM350 139q65 0 93 36.5t28 115.5v235q0 80 -28 114.5t-93 34.5t-93 -34.5
t-28 -114.5v-235q0 -79 28 -115.5t93 -36.5z" />
    <glyph glyph-name="R" unicode="R" 
d="M235 420h130q64 0 89.5 21.5t25.5 75.5v57q0 51 -25.5 72.5t-89.5 21.5h-130v-248zM235 0h-170v800h322q131 0 193.5 -55.5t62.5 -162.5v-69q0 -87 -38.5 -139.5t-116.5 -71.5l178 -302h-180l-170 289h-81v-289z" />
    <glyph glyph-name="S" unicode="S" 
d="M348 -9q-95 0 -169.5 25.5t-133.5 71.5l53 125q54 -42 114.5 -66t138.5 -24q63 0 95 26t32 69q0 50 -35 71t-126 44q-140 34 -194.5 86t-54.5 151q0 105 71 171.5t205 66.5q76 0 150 -26.5t122 -66.5l-46 -120q-54 38 -109 59t-115 21q-53 0 -81 -21.5t-28 -64.5
q0 -42 32.5 -66t133.5 -49q137 -32 191 -85.5t54 -156.5q0 -116 -83 -178.5t-217 -62.5z" />
    <glyph glyph-name="T" unicode="T" 
d="M265 0v668h-229v132h628v-132h-229v-668h-170z" />
    <glyph glyph-name="U" unicode="U" 
d="M350 -10q-146 0 -215.5 70.5t-69.5 216.5v523h170v-516q0 -88 26.5 -121.5t88.5 -33.5t88.5 33.5t26.5 121.5v516h170v-523q0 -146 -69.5 -216.5t-215.5 -70.5z" />
    <glyph glyph-name="V" unicode="V" 
d="M459 0h-217l-223 800h171l160 -663l168 663h164z" />
    <glyph glyph-name="W" unicode="W" 
d="M433 0l-81 390l-82 -390h-152l-104 800h148l47 -606l78 406h126l80 -395l47 595h147l-105 -800h-149z" />
    <glyph glyph-name="X" unicode="X" 
d="M505 0l-158 273l-155 -273h-169l247 411l-222 389h177l142 -248l142 248h169l-235 -388l232 -412h-170z" />
    <glyph glyph-name="Y" unicode="Y" 
d="M435 0h-170v300l-251 500h173l164 -358l162 358h172l-250 -500v-300z" />
    <glyph glyph-name="Z" unicode="Z" 
d="M641 0h-582v132l401 536h-401v132h582v-132l-399 -536h399v-132z" />
    <glyph glyph-name="bracketleft" unicode="[" 
d="M165 -200v1000h420v-125h-250v-754h250v-121h-420z" />
    <glyph glyph-name="backslash" unicode="\" 
d="M479 -199l-400 1000l142 -1l400 -1000z" />
    <glyph glyph-name="bracketright" unicode="]" 
d="M115 -200v121h250v754h-250v125h420v-1000h-420z" />
    <glyph glyph-name="asciicircum" unicode="^" 
d="M509 200l-159 395l-156 -395h-165l236 600h170l239 -600h-165z" />
    <glyph glyph-name="underscore" unicode="_" 
d="M63 -200v149h574v-149h-574z" />
    <glyph glyph-name="grave" unicode="`" 
d="M394 365l-243 435h258l99 -435h-114z" />
    <glyph glyph-name="a" unicode="a" 
d="M282 100q37 0 70.5 11.5t62.5 33.5v97h-138q-34 0 -53 -15t-19 -59q0 -33 18 -50.5t59 -17.5zM241 -10q-84 0 -138 45t-54 129q0 83 57.5 127t151.5 44h157v73q0 44 -25.5 62.5t-74.5 18.5q-51 0 -75.5 -18t-36.5 -71l-140 25q21 101 79.5 143t177.5 42
q125 0 191.5 -48.5t66.5 -148.5v-232q0 -43 25 -53.5t74 -3.5v-121q-78 -17 -129.5 3t-67.5 87h-27q-31 -42 -87 -72.5t-125 -30.5z" />
    <glyph glyph-name="b" unicode="b" 
d="M343 -7q-69 0 -138.5 19t-132.5 55v733h170v-307h30q24 57 70.5 87t108.5 30q82 0 129.5 -56t47.5 -152v-183q0 -110 -73.5 -168t-211.5 -58zM350 117q54 0 81 24t27 79v154q0 52 -22.5 77.5t-62.5 25.5q-34 0 -66 -17t-65 -50v-265q27 -15 52.5 -21.5t55.5 -6.5z" />
    <glyph glyph-name="c" unicode="c" 
d="M361 -10q-141 0 -215 60t-74 174v154q0 112 74.5 172t213.5 60q131 0 195 -57.5t77 -162.5l-164 -13q-5 58 -31 82.5t-82 24.5q-60 0 -86.5 -26.5t-26.5 -89.5v-137q0 -63 27 -89.5t88 -26.5q56 0 81.5 20.5t29.5 67.5l164 -13q-7 -96 -67 -148t-204 -52z" />
    <glyph glyph-name="d" unicode="d" 
d="M327 124q34 0 66 16.5t65 49.5v265q-24 13 -51.5 21t-56.5 8q-54 0 -81 -26t-27 -78v-154q0 -52 22.5 -77t62.5 -25zM428 107q-24 -56 -71 -86.5t-108 -30.5q-86 0 -131.5 59.5t-45.5 148.5v183q0 107 66.5 166.5t184.5 59.5q36 0 70.5 -6t64.5 -18v217h170v-800h-170
v107h-30z" />
    <glyph glyph-name="e" unicode="e" 
d="M638 139q-35 -84 -96.5 -116.5t-188.5 -32.5q-122 0 -201.5 57.5t-79.5 171.5v160q0 110 75 170.5t204 60.5t203 -60.5t74 -173.5v-110h-386v-57q0 -51 27 -78.5t88 -27.5q51 0 83.5 15.5t54.5 59.5zM242 393v-34h216v25q0 63 -24 90t-84 27t-84 -25.5t-24 -82.5z" />
    <glyph glyph-name="f" unicode="f" 
d="M229 0v475h-163v125h163v34q0 92 68.5 144t181.5 52q43 0 83.5 -6t77.5 -18l-20 -113q-31 10 -61.5 14.5t-61.5 4.5q-47 0 -72.5 -22.5t-25.5 -67.5v-22h229v-125h-229v-475h-170z" />
    <glyph glyph-name="g" unicode="g" 
d="M664 -33q0 -81 -61.5 -129t-162.5 -48h-177q-110 0 -168.5 39.5t-58.5 102.5q0 50 30.5 80t76.5 35v20q-36 10 -61 33t-25 71q0 52 36 86.5t96 41.5v19q-51 14 -76 44.5t-25 70.5v9q0 75 64.5 116.5t164.5 41.5h340v-104l-162 20v-20q37 -10 60.5 -38.5t23.5 -62.5v-11
q0 -72 -64 -112.5t-168 -40.5h-98q-31 0 -48.5 -11.5t-17.5 -39.5q0 -27 19.5 -39t53.5 -12h191q98 0 157.5 -39.5t59.5 -122.5zM334 317q46 0 68 18.5t22 52.5v44q0 32 -22 50t-68 18t-68 -18t-22 -50v-44q0 -34 21 -52.5t69 -18.5zM264 -109h179q36 0 59 11.5t23 46.5
t-22.5 46.5t-56.5 11.5h-248v-53q0 -31 16.5 -47t49.5 -16z" />
    <glyph glyph-name="h" unicode="h" 
d="M72 0v800h170v-307h30q24 55 72 86t109 31q80 0 127.5 -51t47.5 -137v-422h-170v377q0 49 -20 74.5t-57 25.5q-34 0 -70 -24.5t-69 -67.5v-385h-170z" />
    <glyph glyph-name="i" unicode="i" 
d="M79 0v125h186v350h-186v125h356v-475h186v-125h-542zM358 696q-51 0 -83 15.5t-32 54.5v13q0 40 32 56.5t83 16.5t83 -16.5t32 -56.5v-13q0 -39 -32 -54.5t-83 -15.5z" />
    <glyph glyph-name="j" unicode="j" 
d="M244 -209q-44 0 -89 4.5t-89 17.5l20 117q39 -12 73.5 -16t65.5 -4q62 0 97.5 24t35.5 79v462h-258v125h428v-603q0 -99 -77 -152.5t-207 -53.5zM435 696q-51 0 -83 15.5t-32 54.5v13q0 40 32 56.5t83 16.5t83 -16.5t32 -56.5v-13q0 -39 -32 -54.5t-83 -15.5z" />
    <glyph glyph-name="k" unicode="k" 
d="M264 253v-253h-170v800h170v-430h41l165 230h180l-204 -272l201 -328h-183l-159 253h-41z" />
    <glyph glyph-name="l" unicode="l" 
d="M86 0v125h193v550h-193v125h363v-675h186v-125h-549z" />
    <glyph glyph-name="m" unicode="m" 
d="M185 426v-426h-141v600h140v-80h27q19 42 46 64.5t61 22.5t60 -22t36 -65h26q17 42 48 64.5t71 22.5q45 0 71 -38.5t26 -102.5v-466h-141v437q0 29 -7.5 44.5t-21.5 15.5q-15 0 -33 -18.5t-34 -52.5v-426h-138v437q0 29 -8 44.5t-22 15.5q-15 0 -32.5 -18.5t-33.5 -52.5z
" />
    <glyph glyph-name="n" unicode="n" 
d="M72 0v600h170v-107h30q23 55 73 86t115 31q79 0 123.5 -50t44.5 -138v-422h-170v391q0 42 -20 64t-57 22q-34 0 -71.5 -20t-67.5 -58v-399h-170z" />
    <glyph glyph-name="o" unicode="o" 
d="M350 -10q-131 0 -204.5 60t-73.5 167v162q0 109 73.5 170t205.5 61q131 0 204 -62t73 -172v-162q0 -106 -73.5 -165t-204.5 -59zM350 115q56 0 82 26t26 83v149q0 58 -26 85t-82 27t-82 -27t-26 -84v-146q0 -59 26 -86t82 -27z" />
    <glyph glyph-name="p" unicode="p" 
d="M350 117q54 0 81 24t27 79v155q0 52 -22 77t-63 25q-35 0 -66 -16.5t-65 -50.5v-264q26 -15 50.5 -22t57.5 -7zM377 -7q-34 0 -69.5 6t-65.5 18v-217h-170v800h170v-107h30q23 54 71 85.5t108 31.5q81 0 129 -56t48 -152v-183q0 -104 -67.5 -165t-183.5 -61z" />
    <glyph glyph-name="q" unicode="q" 
d="M458 -200v307h-30q-21 -49 -65.5 -83t-113.5 -34q-87 0 -132 59t-45 149v183q0 109 76 167.5t209 58.5q68 0 145.5 -15t125.5 -43v-749h-170zM327 124q34 0 65.5 16t65.5 50v265q-22 13 -48 21t-60 8q-49 0 -78.5 -24.5t-29.5 -79.5v-151q0 -54 22.5 -79.5t62.5 -25.5z
" />
    <glyph glyph-name="r" unicode="r" 
d="M101 0v600h170v-107h30q22 62 68.5 89.5t110.5 27.5q75 0 116 -44.5t41 -125.5v-105h-155v54q0 42 -18.5 65t-62.5 23q-38 0 -71.5 -18t-58.5 -60v-399h-170z" />
    <glyph glyph-name="s" unicode="s" 
d="M353 -7q-78 0 -154 21t-133 60l45 107q57 -37 123 -56.5t123 -19.5q46 0 73 14.5t27 48.5q0 35 -26.5 50.5t-92.5 22.5q-122 13 -187 50.5t-65 124.5q0 91 70 142.5t182 51.5q64 0 131.5 -19.5t122.5 -54.5l-38 -102q-54 31 -107.5 47.5t-102.5 16.5q-41 0 -65 -15
t-24 -47q0 -35 32.5 -48.5t108.5 -23.5q117 -14 173.5 -56t56.5 -122q0 -92 -74 -142.5t-199 -50.5z" />
    <glyph glyph-name="t" unicode="t" 
d="M457 -10q-117 0 -181 54.5t-64 158.5v272h-149v125h149v200h170v-200h232v-125h-232v-250q0 -57 26 -82.5t72 -25.5q28 0 59.5 4t63.5 16l20 -123q-24 -10 -68 -17t-98 -7z" />
    <glyph glyph-name="u" unicode="u" 
d="M247 -10q-74 0 -124.5 49t-50.5 139v422h170v-377q0 -49 20 -74t57 -25q35 0 70.5 24t68.5 67v385h170v-600h-170v107h-30q-25 -60 -77.5 -88.5t-103.5 -28.5z" />
    <glyph glyph-name="v" unicode="v" 
d="M461 0h-223l-185 600h164l136 -468l135 468h158z" />
    <glyph glyph-name="w" unicode="w" 
d="M431 0l-81 317l-77 -317h-156l-99 600h147l56 -430l69 323h116l76 -313l53 420h147l-99 -600h-152z" />
    <glyph glyph-name="x" unicode="x" 
d="M472 0l-130 193l-120 -193h-171l215 305l-201 295h173l118 -174l108 174h171l-200 -289l212 -311h-175z" />
    <glyph glyph-name="y" unicode="y" 
d="M188 -210q-31 0 -65 3t-74 8l12 125q39 -7 69 -11t53 -4q54 0 83.5 23.5t48.5 86.5l2 7h-100l-178 572h175l135 -466l143 466h168l-195 -595q-39 -119 -102 -167t-175 -48z" />
    <glyph glyph-name="z" unicode="z" 
d="M615 0h-530v125l348 350h-348v125h530v-125l-347 -350h347v-125z" />
    <glyph glyph-name="braceleft" unicode="{" 
d="M585 -210q-251 -3 -360.5 34.5t-109.5 131.5q0 45 15.5 75t48.5 60q34 31 50 50.5t16 37.5q0 47 -49.5 66.5t-180.5 22.5v88q131 3 180.5 22t49.5 65q0 18 -15.5 34t-48.5 40q-34 25 -50 52t-16 70q0 96 109.5 135t360.5 36v-125q-170 3 -235 -13t-65 -59q0 -21 14 -39
t51 -45q37 -26 51 -47t14 -52q0 -59 -59 -86t-203 -31v-5q144 -10 203 -38.5t59 -84.5q0 -32 -14 -53t-51 -49q-37 -25 -51 -45.5t-14 -47.5q0 -46 65 -63t235 -14v-123z" />
    <glyph glyph-name="bar" unicode="|" 
d="M281 -200v1000h139v-1000h-139z" />
    <glyph glyph-name="braceright" unicode="}" 
d="M585 -44q0 -94 -109.5 -131.5t-360.5 -34.5v123q170 -3 235 14t65 63q0 27 -14 47.5t-51 45.5q-37 28 -51 49t-14 53q0 56 59 84.5t203 38.5v5q-144 4 -203 31t-59 86q0 31 14 52t51 47q37 27 51 45t14 39q0 43 -65 59t-235 13v125q251 3 360.5 -36t109.5 -135
q0 -43 -16 -70t-50 -52q-33 -24 -48.5 -40t-15.5 -34q0 -46 49.5 -65t180.5 -22v-88q-131 -3 -180.5 -22.5t-49.5 -66.5q0 -18 16 -37.5t50 -50.5q33 -30 48.5 -60t15.5 -75z" />
    <glyph glyph-name="asciitilde" unicode="~" 
d="M481 203q-51 0 -90 31t-78 105q-28 54 -50 89t-49 35q-23 0 -36.5 -30t-13.5 -102v-118h-111v124q0 126 43.5 193t114.5 67q52 0 91 -31t79 -105q28 -54 50 -89t49 -35q23 0 36 24t13 81v131h111v-138q0 -112 -43.5 -172t-115.5 -60z" />
    <glyph glyph-name="exclamdown" unicode="&#xa1;" 
d="M350 810q66 0 99 -20.5t33 -63.5v-28q0 -44 -33 -65t-99 -21t-98.5 21t-32.5 65v28q0 43 33.5 63.5t97.5 20.5zM430 500l30 -500h-210l30 500h150z" />
    <glyph glyph-name="cent" unicode="&#xa2;" 
d="M228 331q0 -55 19.5 -84t65.5 -36v377q-46 -7 -65.5 -35.5t-19.5 -83.5v-138zM299 -50v143q-116 11 -175 71t-59 163v150q0 104 61 162t173 68v143h108v-142q108 -11 161 -67.5t64 -153.5l-156 -13q-4 55 -23 81t-59 33v-378q44 6 61 29.5t21 76.5l156 -13
q-7 -95 -56.5 -148.5t-168.5 -62.5v-142h-108z" />
    <glyph glyph-name="sterling" unicode="&#xa3;" 
d="M668 259q-7 -131 -63.5 -200t-153.5 -69q-44 0 -85.5 18t-80.5 34q-33 13 -58.5 20.5t-53.5 -11.5l-92 -60l-74 106l99 60q35 21 61.5 62.5t26.5 81.5q0 18 -3.5 33.5t-10.5 29.5h-147v97h91q-13 23 -22.5 49.5t-9.5 58.5q0 108 70.5 174.5t199.5 66.5q142 0 204 -66
t69 -197l-156 -10q-6 69 -28.5 101.5t-88.5 32.5q-60 0 -86.5 -27.5t-26.5 -76.5q0 -28 11 -54.5t27 -51.5h153v-97h-103q4 -13 6 -26.5t2 -28.5q0 -38 -25.5 -70t-85.5 -60l17 -32q31 16 51.5 19t40.5 -2q22 -5 41 -15.5t41 -10.5q49 0 65 29.5t22 101.5z" />
    <glyph glyph-name="currency" unicode="&#xa4;" 
d="M350 222q43 0 64 22t21 73v162q0 51 -21 75t-64 24t-64 -24t-21 -75v-162q0 -51 21 -73t64 -22zM350 90q-49 0 -90 11.5t-72 33.5l-91 -93l-77 77l103 105q-7 20 -10.5 43.5t-3.5 49.5v162q0 27 4 51t11 45l-104 106l77 77l92 -94q31 23 72 34.5t90 11.5t90 -11.5
t72 -35.5l90 90l77 -77l-103 -103q7 -20 10.5 -44t3.5 -50v-162q0 -23 -3 -43.5t-8 -39.5l100 -110l-77 -77l-90 90q-31 -24 -72.5 -35.5t-90.5 -11.5z" />
    <glyph glyph-name="yen" unicode="&#xa5;" 
d="M635 100h-200v-100h-170v100h-200v97h200v103h-200v97h153l-197 403h172l157 -356l157 356h171l-196 -403h153v-97h-200v-103h200v-97z" />
    <glyph glyph-name="brokenbar" unicode="&#xa6;" 
d="M281 400v400h139v-400h-139zM281 -200v400h139v-400h-139z" />
    <glyph glyph-name="section" unicode="&#xa7;" 
d="M340 223l18 -4l18 -4q37 1 65.5 17t28.5 54q0 44 -30.5 61.5t-74.5 26.5l-18 4l-18 4q-37 -1 -65.5 -16.5t-28.5 -54.5q0 -44 31 -61t74 -27zM368 -207q-80 0 -155.5 27.5t-126.5 66.5l50 123q57 -38 112.5 -61.5t124.5 -23.5q42 0 73 15t31 51q0 46 -45.5 64t-103.5 30
q-125 25 -194 69t-69 139q0 52 33.5 86t87.5 52q-58 29 -89.5 72t-31.5 107q0 93 76.5 143.5t195.5 50.5q80 0 153 -27.5t129 -66.5l-57 -116q-57 35 -110.5 56.5t-119.5 21.5q-50 0 -76.5 -19t-26.5 -53q0 -43 51 -60.5t133 -35.5q101 -19 164 -62t63 -138
q0 -53 -28.5 -89.5t-74.5 -57.5q50 -28 76.5 -69.5t26.5 -100.5q0 -92 -75 -143t-197 -51z" />
    <glyph glyph-name="dieresis" unicode="&#xa8;" 
d="M224 696q-39 0 -63.5 15.5t-24.5 54.5v13q0 40 24.5 56.5t63.5 16.5q40 0 64.5 -16.5t24.5 -56.5v-13q0 -39 -25 -54.5t-64 -15.5zM476 696q-40 0 -64.5 15.5t-24.5 54.5v13q0 40 24.5 56.5t64.5 16.5t64 -16.5t24 -56.5v-13q0 -39 -25 -54.5t-63 -15.5z" />
    <glyph glyph-name="copyright" unicode="&#xa9;" 
d="M350 -110q-166 0 -248 93t-82 274v222q0 183 82 277t249 94q166 0 247.5 -94t81.5 -277v-222q0 -181 -82 -274t-248 -93zM350 -41q138 0 199 73t61 239v194q0 168 -61 242t-199 74t-199 -74t-61 -242v-194q0 -166 61 -239t199 -73zM360 79q-98 0 -140.5 51.5t-42.5 149.5
v184q0 96 43 146.5t139 50.5q83 0 121.5 -50t45.5 -154l-118 -6q-4 65 -14 87t-36 22q-29 0 -42.5 -23.5t-13.5 -80.5v-172q0 -56 13.5 -80t44.5 -24q25 0 34.5 19.5t13.5 79.5l118 -6q-7 -101 -45.5 -147.5t-120.5 -46.5z" />
    <glyph glyph-name="ordfeminine" unicode="&#xaa;" 
d="M289 388q33 0 64 9.5t56 29.5v74h-125q-32 0 -49.5 -12t-17.5 -47q0 -26 16.5 -40t55.5 -14zM257 294q-64 0 -121.5 33.5t-57.5 105.5q0 73 52 110.5t138 37.5h141v45q0 44 -22.5 63t-65.5 19q-41 0 -64 -14.5t-36 -59.5l-130 22q16 82 71 118t162 36t168 -41t61 -139
v-161q0 -46 25 -56t75 -4v-104q-66 -13 -114.5 -0.5t-68.5 72.5h-23q-25 -35 -76.5 -59t-113.5 -24z" />
    <glyph glyph-name="guillemotleft" unicode="&#xab;" 
d="M662 44l-288 221v170l288 221v-151l-202 -155l202 -155v-151zM327 44l-288 221v170l288 221v-151l-202 -155l202 -155v-151z" />
    <glyph glyph-name="logicalnot" unicode="&#xac;" 
d="M495 0v279h-432v142h574v-421h-142z" />
    <glyph glyph-name="registered" unicode="&#xae;" 
d="M350 124q-149 0 -221.5 72t-72.5 208v173q0 137 73 210t222 73t221 -73t72 -210v-173q0 -136 -72.5 -208t-221.5 -72zM350 184q123 1 178 53.5t55 169.5v167q0 119 -55 173t-178 53q-123 1 -178 -53t-55 -173v-167q0 -117 55 -169.5t178 -53.5zM314 505h43q19 0 33 7.5
t14 30.5v30q0 28 -14 38.5t-33 10.5h-43v-117zM314 295h-113v400h167q74 0 111.5 -31t37.5 -91v-30q0 -35 -18 -59t-53 -35l92 -154h-122l-77 143h-25v-143z" />
    <glyph glyph-name="macron" unicode="&#x2c9;" 
d="M132 734v132h436v-132h-436z" />
    <glyph glyph-name="macron" unicode="&#xaf;" 
d="M132 734v132h436v-132h-436z" />
    <glyph glyph-name="degree" unicode="&#xb0;" 
d="M350 325q-99 0 -160 44.5t-61 137.5v114q0 93 61 139t160 46q101 0 161 -46t60 -139v-114q0 -93 -61 -137.5t-160 -44.5zM350 440q41 0 62.5 19t21.5 62v86q0 43 -21.5 63.5t-62.5 20.5q-43 0 -63.5 -20.5t-20.5 -63.5v-86q0 -43 20.5 -62t63.5 -19z" />
    <glyph glyph-name="plusminus" unicode="&#xb1;" 
d="M279 133v246h-216v142h216v246h142v-246h216v-142h-216v-246h-142zM63 0v142h574v-142h-574z" />
    <glyph glyph-name="two.sups" unicode="&#xb2;" 
d="M128 304v115q0 52 27 90t90 51l122 25q35 7 50 20.5t15 44.5v9q0 34 -22.5 45t-60.5 11q-37 0 -57.5 -13t-24.5 -58l-133 7q4 77 53.5 116t161.5 39q113 0 164.5 -38.5t51.5 -110.5v-23q0 -57 -32 -90.5t-83 -43.5l-122 -25q-37 -8 -52 -19t-15 -36v-18h310v-98h-443z
" />
    <glyph glyph-name="three.sups" unicode="&#xb3;" 
d="M353 298q-113 0 -170 38t-61 113l133 6q4 -35 24.5 -47.5t72.5 -12.5q49 0 67.5 11.5t18.5 38.5v16q0 29 -20.5 41t-68.5 12h-103v96h103q41 0 59 9t18 35v10q0 27 -20 36t-63 9t-57.5 -9.5t-18.5 -37.5l-133 6q5 78 59.5 108t149.5 30q94 0 154.5 -25.5t60.5 -98.5v-11
q0 -43 -26 -67.5t-63 -29.5v-18q37 -3 69.5 -30t32.5 -76v-10q0 -82 -59.5 -112t-158.5 -30z" />
    <glyph glyph-name="acute" unicode="&#xb4;" 
d="M222 700l115 200h220l-216 -200h-119z" />
    <glyph glyph-name="mu1" unicode="&#xb5;" 
d="M246 20l10 -220h-190l10 220v580h170v-383q0 -49 22.5 -69.5t53.5 -20.5q32 0 55 14t45 40v419h170v-405q0 -49 16 -62.5t56 -8.5v-121q-70 -15 -109.5 4.5t-60.5 78.5h-27q-16 -38 -47.5 -67t-82.5 -29q-31 0 -53 10.5t-38 32.5v-13z" />
    <glyph glyph-name="paragraph" unicode="&#xb6;" 
d="M493 340h-86v-540h-135v541q-84 4 -146.5 49t-62.5 147v52q0 110 69.5 160.5t159.5 50.5h336v-1000h-135v540z" />
    <glyph glyph-name="periodcentered" unicode="&#x2219;" 
d="M351 259q-63 0 -101 27t-38 78v70q0 51 38 79.5t101 28.5q62 0 100 -28.5t38 -79.5v-70q0 -51 -39 -78t-99 -27z" />
    <glyph glyph-name="periodcentered" unicode="&#xb7;" 
d="M351 259q-63 0 -101 27t-38 78v70q0 51 38 79.5t101 28.5q62 0 100 -28.5t38 -79.5v-70q0 -51 -39 -78t-99 -27z" />
    <glyph glyph-name="cedilla" unicode="&#xb8;" 
d="M320 0l20 42q73 -8 123 -36t50 -95q0 -72 -60 -103t-135 -31q-87 0 -142 29t-60 98l144 10q2 -19 13.5 -26.5t37.5 -7.5q28 0 42 11t14 45q0 28 -10 42.5t-37 21.5z" />
    <glyph glyph-name="one.sups" unicode="&#xb9;" 
d="M178 304v98h136v285h-19q-9 -43 -45 -67t-79 -27l-6 96q43 5 88.5 32t62.5 79h131v-398h124v-98h-393z" />
    <glyph glyph-name="ordmasculine" unicode="&#xba;" 
d="M350 294q-104 0 -173.5 47t-69.5 144v131q0 98 70 146t174 48t173 -48t69 -146v-131q0 -97 -69.5 -144t-173.5 -47zM350 401q53 0 75.5 22t22.5 71v119q0 45 -22.5 67.5t-75.5 22.5t-75.5 -23t-22.5 -68v-118q0 -49 22.5 -71t75.5 -22z" />
    <glyph glyph-name="guillemotright" unicode="&#xbb;" 
d="M39 44v151l202 155l-202 155v151l288 -221v-170zM374 44v151l202 155l-202 155v151l288 -221v-170z" />
    <glyph glyph-name="onequarter" unicode="&#xbc;" 
d="M172 411v85h136v198h-19q-4 -20 -16 -37t-28 -29q-17 -12 -37.5 -19t-42.5 -9l-6 96q23 3 46 11t44 22q20 14 36.5 33.5t24.5 44.5h131v-311h124v-85h-393zM0 246v121l318 -20v-81zM396 266v81l304 20v-121zM602 -113h-93v-97h-133v97h-254v91l226 238h161v-238h93v-91z
M227 -22h149v156z" />
    <glyph glyph-name="onehalf" unicode="&#xbd;" 
d="M172 411v85h136v198h-19q-4 -20 -16 -37t-28 -29q-17 -12 -37.5 -19t-42.5 -9l-6 96q23 3 46 11t44 22q20 14 36.5 33.5t24.5 44.5h131v-311h124v-85h-393zM0 246v121l318 -20v-81zM396 266v81l304 20v-121zM128 -210v94q0 25 6.5 45.5t20.5 37.5q14 16 36.5 28t53.5 18
l122 25q19 4 31 7.5t19 8.5q8 5 11.5 12t3.5 17v9q0 11 -5.5 18t-16.5 11t-26 5.5t-35 1.5t-34 -2t-25 -8q-10 -5 -16 -15t-7 -26l-133 7q2 32 15 56t38 40q26 16 66 24t96 8t97 -8t67 -23q27 -16 39.5 -38.5t12.5 -52.5v-23q0 -22 -8 -40t-24 -31q-15 -14 -36 -23t-47 -14
l-122 -25q-18 -4 -29.5 -7.5t-19.5 -8.5t-12 -12t-5 -18h309v-98h-443z" />
    <glyph glyph-name="threequarters" unicode="&#xbe;" 
d="M353 404q-58 0 -100.5 8t-71.5 24q-28 17 -42.5 41.5t-16.5 57.5l133 6q2 -16 7.5 -26.5t16.5 -16.5t28.5 -8.5t44.5 -2.5q25 0 41 2t26 6t14.5 10t4.5 16v16q0 11 -5 18t-15 11q-11 4 -27.5 6t-41.5 2h-94v82h94q21 0 35.5 1.5t23.5 5.5t13.5 10.5t4.5 16.5v10
q0 9 -5 14.5t-15 8.5q-10 4 -25 5t-38 1q-22 0 -36 -1.5t-22 -5.5t-12 -10.5t-6 -16.5l-133 6q2 29 16 49.5t39 34.5q26 14 64 20.5t90 6.5q53 0 93 -5.5t67 -16.5q27 -12 41 -29.5t14 -42.5v-11q0 -17 -7 -31t-19 -24t-28 -16t-35 -9v-18q19 -2 37 -8t33 -16
q15 -11 23.5 -26t8.5 -33v-10q0 -29 -13.5 -50t-39.5 -35q-27 -14 -68 -20.5t-97 -6.5zM0 246v121l318 -20v-81zM396 266v81l304 20v-121zM602 -113h-93v-97h-133v97h-254v91l226 238h161v-238h93v-91zM227 -22h149v156z" />
    <glyph glyph-name="questiondown" unicode="&#xbf;" 
d="M398 810q66 0 99 -20.5t33 -63.5v-28q0 -44 -33 -65t-99 -21t-98.5 21t-32.5 65v28q0 43 33.5 63.5t97.5 20.5zM465 522l20 -116q-154 -25 -204.5 -61.5t-50.5 -96.5v-23q0 -52 24 -81t96 -29q77 0 100 30t30 106l170 -10q-7 -131 -77.5 -191t-221.5 -60
q-148 0 -219.5 65.5t-71.5 161.5v35q0 119 96.5 179t308.5 91z" />
    <glyph glyph-name="Agrave" unicode="&#xc0;" 
d="M437 327l-84 338l-90 -338h174zM519 0l-49 195h-242l-52 -195h-157l230 800h203l230 -800h-163zM337 900l-216 200h220l115 -200h-119z" />
    <glyph glyph-name="Aacute" unicode="&#xc1;" 
d="M437 327l-84 338l-90 -338h174zM519 0l-49 195h-242l-52 -195h-157l230 800h203l230 -800h-163zM222 900l115 200h220l-216 -200h-119z" />
    <glyph glyph-name="Acircumflex" unicode="&#xc2;" 
d="M437 327l-84 338l-90 -338h174zM519 0l-49 195h-242l-52 -195h-157l230 800h203l230 -800h-163zM159 890l-55 78l181 156h128l183 -156l-54 -77l-193 108z" />
    <glyph glyph-name="Atilde" unicode="&#xc3;" 
d="M437 327l-84 338l-90 -338h174zM519 0l-49 195h-242l-52 -195h-157l230 800h203l230 -800h-163zM441 910q-44 0 -69.5 16t-42.5 34q-16 19 -30.5 34.5t-33.5 15.5q-17 0 -30 -15.5t-12 -64.5v-10h-112v15q0 81 39.5 135t109.5 54q46 0 71.5 -15.5t42.5 -34.5t31 -35
t31 -16t30 15.5t12 65.5v9h112v-15q0 -80 -39.5 -134t-109.5 -54z" />
    <glyph glyph-name="Adieresis" unicode="&#xc4;" 
d="M437 327l-84 338l-90 -338h174zM519 0l-49 195h-242l-52 -195h-157l230 800h203l230 -800h-163zM224 896q-39 0 -63.5 15.5t-24.5 54.5v13q0 40 24.5 56.5t63.5 16.5q40 0 64.5 -16.5t24.5 -56.5v-13q0 -39 -25 -54.5t-64 -15.5zM476 896q-40 0 -64.5 15.5t-24.5 54.5v13
q0 40 24.5 56.5t64.5 16.5t64 -16.5t24 -56.5v-13q0 -39 -25 -54.5t-63 -15.5z" />
    <glyph glyph-name="Aring" unicode="&#xc5;" 
d="M437 327l-84 338l-90 -338h174zM519 0l-49 195h-242l-52 -195h-157l230 800h203l230 -800h-163zM350 878q-87 0 -141 37t-54 115v32q0 78 54 116.5t141 38.5q88 0 141.5 -38.5t53.5 -116.5v-32q0 -78 -54 -115t-141 -37zM350 963q37 0 56 15t19 52v32q0 36 -19 53t-56 17
t-56 -17t-19 -53v-32q0 -37 19 -52t56 -15z" />
    <glyph glyph-name="AE" unicode="&#xc6;" 
d="M305 678l-93 -361h127v361h-34zM339 195h-158l-50 -195h-124l215 800h461v-122h-198v-187h181v-122h-181v-247h198v-122h-344v195z" />
    <glyph glyph-name="Ccedilla" unicode="&#xc7;" 
d="M360 -10q-151 0 -226 66.5t-75 199.5v284q0 135 75.5 202.5t226.5 67.5q152 0 222.5 -67t77.5 -218l-170 -10q-7 97 -33.5 130t-97.5 33t-101 -35t-30 -118v-255q0 -80 30 -114t101 -34q70 0 97 32t34 127l170 -10q-7 -149 -77.5 -215t-223.5 -66zM334 0l20 42
q73 -8 123 -36t50 -95q0 -72 -60 -103t-135 -31q-87 0 -142 29t-60 98l144 10q2 -19 13.5 -26.5t37.5 -7.5q28 0 42 11t14 45q0 28 -10 42.5t-37 21.5z" />
    <glyph glyph-name="Egrave" unicode="&#xc8;" 
d="M65 0v800h576v-132h-406v-174h356v-132h-356v-230h406v-132h-576zM361 900l-216 200h220l115 -200h-119z" />
    <glyph glyph-name="Eacute" unicode="&#xc9;" 
d="M65 0v800h576v-132h-406v-174h356v-132h-356v-230h406v-132h-576zM252 898l115 200h220l-216 -200h-119z" />
    <glyph glyph-name="Ecircumflex" unicode="&#xca;" 
d="M65 0v800h576v-132h-406v-174h356v-132h-356v-230h406v-132h-576zM172 890l-55 78l181 156h128l183 -156l-54 -77l-193 108z" />
    <glyph glyph-name="Edieresis" unicode="&#xcb;" 
d="M65 0v800h576v-132h-406v-174h356v-132h-356v-230h406v-132h-576zM242 896q-39 0 -63.5 15.5t-24.5 54.5v13q0 40 24.5 56.5t63.5 16.5q40 0 64.5 -16.5t24.5 -56.5v-13q0 -39 -25 -54.5t-64 -15.5zM494 896q-40 0 -64.5 15.5t-24.5 54.5v13q0 40 24.5 56.5t64.5 16.5
t64 -16.5t24 -56.5v-13q0 -39 -25 -54.5t-63 -15.5z" />
    <glyph glyph-name="Igrave" unicode="&#xcc;" 
d="M65 0v132h200v536h-200v132h570v-132h-200v-536h200v-132h-570zM337 900l-216 200h220l115 -200h-119z" />
    <glyph glyph-name="Iacute" unicode="&#xcd;" 
d="M65 0v132h200v536h-200v132h570v-132h-200v-536h200v-132h-570zM222 900l115 200h220l-216 -200h-119z" />
    <glyph glyph-name="Icircumflex" unicode="&#xce;" 
d="M65 0v132h200v536h-200v132h570v-132h-200v-536h200v-132h-570zM159 890l-55 78l181 156h128l183 -156l-54 -77l-193 108z" />
    <glyph glyph-name="Idieresis" unicode="&#xcf;" 
d="M65 0v132h200v536h-200v132h570v-132h-200v-536h200v-132h-570zM224 896q-39 0 -63.5 15.5t-24.5 54.5v13q0 40 24.5 56.5t63.5 16.5q40 0 64.5 -16.5t24.5 -56.5v-13q0 -39 -25 -54.5t-64 -15.5zM476 896q-40 0 -64.5 15.5t-24.5 54.5v13q0 40 24.5 56.5t64.5 16.5
t64 -16.5t24 -56.5v-13q0 -39 -25 -54.5t-63 -15.5z" />
    <glyph glyph-name="Eth" unicode="&#xd0;" 
d="M65 0v385h-65v111h65v304h277q140 0 219.5 -79.5t79.5 -211.5v-222q0 -131 -79.5 -209t-220.5 -78h-276zM235 132h92q78 0 111 40t33 129v194q0 90 -33 131.5t-111 41.5h-92v-172h115v-111h-115v-253z" />
    <glyph glyph-name="Ntilde" unicode="&#xd1;" 
d="M429 0l-218 570v-570h-146v800h193l231 -604v604h146v-800h-206zM447 910q-44 0 -69.5 16t-42.5 34q-16 19 -30.5 34.5t-33.5 15.5q-17 0 -30 -15.5t-12 -64.5v-10h-112v15q0 81 39.5 135t109.5 54q46 0 71.5 -15.5t42.5 -34.5t31 -35t31 -16t30 15.5t12 65.5v9h112v-15
q0 -80 -39.5 -134t-109.5 -54z" />
    <glyph glyph-name="Ograve" unicode="&#xd2;" 
d="M350 -10q-143 0 -217 69.5t-74 196.5v284q0 128 74.5 199t217.5 71t216.5 -71t73.5 -199v-284q0 -127 -74 -196.5t-217 -69.5zM350 122q65 0 93 33.5t28 114.5v256q0 81 -28 116.5t-93 35.5t-93 -35.5t-28 -116.5v-256q0 -81 28 -114.5t93 -33.5zM337 900l-216 200h220
l115 -200h-119z" />
    <glyph glyph-name="Oacute" unicode="&#xd3;" 
d="M350 -10q-143 0 -217 69.5t-74 196.5v284q0 128 74.5 199t217.5 71t216.5 -71t73.5 -199v-284q0 -127 -74 -196.5t-217 -69.5zM350 122q65 0 93 33.5t28 114.5v256q0 81 -28 116.5t-93 35.5t-93 -35.5t-28 -116.5v-256q0 -81 28 -114.5t93 -33.5zM255 900l115 200h220
l-216 -200h-119z" />
    <glyph glyph-name="Ocircumflex" unicode="&#xd4;" 
d="M350 -10q-143 0 -217 69.5t-74 196.5v284q0 128 74.5 199t217.5 71t216.5 -71t73.5 -199v-284q0 -127 -74 -196.5t-217 -69.5zM350 122q65 0 93 33.5t28 114.5v256q0 81 -28 116.5t-93 35.5t-93 -35.5t-28 -116.5v-256q0 -81 28 -114.5t93 -33.5zM159 890l-55 78l181 156
h128l183 -156l-54 -77l-193 108z" />
    <glyph glyph-name="Otilde" unicode="&#xd5;" 
d="M350 -10q-143 0 -217 69.5t-74 196.5v284q0 128 74.5 199t217.5 71t216.5 -71t73.5 -199v-284q0 -127 -74 -196.5t-217 -69.5zM350 122q65 0 93 33.5t28 114.5v256q0 81 -28 116.5t-93 35.5t-93 -35.5t-28 -116.5v-256q0 -81 28 -114.5t93 -33.5zM441 910q-44 0 -69.5 16
t-42.5 34q-16 19 -30.5 34.5t-33.5 15.5q-17 0 -30 -15.5t-12 -64.5v-10h-112v15q0 81 39.5 135t109.5 54q46 0 71.5 -15.5t42.5 -34.5t31 -35t31 -16t30 15.5t12 65.5v9h112v-15q0 -80 -39.5 -134t-109.5 -54z" />
    <glyph glyph-name="Odieresis" unicode="&#xd6;" 
d="M350 -10q-143 0 -217 69.5t-74 196.5v284q0 128 74.5 199t217.5 71t216.5 -71t73.5 -199v-284q0 -127 -74 -196.5t-217 -69.5zM350 122q65 0 93 33.5t28 114.5v256q0 81 -28 116.5t-93 35.5t-93 -35.5t-28 -116.5v-256q0 -81 28 -114.5t93 -33.5zM224 896
q-39 0 -63.5 15.5t-24.5 54.5v13q0 40 24.5 56.5t63.5 16.5q40 0 64.5 -16.5t24.5 -56.5v-13q0 -39 -25 -54.5t-64 -15.5zM476 896q-40 0 -64.5 15.5t-24.5 54.5v13q0 40 24.5 56.5t64.5 16.5t64 -16.5t24 -56.5v-13q0 -39 -25 -54.5t-63 -15.5z" />
    <glyph glyph-name="multiply" unicode="&#xd7;" 
d="M162 36l-91 91l188 223l-188 224l91 91l188 -224l188 222l91 -91l-188 -222l188 -222l-91 -91l-188 222z" />
    <glyph glyph-name="Oslash" unicode="&#xd8;" 
d="M222 222l180 451q-12 2 -24.5 3.5t-27.5 1.5q-75 0 -105 -38t-30 -128v-228q0 -19 1.5 -34t5.5 -28zM350 122q76 0 105.5 36.5t29.5 125.5v228q0 22 -2.5 40t-8.5 31l-181 -454q12 -4 26.5 -5.5t30.5 -1.5zM350 -10q-27 0 -51.5 3t-46.5 8l-41 -101h-128l61 153
q-42 36 -63.5 91t-21.5 126v256q0 135 74.5 209.5t217.5 74.5q25 0 48 -2.5t44 -6.5l40 99h128l-60 -149q45 -36 67.5 -93t22.5 -132v-256q0 -134 -74 -207t-217 -73z" />
    <glyph glyph-name="Ugrave" unicode="&#xd9;" 
d="M350 -10q-146 0 -215.5 70.5t-69.5 216.5v523h170v-516q0 -88 26.5 -121.5t88.5 -33.5t88.5 33.5t26.5 121.5v516h170v-523q0 -146 -69.5 -216.5t-215.5 -70.5zM337 900l-216 200h220l115 -200h-119z" />
    <glyph glyph-name="Uacute" unicode="&#xda;" 
d="M350 -10q-146 0 -215.5 70.5t-69.5 216.5v523h170v-516q0 -88 26.5 -121.5t88.5 -33.5t88.5 33.5t26.5 121.5v516h170v-523q0 -146 -69.5 -216.5t-215.5 -70.5zM222 900l115 200h220l-216 -200h-119z" />
    <glyph glyph-name="Ucircumflex" unicode="&#xdb;" 
d="M350 -10q-146 0 -215.5 70.5t-69.5 216.5v523h170v-516q0 -88 26.5 -121.5t88.5 -33.5t88.5 33.5t26.5 121.5v516h170v-523q0 -146 -69.5 -216.5t-215.5 -70.5zM159 890l-55 78l181 156h128l183 -156l-54 -77l-193 108z" />
    <glyph glyph-name="Udieresis" unicode="&#xdc;" 
d="M350 -10q-146 0 -215.5 70.5t-69.5 216.5v523h170v-516q0 -88 26.5 -121.5t88.5 -33.5t88.5 33.5t26.5 121.5v516h170v-523q0 -146 -69.5 -216.5t-215.5 -70.5zM224 896q-39 0 -63.5 15.5t-24.5 54.5v13q0 40 24.5 56.5t63.5 16.5q40 0 64.5 -16.5t24.5 -56.5v-13
q0 -39 -25 -54.5t-64 -15.5zM476 896q-40 0 -64.5 15.5t-24.5 54.5v13q0 40 24.5 56.5t64.5 16.5t64 -16.5t24 -56.5v-13q0 -39 -25 -54.5t-63 -15.5z" />
    <glyph glyph-name="Yacute" unicode="&#xdd;" 
d="M435 0h-170v300l-251 500h173l164 -358l162 358h172l-250 -500v-300zM222 900l115 200h220l-216 -200h-119z" />
    <glyph glyph-name="Thorn" unicode="&#xde;" 
d="M65 0v800h170v-123h133q134 0 205 -57.5t71 -167.5v-105q0 -105 -71 -161t-205 -56h-133v-130h-170zM235 260h117q65 0 93.5 21.5t28.5 70.5v100q0 50 -28.5 71.5t-93.5 21.5h-117v-285z" />
    <glyph glyph-name="germandbls" unicode="&#xdf;" 
d="M458 -6q-51 0 -107 18t-93 51l46 101q34 -30 70.5 -46.5t74.5 -16.5q32 0 54 14t22 44q0 29 -22 43t-95 37q-72 21 -106.5 60.5t-34.5 97.5q0 73 45 119t122 56q-4 62 -37 87t-78 25q-43 0 -78 -29.5t-35 -98.5v-556h-163v570q0 116 75 177t202 61q122 0 196.5 -70.5
t74.5 -180.5v-67q-96 1 -136 -15.5t-40 -50.5q0 -31 28 -46t97 -39q69 -22 101 -61.5t32 -101.5q0 -86 -62 -134t-153 -48z" />
    <glyph glyph-name="agrave" unicode="&#xe0;" 
d="M282 100q37 0 70.5 11.5t62.5 33.5v97h-138q-34 0 -53 -15t-19 -59q0 -33 18 -50.5t59 -17.5zM241 -10q-84 0 -138 45t-54 129q0 83 57.5 127t151.5 44h157v73q0 44 -25.5 62.5t-74.5 18.5q-51 0 -75.5 -18t-36.5 -71l-140 25q21 101 79.5 143t177.5 42
q125 0 191.5 -48.5t66.5 -148.5v-232q0 -43 25 -53.5t74 -3.5v-121q-78 -17 -129.5 3t-67.5 87h-27q-31 -42 -87 -72.5t-125 -30.5zM324 700l-216 200h220l115 -200h-119z" />
    <glyph glyph-name="aacute" unicode="&#xe1;" 
d="M282 100q37 0 70.5 11.5t62.5 33.5v97h-138q-34 0 -53 -15t-19 -59q0 -33 18 -50.5t59 -17.5zM241 -10q-84 0 -138 45t-54 129q0 83 57.5 127t151.5 44h157v73q0 44 -25.5 62.5t-74.5 18.5q-51 0 -75.5 -18t-36.5 -71l-140 25q21 101 79.5 143t177.5 42
q125 0 191.5 -48.5t66.5 -148.5v-232q0 -43 25 -53.5t74 -3.5v-121q-78 -17 -129.5 3t-67.5 87h-27q-31 -42 -87 -72.5t-125 -30.5zM209 700l115 200h220l-216 -200h-119z" />
    <glyph glyph-name="acircumflex" unicode="&#xe2;" 
d="M282 100q37 0 70.5 11.5t62.5 33.5v97h-138q-34 0 -53 -15t-19 -59q0 -33 18 -50.5t59 -17.5zM241 -10q-84 0 -138 45t-54 129q0 83 57.5 127t151.5 44h157v73q0 44 -25.5 62.5t-74.5 18.5q-51 0 -75.5 -18t-36.5 -71l-140 25q21 101 79.5 143t177.5 42
q125 0 191.5 -48.5t66.5 -148.5v-232q0 -43 25 -53.5t74 -3.5v-121q-78 -17 -129.5 3t-67.5 87h-27q-31 -42 -87 -72.5t-125 -30.5zM149 690l-55 78l181 156h128l183 -156l-54 -77l-193 108z" />
    <glyph glyph-name="atilde" unicode="&#xe3;" 
d="M282 100q37 0 70.5 11.5t62.5 33.5v97h-138q-34 0 -53 -15t-19 -59q0 -33 18 -50.5t59 -17.5zM241 -10q-84 0 -138 45t-54 129q0 83 57.5 127t151.5 44h157v73q0 44 -25.5 62.5t-74.5 18.5q-51 0 -75.5 -18t-36.5 -71l-140 25q21 101 79.5 143t177.5 42
q125 0 191.5 -48.5t66.5 -148.5v-232q0 -43 25 -53.5t74 -3.5v-121q-78 -17 -129.5 3t-67.5 87h-27q-31 -42 -87 -72.5t-125 -30.5zM428 710q-44 0 -69.5 16t-42.5 34q-16 19 -30.5 34.5t-33.5 15.5q-17 0 -30 -15.5t-12 -64.5v-10h-112v15q0 81 39.5 135t109.5 54
q46 0 71.5 -15.5t42.5 -34.5t31 -35t31 -16t30 15.5t12 65.5v9h112v-15q0 -80 -39.5 -134t-109.5 -54z" />
    <glyph glyph-name="adieresis" unicode="&#xe4;" 
d="M282 100q37 0 70.5 11.5t62.5 33.5v97h-138q-34 0 -53 -15t-19 -59q0 -33 18 -50.5t59 -17.5zM241 -10q-84 0 -138 45t-54 129q0 83 57.5 127t151.5 44h157v73q0 44 -25.5 62.5t-74.5 18.5q-51 0 -75.5 -18t-36.5 -71l-140 25q21 101 79.5 143t177.5 42
q125 0 191.5 -48.5t66.5 -148.5v-232q0 -43 25 -53.5t74 -3.5v-121q-78 -17 -129.5 3t-67.5 87h-27q-31 -42 -87 -72.5t-125 -30.5zM211 696q-39 0 -63.5 15.5t-24.5 54.5v13q0 40 24.5 56.5t63.5 16.5q40 0 64.5 -16.5t24.5 -56.5v-13q0 -39 -25 -54.5t-64 -15.5zM463 696
q-40 0 -64.5 15.5t-24.5 54.5v13q0 40 24.5 56.5t64.5 16.5t64 -16.5t24 -56.5v-13q0 -39 -25 -54.5t-63 -15.5z" />
    <glyph glyph-name="aring" unicode="&#xe5;" 
d="M282 100q37 0 70.5 11.5t62.5 33.5v97h-138q-34 0 -53 -15t-19 -59q0 -33 18 -50.5t59 -17.5zM241 -10q-84 0 -138 45t-54 129q0 83 57.5 127t151.5 44h157v73q0 44 -25.5 62.5t-74.5 18.5q-51 0 -75.5 -18t-36.5 -71l-140 25q21 101 79.5 143t177.5 42
q125 0 191.5 -48.5t66.5 -148.5v-232q0 -43 25 -53.5t74 -3.5v-121q-78 -17 -129.5 3t-67.5 87h-27q-31 -42 -87 -72.5t-125 -30.5zM330 678q-87 0 -141 37t-54 115v32q0 78 54 116.5t141 38.5q88 0 141.5 -38.5t53.5 -116.5v-32q0 -78 -54 -115t-141 -37zM330 763
q37 0 56 15t19 52v32q0 36 -19 53t-56 17t-56 -17t-19 -53v-32q0 -37 19 -52t56 -15z" />
    <glyph glyph-name="ae" unicode="&#xe6;" 
d="M677 150q-18 -79 -64 -119.5t-122 -40.5q-51 0 -88.5 22.5t-58.5 67.5h-27q-16 -41 -51.5 -65.5t-86.5 -24.5q-68 0 -112 43t-44 125q0 88 49 132.5t128 44.5h96v66q0 49 -15.5 70t-47.5 21q-30 0 -43.5 -17.5t-29.5 -68.5l-123 25q20 91 65 135t123 44q45 0 78.5 -17.5
t52.5 -57.5q24 37 61.5 56t82.5 19q78 0 127.5 -55t49.5 -169v-120h-252v-67q0 -48 14 -73.5t46 -25.5q29 0 45 16.5t24 53.5zM425 404v-48h127v43q0 56 -15 80.5t-47 24.5q-31 0 -48 -23.5t-17 -76.5zM296 139v106h-63q-34 0 -52.5 -17t-18.5 -60q0 -34 13 -52.5t41 -18.5
q22 0 41 11.5t39 30.5z" />
    <glyph glyph-name="ccedilla" unicode="&#xe7;" 
d="M361 -10q-141 0 -215 60t-74 174v154q0 112 74.5 172t213.5 60q131 0 195 -57.5t77 -162.5l-164 -13q-5 58 -31 82.5t-82 24.5q-60 0 -86.5 -26.5t-26.5 -89.5v-137q0 -63 27 -89.5t88 -26.5q56 0 81.5 20.5t29.5 67.5l164 -13q-7 -96 -67 -148t-204 -52zM351 0l20 42
q73 -8 123 -36t50 -95q0 -72 -60 -103t-135 -31q-87 0 -142 29t-60 98l144 10q2 -19 13.5 -26.5t37.5 -7.5q28 0 42 11t14 45q0 28 -10 42.5t-37 21.5z" />
    <glyph glyph-name="egrave" unicode="&#xe8;" 
d="M638 139q-35 -84 -96.5 -116.5t-188.5 -32.5q-122 0 -201.5 57.5t-79.5 171.5v160q0 110 75 170.5t204 60.5t203 -60.5t74 -173.5v-110h-386v-57q0 -51 27 -78.5t88 -27.5q51 0 83.5 15.5t54.5 59.5zM242 393v-34h216v25q0 63 -24 90t-84 27t-84 -25.5t-24 -82.5z
M341 700l-216 200h220l115 -200h-119z" />
    <glyph glyph-name="eacute" unicode="&#xe9;" 
d="M638 139q-35 -84 -96.5 -116.5t-188.5 -32.5q-122 0 -201.5 57.5t-79.5 171.5v160q0 110 75 170.5t204 60.5t203 -60.5t74 -173.5v-110h-386v-57q0 -51 27 -78.5t88 -27.5q51 0 83.5 15.5t54.5 59.5zM242 393v-34h216v25q0 63 -24 90t-84 27t-84 -25.5t-24 -82.5z
M240 700l115 200h220l-216 -200h-119z" />
    <glyph glyph-name="ecircumflex" unicode="&#xea;" 
d="M638 139q-35 -84 -96.5 -116.5t-188.5 -32.5q-122 0 -201.5 57.5t-79.5 171.5v160q0 110 75 170.5t204 60.5t203 -60.5t74 -173.5v-110h-386v-57q0 -51 27 -78.5t88 -27.5q51 0 83.5 15.5t54.5 59.5zM242 393v-34h216v25q0 63 -24 90t-84 27t-84 -25.5t-24 -82.5z
M163 690l-55 78l181 156h128l183 -156l-54 -77l-193 108z" />
    <glyph glyph-name="edieresis" unicode="&#xeb;" 
d="M638 139q-35 -84 -96.5 -116.5t-188.5 -32.5q-122 0 -201.5 57.5t-79.5 171.5v160q0 110 75 170.5t204 60.5t203 -60.5t74 -173.5v-110h-386v-57q0 -51 27 -78.5t88 -27.5q51 0 83.5 15.5t54.5 59.5zM242 393v-34h216v25q0 63 -24 90t-84 27t-84 -25.5t-24 -82.5z
M228 696q-39 0 -63.5 15.5t-24.5 54.5v13q0 40 24.5 56.5t63.5 16.5q40 0 64.5 -16.5t24.5 -56.5v-13q0 -39 -25 -54.5t-64 -15.5zM480 696q-40 0 -64.5 15.5t-24.5 54.5v13q0 40 24.5 56.5t64.5 16.5t64 -16.5t24 -56.5v-13q0 -39 -25 -54.5t-63 -15.5z" />
    <glyph glyph-name="igrave" unicode="&#xec;" 
d="M79 0v125h186v350h-186v125h356v-475h186v-125h-542zM351 700l-216 200h220l115 -200h-119z" />
    <glyph glyph-name="iacute" unicode="&#xed;" 
d="M79 0v125h186v350h-186v125h356v-475h186v-125h-542zM222 700l115 200h220l-216 -200h-119z" />
    <glyph glyph-name="icircumflex" unicode="&#xee;" 
d="M79 0v125h186v350h-186v125h356v-475h186v-125h-542zM159 690l-55 78l181 156h128l183 -156l-54 -77l-193 108z" />
    <glyph glyph-name="idieresis" unicode="&#xef;" 
d="M79 0v125h186v350h-186v125h356v-475h186v-125h-542zM224 696q-39 0 -63.5 15.5t-24.5 54.5v13q0 40 24.5 56.5t63.5 16.5q40 0 64.5 -16.5t24.5 -56.5v-13q0 -39 -25 -54.5t-64 -15.5zM476 696q-40 0 -64.5 15.5t-24.5 54.5v13q0 40 24.5 56.5t64.5 16.5t64 -16.5
t24 -56.5v-13q0 -39 -25 -54.5t-63 -15.5z" />
    <glyph glyph-name="eth" unicode="&#xf0;" 
d="M350 -10q-128 0 -206.5 58.5t-78.5 178.5v58q0 99 63.5 157t164.5 58q63 0 103 -22t56 -52h21q-5 63 -26.5 107.5t-60.5 76.5l-171 -77v94l77 34q-30 14 -66.5 26t-79.5 23l96 111q65 -17 118 -38.5t94 -47.5l161 72v-94l-85 -38q54 -55 79.5 -130.5t25.5 -174.5v-137
q0 -127 -78.5 -185t-206.5 -58zM351 115q62 0 88 25.5t26 77.5v63q0 47 -26 70t-88 23q-63 0 -88.5 -23t-25.5 -70v-63q0 -52 25.5 -77.5t88.5 -25.5z" />
    <glyph glyph-name="ntilde" unicode="&#xf1;" 
d="M72 0v600h170v-107h30q23 55 73 86t115 31q79 0 123.5 -50t44.5 -138v-422h-170v391q0 42 -20 64t-57 22q-34 0 -71.5 -20t-67.5 -58v-399h-170zM461 710q-44 0 -69.5 16t-42.5 34q-16 19 -30.5 34.5t-33.5 15.5q-17 0 -30 -15.5t-12 -64.5v-10h-112v15q0 81 39.5 135
t109.5 54q46 0 71.5 -15.5t42.5 -34.5t31 -35t31 -16t30 15.5t12 65.5v9h112v-15q0 -80 -39.5 -134t-109.5 -54z" />
    <glyph glyph-name="ograve" unicode="&#xf2;" 
d="M350 -10q-131 0 -204.5 60t-73.5 167v162q0 109 73.5 170t205.5 61q131 0 204 -62t73 -172v-162q0 -106 -73.5 -165t-204.5 -59zM350 115q56 0 82 26t26 83v149q0 58 -26 85t-82 27t-82 -27t-26 -84v-146q0 -59 26 -86t82 -27zM337 700l-216 200h220l115 -200h-119z" />
    <glyph glyph-name="oacute" unicode="&#xf3;" 
d="M350 -10q-131 0 -204.5 60t-73.5 167v162q0 109 73.5 170t205.5 61q131 0 204 -62t73 -172v-162q0 -106 -73.5 -165t-204.5 -59zM350 115q56 0 82 26t26 83v149q0 58 -26 85t-82 27t-82 -27t-26 -84v-146q0 -59 26 -86t82 -27zM222 700l115 200h220l-216 -200h-119z" />
    <glyph glyph-name="ocircumflex" unicode="&#xf4;" 
d="M350 -10q-131 0 -204.5 60t-73.5 167v162q0 109 73.5 170t205.5 61q131 0 204 -62t73 -172v-162q0 -106 -73.5 -165t-204.5 -59zM350 115q56 0 82 26t26 83v149q0 58 -26 85t-82 27t-82 -27t-26 -84v-146q0 -59 26 -86t82 -27zM159 690l-55 78l181 156h128l183 -156
l-54 -77l-193 108z" />
    <glyph glyph-name="otilde" unicode="&#xf5;" 
d="M350 -10q-131 0 -204.5 60t-73.5 167v162q0 109 73.5 170t205.5 61q131 0 204 -62t73 -172v-162q0 -106 -73.5 -165t-204.5 -59zM350 115q56 0 82 26t26 83v149q0 58 -26 85t-82 27t-82 -27t-26 -84v-146q0 -59 26 -86t82 -27zM441 710q-44 0 -69.5 16t-42.5 34
q-16 19 -30.5 34.5t-33.5 15.5q-17 0 -30 -15.5t-12 -64.5v-10h-112v15q0 81 39.5 135t109.5 54q46 0 71.5 -15.5t42.5 -34.5t31 -35t31 -16t30 15.5t12 65.5v9h112v-15q0 -80 -39.5 -134t-109.5 -54z" />
    <glyph glyph-name="odieresis" unicode="&#xf6;" 
d="M350 -10q-131 0 -204.5 60t-73.5 167v162q0 109 73.5 170t205.5 61q131 0 204 -62t73 -172v-162q0 -106 -73.5 -165t-204.5 -59zM350 115q56 0 82 26t26 83v149q0 58 -26 85t-82 27t-82 -27t-26 -84v-146q0 -59 26 -86t82 -27zM224 696q-39 0 -63.5 15.5t-24.5 54.5v13
q0 40 24.5 56.5t63.5 16.5q40 0 64.5 -16.5t24.5 -56.5v-13q0 -39 -25 -54.5t-64 -15.5zM476 696q-40 0 -64.5 15.5t-24.5 54.5v13q0 40 24.5 56.5t64.5 16.5t64 -16.5t24 -56.5v-13q0 -39 -25 -54.5t-63 -15.5z" />
    <glyph glyph-name="divide" unicode="&#xf7;" 
d="M350 516q-44 0 -71.5 17.5t-27.5 55.5v19q0 39 27.5 57.5t71.5 18.5t71 -18.5t27 -57.5v-19q0 -38 -27.5 -55.5t-70.5 -17.5zM63 286v128h574v-128h-574zM350 16q-44 0 -71.5 17.5t-27.5 55.5v19q0 39 27.5 57.5t71.5 18.5t71 -18.5t27 -57.5v-19q0 -38 -27.5 -55.5
t-70.5 -17.5z" />
    <glyph glyph-name="oslash" unicode="&#xf8;" 
d="M221 228q0 -24 4 -42.5t12 -32.5l166 333q-11 3 -24.5 4.5t-28.5 1.5q-70 0 -99.5 -30t-29.5 -88v-146zM350 108q70 0 99.5 28.5t29.5 91.5v148q0 22 -4 39.5t-12 30.5l-167 -333q12 -2 25.5 -3.5t28.5 -1.5zM350 -10q-23 0 -47.5 2.5t-45.5 6.5l-50 -99h-114l68 136
q-45 28 -70.5 75.5t-25.5 105.5v162q0 110 77 170.5t209 60.5q22 0 46.5 -2.5t45.5 -6.5l50 99h114l-68 -136q45 -28 70.5 -76.5t25.5 -108.5v-162q0 -109 -77 -168t-208 -59z" />
    <glyph glyph-name="ugrave" unicode="&#xf9;" 
d="M247 -10q-74 0 -124.5 49t-50.5 139v422h170v-377q0 -49 20 -74t57 -25q35 0 70.5 24t68.5 67v385h170v-600h-170v107h-30q-25 -60 -77.5 -88.5t-103.5 -28.5zM335 700l-216 200h220l115 -200h-119z" />
    <glyph glyph-name="uacute" unicode="&#xfa;" 
d="M247 -10q-74 0 -124.5 49t-50.5 139v422h170v-377q0 -49 20 -74t57 -25q35 0 70.5 24t68.5 67v385h170v-600h-170v107h-30q-25 -60 -77.5 -88.5t-103.5 -28.5zM269 700l115 200h220l-216 -200h-119z" />
    <glyph glyph-name="ucircumflex" unicode="&#xfb;" 
d="M247 -10q-74 0 -124.5 49t-50.5 139v422h170v-377q0 -49 20 -74t57 -25q35 0 70.5 24t68.5 67v385h170v-600h-170v107h-30q-25 -60 -77.5 -88.5t-103.5 -28.5zM166 690l-55 78l181 156h128l183 -156l-54 -77l-193 108z" />
    <glyph glyph-name="udieresis" unicode="&#xfc;" 
d="M247 -10q-74 0 -124.5 49t-50.5 139v422h170v-377q0 -49 20 -74t57 -25q35 0 70.5 24t68.5 67v385h170v-600h-170v107h-30q-25 -60 -77.5 -88.5t-103.5 -28.5zM231 696q-39 0 -63.5 15.5t-24.5 54.5v13q0 40 24.5 56.5t63.5 16.5q40 0 64.5 -16.5t24.5 -56.5v-13
q0 -39 -25 -54.5t-64 -15.5zM483 696q-40 0 -64.5 15.5t-24.5 54.5v13q0 40 24.5 56.5t64.5 16.5t64 -16.5t24 -56.5v-13q0 -39 -25 -54.5t-63 -15.5z" />
    <glyph glyph-name="yacute" unicode="&#xfd;" 
d="M188 -210q-31 0 -65 3t-74 8l12 125q39 -7 69 -11t53 -4q54 0 83.5 23.5t48.5 86.5l2 7h-100l-178 572h175l135 -466l143 466h168l-195 -595q-39 -119 -102 -167t-175 -48zM222 700l115 200h220l-216 -200h-119z" />
    <glyph glyph-name="thorn" unicode="&#xfe;" 
d="M350 117q54 0 81 24.5t27 78.5v155q0 52 -22.5 77t-62.5 25q-34 0 -65.5 -16.5t-65.5 -50.5v-264q27 -15 51.5 -22t56.5 -7zM377 -7q-36 0 -71 6.5t-64 17.5v-217h-170v1000h170v-307h30q23 55 70.5 86t108.5 31q81 0 129 -56.5t48 -151.5v-183q0 -104 -67.5 -165
t-183.5 -61z" />
    <glyph glyph-name="ydieresis" unicode="&#xff;" 
d="M188 -210q-31 0 -65 3t-74 8l12 125q39 -7 69 -11t53 -4q54 0 83.5 23.5t48.5 86.5l2 7h-100l-178 572h175l135 -466l143 466h168l-195 -595q-39 -119 -102 -167t-175 -48zM224 696q-39 0 -63.5 15.5t-24.5 54.5v13q0 40 24.5 56.5t63.5 16.5q40 0 64.5 -16.5t24.5 -56.5
v-13q0 -39 -25 -54.5t-64 -15.5zM476 696q-40 0 -64.5 15.5t-24.5 54.5v13q0 40 24.5 56.5t64.5 16.5t64 -16.5t24 -56.5v-13q0 -39 -25 -54.5t-63 -15.5z" />
    <glyph glyph-name="Amacron" unicode="&#x100;" 
d="M437 327l-84 338l-90 -338h174zM519 0l-49 195h-242l-52 -195h-157l230 800h203l230 -800h-163zM132 934v132h436v-132h-436z" />
    <glyph glyph-name="amacron" unicode="&#x101;" 
d="M282 100q37 0 70.5 11.5t62.5 33.5v97h-138q-34 0 -53 -15t-19 -59q0 -33 18 -50.5t59 -17.5zM241 -10q-84 0 -138 45t-54 129q0 83 57.5 127t151.5 44h157v73q0 44 -25.5 62.5t-74.5 18.5q-51 0 -75.5 -18t-36.5 -71l-140 25q21 101 79.5 143t177.5 42
q125 0 191.5 -48.5t66.5 -148.5v-232q0 -43 25 -53.5t74 -3.5v-121q-78 -17 -129.5 3t-67.5 87h-27q-31 -42 -87 -72.5t-125 -30.5zM112 734v132h436v-132h-436z" />
    <glyph glyph-name="Abreve" unicode="&#x102;" 
d="M437 327l-84 338l-90 -338h174zM519 0l-49 195h-242l-52 -195h-157l230 800h203l230 -800h-163zM350 893q-124 0 -190 55.5t-67 175.5h142q1 -69 28 -96.5t87 -27.5t87 27.5t28 96.5h142q-1 -120 -67 -175.5t-190 -55.5z" />
    <glyph glyph-name="abreve" unicode="&#x103;" 
d="M282 100q37 0 70.5 11.5t62.5 33.5v97h-138q-34 0 -53 -15t-19 -59q0 -33 18 -50.5t59 -17.5zM241 -10q-84 0 -138 45t-54 129q0 83 57.5 127t151.5 44h157v73q0 44 -25.5 62.5t-74.5 18.5q-51 0 -75.5 -18t-36.5 -71l-140 25q21 101 79.5 143t177.5 42
q125 0 191.5 -48.5t66.5 -148.5v-232q0 -43 25 -53.5t74 -3.5v-121q-78 -17 -129.5 3t-67.5 87h-27q-31 -42 -87 -72.5t-125 -30.5zM330 693q-124 0 -190 55.5t-67 175.5h142q1 -69 28 -96.5t87 -27.5t87 27.5t28 96.5h142q-1 -120 -67 -175.5t-190 -55.5z" />
    <glyph glyph-name="Aogonek" unicode="&#x104;" 
d="M437 327l-84 338l-90 -338h174zM519 0l-49 195h-242l-52 -195h-157l230 800h203l230 -800h-163zM625 -221q-78 0 -125 31.5t-47 93.5q0 61 47.5 104.5t102.5 59.5l27 -45q-34 -21 -43 -41.5t-9 -39.5q0 -26 18 -39t56 -13q18 0 43 2.5t50 7.5v-109q-31 -6 -62 -9t-58 -3z
" />
    <glyph glyph-name="aogonek" unicode="&#x105;" 
d="M282 100q37 0 70.5 11.5t62.5 33.5v97h-138q-34 0 -53 -15t-19 -59q0 -33 18 -50.5t59 -17.5zM241 -10q-84 0 -138 45t-54 129q0 83 57.5 127t151.5 44h157v73q0 44 -25.5 62.5t-74.5 18.5q-51 0 -75.5 -18t-36.5 -71l-140 25q21 101 79.5 143t177.5 42
q125 0 191.5 -48.5t66.5 -148.5v-232q0 -43 25 -53.5t74 -3.5v-121q-78 -17 -129.5 3t-67.5 87h-27q-31 -42 -87 -72.5t-125 -30.5zM601 -221q-78 0 -125 31.5t-47 93.5q0 61 47.5 104.5t102.5 59.5l27 -45q-34 -21 -43 -41.5t-9 -39.5q0 -26 18 -39t56 -13q18 0 43 2.5
t50 7.5v-109q-31 -6 -62 -9t-58 -3z" />
    <glyph glyph-name="Cacute" unicode="&#x106;" 
d="M360 -10q-151 0 -226 66.5t-75 199.5v284q0 135 75.5 202.5t226.5 67.5q152 0 222.5 -67t77.5 -218l-170 -10q-7 97 -33.5 130t-97.5 33t-101 -35t-30 -118v-255q0 -80 30 -114t101 -34q70 0 97 32t34 127l170 -10q-7 -149 -77.5 -215t-223.5 -66zM262 900l115 200h220
l-216 -200h-119z" />
    <glyph glyph-name="cacute" unicode="&#x107;" 
d="M361 -10q-141 0 -215 60t-74 174v154q0 112 74.5 172t213.5 60q131 0 195 -57.5t77 -162.5l-164 -13q-5 58 -31 82.5t-82 24.5q-60 0 -86.5 -26.5t-26.5 -89.5v-137q0 -63 27 -89.5t88 -26.5q56 0 81.5 20.5t29.5 67.5l164 -13q-7 -96 -67 -148t-204 -52zM256 700
l115 200h220l-216 -200h-119z" />
    <glyph glyph-name="Ccircumflex" unicode="&#x108;" 
d="M360 -10q-151 0 -226 66.5t-75 199.5v284q0 135 75.5 202.5t226.5 67.5q152 0 222.5 -67t77.5 -218l-170 -10q-7 97 -33.5 130t-97.5 33t-101 -35t-30 -118v-255q0 -80 30 -114t101 -34q70 0 97 32t34 127l170 -10q-7 -149 -77.5 -215t-223.5 -66zM173 890l-55 78
l181 156h128l183 -156l-54 -77l-193 108z" />
    <glyph glyph-name="ccircumflex" unicode="&#x109;" 
d="M361 -10q-141 0 -215 60t-74 174v154q0 112 74.5 172t213.5 60q131 0 195 -57.5t77 -162.5l-164 -13q-5 58 -31 82.5t-82 24.5q-60 0 -86.5 -26.5t-26.5 -89.5v-137q0 -63 27 -89.5t88 -26.5q56 0 81.5 20.5t29.5 67.5l164 -13q-7 -96 -67 -148t-204 -52zM168 690l-55 78
l181 156h128l183 -156l-54 -77l-193 108z" />
    <glyph glyph-name="Cdotaccent" unicode="&#x10a;" 
d="M360 -10q-151 0 -226 66.5t-75 199.5v284q0 135 75.5 202.5t226.5 67.5q152 0 222.5 -67t77.5 -218l-170 -10q-7 97 -33.5 130t-97.5 33t-101 -35t-30 -118v-255q0 -80 30 -114t101 -34q70 0 97 32t34 127l170 -10q-7 -149 -77.5 -215t-223.5 -66zM364 896
q-51 0 -83 15.5t-32 54.5v13q0 40 32 56.5t83 16.5t83 -16.5t32 -56.5v-13q0 -39 -32 -54.5t-83 -15.5z" />
    <glyph glyph-name="cdotaccent" unicode="&#x10b;" 
d="M361 -10q-141 0 -215 60t-74 174v154q0 112 74.5 172t213.5 60q131 0 195 -57.5t77 -162.5l-164 -13q-5 58 -31 82.5t-82 24.5q-60 0 -86.5 -26.5t-26.5 -89.5v-137q0 -63 27 -89.5t88 -26.5q56 0 81.5 20.5t29.5 67.5l164 -13q-7 -96 -67 -148t-204 -52zM356 696
q-51 0 -83 15.5t-32 54.5v13q0 40 32 56.5t83 16.5t83 -16.5t32 -56.5v-13q0 -39 -32 -54.5t-83 -15.5z" />
    <glyph glyph-name="Ccaron" unicode="&#x10c;" 
d="M360 -10q-151 0 -226 66.5t-75 199.5v284q0 135 75.5 202.5t226.5 67.5q152 0 222.5 -67t77.5 -218l-170 -10q-7 97 -33.5 130t-97.5 33t-101 -35t-30 -118v-255q0 -80 30 -114t101 -34q70 0 97 32t34 127l170 -10q-7 -149 -77.5 -215t-223.5 -66zM301 904l-183 156
l54 77l193 -108l190 109l55 -78l-181 -156h-128z" />
    <glyph glyph-name="ccaron" unicode="&#x10d;" 
d="M361 -10q-141 0 -215 60t-74 174v154q0 112 74.5 172t213.5 60q131 0 195 -57.5t77 -162.5l-164 -13q-5 58 -31 82.5t-82 24.5q-60 0 -86.5 -26.5t-26.5 -89.5v-137q0 -63 27 -89.5t88 -26.5q56 0 81.5 20.5t29.5 67.5l164 -13q-7 -96 -67 -148t-204 -52zM293 704
l-183 156l54 77l193 -108l190 109l55 -78l-181 -156h-128z" />
    <glyph glyph-name="Dcaron" unicode="&#x10e;" 
d="M65 0v800h277q140 0 219.5 -79.5t79.5 -211.5v-222q0 -131 -79.5 -209t-220.5 -78h-276zM235 132h92q78 0 111 40t33 129v194q0 90 -33 131.5t-111 41.5h-92v-536zM287 904l-183 156l54 77l193 -108l190 109l55 -78l-181 -156h-128z" />
    <glyph glyph-name="dcaron" unicode="&#x10f;" 
d="M327 124q34 0 66 16.5t65 49.5v265q-24 13 -51.5 21t-56.5 8q-54 0 -81 -26t-27 -78v-154q0 -52 22.5 -77t62.5 -25zM428 107q-24 -56 -71 -86.5t-108 -30.5q-86 0 -131.5 59.5t-45.5 148.5v183q0 107 66.5 166.5t184.5 59.5q36 0 70.5 -6t64.5 -18v217h170v-800h-170
v107h-30zM696 705l60 295h217l-177 -295h-100z" />
    <glyph glyph-name="Dcroat" unicode="&#x110;" 
d="M65 0v385h-65v111h65v304h277q140 0 219.5 -79.5t79.5 -211.5v-222q0 -131 -79.5 -209t-220.5 -78h-276zM235 132h92q78 0 111 40t33 129v194q0 90 -33 131.5t-111 41.5h-92v-172h115v-111h-115v-253z" />
    <glyph glyph-name="dcroat" unicode="&#x111;" 
d="M327 124q34 0 65.5 16.5t65.5 49.5v199q-28 16 -55.5 23.5t-59.5 7.5q-49 0 -74.5 -24.5t-25.5 -79.5v-87q0 -54 22 -79.5t62 -25.5zM428 107q-21 -48 -65.5 -82.5t-113.5 -34.5q-85 0 -131 60.5t-46 147.5v119q0 104 67.5 165t183.5 61q36 0 70.5 -6.5t64.5 -18.5v91
h-172v94h172v97h170v-97h100v-94h-100v-609h-170v107h-30z" />
    <glyph glyph-name="Emacron" unicode="&#x112;" 
d="M65 0v800h576v-132h-406v-174h356v-132h-356v-230h406v-132h-576zM145 934v132h436v-132h-436z" />
    <glyph glyph-name="emacron" unicode="&#x113;" 
d="M638 139q-35 -84 -96.5 -116.5t-188.5 -32.5q-122 0 -201.5 57.5t-79.5 171.5v160q0 110 75 170.5t204 60.5t203 -60.5t74 -173.5v-110h-386v-57q0 -51 27 -78.5t88 -27.5q51 0 83.5 15.5t54.5 59.5zM242 393v-34h216v25q0 63 -24 90t-84 27t-84 -25.5t-24 -82.5z
M136 734v132h436v-132h-436z" />
    <glyph glyph-name="Ebreve" unicode="&#x114;" 
d="M65 0v800h576v-132h-406v-174h356v-132h-356v-230h406v-132h-576zM363 893q-124 0 -190 55.5t-67 175.5h142q1 -69 28 -96.5t87 -27.5t87 27.5t28 96.5h142q-1 -120 -67 -175.5t-190 -55.5z" />
    <glyph glyph-name="ebreve" unicode="&#x115;" 
d="M638 139q-35 -84 -96.5 -116.5t-188.5 -32.5q-122 0 -201.5 57.5t-79.5 171.5v160q0 110 75 170.5t204 60.5t203 -60.5t74 -173.5v-110h-386v-57q0 -51 27 -78.5t88 -27.5q51 0 83.5 15.5t54.5 59.5zM242 393v-34h216v25q0 63 -24 90t-84 27t-84 -25.5t-24 -82.5z
M347 693q-124 0 -190 55.5t-67 175.5h142q1 -69 28 -96.5t87 -27.5t87 27.5t28 96.5h142q-1 -120 -67 -175.5t-190 -55.5z" />
    <glyph glyph-name="Edotaccent" unicode="&#x116;" 
d="M65 0v800h576v-132h-406v-174h356v-132h-356v-230h406v-132h-576zM363 896q-51 0 -83 15.5t-32 54.5v13q0 40 32 56.5t83 16.5t83 -16.5t32 -56.5v-13q0 -39 -32 -54.5t-83 -15.5z" />
    <glyph glyph-name="edotaccent" unicode="&#x117;" 
d="M638 139q-35 -84 -96.5 -116.5t-188.5 -32.5q-122 0 -201.5 57.5t-79.5 171.5v160q0 110 75 170.5t204 60.5t203 -60.5t74 -173.5v-110h-386v-57q0 -51 27 -78.5t88 -27.5q51 0 83.5 15.5t54.5 59.5zM242 393v-34h216v25q0 63 -24 90t-84 27t-84 -25.5t-24 -82.5z
M354 696q-51 0 -83 15.5t-32 54.5v13q0 40 32 56.5t83 16.5t83 -16.5t32 -56.5v-13q0 -39 -32 -54.5t-83 -15.5z" />
    <glyph glyph-name="Eogonek" unicode="&#x118;" 
d="M520 -221q-78 0 -125 31.5t-47 93.5q0 61 47.5 104.5t102.5 59.5l27 -45q-34 -21 -43 -41.5t-9 -39.5q0 -26 18 -39t56 -13q18 0 43 2.5t50 7.5v-109q-31 -6 -62 -9t-58 -3zM65 0v800h576v-132h-406v-174h356v-132h-356v-230h406v-132h-576z" />
    <glyph glyph-name="eogonek" unicode="&#x119;" 
d="M496 -221q-78 0 -125 31.5t-47 93.5q0 61 47.5 104.5t102.5 59.5l27 -45q-34 -21 -43 -41.5t-9 -39.5q0 -26 18 -39t56 -13q18 0 43 2.5t50 7.5v-109q-31 -6 -62 -9t-58 -3zM638 139q-35 -84 -96.5 -116.5t-188.5 -32.5q-122 0 -201.5 57.5t-79.5 171.5v160
q0 110 75 170.5t204 60.5t203 -60.5t74 -173.5v-110h-386v-57q0 -51 27 -78.5t88 -27.5q51 0 83.5 15.5t54.5 59.5zM242 393v-34h216v25q0 63 -24 90t-84 27t-84 -25.5t-24 -82.5z" />
    <glyph glyph-name="Ecaron" unicode="&#x11a;" 
d="M65 0v800h576v-132h-406v-174h356v-132h-356v-230h406v-132h-576zM303 904l-183 156l54 77l193 -108l190 109l55 -78l-181 -156h-128z" />
    <glyph glyph-name="ecaron" unicode="&#x11b;" 
d="M638 139q-35 -84 -96.5 -116.5t-188.5 -32.5q-122 0 -201.5 57.5t-79.5 171.5v160q0 110 75 170.5t204 60.5t203 -60.5t74 -173.5v-110h-386v-57q0 -51 27 -78.5t88 -27.5q51 0 83.5 15.5t54.5 59.5zM242 393v-34h216v25q0 63 -24 90t-84 27t-84 -25.5t-24 -82.5z
M291 704l-183 156l54 77l193 -108l190 109l55 -78l-181 -156h-128z" />
    <glyph glyph-name="Gcircumflex" unicode="&#x11c;" 
d="M357 -10q-143 0 -220.5 72.5t-77.5 207.5v256q0 137 76 210.5t219 73.5q139 0 209.5 -64.5t77.5 -186.5l-170 -10q-6 72 -32 100.5t-84 28.5q-69 0 -97.5 -36.5t-28.5 -129.5v-228q0 -90 28.5 -126t98.5 -36q68 0 95 36.5t26 129.5h-127v132h297v-147q0 -137 -75 -210
t-215 -73zM165 890l-55 78l181 156h128l183 -156l-54 -77l-193 108z" />
    <glyph glyph-name="gcircumflex" unicode="&#x11d;" 
d="M664 -33q0 -81 -61.5 -129t-162.5 -48h-177q-110 0 -168.5 39.5t-58.5 102.5q0 50 30.5 80t76.5 35v20q-36 10 -61 33t-25 71q0 52 36 86.5t96 41.5v19q-51 14 -76 44.5t-25 70.5v9q0 75 64.5 116.5t164.5 41.5h340v-104l-162 20v-20q37 -10 60.5 -38.5t23.5 -62.5v-11
q0 -72 -64 -112.5t-168 -40.5h-98q-31 0 -48.5 -11.5t-17.5 -39.5q0 -27 19.5 -39t53.5 -12h191q98 0 157.5 -39.5t59.5 -122.5zM334 317q46 0 68 18.5t22 52.5v44q0 32 -22 50t-68 18t-68 -18t-22 -50v-44q0 -34 21 -52.5t69 -18.5zM264 -109h179q36 0 59 11.5t23 46.5
t-22.5 46.5t-56.5 11.5h-248v-53q0 -31 16.5 -47t49.5 -16zM163 690l-55 78l181 156h128l183 -156l-54 -77l-193 108z" />
    <glyph glyph-name="Gbreve" unicode="&#x11e;" 
d="M357 -10q-143 0 -220.5 72.5t-77.5 207.5v256q0 137 76 210.5t219 73.5q139 0 209.5 -64.5t77.5 -186.5l-170 -10q-6 72 -32 100.5t-84 28.5q-69 0 -97.5 -36.5t-28.5 -129.5v-228q0 -90 28.5 -126t98.5 -36q68 0 95 36.5t26 129.5h-127v132h297v-147q0 -137 -75 -210
t-215 -73zM356 893q-124 0 -190 55.5t-67 175.5h142q1 -69 28 -96.5t87 -27.5t87 27.5t28 96.5h142q-1 -120 -67 -175.5t-190 -55.5z" />
    <glyph glyph-name="gbreve" unicode="&#x11f;" 
d="M664 -33q0 -81 -61.5 -129t-162.5 -48h-177q-110 0 -168.5 39.5t-58.5 102.5q0 50 30.5 80t76.5 35v20q-36 10 -61 33t-25 71q0 52 36 86.5t96 41.5v19q-51 14 -76 44.5t-25 70.5v9q0 75 64.5 116.5t164.5 41.5h340v-104l-162 20v-20q37 -10 60.5 -38.5t23.5 -62.5v-11
q0 -72 -64 -112.5t-168 -40.5h-98q-31 0 -48.5 -11.5t-17.5 -39.5q0 -27 19.5 -39t53.5 -12h191q98 0 157.5 -39.5t59.5 -122.5zM334 317q46 0 68 18.5t22 52.5v44q0 32 -22 50t-68 18t-68 -18t-22 -50v-44q0 -34 21 -52.5t69 -18.5zM264 -109h179q36 0 59 11.5t23 46.5
t-22.5 46.5t-56.5 11.5h-248v-53q0 -31 16.5 -47t49.5 -16zM350 693q-124 0 -190 55.5t-67 175.5h142q1 -69 28 -96.5t87 -27.5t87 27.5t28 96.5h142q-1 -120 -67 -175.5t-190 -55.5z" />
    <glyph glyph-name="Gdotaccent" unicode="&#x120;" 
d="M357 -10q-143 0 -220.5 72.5t-77.5 207.5v256q0 137 76 210.5t219 73.5q139 0 209.5 -64.5t77.5 -186.5l-170 -10q-6 72 -32 100.5t-84 28.5q-69 0 -97.5 -36.5t-28.5 -129.5v-228q0 -90 28.5 -126t98.5 -36q68 0 95 36.5t26 129.5h-127v132h297v-147q0 -137 -75 -210
t-215 -73zM360 896q-51 0 -83 15.5t-32 54.5v13q0 40 32 56.5t83 16.5t83 -16.5t32 -56.5v-13q0 -39 -32 -54.5t-83 -15.5z" />
    <glyph glyph-name="gdotaccent" unicode="&#x121;" 
d="M664 -33q0 -81 -61.5 -129t-162.5 -48h-177q-110 0 -168.5 39.5t-58.5 102.5q0 50 30.5 80t76.5 35v20q-36 10 -61 33t-25 71q0 52 36 86.5t96 41.5v19q-51 14 -76 44.5t-25 70.5v9q0 75 64.5 116.5t164.5 41.5h340v-104l-162 20v-20q37 -10 60.5 -38.5t23.5 -62.5v-11
q0 -72 -64 -112.5t-168 -40.5h-98q-31 0 -48.5 -11.5t-17.5 -39.5q0 -27 19.5 -39t53.5 -12h191q98 0 157.5 -39.5t59.5 -122.5zM334 317q46 0 68 18.5t22 52.5v44q0 32 -22 50t-68 18t-68 -18t-22 -50v-44q0 -34 21 -52.5t69 -18.5zM264 -109h179q36 0 59 11.5t23 46.5
t-22.5 46.5t-56.5 11.5h-248v-53q0 -31 16.5 -47t49.5 -16zM350 696q-51 0 -83 15.5t-32 54.5v13q0 40 32 56.5t83 16.5t83 -16.5t32 -56.5v-13q0 -39 -32 -54.5t-83 -15.5z" />
    <glyph glyph-name="Gcommaaccent" unicode="&#x122;" 
d="M198 -300l75 200h220l-176 -200h-119zM357 -10q-143 0 -220.5 72.5t-77.5 207.5v256q0 137 76 210.5t219 73.5q139 0 209.5 -64.5t77.5 -186.5l-170 -10q-6 72 -32 100.5t-84 28.5q-69 0 -97.5 -36.5t-28.5 -129.5v-228q0 -90 28.5 -126t98.5 -36q68 0 95 36.5t26 129.5
h-127v132h297v-147q0 -137 -75 -210t-215 -73z" />
    <glyph glyph-name="gcommaaccent" unicode="&#x123;" 
d="M664 -33q0 -81 -61.5 -129t-162.5 -48h-177q-110 0 -168.5 39.5t-58.5 102.5q0 50 30.5 80t76.5 35v20q-36 10 -61 33t-25 71q0 52 36 86.5t96 41.5v19q-51 14 -76 44.5t-25 70.5v9q0 75 64.5 116.5t164.5 41.5h340v-104l-162 20v-20q37 -10 60.5 -38.5t23.5 -62.5v-11
q0 -72 -64 -112.5t-168 -40.5h-98q-31 0 -48.5 -11.5t-17.5 -39.5q0 -27 19.5 -39t53.5 -12h191q98 0 157.5 -39.5t59.5 -122.5zM334 317q46 0 68 18.5t22 52.5v44q0 32 -22 50t-68 18t-68 -18t-22 -50v-44q0 -34 21 -52.5t69 -18.5zM264 -109h179q36 0 59 11.5t23 46.5
t-22.5 46.5t-56.5 11.5h-248v-53q0 -31 16.5 -47t49.5 -16zM228 700l176 200h119l-75 -200h-220z" />
    <glyph glyph-name="Hcircumflex" unicode="&#x124;" 
d="M65 0v800h170v-292h230v292h170v-800h-170v376h-230v-376h-170zM159 890l-55 78l181 156h128l183 -156l-54 -77l-193 108z" />
    <glyph glyph-name="hcircumflex" unicode="&#x125;" 
d="M72 0v800h170v-307h30q24 55 72 86t109 31q80 0 127.5 -51t47.5 -137v-422h-170v377q0 49 -20 74.5t-57 25.5q-34 0 -70 -24.5t-69 -67.5v-385h-170zM-34 890l-55 78l181 156h128l183 -156l-54 -77l-193 108z" />
    <glyph glyph-name="Hbar" unicode="&#x126;" 
d="M242 423h216v130h-216v-130zM242 291v-291h-170v553h-72v111h72v136h170v-136h216v136h170v-136h72v-111h-72v-553h-170v291h-216z" />
    <glyph glyph-name="hbar" unicode="&#x127;" 
d="M242 321v-321h-170v609h-100v94h100v97h170v-97h172v-94h-172v-180h30q23 54 72.5 85.5t110.5 31.5q77 0 125 -50t48 -131v-365h-170v319q0 46 -20 70t-57 24q-35 0 -70.5 -24.5t-68.5 -67.5z" />
    <glyph glyph-name="Itilde" unicode="&#x128;" 
d="M65 0v132h200v536h-200v132h570v-132h-200v-536h200v-132h-570zM441 910q-44 0 -69.5 16t-42.5 34q-16 19 -30.5 34.5t-33.5 15.5q-17 0 -30 -15.5t-12 -64.5v-10h-112v15q0 81 39.5 135t109.5 54q46 0 71.5 -15.5t42.5 -34.5t31 -35t31 -16t30 15.5t12 65.5v9h112v-15
q0 -80 -39.5 -134t-109.5 -54z" />
    <glyph glyph-name="itilde" unicode="&#x129;" 
d="M79 0v125h186v350h-186v125h356v-475h186v-125h-542zM441 710q-44 0 -69.5 16t-42.5 34q-16 19 -30.5 34.5t-33.5 15.5q-17 0 -30 -15.5t-12 -64.5v-10h-112v15q0 81 39.5 135t109.5 54q46 0 71.5 -15.5t42.5 -34.5t31 -35t31 -16t30 15.5t12 65.5v9h112v-15
q0 -80 -39.5 -134t-109.5 -54z" />
    <glyph glyph-name="Imacron" unicode="&#x12a;" 
d="M65 0v132h200v536h-200v132h570v-132h-200v-536h200v-132h-570zM132 934v132h436v-132h-436z" />
    <glyph glyph-name="imacron" unicode="&#x12b;" 
d="M79 0v125h186v350h-186v125h356v-475h186v-125h-542zM132 734v132h436v-132h-436z" />
    <glyph glyph-name="Ibreve" unicode="&#x12c;" 
d="M65 0v132h200v536h-200v132h570v-132h-200v-536h200v-132h-570zM350 893q-124 0 -190 55.5t-67 175.5h142q1 -69 28 -96.5t87 -27.5t87 27.5t28 96.5h142q-1 -120 -67 -175.5t-190 -55.5z" />
    <glyph glyph-name="ibreve" unicode="&#x12d;" 
d="M79 0v125h186v350h-186v125h356v-475h186v-125h-542zM350 693q-124 0 -190 55.5t-67 175.5h142q1 -69 28 -96.5t87 -27.5t87 27.5t28 96.5h142q-1 -120 -67 -175.5t-190 -55.5z" />
    <glyph glyph-name="Iogonek" unicode="&#x12e;" 
d="M65 0v132h200v536h-200v132h570v-132h-200v-536h200v-132h-570zM440 -221q-78 0 -125 31.5t-47 93.5q0 61 47.5 104.5t102.5 59.5l27 -45q-34 -21 -43 -41.5t-9 -39.5q0 -26 18 -39t56 -13q18 0 43 2.5t50 7.5v-109q-31 -6 -62 -9t-58 -3z" />
    <glyph glyph-name="iogonek" unicode="&#x12f;" 
d="M358 696q-51 0 -83 15.5t-32 54.5v13q0 40 32 56.5t83 16.5t83 -16.5t32 -56.5v-13q0 -39 -32 -54.5t-83 -15.5zM79 0v125h186v350h-186v125h356v-475h186v-125h-542zM425 -221q-78 0 -125 31.5t-47 93.5q0 61 47.5 104.5t102.5 59.5l27 -45q-34 -21 -43 -41.5t-9 -39.5
q0 -26 18 -39t56 -13q18 0 43 2.5t50 7.5v-109q-31 -6 -62 -9t-58 -3z" />
    <glyph glyph-name="Idotaccent" unicode="&#x130;" 
d="M65 0v132h200v536h-200v132h570v-132h-200v-536h200v-132h-570zM350 896q-51 0 -83 15.5t-32 54.5v13q0 40 32 56.5t83 16.5t83 -16.5t32 -56.5v-13q0 -39 -32 -54.5t-83 -15.5z" />
    <glyph glyph-name="dotlessi" unicode="&#x131;" 
d="M79 0v125h186v350h-186v125h356v-475h186v-125h-542z" />
    <glyph glyph-name="IJ" unicode="&#x132;" 
d="M181 0h-135v800h135v-800zM461 -10q-100 0 -152.5 62t-54.5 212l135 11q2 -101 14.5 -134t54.5 -33q34 0 47.5 28.5t13.5 89.5v456h-148v118h283v-581q0 -107 -47 -168t-146 -61z" />
    <glyph glyph-name="ij" unicode="&#x133;" 
d="M150 696q-49 0 -78.5 15.5t-29.5 54.5v13q0 40 29.5 56.5t78.5 16.5t78.5 -16.5t29.5 -56.5v-13q0 -39 -30.5 -54.5t-77.5 -15.5zM541 696q-48 0 -78 15.5t-30 54.5v13q0 40 30 56.5t78 16.5q49 0 79 -16.5t30 -56.5v-13q0 -39 -30.5 -54.5t-78.5 -15.5zM234 0h-156v600
h156v-600zM384 -209q-37 0 -75 5t-76 17l20 117q32 -10 59.5 -15t52.5 -5q49 0 77.5 24t28.5 79v462h-129v125h285v-603q0 -99 -66.5 -152.5t-176.5 -53.5z" />
    <glyph glyph-name="Jcircumflex" unicode="&#x134;" 
d="M336 -10q-149 0 -219.5 68.5t-77.5 219.5l170 11q7 -101 33.5 -134t92.5 -33q60 0 88 32t28 113v401h-221v132h391v-540q0 -128 -69.5 -199t-215.5 -71zM228 890l-55 78l181 156h128l183 -156l-54 -77l-193 108z" />
    <glyph glyph-name="jcircumflex" unicode="&#x135;" 
d="M244 -209q-44 0 -89 4.5t-89 17.5l20 117q39 -12 73.5 -16t65.5 -4q62 0 97.5 24t35.5 79v462h-258v125h428v-603q0 -99 -77 -152.5t-207 -53.5zM217 690l-55 78l181 156h128l183 -156l-54 -77l-193 108z" />
    <glyph glyph-name="Kcommaaccent" unicode="&#x136;" 
d="M235 349v-349h-170v800h170v-319h38l226 319h178l-274 -369l271 -431h-177l-221 349h-41zM211 -300l75 200h220l-176 -200h-119z" />
    <glyph glyph-name="kcommaaccent" unicode="&#x137;" 
d="M264 253v-253h-170v800h170v-430h41l165 230h180l-204 -272l201 -328h-183l-159 253h-41zM209 -300l75 200h220l-176 -200h-119z" />
    <glyph glyph-name="kgreenlandic" unicode="&#x138;" 
d="M264 253v-253h-170v600h170v-230h41l165 230h180l-204 -272l201 -328h-183l-159 253h-41z" />
    <glyph glyph-name="Lacute" unicode="&#x139;" 
d="M115 0v800h170v-668h350v-132h-520zM127 900l115 200h220l-216 -200h-119z" />
    <glyph glyph-name="lacute" unicode="&#x13a;" 
d="M86 0v125h193v550h-193v125h363v-675h186v-125h-549zM223 900l115 200h220l-216 -200h-119z" />
    <glyph glyph-name="Lcommaaccent" unicode="&#x13b;" 
d="M115 0v800h170v-668h350v-132h-520zM231 -300l75 200h220l-176 -200h-119z" />
    <glyph glyph-name="lcommaaccent" unicode="&#x13c;" 
d="M86 0v125h193v550h-193v125h363v-675h186v-125h-549zM177 -300l75 200h220l-176 -200h-119z" />
    <glyph glyph-name="Lcaron" unicode="&#x13d;" 
d="M115 0v800h170v-668h350v-132h-520zM393 505l60 295h217l-177 -295h-100z" />
    <glyph glyph-name="lcaron" unicode="&#x13e;" 
d="M86 0v125h193v550h-193v125h363v-675h186v-125h-549zM531 705l60 295h217l-177 -295h-100z" />
    <glyph glyph-name="Ldot" unicode="&#x13f;" 
d="M115 0v800h170v-668h350v-132h-520zM590 389q-51 0 -83 15.5t-32 54.5v13q0 40 32 56.5t83 16.5t83 -16.5t32 -56.5v-13q0 -39 -32 -54.5t-83 -15.5z" />
    <glyph glyph-name="ldot" unicode="&#x140;" 
d="M86 0v125h193v550h-193v125h363v-675h186v-125h-549zM695 324q-51 0 -83 15.5t-32 54.5v13q0 40 32 56.5t83 16.5t83 -16.5t32 -56.5v-13q0 -39 -32 -54.5t-83 -15.5z" />
    <glyph glyph-name="Lslash" unicode="&#x141;" 
d="M115 0v334l-79 -25v108l79 25v358h170v-304l236 75v-108l-236 -75v-256h350v-132h-520z" />
    <glyph glyph-name="lslash" unicode="&#x142;" 
d="M86 0v125h193v206l-157 -42v108l157 42v236h-193v125h363v-315l108 29v-108l-108 -29v-252h186v-125h-549z" />
    <glyph glyph-name="Nacute" unicode="&#x143;" 
d="M429 0l-218 570v-570h-146v800h193l231 -604v604h146v-800h-206zM249 900l115 200h220l-216 -200h-119z" />
    <glyph glyph-name="nacute" unicode="&#x144;" 
d="M72 0v600h170v-107h30q23 55 73 86t115 31q79 0 123.5 -50t44.5 -138v-422h-170v391q0 42 -20 64t-57 22q-34 0 -71.5 -20t-67.5 -58v-399h-170zM242 700l115 200h220l-216 -200h-119z" />
    <glyph glyph-name="Ncommaaccent" unicode="&#x145;" 
d="M189 -300l75 200h220l-176 -200h-119zM429 0l-218 570v-570h-146v800h193l231 -604v604h146v-800h-206z" />
    <glyph glyph-name="ncommaaccent" unicode="&#x146;" 
d="M195 -300l75 200h220l-176 -200h-119zM72 0v600h170v-107h30q23 55 73 86t115 31q79 0 123.5 -50t44.5 -138v-422h-170v391q0 42 -20 64t-57 22q-34 0 -71.5 -20t-67.5 -58v-399h-170z" />
    <glyph glyph-name="Ncaron" unicode="&#x147;" 
d="M429 0l-218 570v-570h-146v800h193l231 -604v604h146v-800h-206zM293 904l-183 156l54 77l193 -108l190 109l55 -78l-181 -156h-128z" />
    <glyph glyph-name="ncaron" unicode="&#x148;" 
d="M72 0v600h170v-107h30q23 55 73 86t115 31q79 0 123.5 -50t44.5 -138v-422h-170v391q0 42 -20 64t-57 22q-34 0 -71.5 -20t-67.5 -58v-399h-170zM307 704l-183 156l54 77l193 -108l190 109l55 -78l-181 -156h-128z" />
    <glyph glyph-name="napostrophe" unicode="&#x149;" 
d="M72 0v600h170v-107h30q23 55 73 86t115 31q79 0 123.5 -50t44.5 -138v-422h-170v391q0 42 -20 64t-57 22q-34 0 -71.5 -20t-67.5 -58v-399h-170zM-28 700l115 200h220l-216 -200h-119z" />
    <glyph glyph-name="Eng" unicode="&#x14a;" 
d="M389 -209q-35 0 -70.5 7t-72.5 18l20 117q31 -10 56.5 -16.5t47.5 -6.5q44 0 69.5 27.5t25.5 90.5v532q0 59 -23.5 88t-60.5 29q-40 0 -72 -29t-74 -83v-565h-170v800h170v-127h30q29 66 79 101.5t111 35.5q77 0 128.5 -52.5t51.5 -151.5v-594q0 -116 -73.5 -168.5
t-172.5 -52.5z" />
    <glyph glyph-name="eng" unicode="&#x14b;" 
d="M398 -209q-33 0 -67 6t-67 16l20 117q27 -9 50.5 -14.5t44.5 -5.5q37 0 58 24t21 79v384q0 40 -20 60t-57 20q-35 0 -71.5 -19.5t-67.5 -58.5v-399h-170v600h170v-107h30q26 60 79 88.5t110 28.5q77 0 122 -47t45 -134v-432q0 -108 -69 -157t-161 -49z" />
    <glyph glyph-name="Omacron" unicode="&#x14c;" 
d="M350 -10q-143 0 -217 69.5t-74 196.5v284q0 128 74.5 199t217.5 71t216.5 -71t73.5 -199v-284q0 -127 -74 -196.5t-217 -69.5zM350 122q65 0 93 33.5t28 114.5v256q0 81 -28 116.5t-93 35.5t-93 -35.5t-28 -116.5v-256q0 -81 28 -114.5t93 -33.5zM132 934v132h436v-132
h-436z" />
    <glyph glyph-name="omacron" unicode="&#x14d;" 
d="M350 -10q-131 0 -204.5 60t-73.5 167v162q0 109 73.5 170t205.5 61q131 0 204 -62t73 -172v-162q0 -106 -73.5 -165t-204.5 -59zM350 115q56 0 82 26t26 83v149q0 58 -26 85t-82 27t-82 -27t-26 -84v-146q0 -59 26 -86t82 -27zM132 734v132h436v-132h-436z" />
    <glyph glyph-name="Obreve" unicode="&#x14e;" 
d="M350 -10q-143 0 -217 69.5t-74 196.5v284q0 128 74.5 199t217.5 71t216.5 -71t73.5 -199v-284q0 -127 -74 -196.5t-217 -69.5zM350 122q65 0 93 33.5t28 114.5v256q0 81 -28 116.5t-93 35.5t-93 -35.5t-28 -116.5v-256q0 -81 28 -114.5t93 -33.5zM350 893
q-124 0 -190 55.5t-67 175.5h142q1 -69 28 -96.5t87 -27.5t87 27.5t28 96.5h142q-1 -120 -67 -175.5t-190 -55.5z" />
    <glyph glyph-name="obreve" unicode="&#x14f;" 
d="M350 -10q-131 0 -204.5 60t-73.5 167v162q0 109 73.5 170t205.5 61q131 0 204 -62t73 -172v-162q0 -106 -73.5 -165t-204.5 -59zM350 115q56 0 82 26t26 83v149q0 58 -26 85t-82 27t-82 -27t-26 -84v-146q0 -59 26 -86t82 -27zM357 693q-124 0 -190 55.5t-67 175.5h142
q1 -69 28 -96.5t87 -27.5t87 27.5t28 96.5h142q-1 -120 -67 -175.5t-190 -55.5z" />
    <glyph glyph-name="Ohungarumlaut" unicode="&#x150;" 
d="M350 -10q-143 0 -217 69.5t-74 196.5v284q0 128 74.5 199t217.5 71t216.5 -71t73.5 -199v-284q0 -127 -74 -196.5t-217 -69.5zM350 122q65 0 93 33.5t28 114.5v256q0 81 -28 116.5t-93 35.5t-93 -35.5t-28 -116.5v-256q0 -81 28 -114.5t93 -33.5zM406 900l49 200h175
l-132 -200h-92zM176 900l49 200h175l-132 -200h-92z" />
    <glyph glyph-name="ohungarumlaut" unicode="&#x151;" 
d="M350 -10q-131 0 -204.5 60t-73.5 167v162q0 109 73.5 170t205.5 61q131 0 204 -62t73 -172v-162q0 -106 -73.5 -165t-204.5 -59zM350 115q56 0 82 26t26 83v149q0 58 -26 85t-82 27t-82 -27t-26 -84v-146q0 -59 26 -86t82 -27zM399 700l49 200h175l-132 -200h-92z
M169 700l49 200h175l-132 -200h-92z" />
    <glyph glyph-name="OE" unicode="&#x152;" 
d="M276 0q-119 0 -185.5 79t-66.5 211v222q0 131 67 209.5t186 78.5h409v-122h-201v-184h166v-122h-166v-250h201v-122h-410zM291 129h48v542h-48q-69 0 -95 -44t-26 -129v-194q0 -85 26 -130t95 -45z" />
    <glyph glyph-name="oe" unicode="&#x153;" 
d="M672 147q-15 -88 -59.5 -122.5t-122.5 -34.5q-47 0 -85.5 18t-60.5 53q-22 -36 -56 -53.5t-76 -17.5q-77 0 -127 49t-50 150v218q0 103 50.5 153t127.5 50q41 0 75 -17.5t55 -53.5q23 36 60 53.5t82 17.5q78 0 129 -48t51 -148v-148h-248v-95q0 -35 14.5 -53t45.5 -18
q32 0 52.5 12t24.5 55zM417 432v-76h107v67q0 43 -12 62t-42 19q-28 0 -40.5 -17t-12.5 -55zM229 112q28 0 40.5 20.5t12.5 67.5v204q0 42 -12.5 63t-40.5 21t-40.5 -21.5t-12.5 -64.5v-202q0 -47 12.5 -67.5t40.5 -20.5z" />
    <glyph glyph-name="Racute" unicode="&#x154;" 
d="M235 420h130q64 0 89.5 21.5t25.5 75.5v57q0 51 -25.5 72.5t-89.5 21.5h-130v-248zM235 0h-170v800h322q131 0 193.5 -55.5t62.5 -162.5v-69q0 -87 -38.5 -139.5t-116.5 -71.5l178 -302h-180l-170 289h-81v-289zM262 900l115 200h220l-216 -200h-119z" />
    <glyph glyph-name="racute" unicode="&#x155;" 
d="M101 0v600h170v-107h30q22 62 68.5 89.5t110.5 27.5q75 0 116 -44.5t41 -125.5v-105h-155v54q0 42 -18.5 65t-62.5 23q-38 0 -71.5 -18t-58.5 -60v-399h-170zM252 700l115 200h220l-216 -200h-119z" />
    <glyph glyph-name="Rcommaaccent" unicode="&#x156;" 
d="M235 420h130q64 0 89.5 21.5t25.5 75.5v57q0 51 -25.5 72.5t-89.5 21.5h-130v-248zM235 0h-170v800h322q131 0 193.5 -55.5t62.5 -162.5v-69q0 -87 -38.5 -139.5t-116.5 -71.5l178 -302h-180l-170 289h-81v-289zM173 -300l75 200h220l-176 -200h-119z" />
    <glyph glyph-name="rcommaaccent" unicode="&#x157;" 
d="M101 0v600h170v-107h30q22 62 68.5 89.5t110.5 27.5q75 0 116 -44.5t41 -125.5v-105h-155v54q0 42 -18.5 65t-62.5 23q-38 0 -71.5 -18t-58.5 -60v-399h-170zM32 -300l75 200h220l-176 -200h-119z" />
    <glyph glyph-name="Rcaron" unicode="&#x158;" 
d="M235 420h130q64 0 89.5 21.5t25.5 75.5v57q0 51 -25.5 72.5t-89.5 21.5h-130v-248zM235 0h-170v800h322q131 0 193.5 -55.5t62.5 -162.5v-69q0 -87 -38.5 -139.5t-116.5 -71.5l178 -302h-180l-170 289h-81v-289zM278 904l-183 156l54 77l193 -108l190 109l55 -78
l-181 -156h-128z" />
    <glyph glyph-name="rcaron" unicode="&#x159;" 
d="M101 0v600h170v-107h30q22 62 68.5 89.5t110.5 27.5q75 0 116 -44.5t41 -125.5v-105h-155v54q0 42 -18.5 65t-62.5 23q-38 0 -71.5 -18t-58.5 -60v-399h-170zM317 704l-183 156l54 77l193 -108l190 109l55 -78l-181 -156h-128z" />
    <glyph glyph-name="Sacute" unicode="&#x15a;" 
d="M348 -9q-95 0 -169.5 25.5t-133.5 71.5l53 125q54 -42 114.5 -66t138.5 -24q63 0 95 26t32 69q0 50 -35 71t-126 44q-140 34 -194.5 86t-54.5 151q0 105 71 171.5t205 66.5q76 0 150 -26.5t122 -66.5l-46 -120q-54 38 -109 59t-115 21q-53 0 -81 -21.5t-28 -64.5
q0 -42 32.5 -66t133.5 -49q137 -32 191 -85.5t54 -156.5q0 -116 -83 -178.5t-217 -62.5zM221 900l115 200h220l-216 -200h-119z" />
    <glyph glyph-name="sacute" unicode="&#x15b;" 
d="M353 -7q-78 0 -154 21t-133 60l45 107q57 -37 123 -56.5t123 -19.5q46 0 73 14.5t27 48.5q0 35 -26.5 50.5t-92.5 22.5q-122 13 -187 50.5t-65 124.5q0 91 70 142.5t182 51.5q64 0 131.5 -19.5t122.5 -54.5l-38 -102q-54 31 -107.5 47.5t-102.5 16.5q-41 0 -65 -15
t-24 -47q0 -35 32.5 -48.5t108.5 -23.5q117 -14 173.5 -56t56.5 -122q0 -92 -74 -142.5t-199 -50.5zM227 700l115 200h220l-216 -200h-119z" />
    <glyph glyph-name="Scircumflex" unicode="&#x15c;" 
d="M348 -9q-95 0 -169.5 25.5t-133.5 71.5l53 125q54 -42 114.5 -66t138.5 -24q63 0 95 26t32 69q0 50 -35 71t-126 44q-140 34 -194.5 86t-54.5 151q0 105 71 171.5t205 66.5q76 0 150 -26.5t122 -66.5l-46 -120q-54 38 -109 59t-115 21q-53 0 -81 -21.5t-28 -64.5
q0 -42 32.5 -66t133.5 -49q137 -32 191 -85.5t54 -156.5q0 -116 -83 -178.5t-217 -62.5zM158 890l-55 78l181 156h128l183 -156l-54 -77l-193 108z" />
    <glyph glyph-name="scircumflex" unicode="&#x15d;" 
d="M353 -7q-78 0 -154 21t-133 60l45 107q57 -37 123 -56.5t123 -19.5q46 0 73 14.5t27 48.5q0 35 -26.5 50.5t-92.5 22.5q-122 13 -187 50.5t-65 124.5q0 91 70 142.5t182 51.5q64 0 131.5 -19.5t122.5 -54.5l-38 -102q-54 31 -107.5 47.5t-102.5 16.5q-41 0 -65 -15
t-24 -47q0 -35 32.5 -48.5t108.5 -23.5q117 -14 173.5 -56t56.5 -122q0 -92 -74 -142.5t-199 -50.5zM157 690l-55 78l181 156h128l183 -156l-54 -77l-193 108z" />
    <glyph glyph-name="Scedilla" unicode="&#x15e;" 
d="M348 -9q-95 0 -169.5 25.5t-133.5 71.5l53 125q54 -42 114.5 -66t138.5 -24q63 0 95 26t32 69q0 50 -35 71t-126 44q-140 34 -194.5 86t-54.5 151q0 105 71 171.5t205 66.5q76 0 150 -26.5t122 -66.5l-46 -120q-54 38 -109 59t-115 21q-53 0 -81 -21.5t-28 -64.5
q0 -42 32.5 -66t133.5 -49q137 -32 191 -85.5t54 -156.5q0 -116 -83 -178.5t-217 -62.5zM319 0l20 42q73 -8 123 -36t50 -95q0 -72 -60 -103t-135 -31q-87 0 -142 29t-60 98l144 10q2 -19 13.5 -26.5t37.5 -7.5q28 0 42 11t14 45q0 28 -10 42.5t-37 21.5z" />
    <glyph glyph-name="scedilla" unicode="&#x15f;" 
d="M353 -7q-78 0 -154 21t-133 60l45 107q57 -37 123 -56.5t123 -19.5q46 0 73 14.5t27 48.5q0 35 -26.5 50.5t-92.5 22.5q-122 13 -187 50.5t-65 124.5q0 91 70 142.5t182 51.5q64 0 131.5 -19.5t122.5 -54.5l-38 -102q-54 31 -107.5 47.5t-102.5 16.5q-41 0 -65 -15
t-24 -47q0 -35 32.5 -48.5t108.5 -23.5q117 -14 173.5 -56t56.5 -122q0 -92 -74 -142.5t-199 -50.5zM311 0l20 42q73 -8 123 -36t50 -95q0 -72 -60 -103t-135 -31q-87 0 -142 29t-60 98l144 10q2 -19 13.5 -26.5t37.5 -7.5q28 0 42 11t14 45q0 28 -10 42.5t-37 21.5z" />
    <glyph glyph-name="Scaron" unicode="&#x160;" 
d="M348 -9q-95 0 -169.5 25.5t-133.5 71.5l53 125q54 -42 114.5 -66t138.5 -24q63 0 95 26t32 69q0 50 -35 71t-126 44q-140 34 -194.5 86t-54.5 151q0 105 71 171.5t205 66.5q76 0 150 -26.5t122 -66.5l-46 -120q-54 38 -109 59t-115 21q-53 0 -81 -21.5t-28 -64.5
q0 -42 32.5 -66t133.5 -49q137 -32 191 -85.5t54 -156.5q0 -116 -83 -178.5t-217 -62.5zM286 904l-183 156l54 77l193 -108l190 109l55 -78l-181 -156h-128z" />
    <glyph glyph-name="scaron" unicode="&#x161;" 
d="M353 -7q-78 0 -154 21t-133 60l45 107q57 -37 123 -56.5t123 -19.5q46 0 73 14.5t27 48.5q0 35 -26.5 50.5t-92.5 22.5q-122 13 -187 50.5t-65 124.5q0 91 70 142.5t182 51.5q64 0 131.5 -19.5t122.5 -54.5l-38 -102q-54 31 -107.5 47.5t-102.5 16.5q-41 0 -65 -15
t-24 -47q0 -35 32.5 -48.5t108.5 -23.5q117 -14 173.5 -56t56.5 -122q0 -92 -74 -142.5t-199 -50.5zM285 704l-183 156l54 77l193 -108l190 109l55 -78l-181 -156h-128z" />
    <glyph glyph-name="Tcedilla" unicode="&#x162;" 
d="M265 0v668h-229v132h628v-132h-229v-668h-170zM309 0l20 42q73 -8 123 -36t50 -95q0 -72 -60 -103t-135 -31q-87 0 -142 29t-60 98l144 10q2 -19 13.5 -26.5t37.5 -7.5q28 0 42 11t14 45q0 28 -10 42.5t-37 21.5z" />
    <glyph glyph-name="tcedilla" unicode="&#x163;" 
d="M457 -10q-117 0 -181 54.5t-64 158.5v272h-149v125h149v200h170v-200h232v-125h-232v-250q0 -57 26 -82.5t72 -25.5q28 0 59.5 4t63.5 16l20 -123q-24 -10 -68 -17t-98 -7zM370 0l20 42q73 -8 123 -36t50 -95q0 -72 -60 -103t-135 -31q-87 0 -142 29t-60 98l144 10
q2 -19 13.5 -26.5t37.5 -7.5q28 0 42 11t14 45q0 28 -10 42.5t-37 21.5z" />
    <glyph glyph-name="Tcaron" unicode="&#x164;" 
d="M265 0v668h-229v132h628v-132h-229v-668h-170zM287 904l-183 156l54 77l193 -108l190 109l55 -78l-181 -156h-128z" />
    <glyph glyph-name="tcaron" unicode="&#x165;" 
d="M457 -10q-117 0 -181 54.5t-64 158.5v272h-149v125h149v200h170v-200h232v-125h-232v-250q0 -57 26 -82.5t72 -25.5q28 0 59.5 4t63.5 16l20 -123q-24 -10 -68 -17t-98 -7zM478 705l60 295h217l-177 -295h-100z" />
    <glyph glyph-name="Tbar" unicode="&#x166;" 
d="M265 0v296h-172v111h172v261h-229v132h628v-132h-229v-261h172v-111h-172v-296h-170z" />
    <glyph glyph-name="tbar" unicode="&#x167;" 
d="M457 -10q-117 0 -181 54.5t-64 158.5v56h-123v111h123v105h-149v125h149v200h170v-200h232v-125h-232v-105h209v-111h-209v-34q0 -57 26 -82.5t72 -25.5q28 0 59.5 4t63.5 16l20 -123q-24 -10 -68 -17t-98 -7z" />
    <glyph glyph-name="Utilde" unicode="&#x168;" 
d="M350 -10q-146 0 -215.5 70.5t-69.5 216.5v523h170v-516q0 -88 26.5 -121.5t88.5 -33.5t88.5 33.5t26.5 121.5v516h170v-523q0 -146 -69.5 -216.5t-215.5 -70.5zM441 910q-44 0 -69.5 16t-42.5 34q-16 19 -30.5 34.5t-33.5 15.5q-17 0 -30 -15.5t-12 -64.5v-10h-112v15
q0 81 39.5 135t109.5 54q46 0 71.5 -15.5t42.5 -34.5t31 -35t31 -16t30 15.5t12 65.5v9h112v-15q0 -80 -39.5 -134t-109.5 -54z" />
    <glyph glyph-name="utilde" unicode="&#x169;" 
d="M247 -10q-74 0 -124.5 49t-50.5 139v422h170v-377q0 -49 20 -74t57 -25q35 0 70.5 24t68.5 67v385h170v-600h-170v107h-30q-25 -60 -77.5 -88.5t-103.5 -28.5zM441 710q-44 0 -69.5 16t-42.5 34q-16 19 -30.5 34.5t-33.5 15.5q-17 0 -30 -15.5t-12 -64.5v-10h-112v15
q0 81 39.5 135t109.5 54q46 0 71.5 -15.5t42.5 -34.5t31 -35t31 -16t30 15.5t12 65.5v9h112v-15q0 -80 -39.5 -134t-109.5 -54z" />
    <glyph glyph-name="Umacron" unicode="&#x16a;" 
d="M350 -10q-146 0 -215.5 70.5t-69.5 216.5v523h170v-516q0 -88 26.5 -121.5t88.5 -33.5t88.5 33.5t26.5 121.5v516h170v-523q0 -146 -69.5 -216.5t-215.5 -70.5zM132 934v132h436v-132h-436z" />
    <glyph glyph-name="umacron" unicode="&#x16b;" 
d="M247 -10q-74 0 -124.5 49t-50.5 139v422h170v-377q0 -49 20 -74t57 -25q35 0 70.5 24t68.5 67v385h170v-600h-170v107h-30q-25 -60 -77.5 -88.5t-103.5 -28.5zM132 734v132h436v-132h-436z" />
    <glyph glyph-name="Ubreve" unicode="&#x16c;" 
d="M350 -10q-146 0 -215.5 70.5t-69.5 216.5v523h170v-516q0 -88 26.5 -121.5t88.5 -33.5t88.5 33.5t26.5 121.5v516h170v-523q0 -146 -69.5 -216.5t-215.5 -70.5zM350 893q-124 0 -190 55.5t-67 175.5h142q1 -69 28 -96.5t87 -27.5t87 27.5t28 96.5h142q-1 -120 -67 -175.5
t-190 -55.5z" />
    <glyph glyph-name="ubreve" unicode="&#x16d;" 
d="M247 -10q-74 0 -124.5 49t-50.5 139v422h170v-377q0 -49 20 -74t57 -25q35 0 70.5 24t68.5 67v385h170v-600h-170v107h-30q-25 -60 -77.5 -88.5t-103.5 -28.5zM357 693q-124 0 -190 55.5t-67 175.5h142q1 -69 28 -96.5t87 -27.5t87 27.5t28 96.5h142q-1 -120 -67 -175.5
t-190 -55.5z" />
    <glyph glyph-name="Uring" unicode="&#x16e;" 
d="M350 -10q-146 0 -215.5 70.5t-69.5 216.5v523h170v-516q0 -88 26.5 -121.5t88.5 -33.5t88.5 33.5t26.5 121.5v516h170v-523q0 -146 -69.5 -216.5t-215.5 -70.5zM350 878q-87 0 -141 37t-54 115v32q0 78 54 116.5t141 38.5q88 0 141.5 -38.5t53.5 -116.5v-32
q0 -78 -54 -115t-141 -37zM350 963q37 0 56 15t19 52v32q0 36 -19 53t-56 17t-56 -17t-19 -53v-32q0 -37 19 -52t56 -15z" />
    <glyph glyph-name="uring" unicode="&#x16f;" 
d="M247 -10q-74 0 -124.5 49t-50.5 139v422h170v-377q0 -49 20 -74t57 -25q35 0 70.5 24t68.5 67v385h170v-600h-170v107h-30q-25 -60 -77.5 -88.5t-103.5 -28.5zM357 678q-87 0 -141 37t-54 115v32q0 78 54 116.5t141 38.5q88 0 141.5 -38.5t53.5 -116.5v-32
q0 -78 -54 -115t-141 -37zM357 763q37 0 56 15t19 52v32q0 36 -19 53t-56 17t-56 -17t-19 -53v-32q0 -37 19 -52t56 -15z" />
    <glyph glyph-name="Uhungarumlaut" unicode="&#x170;" 
d="M350 -10q-146 0 -215.5 70.5t-69.5 216.5v523h170v-516q0 -88 26.5 -121.5t88.5 -33.5t88.5 33.5t26.5 121.5v516h170v-523q0 -146 -69.5 -216.5t-215.5 -70.5zM416 900l49 200h175l-132 -200h-92zM186 900l49 200h175l-132 -200h-92z" />
    <glyph glyph-name="uhungarumlaut" unicode="&#x171;" 
d="M247 -10q-74 0 -124.5 49t-50.5 139v422h170v-377q0 -49 20 -74t57 -25q35 0 70.5 24t68.5 67v385h170v-600h-170v107h-30q-25 -60 -77.5 -88.5t-103.5 -28.5zM405 700l49 200h175l-132 -200h-92zM175 700l49 200h175l-132 -200h-92z" />
    <glyph glyph-name="Uogonek" unicode="&#x172;" 
d="M423 -221q-78 0 -125 31.5t-47 93.5q0 61 47.5 104.5t102.5 59.5l27 -45q-34 -21 -43 -41.5t-9 -39.5q0 -26 18 -39t56 -13q18 0 43 2.5t50 7.5v-109q-31 -6 -62 -9t-58 -3zM350 -10q-146 0 -215.5 70.5t-69.5 216.5v523h170v-516q0 -88 26.5 -121.5t88.5 -33.5
t88.5 33.5t26.5 121.5v516h170v-523q0 -146 -69.5 -216.5t-215.5 -70.5z" />
    <glyph glyph-name="uogonek" unicode="&#x173;" 
d="M572 -221q-78 0 -125 31.5t-47 93.5q0 61 47.5 104.5t102.5 59.5l27 -45q-34 -21 -43 -41.5t-9 -39.5q0 -26 18 -39t56 -13q18 0 43 2.5t50 7.5v-109q-31 -6 -62 -9t-58 -3zM247 -10q-74 0 -124.5 49t-50.5 139v422h170v-377q0 -49 20 -74t57 -25q35 0 70.5 24t68.5 67
v385h170v-600h-170v107h-30q-25 -60 -77.5 -88.5t-103.5 -28.5z" />
    <glyph glyph-name="Wcircumflex" unicode="&#x174;" 
d="M433 0l-81 390l-82 -390h-152l-104 800h148l47 -606l78 406h126l80 -395l47 595h147l-105 -800h-149zM159 890l-55 78l181 156h128l183 -156l-54 -77l-193 108z" />
    <glyph glyph-name="wcircumflex" unicode="&#x175;" 
d="M431 0l-81 317l-77 -317h-156l-99 600h147l56 -430l69 323h116l76 -313l53 420h147l-99 -600h-152zM166 690l-55 78l181 156h128l183 -156l-54 -77l-193 108z" />
    <glyph glyph-name="Ycircumflex" unicode="&#x176;" 
d="M435 0h-170v300l-251 500h173l164 -358l162 358h172l-250 -500v-300zM159 890l-55 78l181 156h128l183 -156l-54 -77l-193 108z" />
    <glyph glyph-name="ycircumflex" unicode="&#x177;" 
d="M188 -210q-31 0 -65 3t-74 8l12 125q39 -7 69 -11t53 -4q54 0 83.5 23.5t48.5 86.5l2 7h-100l-178 572h175l135 -466l143 466h168l-195 -595q-39 -119 -102 -167t-175 -48zM159 690l-55 78l181 156h128l183 -156l-54 -77l-193 108z" />
    <glyph glyph-name="Ydieresis" unicode="&#x178;" 
d="M435 0h-170v300l-251 500h173l164 -358l162 358h172l-250 -500v-300zM224 896q-39 0 -63.5 15.5t-24.5 54.5v13q0 40 24.5 56.5t63.5 16.5q40 0 64.5 -16.5t24.5 -56.5v-13q0 -39 -25 -54.5t-64 -15.5zM476 896q-40 0 -64.5 15.5t-24.5 54.5v13q0 40 24.5 56.5t64.5 16.5
t64 -16.5t24 -56.5v-13q0 -39 -25 -54.5t-63 -15.5z" />
    <glyph glyph-name="Zacute" unicode="&#x179;" 
d="M641 0h-582v132l401 536h-401v132h582v-132l-399 -536h399v-132zM252 900l115 200h220l-216 -200h-119z" />
    <glyph glyph-name="zacute" unicode="&#x17a;" 
d="M615 0h-530v125l348 350h-348v125h530v-125l-347 -350h347v-125zM257 700l115 200h220l-216 -200h-119z" />
    <glyph glyph-name="Zdotaccent" unicode="&#x17b;" 
d="M641 0h-582v132l401 536h-401v132h582v-132l-399 -536h399v-132zM350 896q-51 0 -83 15.5t-32 54.5v13q0 40 32 56.5t83 16.5t83 -16.5t32 -56.5v-13q0 -39 -32 -54.5t-83 -15.5z" />
    <glyph glyph-name="zdotaccent" unicode="&#x17c;" 
d="M615 0h-530v125l348 350h-348v125h530v-125l-347 -350h347v-125zM343 696q-51 0 -83 15.5t-32 54.5v13q0 40 32 56.5t83 16.5t83 -16.5t32 -56.5v-13q0 -39 -32 -54.5t-83 -15.5z" />
    <glyph glyph-name="Zcaron" unicode="&#x17d;" 
d="M641 0h-582v132l401 536h-401v132h582v-132l-399 -536h399v-132zM287 904l-183 156l54 77l193 -108l190 109l55 -78l-181 -156h-128z" />
    <glyph glyph-name="zcaron" unicode="&#x17e;" 
d="M615 0h-530v125l348 350h-348v125h530v-125l-347 -350h347v-125zM287 704l-183 156l54 77l193 -108l190 109l55 -78l-181 -156h-128z" />
    <glyph glyph-name="longs" unicode="&#x17f;" 
d="M265 0v475h-120v125h120v34q0 93 64.5 144.5t173.5 51.5q34 0 71.5 -6.5t69.5 -17.5l-20 -113q-27 9 -52 14t-48 5q-41 0 -65 -20.5t-24 -69.5v-622h-170z" />
    <glyph glyph-name="florin" unicode="&#x192;" 
d="M197 -5q-18 0 -37 1.5t-39 4.5q-19 2 -37.5 6.5t-34.5 10.5l20 114q15 -5 29 -8.5t27 -5.5q12 -3 24 -4t23 -1q24 0 41 5.5t28 16.5q12 12 17.5 30.5t5.5 45.5v185h-202v125h203v113q0 45 16.5 81.5t47.5 61.5q31 26 75 39.5t99 13.5q18 0 37 -1.5t38 -4.5
q19 -2 37.5 -6.5t34.5 -10.5l-20 -114q-14 5 -28 8.5t-27 5.5q-13 3 -25 4t-23 1q-23 0 -40.5 -5.5t-28.5 -17.5q-11 -11 -17 -30t-6 -45v-93h206v-125h-206v-205q0 -45 -16 -81.5t-47 -62.5q-31 -25 -75.5 -38.5t-99.5 -13.5z" />
    <glyph glyph-name="Aringacute" unicode="&#x1fa;" 
d="M437 327l-84 338l-90 -338h174zM519 0l-49 195h-242l-52 -195h-157l230 800h203l230 -800h-163zM350 878q-87 0 -141 37t-54 115v32q0 78 54 116.5t141 38.5q88 0 141.5 -38.5t53.5 -116.5v-32q0 -78 -54 -115t-141 -37zM350 963q37 0 56 15t19 52v32q0 36 -19 53t-56 17
t-56 -17t-19 -53v-32q0 -37 19 -52t56 -15zM289 1200l115 200h220l-216 -200h-119z" />
    <glyph glyph-name="aringacute" unicode="&#x1fb;" 
d="M282 100q37 0 70.5 11.5t62.5 33.5v97h-138q-34 0 -53 -15t-19 -59q0 -33 18 -50.5t59 -17.5zM241 -10q-84 0 -138 45t-54 129q0 83 57.5 127t151.5 44h157v73q0 44 -25.5 62.5t-74.5 18.5q-51 0 -75.5 -18t-36.5 -71l-140 25q21 101 79.5 143t177.5 42
q125 0 191.5 -48.5t66.5 -148.5v-232q0 -43 25 -53.5t74 -3.5v-121q-78 -17 -129.5 3t-67.5 87h-27q-31 -42 -87 -72.5t-125 -30.5zM330 678q-87 0 -141 37t-54 115v32q0 78 54 116.5t141 38.5q88 0 141.5 -38.5t53.5 -116.5v-32q0 -78 -54 -115t-141 -37zM330 763
q37 0 56 15t19 52v32q0 36 -19 53t-56 17t-56 -17t-19 -53v-32q0 -37 19 -52t56 -15zM255 1000l115 200h220l-216 -200h-119z" />
    <glyph glyph-name="AEacute" unicode="&#x1fc;" 
d="M305 678l-93 -361h127v361h-34zM339 195h-158l-50 -195h-124l215 800h461v-122h-198v-187h181v-122h-181v-247h198v-122h-344v195zM345 900l115 200h220l-216 -200h-119z" />
    <glyph glyph-name="aeacute" unicode="&#x1fd;" 
d="M677 150q-18 -79 -64 -119.5t-122 -40.5q-51 0 -88.5 22.5t-58.5 67.5h-27q-16 -41 -51.5 -65.5t-86.5 -24.5q-68 0 -112 43t-44 125q0 88 49 132.5t128 44.5h96v66q0 49 -15.5 70t-47.5 21q-30 0 -43.5 -17.5t-29.5 -68.5l-123 25q20 91 65 135t123 44q45 0 78.5 -17.5
t52.5 -57.5q24 37 61.5 56t82.5 19q78 0 127.5 -55t49.5 -169v-120h-252v-67q0 -48 14 -73.5t46 -25.5q29 0 45 16.5t24 53.5zM425 404v-48h127v43q0 56 -15 80.5t-47 24.5q-31 0 -48 -23.5t-17 -76.5zM296 139v106h-63q-34 0 -52.5 -17t-18.5 -60q0 -34 13 -52.5t41 -18.5
q22 0 41 11.5t39 30.5zM300 700l115 200h220l-216 -200h-119z" />
    <glyph glyph-name="Oslashacute" unicode="&#x1fe;" 
d="M222 222l180 451q-12 2 -24.5 3.5t-27.5 1.5q-75 0 -105 -38t-30 -128v-228q0 -19 1.5 -34t5.5 -28zM350 122q76 0 105.5 36.5t29.5 125.5v228q0 22 -2.5 40t-8.5 31l-181 -454q12 -4 26.5 -5.5t30.5 -1.5zM350 -10q-27 0 -51.5 3t-46.5 8l-41 -101h-128l61 153
q-42 36 -63.5 91t-21.5 126v256q0 135 74.5 209.5t217.5 74.5q25 0 48 -2.5t44 -6.5l40 99h128l-60 -149q45 -36 67.5 -93t22.5 -132v-256q0 -134 -74 -207t-217 -73zM255 900l115 200h220l-216 -200h-119z" />
    <glyph glyph-name="oslashacute" unicode="&#x1ff;" 
d="M221 228q0 -24 4 -42.5t12 -32.5l166 333q-11 3 -24.5 4.5t-28.5 1.5q-70 0 -99.5 -30t-29.5 -88v-146zM350 108q70 0 99.5 28.5t29.5 91.5v148q0 22 -4 39.5t-12 30.5l-167 -333q12 -2 25.5 -3.5t28.5 -1.5zM350 -10q-23 0 -47.5 2.5t-45.5 6.5l-50 -99h-114l68 136
q-45 28 -70.5 75.5t-25.5 105.5v162q0 110 77 170.5t209 60.5q22 0 46.5 -2.5t45.5 -6.5l50 99h114l-68 -136q45 -28 70.5 -76.5t25.5 -108.5v-162q0 -109 -77 -168t-208 -59zM257 700l115 200h220l-216 -200h-119z" />
    <glyph glyph-name="Scommaaccent" unicode="&#x218;" 
d="M348 -9q-95 0 -169.5 25.5t-133.5 71.5l53 125q54 -42 114.5 -66t138.5 -24q63 0 95 26t32 69q0 50 -35 71t-126 44q-140 34 -194.5 86t-54.5 151q0 105 71 171.5t205 66.5q76 0 150 -26.5t122 -66.5l-46 -120q-54 38 -109 59t-115 21q-53 0 -81 -21.5t-28 -64.5
q0 -42 32.5 -66t133.5 -49q137 -32 191 -85.5t54 -156.5q0 -116 -83 -178.5t-217 -62.5zM175 -300l75 200h220l-176 -200h-119z" />
    <glyph glyph-name="scommaaccent" unicode="&#x219;" 
d="M353 -7q-78 0 -154 21t-133 60l45 107q57 -37 123 -56.5t123 -19.5q46 0 73 14.5t27 48.5q0 35 -26.5 50.5t-92.5 22.5q-122 13 -187 50.5t-65 124.5q0 91 70 142.5t182 51.5q64 0 131.5 -19.5t122.5 -54.5l-38 -102q-54 31 -107.5 47.5t-102.5 16.5q-41 0 -65 -15
t-24 -47q0 -35 32.5 -48.5t108.5 -23.5q117 -14 173.5 -56t56.5 -122q0 -92 -74 -142.5t-199 -50.5zM182 -300l75 200h220l-176 -200h-119z" />
    <glyph glyph-name="Tcommaaccent" unicode="&#x21a;" 
d="M265 0v668h-229v132h628v-132h-229v-668h-170zM182 -300l75 200h220l-176 -200h-119z" />
    <glyph glyph-name="tcommaaccent" unicode="&#x21b;" 
d="M457 -10q-117 0 -181 54.5t-64 158.5v272h-149v125h149v200h170v-200h232v-125h-232v-250q0 -57 26 -82.5t72 -25.5q28 0 59.5 4t63.5 16l20 -123q-24 -10 -68 -17t-98 -7zM216 -300l75 200h220l-176 -200h-119z" />
    <glyph glyph-name="dotlessj" unicode="&#xf6be;" 
d="M244 -209q-44 0 -89 4.5t-89 17.5l20 117q39 -12 73.5 -16t65.5 -4q62 0 97.5 24t35.5 79v462h-258v125h428v-603q0 -99 -77 -152.5t-207 -53.5z" />
    <glyph glyph-name="dotlessj" unicode="&#x237;" 
d="M244 -209q-44 0 -89 4.5t-89 17.5l20 117q39 -12 73.5 -16t65.5 -4q62 0 97.5 24t35.5 79v462h-258v125h428v-603q0 -99 -77 -152.5t-207 -53.5z" />
    <glyph glyph-name="quoteleft" unicode="&#x2018;" 
d="M172 365l243 435h114l-100 -435h-257z" />
    <glyph glyph-name="quoteleft" unicode="&#x2bb;" 
d="M172 365l243 435h114l-100 -435h-257z" />
    <glyph glyph-name="circumflex" unicode="&#x2c6;" 
d="M159 690l-55 78l181 156h128l183 -156l-54 -77l-193 108z" />
    <glyph glyph-name="caron" unicode="&#x2c7;" 
d="M287 704l-183 156l54 77l193 -108l190 109l55 -78l-181 -156h-128z" />
    <glyph glyph-name="breve" unicode="&#x2d8;" 
d="M350 693q-124 0 -190 55.5t-67 175.5h142q1 -69 28 -96.5t87 -27.5t87 27.5t28 96.5h142q-1 -120 -67 -175.5t-190 -55.5z" />
    <glyph glyph-name="dotaccent" unicode="&#x2d9;" 
d="M350 696q-51 0 -83 15.5t-32 54.5v13q0 40 32 56.5t83 16.5t83 -16.5t32 -56.5v-13q0 -39 -32 -54.5t-83 -15.5z" />
    <glyph glyph-name="ring" unicode="&#x2da;" 
d="M350 678q-87 0 -141 37t-54 115v32q0 78 54 116.5t141 38.5q88 0 141.5 -38.5t53.5 -116.5v-32q0 -78 -54 -115t-141 -37zM350 763q37 0 56 15t19 52v32q0 36 -19 53t-56 17t-56 -17t-19 -53v-32q0 -37 19 -52t56 -15z" />
    <glyph glyph-name="ogonek" unicode="&#x2db;" 
d="M378 -221q-78 0 -125 31.5t-47 93.5q0 61 47.5 104.5t102.5 59.5l27 -45q-34 -21 -43 -41.5t-9 -39.5q0 -26 18 -39t56 -13q18 0 43 2.5t50 7.5v-109q-31 -6 -62 -9t-58 -3z" />
    <glyph glyph-name="tilde" unicode="&#x2dc;" 
d="M441 710q-44 0 -69.5 16t-42.5 34q-16 19 -30.5 34.5t-33.5 15.5q-17 0 -30 -15.5t-12 -64.5v-10h-112v15q0 81 39.5 135t109.5 54q46 0 71.5 -15.5t42.5 -34.5t31 -35t31 -16t30 15.5t12 65.5v9h112v-15q0 -80 -39.5 -134t-109.5 -54z" />
    <glyph glyph-name="hungarumlaut" unicode="&#x2dd;" 
d="M398 700l49 200h175l-132 -200h-92zM168 700l49 200h175l-132 -200h-92z" />
    <glyph glyph-name="gravecmb" unicode="&#x300;" horiz-adv-x="0" 
d="M-13 700l-216 200h220l115 -200h-119z" />
    <glyph glyph-name="acutecmb" unicode="&#x301;" horiz-adv-x="0" 
d="M-128 700l115 200h220l-216 -200h-119z" />
    <glyph glyph-name="circumflexcmb" unicode="&#x302;" horiz-adv-x="0" 
d="M-191 690l-55 78l181 156h128l183 -156l-54 -77l-193 108z" />
    <glyph glyph-name="tildecmb" unicode="&#x303;" horiz-adv-x="0" 
d="M91 710q-44 0 -69.5 16t-42.5 34q-16 19 -30.5 34.5t-33.5 15.5q-17 0 -30 -15.5t-12 -64.5v-10h-112v15q0 81 39.5 135t109.5 54q46 0 71.5 -15.5t42.5 -34.5t31 -35t31 -16t30 15.5t12 65.5v9h112v-15q0 -80 -39.5 -134t-109.5 -54z" />
    <glyph glyph-name="macroncmb" unicode="&#x304;" horiz-adv-x="0" 
d="M-218 734v132h436v-132h-436z" />
    <glyph glyph-name="brevecmb" unicode="&#x306;" horiz-adv-x="0" 
d="M0 693q-124 0 -190 55.5t-67 175.5h142q1 -69 28 -96.5t87 -27.5t87 27.5t28 96.5h142q-1 -120 -67 -175.5t-190 -55.5z" />
    <glyph glyph-name="dotaccentcmb" unicode="&#x307;" horiz-adv-x="0" 
d="M0 696q-51 0 -83 15.5t-32 54.5v13q0 40 32 56.5t83 16.5t83 -16.5t32 -56.5v-13q0 -39 -32 -54.5t-83 -15.5z" />
    <glyph glyph-name="dieresiscmb" unicode="&#x308;" horiz-adv-x="0" 
d="M-126 696q-39 0 -63.5 15.5t-24.5 54.5v13q0 40 24.5 56.5t63.5 16.5q40 0 64.5 -16.5t24.5 -56.5v-13q0 -39 -25 -54.5t-64 -15.5zM126 696q-40 0 -64.5 15.5t-24.5 54.5v13q0 40 24.5 56.5t64.5 16.5t64 -16.5t24 -56.5v-13q0 -39 -25 -54.5t-63 -15.5z" />
    <glyph glyph-name="ringcmb" unicode="&#x30a;" horiz-adv-x="0" 
d="M0 678q-87 0 -141 37t-54 115v32q0 78 54 116.5t141 38.5q88 0 141.5 -38.5t53.5 -116.5v-32q0 -78 -54 -115t-141 -37zM0 763q37 0 56 15t19 52v32q0 36 -19 53t-56 17t-56 -17t-19 -53v-32q0 -37 19 -52t56 -15z" />
    <glyph glyph-name="hungarumlautcmb" unicode="&#x30b;" horiz-adv-x="0" 
d="M48 700l49 200h175l-132 -200h-92zM-182 700l49 200h175l-132 -200h-92z" />
    <glyph glyph-name="caroncmb" unicode="&#x30c;" horiz-adv-x="0" 
d="M-63 704l-183 156l54 77l193 -108l190 109l55 -78l-181 -156h-128z" />
    <glyph glyph-name="commaturnedabovecmb" unicode="&#x312;" horiz-adv-x="0" 
d="M-148 700l176 200h119l-75 -200h-220z" />
    <glyph glyph-name="commaaccentcmb" unicode="&#x326;" horiz-adv-x="0" 
d="M-155 -300l75 200h220l-176 -200h-119z" />
    <glyph glyph-name="cedillacmb" unicode="&#x327;" horiz-adv-x="0" 
d="M-30 0l20 42q73 -8 123 -36t50 -95q0 -72 -60 -103t-135 -31q-87 0 -142 29t-60 98l144 10q2 -19 13.5 -26.5t37.5 -7.5q28 0 42 11t14 45q0 28 -10 42.5t-37 21.5z" />
    <glyph glyph-name="ogonekcmb" unicode="&#x328;" horiz-adv-x="0" 
d="M28 -221q-78 0 -125 31.5t-47 93.5q0 61 47.5 104.5t102.5 59.5l27 -45q-34 -21 -43 -41.5t-9 -39.5q0 -26 18 -39t56 -13q18 0 43 2.5t50 7.5v-109q-31 -6 -62 -9t-58 -3z" />
    <glyph glyph-name="tonos" unicode="&#x384;" 
d="M262 700l55 200h210l-156 -200h-109z" />
    <glyph glyph-name="dieresistonos" unicode="&#x385;" 
d="M268 700l46 200h156l-105 -200h-97zM140 693q-34 0 -56 15.5t-22 54.5v13q0 40 22 56.5t56 16.5q35 0 56.5 -16.5t21.5 -56.5v-13q0 -39 -22 -54.5t-56 -15.5zM560 693q-34 0 -56 15.5t-22 54.5v13q0 40 22 56.5t56 16.5q35 0 56.5 -16.5t21.5 -56.5v-13q0 -39 -22 -54.5
t-56 -15.5z" />
    <glyph glyph-name="Alphatonos" unicode="&#x386;" 
d="M437 327l-84 338l-90 -338h174zM519 0l-49 195h-242l-52 -195h-157l230 800h203l230 -800h-163zM-15 700l55 200h210l-156 -200h-109z" />
    <glyph glyph-name="anoteleia" unicode="&#x387;" 
d="M351 259q-63 0 -101 27t-38 78v70q0 51 38 79.5t101 28.5q62 0 100 -28.5t38 -79.5v-70q0 -51 -39 -78t-99 -27z" />
    <glyph glyph-name="Epsilontonos" unicode="&#x388;" 
d="M65 0v800h576v-132h-406v-174h356v-132h-356v-230h406v-132h-576zM-162 700l55 200h210l-156 -200h-109z" />
    <glyph glyph-name="Etatonos" unicode="&#x389;" 
d="M65 0v800h170v-292h230v292h170v-800h-170v376h-230v-376h-170zM-179 700l55 200h210l-156 -200h-109z" />
    <glyph glyph-name="Iotatonos" unicode="&#x38a;" 
d="M65 0v132h200v536h-200v132h570v-132h-200v-536h200v-132h-570zM-179 700l55 200h210l-156 -200h-109z" />
    <glyph glyph-name="Omicrontonos" unicode="&#x38c;" 
d="M352 -10q-143 0 -217 69.5t-74 196.5v284q0 128 74.5 199t217.5 71t216.5 -71t73.5 -199v-284q0 -127 -74 -196.5t-217 -69.5zM352 122q65 0 93 33.5t28 114.5v256q0 81 -28 116.5t-93 35.5t-93 -35.5t-28 -116.5v-256q0 -81 28 -114.5t93 -33.5zM-69 700l55 200h210
l-156 -200h-109z" />
    <glyph glyph-name="Upsilontonos" unicode="&#x38e;" 
d="M435 0h-170v300l-251 500h173l164 -358l162 358h172l-250 -500v-300zM-188 700l55 200h210l-156 -200h-109z" />
    <glyph glyph-name="Omegatonos" unicode="&#x38f;" 
d="M314 0h-265v111h116v90q-58 27 -87 82t-29 128v115q0 139 77.5 211.5t223.5 72.5q147 0 224 -72.5t77 -211.5v-115q0 -73 -29 -128t-87 -82v-90h116v-111h-265v230q50 13 72.5 59.5t22.5 121.5v122q0 79 -32.5 112t-98.5 33t-98.5 -33t-32.5 -112v-122q0 -75 22.5 -121.5
t72.5 -59.5v-230zM-105 700l55 200h210l-156 -200h-109z" />
    <glyph glyph-name="iotadieresistonos" unicode="&#x390;" 
d="M488 -7q-109 0 -173 56.5t-64 148.5v277h-178v125h348v-375q0 -51 24.5 -76t68.5 -25q28 0 53.5 6t45.5 14l27 -122q-39 -14 -77 -21.5t-75 -7.5zM258 700l46 200h156l-105 -200h-97zM130 693q-34 0 -56 15.5t-22 54.5v13q0 40 22 56.5t56 16.5q35 0 56.5 -16.5
t21.5 -56.5v-13q0 -39 -22 -54.5t-56 -15.5zM550 693q-34 0 -56 15.5t-22 54.5v13q0 40 22 56.5t56 16.5q35 0 56.5 -16.5t21.5 -56.5v-13q0 -39 -22 -54.5t-56 -15.5z" />
    <glyph glyph-name="Alpha" unicode="&#x391;" 
d="M437 327l-84 338l-90 -338h174zM519 0l-49 195h-242l-52 -195h-157l230 800h203l230 -800h-163z" />
    <glyph glyph-name="Beta" unicode="&#x392;" 
d="M65 0v800h294q132 0 195 -46t63 -142v-37q0 -61 -28.5 -94t-87.5 -43v-29q67 -7 104 -47.5t37 -102.5v-50q0 -107 -69 -158t-214 -51h-294zM235 474h113q54 0 77.5 18.5t23.5 61.5v42q0 43 -23.5 61t-77.5 18h-113v-201zM235 125h116q66 0 93.5 21.5t27.5 72.5v46
q0 50 -27.5 71.5t-93.5 21.5h-116v-233z" />
    <glyph glyph-name="Gamma" unicode="&#x393;" 
d="M100 0v800h555v-132h-385v-668h-170z" />
    <glyph glyph-name="Delta" unicode="&#x394;" 
d="M33 0v132l204 668h231l199 -668v-132h-634zM505 132l-155 552l-162 -552h317z" />
    <glyph glyph-name="Epsilon" unicode="&#x395;" 
d="M65 0v800h576v-132h-406v-174h356v-132h-356v-230h406v-132h-576z" />
    <glyph glyph-name="Zeta" unicode="&#x396;" 
d="M641 0h-582v132l401 536h-401v132h582v-132l-399 -536h399v-132z" />
    <glyph glyph-name="Eta" unicode="&#x397;" 
d="M65 0v800h170v-292h230v292h170v-800h-170v376h-230v-376h-170z" />
    <glyph glyph-name="Theta" unicode="&#x398;" 
d="M350 -10q-145 0 -222.5 72.5t-77.5 207.5v256q0 137 78 210.5t223 73.5t222 -73.5t77 -210.5v-256q0 -135 -77 -207.5t-223 -72.5zM350 122q78 0 114.5 37.5t36.5 124.5v228q0 88 -36.5 127t-114.5 39t-114.5 -39t-36.5 -127v-228q0 -87 36.5 -124.5t114.5 -37.5z
M264 346v118h172v-118h-172z" />
    <glyph glyph-name="Iota" unicode="&#x399;" 
d="M65 0v132h200v536h-200v132h570v-132h-200v-536h200v-132h-570z" />
    <glyph glyph-name="Kappa" unicode="&#x39a;" 
d="M235 349v-349h-170v800h170v-319h38l226 319h178l-274 -369l271 -431h-177l-221 349h-41z" />
    <glyph glyph-name="Lambda" unicode="&#x39b;" 
d="M519 0l-166 665l-177 -665h-157l230 800h203l230 -800h-163z" />
    <glyph glyph-name="Mu" unicode="&#x39c;" 
d="M292 235l-109 314l16 -549h-150v800h170l134 -403l133 403h165v-800h-149l14 545l-107 -310h-117z" />
    <glyph glyph-name="Nu" unicode="&#x39d;" 
d="M429 0l-218 570v-570h-146v800h193l231 -604v604h146v-800h-206z" />
    <glyph glyph-name="Xi" unicode="&#x39e;" 
d="M59 668v132h582v-132h-582zM84 362v132h532v-132h-532zM59 0v132h582v-132h-582z" />
    <glyph glyph-name="Omicron" unicode="&#x39f;" 
d="M350 -10q-143 0 -217 69.5t-74 196.5v284q0 128 74.5 199t217.5 71t216.5 -71t73.5 -199v-284q0 -127 -74 -196.5t-217 -69.5zM350 122q65 0 93 33.5t28 114.5v256q0 81 -28 116.5t-93 35.5t-93 -35.5t-28 -116.5v-256q0 -81 28 -114.5t93 -33.5z" />
    <glyph glyph-name="Pi" unicode="&#x3a0;" 
d="M65 0v800h570v-800h-170v668h-230v-668h-170z" />
    <glyph glyph-name="Rho" unicode="&#x3a1;" 
d="M65 0v800h303q131 0 203.5 -54.5t72.5 -169.5v-107q0 -111 -72 -163.5t-204 -52.5h-133v-253h-170zM235 383h124q59 0 87 21t28 78v84q0 59 -28 80.5t-87 21.5h-124v-285z" />
    <glyph glyph-name="Sigma" unicode="&#x3a3;" 
d="M620 0h-550v132l314 278l-314 258v132h550v-132h-369l249 -199v-106l-261 -231h381v-132z" />
    <glyph glyph-name="Tau" unicode="&#x3a4;" 
d="M265 0v668h-229v132h628v-132h-229v-668h-170z" />
    <glyph glyph-name="Upsilon" unicode="&#x3a5;" 
d="M435 0h-170v300l-251 500h173l164 -358l162 358h172l-250 -500v-300z" />
    <glyph glyph-name="Phi" unicode="&#x3a6;" 
d="M435 90h-15v-100h-141v100h-14q-110 0 -167 71t-57 196v82q0 127 57.5 199t167.5 72h13v100h141v-100h15q110 0 167 -72t57 -199v-82q0 -125 -57 -196t-167 -71zM442 585h-27v-370h27q40 0 56.5 36t16.5 106v82q0 70 -16.5 108t-56.5 38zM262 215h22v370h-22
q-44 0 -61 -38t-17 -108v-82q0 -70 17 -106t61 -36z" />
    <glyph glyph-name="Chi" unicode="&#x3a7;" 
d="M505 0l-158 273l-155 -273h-169l247 411l-222 389h177l142 -248l142 248h169l-235 -388l232 -412h-170z" />
    <glyph glyph-name="Psi" unicode="&#x3a8;" 
d="M421 0h-142v188q-113 16 -170.5 85.5t-57.5 183.5v343h142v-336q0 -66 20 -101.5t66 -42.5v480h142v-480q46 7 66.5 42.5t20.5 101.5v336h141v-343q0 -114 -57.5 -183.5t-170.5 -85.5v-188z" />
    <glyph glyph-name="Omega" unicode="&#x3a9;" 
d="M314 0h-265v111h116v90q-58 27 -87 82t-29 128v115q0 139 77.5 211.5t223.5 72.5q147 0 224 -72.5t77 -211.5v-115q0 -73 -29 -128t-87 -82v-90h116v-111h-265v230q50 13 72.5 59.5t22.5 121.5v122q0 79 -32.5 112t-98.5 33t-98.5 -33t-32.5 -112v-122q0 -75 22.5 -121.5
t72.5 -59.5v-230z" />
    <glyph glyph-name="Iotadieresis" unicode="&#x3aa;" 
d="M65 0v132h200v536h-200v132h570v-132h-200v-536h200v-132h-570zM224 896q-39 0 -63.5 15.5t-24.5 54.5v13q0 40 24.5 56.5t63.5 16.5q40 0 64.5 -16.5t24.5 -56.5v-13q0 -39 -25 -54.5t-64 -15.5zM476 896q-40 0 -64.5 15.5t-24.5 54.5v13q0 40 24.5 56.5t64.5 16.5
t64 -16.5t24 -56.5v-13q0 -39 -25 -54.5t-63 -15.5z" />
    <glyph glyph-name="Upsilondieresis" unicode="&#x3ab;" 
d="M435 0h-170v300l-251 500h173l164 -358l162 358h172l-250 -500v-300zM224 896q-39 0 -63.5 15.5t-24.5 54.5v13q0 40 24.5 56.5t63.5 16.5q40 0 64.5 -16.5t24.5 -56.5v-13q0 -39 -25 -54.5t-64 -15.5zM476 896q-40 0 -64.5 15.5t-24.5 54.5v13q0 40 24.5 56.5t64.5 16.5
t64 -16.5t24 -56.5v-13q0 -39 -25 -54.5t-63 -15.5z" />
    <glyph glyph-name="alphatonos" unicode="&#x3ac;" 
d="M314 124q29 0 55.5 17.5t51.5 49.5v220q-27 31 -53 49t-57 18q-33 0 -52 -26t-19 -79v-149q0 -53 19.5 -76.5t54.5 -23.5zM476 125h-30q-28 -65 -78.5 -99.5t-117.5 -34.5q-83 0 -132 55.5t-49 152.5v189q0 99 47 161t120 62q54 0 92 -29t63 -88h30v106h170v-405
q0 -49 18 -63t61 -8v-121q-84 -18 -131 10.5t-63 111.5zM326 700l55 200h210l-156 -200h-109z" />
    <glyph glyph-name="epsilontonos" unicode="&#x3ad;" 
d="M360 -10q-150 0 -222 41t-72 128v17q0 48 39 83t117 40v22q-64 4 -101 32t-37 77v21q0 84 72.5 121.5t203.5 37.5q130 0 195.5 -46.5t72.5 -147.5l-155 -8q-5 50 -29.5 72t-83.5 22q-58 0 -82 -15t-24 -49v-14q0 -37 24 -50t81 -13h56v-94h-56q-75 0 -99 -18.5t-24 -55.5
v-10q0 -38 25.5 -58t98.5 -20q79 0 102 24.5t29 73.5l155 -7q-7 -103 -68 -154.5t-218 -51.5zM276 700l55 200h210l-156 -200h-109z" />
    <glyph glyph-name="etatonos" unicode="&#x3ae;" 
d="M458 -200v597q0 40 -20 60t-57 20q-35 0 -71.5 -19.5t-67.5 -58.5v-399h-170v600h170v-107h30q23 54 73.5 85.5t116.5 31.5q78 0 122 -48t44 -133v-629h-170zM318 700l55 200h210l-156 -200h-109z" />
    <glyph glyph-name="iotatonos" unicode="&#x3af;" 
d="M488 -7q-109 0 -173 56.5t-64 148.5v277h-178v125h348v-375q0 -51 24.5 -76t68.5 -25q28 0 53.5 6t45.5 14l27 -122q-39 -14 -77 -21.5t-75 -7.5zM264 700l55 200h210l-156 -200h-109z" />
    <glyph glyph-name="upsilondieresistonos" unicode="&#x3b0;" 
d="M351 -10q-133 0 -206 66t-73 185v359h170v-354q0 -66 25.5 -95t82.5 -29t82.5 29t25.5 93v356h170v-359q0 -119 -72.5 -185t-204.5 -66zM268 700l46 200h156l-105 -200h-97zM140 693q-34 0 -56 15.5t-22 54.5v13q0 40 22 56.5t56 16.5q35 0 56.5 -16.5t21.5 -56.5v-13
q0 -39 -22 -54.5t-56 -15.5zM560 693q-34 0 -56 15.5t-22 54.5v13q0 40 22 56.5t56 16.5q35 0 56.5 -16.5t21.5 -56.5v-13q0 -39 -22 -54.5t-56 -15.5z" />
    <glyph glyph-name="alpha" unicode="&#x3b1;" 
d="M314 124q29 0 55.5 17.5t51.5 49.5v220q-27 31 -53 49t-57 18q-33 0 -52 -26t-19 -79v-149q0 -53 19.5 -76.5t54.5 -23.5zM476 125h-30q-28 -65 -78.5 -99.5t-117.5 -34.5q-83 0 -132 55.5t-49 152.5v189q0 99 47 161t120 62q54 0 92 -29t63 -88h30v106h170v-405
q0 -49 18 -63t61 -8v-121q-84 -18 -131 10.5t-63 111.5z" />
    <glyph glyph-name="beta" unicode="&#x3b2;" 
d="M347 120q46 0 77.5 26t31.5 89v28q0 63 -29 87.5t-84 24.5h-36v102h30q46 0 68.5 20t22.5 66v18q0 52 -23 74.5t-71 22.5q-49 0 -70.5 -28t-21.5 -88v-411q23 -15 48.5 -23t56.5 -8zM377 -10q-37 0 -71.5 6t-63.5 16v-212h-170v773q0 116 70.5 176.5t191.5 60.5
q119 0 190.5 -52.5t71.5 -144.5v-19q0 -58 -36 -95.5t-108 -50.5v-29q82 -8 128.5 -53t47.5 -117v-37q0 -108 -71 -165t-180 -57z" />
    <glyph glyph-name="gamma" unicode="&#x3b3;" 
d="M452 -200h-204l17 220l-226 580h173l139 -441l138 441h171l-225 -580z" />
    <glyph glyph-name="delta" unicode="&#x3b4;" 
d="M350 -10q-131 0 -204.5 58t-73.5 169v92q0 57 32.5 99.5t101.5 71.5q-57 27 -80.5 59t-23.5 82q0 93 62 136t183 43h199v-125h-199q-41 0 -61.5 -10.5t-20.5 -43.5q0 -24 26.5 -40t124.5 -49q116 -39 164 -87.5t48 -139.5v-88q0 -111 -73.5 -169t-204.5 -58zM350 115
q54 0 81 24t27 78v88q0 51 -28 77.5t-115 55.5q-34 -19 -53.5 -50t-19.5 -79v-92q0 -54 27.5 -78t80.5 -24z" />
    <glyph glyph-name="epsilon" unicode="&#x3b5;" 
d="M360 -10q-150 0 -222 41t-72 128v17q0 48 39 83t117 40v22q-64 4 -101 32t-37 77v21q0 84 72.5 121.5t203.5 37.5q130 0 195.5 -46.5t72.5 -147.5l-155 -8q-5 50 -29.5 72t-83.5 22q-58 0 -82 -15t-24 -49v-14q0 -37 24 -50t81 -13h56v-94h-56q-75 0 -99 -18.5t-24 -55.5
v-10q0 -38 25.5 -58t98.5 -20q79 0 102 24.5t29 73.5l155 -7q-7 -103 -68 -154.5t-218 -51.5z" />
    <glyph glyph-name="zeta" unicode="&#x3b6;" 
d="M403 -200h-131v118h132q34 0 53.5 11.5t19.5 46.5q0 37 -19.5 49.5t-53.5 12.5h-71q-133 0 -197.5 58t-64.5 160q0 80 32.5 134t98.5 124l98 107l-5 15q-96 -22 -165 20.5t-111 137.5l96 54q41 -75 107 -99t173 1l201 79l29 -157l-175 -31l-126 -166q-40 -55 -61.5 -98.5
t-21.5 -105.5q0 -56 22.5 -85.5t69.5 -29.5h91q96 0 150 -43t54 -131q0 -91 -60.5 -136.5t-164.5 -45.5z" />
    <glyph glyph-name="eta" unicode="&#x3b7;" 
d="M458 -200v597q0 40 -20 60t-57 20q-35 0 -71.5 -19.5t-67.5 -58.5v-399h-170v600h170v-107h30q23 54 73.5 85.5t116.5 31.5q78 0 122 -48t44 -133v-629h-170z" />
    <glyph glyph-name="theta" unicode="&#x3b8;" 
d="M350 -10q-127 0 -202.5 60t-75.5 167v362q0 110 75.5 170.5t203.5 60.5q127 0 202 -60.5t75 -170.5v-362q0 -107 -75.5 -167t-202.5 -60zM235 574v-113h230v115q0 54 -26.5 81.5t-88.5 27.5t-88.5 -28.5t-26.5 -82.5zM350 115q62 0 88.5 27t26.5 86v122h-230v-122
q0 -59 26.5 -86t88.5 -27z" />
    <glyph glyph-name="iota" unicode="&#x3b9;" 
d="M488 -7q-109 0 -173 56.5t-64 148.5v277h-178v125h348v-375q0 -51 24.5 -76t68.5 -25q28 0 53.5 6t45.5 14l27 -122q-39 -14 -77 -21.5t-75 -7.5z" />
    <glyph glyph-name="kappa" unicode="&#x3ba;" 
d="M264 253v-253h-170v600h170v-230h41l165 230h180l-204 -272l201 -328h-183l-159 253h-41z" />
    <glyph glyph-name="lambda" unicode="&#x3bb;" 
d="M487 0l-142 465l-136 -465h-170l165 537h119l-8 25q-20 65 -52.5 92t-96.5 27q-17 0 -38 -1.5t-46 -5.5l-19 125q30 3 58.5 5t54.5 2q116 0 181.5 -42.5t99.5 -146.5l203 -617h-173z" />
    <glyph glyph-name="mu" unicode="&#x3bc;" 
d="M249 20l10 -220h-190l10 220v580h170v-383q0 -49 22.5 -69.5t53.5 -20.5q32 0 55 14t45 40v419h170v-405q0 -49 16 -62.5t56 -8.5v-121q-70 -15 -109.5 4.5t-60.5 78.5h-27q-16 -38 -47.5 -67t-82.5 -29q-31 0 -53 10.5t-38 32.5v-13z" />
    <glyph glyph-name="nu" unicode="&#x3bd;" 
d="M437 0h-175l-223 600h172l157 -454q54 110 85 231.5t39 222.5h168q-19 -169 -80 -320t-143 -280z" />
    <glyph glyph-name="xi" unicode="&#x3be;" 
d="M634 -18q0 -90 -59 -136t-173 -46h-117v118h118q37 0 58.5 11.5t21.5 46.5q0 37 -21.5 49.5t-58.5 12.5h-84q-112 0 -176 48.5t-64 134.5v20q0 59 44 103t133 51v23q-57 0 -87 29t-30 69t28 68t82 38v23q-93 -1 -151.5 38t-86.5 111l96 54q40 -69 105.5 -92t166.5 -3
l208 76l29 -157l-218 -35l-37 -21q-27 -15 -39.5 -37.5t-12.5 -52.5q0 -34 16.5 -48t41.5 -14h177v-118h-182q-60 0 -86.5 -26t-26.5 -64v-20q0 -36 27 -58t85 -22h62q104 0 157.5 -43t53.5 -131z" />
    <glyph glyph-name="omicron" unicode="&#x3bf;" 
d="M350 -10q-131 0 -204.5 60t-73.5 167v162q0 109 73.5 170t205.5 61q131 0 204 -62t73 -172v-162q0 -106 -73.5 -165t-204.5 -59zM350 115q56 0 82 26t26 83v149q0 58 -26 85t-82 27t-82 -27t-26 -84v-146q0 -59 26 -86t82 -27z" />
    <glyph glyph-name="pi" unicode="&#x3c0;" 
d="M644 600v-125h-92v-280q0 -48 23 -63t83 -8v-121q-128 -22 -195 18t-67 140v314h-142v-475h-156v475h-79v125h625z" />
    <glyph glyph-name="rho" unicode="&#x3c1;" 
d="M373 124q42 0 63.5 26.5t21.5 78.5v151q0 54 -27 78.5t-78 24.5q-54 0 -82.5 -24.5t-28.5 -78.5v-190q34 -33 67 -49.5t64 -16.5zM72 -200v580q0 113 71 170t202 57q137 0 210 -57t73 -170v-175q0 -99 -54 -157t-144 -58q-60 0 -101 30.5t-57 86.5h-30v-307h-170z" />
    <glyph glyph-name="sigma1" unicode="&#x3c2;" 
d="M266 -200v125h132q34 0 53.5 10.5t19.5 43.5q0 35 -19.5 47t-53.5 12h-87q-117 0 -178 62t-61 175v102q0 111 72 172t209 61q130 0 191.5 -57.5t74.5 -165.5l-163 -13q-4 62 -28.5 86t-78.5 24q-59 0 -83 -26.5t-24 -88.5v-90q0 -63 23.5 -89.5t82.5 -26.5h92
q89 0 139 -45.5t50 -131.5q0 -88 -67 -137t-186 -49h-110z" />
    <glyph glyph-name="sigma" unicode="&#x3c3;" 
d="M330 115q47 0 67.5 24.5t20.5 81.5v153q0 54 -20.5 81t-67.5 27q-46 0 -67 -26.5t-21 -77.5v-157q0 -57 21 -81.5t67 -24.5zM330 -10q-119 0 -188.5 59t-69.5 168v159q0 106 70 165t189 59h369v-135l-160 11q24 -26 36 -62t12 -79v-118q0 -109 -69.5 -168t-188.5 -59z
" />
    <glyph glyph-name="tau" unicode="&#x3c4;" 
d="M555 3q-142 -25 -216 15.5t-74 142.5v307h-200v132h580v-132h-210v-273q0 -49 26 -64t94 -7v-121z" />
    <glyph glyph-name="upsilon" unicode="&#x3c5;" 
d="M351 -10q-133 0 -206 66t-73 185v359h170v-354q0 -66 25.5 -95t82.5 -29t82.5 29t25.5 93v356h170v-359q0 -119 -72.5 -185t-204.5 -66z" />
    <glyph glyph-name="phi" unicode="&#x3c6;" 
d="M420 -200h-140v196q-110 19 -173 99.5t-63 210.5v57q0 76 12 140t39 107l136 -32q-21 -38 -33.5 -93.5t-12.5 -121.5v-57q0 -87 26 -131.5t83 -57.5v483h95q123 0 195 -75t72 -213v-41q0 -116 -63 -187.5t-173 -88.5v-195zM406 478v-362q66 9 94.5 46t28.5 109v41
q0 87 -31.5 126.5t-91.5 39.5z" />
    <glyph glyph-name="chi" unicode="&#x3c7;" 
d="M456 -200l-117 241l-121 -241h-167l213 396l-196 404h169l120 -246l125 246h167l-217 -400l195 -400h-171z" />
    <glyph glyph-name="psi" unicode="&#x3c8;" 
d="M420 -200h-140v187q-119 15 -177.5 83t-58.5 181v349h142v-328q0 -69 23.5 -107t77.5 -50v485h126v-485q54 12 77.5 50t23.5 107v328h142v-349q0 -113 -58.5 -181t-177.5 -83v-187z" />
    <glyph glyph-name="omega" unicode="&#x3c9;" 
d="M193 -10q-67 0 -108 66t-41 192v123q0 75 12 135t36 111l137 -32q-19 -60 -31 -112.5t-12 -101.5v-123q0 -63 12 -94.5t36 -31.5q27 0 40 20.5t13 68.5v235h126v-235q0 -48 13.5 -68.5t40.5 -20.5q24 0 35.5 31.5t11.5 94.5v123q0 49 -12 101.5t-31 112.5l137 32
q24 -51 36 -111t12 -135v-123q0 -126 -41.5 -192t-111.5 -66q-47 0 -85.5 29t-56.5 104h-25q-12 -75 -53 -104t-90 -29z" />
    <glyph glyph-name="iotadieresis" unicode="&#x3ca;" 
d="M488 -7q-109 0 -173 56.5t-64 148.5v277h-178v125h348v-375q0 -51 24.5 -76t68.5 -25q28 0 53.5 6t45.5 14l27 -122q-39 -14 -77 -21.5t-75 -7.5zM219 696q-39 0 -63.5 15.5t-24.5 54.5v13q0 40 24.5 56.5t63.5 16.5q40 0 64.5 -16.5t24.5 -56.5v-13q0 -39 -25 -54.5
t-64 -15.5zM471 696q-40 0 -64.5 15.5t-24.5 54.5v13q0 40 24.5 56.5t64.5 16.5t64 -16.5t24 -56.5v-13q0 -39 -25 -54.5t-63 -15.5z" />
    <glyph glyph-name="upsilondieresis" unicode="&#x3cb;" 
d="M351 -10q-133 0 -206 66t-73 185v359h170v-354q0 -66 25.5 -95t82.5 -29t82.5 29t25.5 93v356h170v-359q0 -119 -72.5 -185t-204.5 -66zM224 696q-39 0 -63.5 15.5t-24.5 54.5v13q0 40 24.5 56.5t63.5 16.5q40 0 64.5 -16.5t24.5 -56.5v-13q0 -39 -25 -54.5t-64 -15.5z
M476 696q-40 0 -64.5 15.5t-24.5 54.5v13q0 40 24.5 56.5t64.5 16.5t64 -16.5t24 -56.5v-13q0 -39 -25 -54.5t-63 -15.5z" />
    <glyph glyph-name="omicrontonos" unicode="&#x3cc;" 
d="M350 -10q-131 0 -204.5 60t-73.5 167v162q0 109 73.5 170t205.5 61q131 0 204 -62t73 -172v-162q0 -106 -73.5 -165t-204.5 -59zM350 115q56 0 82 26t26 83v149q0 58 -26 85t-82 27t-82 -27t-26 -84v-146q0 -59 26 -86t82 -27zM262 700l55 200h210l-156 -200h-109z" />
    <glyph glyph-name="upsilontonos" unicode="&#x3cd;" 
d="M351 -10q-133 0 -206 66t-73 185v359h170v-354q0 -66 25.5 -95t82.5 -29t82.5 29t25.5 93v356h170v-359q0 -119 -72.5 -185t-204.5 -66zM255 700l55 200h210l-156 -200h-109z" />
    <glyph glyph-name="omegatonos" unicode="&#x3ce;" 
d="M193 -10q-67 0 -108 66t-41 192v123q0 75 12 135t36 111l137 -32q-19 -60 -31 -112.5t-12 -101.5v-123q0 -63 12 -94.5t36 -31.5q27 0 40 20.5t13 68.5v235h126v-235q0 -48 13.5 -68.5t40.5 -20.5q24 0 35.5 31.5t11.5 94.5v123q0 49 -12 101.5t-31 112.5l137 32
q24 -51 36 -111t12 -135v-123q0 -126 -41.5 -192t-111.5 -66q-47 0 -85.5 29t-56.5 104h-25q-12 -75 -53 -104t-90 -29zM269 700l55 200h210l-156 -200h-109z" />
    <glyph glyph-name="IEgravecyrillic" unicode="&#x400;" 
d="M65 0v800h576v-132h-406v-174h356v-132h-356v-230h406v-132h-576zM332 900l-216 200h220l115 -200h-119z" />
    <glyph glyph-name="Iocyrillic" unicode="&#x401;" 
d="M65 0v800h576v-132h-406v-174h356v-132h-356v-230h406v-132h-576zM240 896q-39 0 -63.5 15.5t-24.5 54.5v13q0 40 24.5 56.5t63.5 16.5q40 0 64.5 -16.5t24.5 -56.5v-13q0 -39 -25 -54.5t-64 -15.5zM492 896q-40 0 -64.5 15.5t-24.5 54.5v13q0 40 24.5 56.5t64.5 16.5
t64 -16.5t24 -56.5v-13q0 -39 -25 -54.5t-63 -15.5z" />
    <glyph glyph-name="Djecyrillic" unicode="&#x402;" 
d="M138 0v668h-122v132h472v-132h-180v-148h88q127 0 192.5 -56.5t65.5 -175.5v-58q0 -117 -65.5 -173.5t-192.5 -56.5v130q45 0 70 22.5t25 79.5v54q0 58 -25 81t-70 23h-88v-390h-170z" />
    <glyph glyph-name="Gjecyrillic" unicode="&#x403;" 
d="M100 0v800h555v-132h-385v-668h-170zM260 900l115 200h220l-216 -200h-119z" />
    <glyph glyph-name="Ecyrillic" unicode="&#x404;" 
d="M661 271q-7 -147 -78.5 -214t-222.5 -67q-149 0 -225 67t-76 199v284q0 134 76 202t226 68q149 0 221 -65.5t79 -219.5l-170 -10q-7 93 -33.5 128t-97.5 35t-101 -34.5t-30 -118.5v-31h173v-132h-173v-92q0 -81 30 -114.5t101 -33.5q72 0 98 33t33 126z" />
    <glyph glyph-name="Dzecyrillic" unicode="&#x405;" 
d="M348 -9q-95 0 -169.5 25.5t-133.5 71.5l53 125q54 -42 114.5 -66t138.5 -24q63 0 95 26t32 69q0 50 -35 71t-126 44q-140 34 -194.5 86t-54.5 151q0 105 71 171.5t205 66.5q76 0 150 -26.5t122 -66.5l-46 -120q-54 38 -109 59t-115 21q-53 0 -81 -21.5t-28 -64.5
q0 -42 32.5 -66t133.5 -49q137 -32 191 -85.5t54 -156.5q0 -116 -83 -178.5t-217 -62.5z" />
    <glyph glyph-name="Icyrillic" unicode="&#x406;" 
d="M65 0v132h200v536h-200v132h570v-132h-200v-536h200v-132h-570z" />
    <glyph glyph-name="Yicyrillic" unicode="&#x407;" 
d="M65 0v132h200v536h-200v132h570v-132h-200v-536h200v-132h-570zM224 896q-39 0 -63.5 15.5t-24.5 54.5v13q0 40 24.5 56.5t63.5 16.5q40 0 64.5 -16.5t24.5 -56.5v-13q0 -39 -25 -54.5t-64 -15.5zM476 896q-40 0 -64.5 15.5t-24.5 54.5v13q0 40 24.5 56.5t64.5 16.5
t64 -16.5t24 -56.5v-13q0 -39 -25 -54.5t-63 -15.5z" />
    <glyph glyph-name="Jecyrillic" unicode="&#x408;" 
d="M336 -10q-149 0 -219.5 68.5t-77.5 219.5l170 11q7 -101 33.5 -134t92.5 -33q60 0 88 32t28 113v401h-221v132h391v-540q0 -128 -69.5 -199t-215.5 -71z" />
    <glyph glyph-name="Ljecyrillic" unicode="&#x409;" 
d="M200 143q-1 -75 -39.5 -111.5t-106.5 -36.5q-17 -1 -35 2t-36 7l20 126q7 -2 15 -3.5t15 -0.5q14 -1 24.5 11t11.5 49l9 614h347v-253h54q85 0 131 -49t46 -139v-162q0 -94 -46.5 -145.5t-130.5 -51.5h-186v682h-86zM425 118h31q33 0 50.5 21.5t17.5 72.5v128
q0 49 -17.5 70t-50.5 21h-31v-313z" />
    <glyph glyph-name="Njecyrillic" unicode="&#x40a;" 
d="M425 118h34q32 0 48.5 21t16.5 73v128q0 50 -16.5 70.5t-48.5 20.5h-34v-313zM177 376v-376h-132v800h132v-292h116v292h132v-253h57q86 0 130 -47.5t44 -140.5v-162q0 -97 -44 -147t-130 -50h-189v376h-116z" />
    <glyph glyph-name="Tshecyrillic" unicode="&#x40b;" 
d="M305 0h-170v668h-122v132h479v-132h-187v-171h91q131 0 194.5 -55.5t63.5 -169.5v-272h-170v270q0 51 -21 74t-67 23h-91v-367z" />
    <glyph glyph-name="Kjecyrillic" unicode="&#x40c;" 
d="M235 349v-349h-170v800h170v-319h38l226 319h178l-274 -369l271 -431h-177l-221 349h-41zM291 900l115 200h220l-216 -200h-119z" />
    <glyph glyph-name="Igravecyrillic" unicode="&#x40d;" 
d="M486 0v569l-215 -569h-206v800h150v-602l227 602h193v-800h-149zM320 900l-216 200h220l115 -200h-119z" />
    <glyph glyph-name="Ushortcyrillic" unicode="&#x40e;" 
d="M181 -5q-31 0 -63.5 3.5t-65.5 10.5l17 132q32 -7 58.5 -10t48.5 -3q46 0 74.5 19.5t46.5 70.5l6 17h-65l-208 565h167l152 -432l154 432h166l-229 -618q-37 -98 -100.5 -142.5t-158.5 -44.5zM350 893q-100 0 -174 49.5t-73 171.5l149 10q-1 -66 20 -95t78 -29t78 29
t20 95l149 -10q1 -122 -73 -171.5t-174 -49.5z" />
    <glyph glyph-name="Dzhecyrillic" unicode="&#x40f;" 
d="M265 -150v150h-200v800h170v-668h230v668h170v-800h-200v-150h-170z" />
    <glyph glyph-name="Acyrillic" unicode="&#x410;" 
d="M437 327l-84 338l-90 -338h174zM519 0l-49 195h-242l-52 -195h-157l230 800h203l230 -800h-163z" />
    <glyph glyph-name="Becyrillic" unicode="&#x411;" 
d="M65 0v800h535v-132h-365v-173h149q128 0 196.5 -55.5t68.5 -158.5v-54q0 -110 -68 -168.5t-196 -58.5h-320zM235 132h129q63 0 89 25.5t26 76.5v32q0 50 -26 74.5t-89 24.5h-129v-233z" />
    <glyph glyph-name="Vecyrillic" unicode="&#x412;" 
d="M65 0v800h294q132 0 195 -46t63 -142v-37q0 -61 -28.5 -94t-87.5 -43v-29q67 -7 104 -47.5t37 -102.5v-50q0 -107 -69 -158t-214 -51h-294zM235 474h113q54 0 77.5 18.5t23.5 61.5v42q0 43 -23.5 61t-77.5 18h-113v-201zM235 125h116q66 0 93.5 21.5t27.5 72.5v46
q0 50 -27.5 71.5t-93.5 21.5h-116v-233z" />
    <glyph glyph-name="Gecyrillic" unicode="&#x413;" 
d="M100 0v800h555v-132h-385v-668h-170z" />
    <glyph glyph-name="Decyrillic" unicode="&#x414;" 
d="M236 153v-21h202v536h-156l-3 -364q-1 -53 -10 -91.5t-33 -59.5zM159 0v-150h-156v282h74q24 18 35.5 58t12.5 118l5 492h464v-668h86v-282h-156v150h-365z" />
    <glyph glyph-name="Iecyrillic" unicode="&#x415;" 
d="M65 0v800h576v-132h-406v-174h356v-132h-356v-230h406v-132h-576z" />
    <glyph glyph-name="Zhecyrillic" unicode="&#x416;" 
d="M245 357l-95 -357h-136l129 447l-131 353h137l101 -328h38v328h125v-328h38l100 328h137l-126 -358l125 -442h-137l-94 357h-43v-357h-125v357h-43z" />
    <glyph glyph-name="Zecyrillic" unicode="&#x417;" 
d="M349 -10q-149 0 -221 58t-79 180l170 10q7 -69 37 -93.5t92 -24.5q67 0 95 24t28 78v27q0 57 -29.5 81.5t-91.5 24.5h-107v130h107q53 0 77 17t24 60v32q0 47 -25 66.5t-79 19.5q-50 0 -75.5 -22t-32.5 -77l-170 10q7 112 74.5 165.5t196.5 53.5q144 0 212.5 -47
t68.5 -154v-22q0 -63 -40 -102.5t-110 -46.5v-29q81 -7 125.5 -53.5t44.5 -117.5v-20q0 -116 -67.5 -172t-224.5 -56z" />
    <glyph glyph-name="Iicyrillic" unicode="&#x418;" 
d="M486 0v569l-215 -569h-206v800h150v-602l227 602h193v-800h-149z" />
    <glyph glyph-name="Iishortcyrillic" unicode="&#x419;" 
d="M486 0v569l-215 -569h-206v800h150v-602l227 602h193v-800h-149zM353 893q-100 0 -174 49.5t-73 171.5l149 10q-1 -66 20 -95t78 -29t78 29t20 95l149 -10q1 -122 -73 -171.5t-174 -49.5z" />
    <glyph glyph-name="Kacyrillic" unicode="&#x41a;" 
d="M235 349v-349h-170v800h170v-319h38l226 319h178l-274 -369l271 -431h-177l-221 349h-41z" />
    <glyph glyph-name="Elcyrillic" unicode="&#x41b;" 
d="M465 0v668h-160l-2 -432q-1 -125 -53 -187t-151 -62q-24 0 -49 4.5t-50 11.5l19 133q14 -4 26.5 -7t24.5 -3q31 0 48 27t18 96l3 551h496v-800h-170z" />
    <glyph glyph-name="Emcyrillic" unicode="&#x41c;" 
d="M292 235l-109 314l16 -549h-150v800h170l134 -403l133 403h165v-800h-149l14 545l-107 -310h-117z" />
    <glyph glyph-name="Encyrillic" unicode="&#x41d;" 
d="M65 0v800h170v-292h230v292h170v-800h-170v376h-230v-376h-170z" />
    <glyph glyph-name="Ocyrillic" unicode="&#x41e;" 
d="M350 -10q-143 0 -217 69.5t-74 196.5v284q0 128 74.5 199t217.5 71t216.5 -71t73.5 -199v-284q0 -127 -74 -196.5t-217 -69.5zM350 122q65 0 93 33.5t28 114.5v256q0 81 -28 116.5t-93 35.5t-93 -35.5t-28 -116.5v-256q0 -81 28 -114.5t93 -33.5z" />
    <glyph glyph-name="Pecyrillic" unicode="&#x41f;" 
d="M65 0v800h570v-800h-170v668h-230v-668h-170z" />
    <glyph glyph-name="Ercyrillic" unicode="&#x420;" 
d="M65 0v800h303q131 0 203.5 -54.5t72.5 -169.5v-107q0 -111 -72 -163.5t-204 -52.5h-133v-253h-170zM235 383h124q59 0 87 21t28 78v84q0 59 -28 80.5t-87 21.5h-124v-285z" />
    <glyph glyph-name="Escyrillic" unicode="&#x421;" 
d="M360 -10q-151 0 -226 66.5t-75 199.5v284q0 135 75.5 202.5t226.5 67.5q152 0 222.5 -67t77.5 -218l-170 -10q-7 97 -33.5 130t-97.5 33t-101 -35t-30 -118v-255q0 -80 30 -114t101 -34q70 0 97 32t34 127l170 -10q-7 -149 -77.5 -215t-223.5 -66z" />
    <glyph glyph-name="Tecyrillic" unicode="&#x422;" 
d="M265 0v668h-229v132h628v-132h-229v-668h-170z" />
    <glyph glyph-name="Ucyrillic" unicode="&#x423;" 
d="M181 -5q-31 0 -63.5 3.5t-65.5 10.5l17 132q32 -7 58.5 -10t48.5 -3q46 0 74.5 19.5t46.5 70.5l6 17h-65l-208 565h167l152 -432l154 432h166l-229 -618q-37 -98 -100.5 -142.5t-158.5 -44.5z" />
    <glyph glyph-name="Efcyrillic" unicode="&#x424;" 
d="M435 90h-15v-100h-141v100h-14q-110 0 -167 71t-57 196v82q0 127 57.5 199t167.5 72h13v100h141v-100h15q110 0 167 -72t57 -199v-82q0 -125 -57 -196t-167 -71zM442 585h-27v-370h27q40 0 56.5 36t16.5 106v82q0 70 -16.5 108t-56.5 38zM262 215h22v370h-22
q-44 0 -61 -38t-17 -108v-82q0 -70 17 -106t61 -36z" />
    <glyph glyph-name="Khacyrillic" unicode="&#x425;" 
d="M505 0l-158 273l-155 -273h-169l247 411l-222 389h177l142 -248l142 248h169l-235 -388l232 -412h-170z" />
    <glyph glyph-name="Tsecyrillic" unicode="&#x426;" 
d="M515 -150v150h-450v800h170v-668h194v668h170v-668h86v-282h-170z" />
    <glyph glyph-name="Checyrillic" unicode="&#x427;" 
d="M632 800v-800h-170v259h-115q-148 0 -216.5 59t-68.5 187v295h170v-293q0 -61 27.5 -89.5t87.5 -28.5h115v411h170z" />
    <glyph glyph-name="Shacyrillic" unicode="&#x428;" 
d="M44 0v800h142v-676h95v676h137v-676h96v676h142v-800h-612z" />
    <glyph glyph-name="Shchacyrillic" unicode="&#x429;" 
d="M699 -185h-147v185h-508v800h142v-676h95v676h137v-676h96v676h142v-676h43v-309z" />
    <glyph glyph-name="Hardsigncyrillic" unicode="&#x42a;" 
d="M408 0h-257v668h-148v132h315v-253h90q125 0 187 -52t62 -157v-120q0 -110 -62 -164t-187 -54zM318 132h71q55 0 78.5 23.5t23.5 77.5v86q0 53 -23.5 75.5t-78.5 22.5h-71v-285z" />
    <glyph glyph-name="Yericyrillic" unicode="&#x42b;" 
d="M50 0v800h142v-253h33q107 0 159 -50t52 -152v-134q0 -107 -52 -159t-159 -52h-175zM508 0v800h142v-800h-142zM192 124h31q38 0 57 23t19 79v100q0 54 -19 76.5t-57 22.5h-31v-301z" />
    <glyph glyph-name="Softsigncyrillic" unicode="&#x42c;" 
d="M65 0v800h170v-253h154q137 0 206.5 -52.5t69.5 -156.5v-120q0 -108 -69.5 -163t-206.5 -55h-324zM235 132h131q66 0 97.5 23t31.5 78v86q0 54 -31.5 76t-97.5 22h-131v-285z" />
    <glyph glyph-name="Ereversedcyrillic" unicode="&#x42d;" 
d="M346 -10q-149 0 -221.5 66.5t-79.5 214.5l170 10q7 -93 33.5 -126t97.5 -33q80 0 105.5 37.5t25.5 110.5v92h-185v132h185v31q0 82 -29.5 117.5t-101.5 35.5q-71 0 -97.5 -35t-33.5 -128l-170 10q7 150 79 217.5t221 67.5q151 0 226.5 -67.5t75.5 -202.5v-284
q0 -133 -75.5 -199.5t-225.5 -66.5z" />
    <glyph glyph-name="IUcyrillic" unicode="&#x42e;" 
d="M459 -10q-97 0 -146 61t-49 168v144h-79v-363h-141v800h141v-307h79v84q0 108 49.5 170.5t146.5 62.5q99 0 147.5 -62.5t48.5 -170.5v-358q0 -107 -49 -168t-148 -61zM459 121q33 0 44 24t11 74v358q0 51 -11 76.5t-44 25.5q-32 0 -43.5 -25.5t-11.5 -76.5v-358
q0 -50 11.5 -74t43.5 -24z" />
    <glyph glyph-name="IAcyrillic" unicode="&#x42f;" 
d="M335 420h130v248h-130q-64 0 -89.5 -21t-25.5 -74v-55q0 -54 25.5 -76t89.5 -22zM465 289h-88l-161 -289h-182l173 304q-75 20 -112.5 72.5t-37.5 136.5v69q0 108 64.5 163t191.5 55h322v-800h-170v289z" />
    <glyph glyph-name="acyrillic" unicode="&#x430;" 
d="M282 100q37 0 70.5 11.5t62.5 33.5v97h-138q-34 0 -53 -15t-19 -59q0 -33 18 -50.5t59 -17.5zM241 -10q-84 0 -138 45t-54 129q0 83 57.5 127t151.5 44h157v73q0 44 -25.5 62.5t-74.5 18.5q-51 0 -75.5 -18t-36.5 -71l-140 25q21 101 79.5 143t177.5 42
q125 0 191.5 -48.5t66.5 -148.5v-232q0 -43 25 -53.5t74 -3.5v-121q-78 -17 -129.5 3t-67.5 87h-27q-31 -42 -87 -72.5t-125 -30.5z" />
    <glyph glyph-name="becyrillic" unicode="&#x431;" 
d="M350 -10q-134 0 -206 64.5t-72 192.5v210q0 160 70 239t205 94l231 25l15 -134l-220 -26q-70 -9 -104 -44.5t-36 -110.5l-1 -55h23q23 45 64.5 70t108.5 25q90 0 145 -54.5t55 -146.5v-112q0 -117 -72 -177t-206 -60zM349 115q58 0 82.5 26t24.5 77v103q0 47 -24.5 70
t-82.5 23q-59 0 -83 -23t-24 -70v-103q0 -51 24 -77t83 -26z" />
    <glyph glyph-name="vecyrillic" unicode="&#x432;" 
d="M72 0v600h280q131 0 203.5 -34.5t72.5 -112.5v-21q0 -51 -37 -80t-101 -33v-22q78 -5 117 -40.5t39 -84.5v-17q0 -76 -67.5 -115.5t-226.5 -39.5h-280zM235 358h125q58 0 81.5 12t23.5 47v14q0 34 -23 47.5t-83 13.5h-124v-134zM235 115h124q71 0 97.5 17.5t26.5 53.5v10
q0 36 -25 52t-98 16h-125v-149z" />
    <glyph glyph-name="gecyrillic" unicode="&#x433;" 
d="M115 0v600h502v-132h-332v-468h-170z" />
    <glyph glyph-name="decyrillic" unicode="&#x434;" 
d="M249 155v-23h183v336h-139l-3 -179q-1 -44 -11.5 -75.5t-29.5 -58.5zM182 0v-150h-156v282h67q21 16 32 52.5t12 108.5l5 307h446v-468h86v-282h-156v150h-336z" />
    <glyph glyph-name="iecyrillic" unicode="&#x435;" 
d="M638 139q-35 -84 -96.5 -116.5t-188.5 -32.5q-122 0 -201.5 57.5t-79.5 171.5v160q0 110 75 170.5t204 60.5t203 -60.5t74 -173.5v-110h-386v-57q0 -51 27 -78.5t88 -27.5q51 0 83.5 15.5t54.5 59.5zM242 393v-34h216v25q0 63 -24 90t-84 27t-84 -25.5t-24 -82.5z" />
    <glyph glyph-name="zhecyrillic" unicode="&#x436;" 
d="M247 261l-98 -261h-141l142 333l-145 267h143l110 -231h30v231h125v-231h26l107 231h147l-143 -266l142 -334h-144l-98 261h-37v-261h-125v261h-41z" />
    <glyph glyph-name="zecyrillic" unicode="&#x437;" 
d="M352 -10q-141 0 -209.5 49.5t-76.5 156.5l155 7q8 -62 36.5 -83.5t94.5 -21.5q75 0 99.5 21t24.5 64v10q0 39 -23 56.5t-100 17.5h-49v94h49q57 0 81 12.5t24 50.5v14q0 36 -23.5 50t-82.5 14q-57 0 -81.5 -19.5t-31.5 -74.5l-155 8q8 101 72 147.5t196 46.5
q139 0 207.5 -37.5t68.5 -121.5v-21q0 -49 -37 -77t-101 -32v-22q78 -5 117 -40t39 -83v-17q0 -85 -69.5 -127t-224.5 -42z" />
    <glyph glyph-name="iicyrillic" unicode="&#x438;" 
d="M481 0v406l-227 -406h-182v600h148v-427l239 427h169v-600h-147z" />
    <glyph glyph-name="iishortcyrillic" unicode="&#x439;" 
d="M481 0v406l-227 -406h-182v600h148v-427l239 427h169v-600h-147zM350 693q-100 0 -174 49.5t-73 171.5l149 10q-1 -66 20 -95t78 -29t78 29t20 95l149 -10q1 -122 -73 -171.5t-174 -49.5z" />
    <glyph glyph-name="kacyrillic" unicode="&#x43a;" 
d="M264 253v-253h-170v600h170v-230h41l165 230h180l-204 -272l201 -328h-183l-159 253h-41z" />
    <glyph glyph-name="elcyrillic" unicode="&#x43b;" 
d="M465 0v475h-161l-2 -246q-1 -124 -50.5 -183t-146.5 -59q-23 0 -47.5 5t-48.5 11l19 126q14 -4 26 -7t22 -3q32 0 48.5 25.5t17.5 97.5l3 358h490v-600h-170z" />
    <glyph glyph-name="emcyrillic" unicode="&#x43c;" 
d="M291 150l-98 234l15 -384h-146v600h176l115 -304l114 304h171v-600h-146l14 384l-95 -234h-120z" />
    <glyph glyph-name="encyrillic" unicode="&#x43d;" 
d="M72 0v600h170v-203h216v203h170v-600h-170v265h-216v-265h-170z" />
    <glyph glyph-name="ocyrillic" unicode="&#x43e;" 
d="M350 -10q-131 0 -204.5 60t-73.5 167v162q0 109 73.5 170t205.5 61q131 0 204 -62t73 -172v-162q0 -106 -73.5 -165t-204.5 -59zM350 115q56 0 82 26t26 83v149q0 58 -26 85t-82 27t-82 -27t-26 -84v-146q0 -59 26 -86t82 -27z" />
    <glyph glyph-name="pecyrillic" unicode="&#x43f;" 
d="M72 0v600h556v-600h-170v468h-216v-468h-170z" />
    <glyph glyph-name="ercyrillic" unicode="&#x440;" 
d="M350 117q54 0 81 24t27 79v155q0 52 -22 77t-63 25q-35 0 -66 -16.5t-65 -50.5v-264q26 -15 50.5 -22t57.5 -7zM377 -7q-34 0 -69.5 6t-65.5 18v-217h-170v800h170v-107h30q23 54 71 85.5t108 31.5q81 0 129 -56t48 -152v-183q0 -104 -67.5 -165t-183.5 -61z" />
    <glyph glyph-name="escyrillic" unicode="&#x441;" 
d="M361 -10q-141 0 -215 60t-74 174v154q0 112 74.5 172t213.5 60q131 0 195 -57.5t77 -162.5l-164 -13q-5 58 -31 82.5t-82 24.5q-60 0 -86.5 -26.5t-26.5 -89.5v-137q0 -63 27 -89.5t88 -26.5q56 0 81.5 20.5t29.5 67.5l164 -13q-7 -96 -67 -148t-204 -52z" />
    <glyph glyph-name="tecyrillic" unicode="&#x442;" 
d="M265 0v468h-209v132h588v-132h-209v-468h-170z" />
    <glyph glyph-name="ucyrillic" unicode="&#x443;" 
d="M188 -210q-31 0 -65 3t-74 8l12 125q39 -7 69 -11t53 -4q54 0 83.5 23.5t48.5 86.5l2 7h-100l-178 572h175l135 -466l143 466h168l-195 -595q-39 -119 -102 -167t-175 -48z" />
    <glyph glyph-name="efcyrillic" unicode="&#x444;" 
d="M441 0h-21v-200h-140v200h-21q-101 0 -158 56.5t-57 155.5v178q0 99 57 154.5t158 55.5h21v200h140v-200h21q101 0 158 -55.5t57 -154.5v-179q0 -99 -57 -155t-158 -56zM270 108h22v383h-22q-37 0 -62.5 -24t-25.5 -81v-173q0 -57 25.5 -81t62.5 -24zM430 491h-22v-383
h22q38 0 63 24t25 81v173q0 57 -25 81t-63 24z" />
    <glyph glyph-name="khacyrillic" unicode="&#x445;" 
d="M472 0l-130 193l-120 -193h-171l215 305l-201 295h173l118 -174l108 174h171l-200 -289l212 -311h-175z" />
    <glyph glyph-name="tsecyrillic" unicode="&#x446;" 
d="M520 -150v150h-448v600h170v-468h191v468h170v-468h79v-282h-162z" />
    <glyph glyph-name="checyrillic" unicode="&#x447;" 
d="M606 600v-600h-170v187q-22 -8 -50.5 -13t-69.5 -5q-128 0 -192.5 61.5t-64.5 180.5v189h170v-187q0 -64 28.5 -88.5t76.5 -25.5q31 0 57 5.5t45 14.5v281h170z" />
    <glyph glyph-name="shacyrillic" unicode="&#x448;" 
d="M44 0v600h138v-477h100v477h136v-477h100v477h138v-600h-612z" />
    <glyph glyph-name="shchacyrillic" unicode="&#x449;" 
d="M699 -150h-139v150h-516v600h138v-477h100v477h136v-477h100v477h138v-475h43v-275z" />
    <glyph glyph-name="hardsigncyrillic" unicode="&#x44a;" 
d="M429 0h-279v468h-150v132h320v-173h109q110 0 173 -50.5t63 -140.5v-48q0 -88 -63 -138t-173 -50zM320 125h80q49 0 72 17t23 57v35q0 39 -23 54.5t-72 15.5h-80v-179z" />
    <glyph glyph-name="yericyrillic" unicode="&#x44b;" 
d="M50 0v600h142v-159h42q97 0 151 -45t54 -125v-90q0 -86 -54 -133.5t-151 -47.5h-184zM508 0v600h142v-600h-142zM192 117h34q42 0 62.5 17t20.5 61v57q0 42 -20.5 58t-62.5 16h-34v-209z" />
    <glyph glyph-name="softsigncyrillic" unicode="&#x44c;" 
d="M65 0v600h170v-173h159q119 0 184.5 -50.5t65.5 -140.5v-48q0 -90 -65.5 -139t-184.5 -49h-329zM235 125h130q55 0 82 15.5t27 54.5v36q0 39 -27 56t-82 17h-130v-179z" />
    <glyph glyph-name="ereversedcyrillic" unicode="&#x44d;" 
d="M336 -10q-134 0 -201 48t-74 149l165 13q4 -52 27.5 -73.5t86.5 -21.5q65 0 91.5 27t26.5 89v39h-178v101h178v21q0 60 -26.5 86.5t-89.5 26.5q-60 0 -86 -20.5t-30 -69.5l-165 13q12 99 78.5 145.5t197.5 46.5q136 0 213.5 -58t77.5 -174v-154q0 -114 -75 -174t-217 -60
z" />
    <glyph glyph-name="iucyrillic" unicode="&#x44e;" 
d="M459 -10q-97 0 -146 53.5t-49 146.5v79h-77v-269h-143v600h143v-213h77v19q0 95 49.5 149.5t146.5 54.5q99 0 147.5 -54.5t48.5 -149.5v-216q0 -93 -49 -146.5t-148 -53.5zM459 108q33 0 44.5 21t11.5 61v216q0 42 -11.5 64t-44.5 22q-32 0 -44 -22t-12 -64v-216
q0 -40 12 -61t44 -21z" />
    <glyph glyph-name="iacyrillic" unicode="&#x44f;" 
d="M328 306h130v176h-130q-36 0 -54 -15t-18 -61v-22q0 -47 18 -62.5t54 -15.5zM458 189h-71l-139 -189h-185l149 203q-61 16 -93.5 62t-32.5 117v29q0 90 54 139.5t152 49.5h336v-600h-170v189z" />
    <glyph glyph-name="iegravecyrillic" unicode="&#x450;" 
d="M638 139q-35 -84 -96.5 -116.5t-188.5 -32.5q-122 0 -201.5 57.5t-79.5 171.5v160q0 110 75 170.5t204 60.5t203 -60.5t74 -173.5v-110h-386v-57q0 -51 27 -78.5t88 -27.5q51 0 83.5 15.5t54.5 59.5zM242 393v-34h216v25q0 63 -24 90t-84 27t-84 -25.5t-24 -82.5z
M341 700l-216 200h220l115 -200h-119z" />
    <glyph glyph-name="iocyrillic" unicode="&#x451;" 
d="M638 139q-35 -84 -96.5 -116.5t-188.5 -32.5q-122 0 -201.5 57.5t-79.5 171.5v160q0 110 75 170.5t204 60.5t203 -60.5t74 -173.5v-110h-386v-57q0 -51 27 -78.5t88 -27.5q51 0 83.5 15.5t54.5 59.5zM242 393v-34h216v25q0 63 -24 90t-84 27t-84 -25.5t-24 -82.5z
M224 696q-39 0 -63.5 15.5t-24.5 54.5v13q0 40 24.5 56.5t63.5 16.5q40 0 64.5 -16.5t24.5 -56.5v-13q0 -39 -25 -54.5t-64 -15.5zM476 696q-40 0 -64.5 15.5t-24.5 54.5v13q0 40 24.5 56.5t64.5 16.5t64 -16.5t24 -56.5v-13q0 -39 -25 -54.5t-63 -15.5z" />
    <glyph glyph-name="djecyrillic" unicode="&#x452;" 
d="M391 -209q-33 0 -67 6t-67 16l20 117q27 -9 50.5 -14.5t44.5 -5.5q40 0 63 24t23 79v306q0 46 -20 70t-57 24q-34 0 -70.5 -24.5t-68.5 -67.5v-321h-170v609h-100v94h100v97h170v-97h172v-94h-172v-180h30q24 55 72 86t111 31q76 0 124.5 -48t48.5 -133v-368
q0 -108 -71 -157t-166 -49z" />
    <glyph glyph-name="gjecyrillic" unicode="&#x453;" 
d="M115 0v600h502v-132h-332v-468h-170zM248 700l115 200h220l-216 -200h-119z" />
    <glyph glyph-name="ecyrillic" unicode="&#x454;" 
d="M639 187q-8 -101 -74.5 -149t-200.5 -48q-142 0 -217 60t-75 174v154q0 116 77.5 174t213.5 58q131 0 197.5 -46.5t78.5 -145.5l-164 -13q-4 49 -30.5 69.5t-85.5 20.5q-64 0 -90.5 -26.5t-26.5 -86.5v-25h194v-94h-194v-42q0 -62 26.5 -89t92.5 -27q63 0 86.5 21.5
t27.5 73.5z" />
    <glyph glyph-name="dzecyrillic" unicode="&#x455;" 
d="M353 -7q-78 0 -154 21t-133 60l45 107q57 -37 123 -56.5t123 -19.5q46 0 73 14.5t27 48.5q0 35 -26.5 50.5t-92.5 22.5q-122 13 -187 50.5t-65 124.5q0 91 70 142.5t182 51.5q64 0 131.5 -19.5t122.5 -54.5l-38 -102q-54 31 -107.5 47.5t-102.5 16.5q-41 0 -65 -15
t-24 -47q0 -35 32.5 -48.5t108.5 -23.5q117 -14 173.5 -56t56.5 -122q0 -92 -74 -142.5t-199 -50.5z" />
    <glyph glyph-name="icyrillic" unicode="&#x456;" 
d="M79 0v125h186v350h-186v125h356v-475h186v-125h-542zM358 696q-51 0 -83 15.5t-32 54.5v13q0 40 32 56.5t83 16.5t83 -16.5t32 -56.5v-13q0 -39 -32 -54.5t-83 -15.5z" />
    <glyph glyph-name="yicyrillic" unicode="&#x457;" 
d="M79 0v125h186v350h-186v125h356v-475h186v-125h-542zM224 696q-39 0 -63.5 15.5t-24.5 54.5v13q0 40 24.5 56.5t63.5 16.5q40 0 64.5 -16.5t24.5 -56.5v-13q0 -39 -25 -54.5t-64 -15.5zM476 696q-40 0 -64.5 15.5t-24.5 54.5v13q0 40 24.5 56.5t64.5 16.5t64 -16.5
t24 -56.5v-13q0 -39 -25 -54.5t-63 -15.5z" />
    <glyph glyph-name="jecyrillic" unicode="&#x458;" 
d="M244 -209q-44 0 -89 4.5t-89 17.5l20 117q39 -12 73.5 -16t65.5 -4q62 0 97.5 24t35.5 79v462h-258v125h428v-603q0 -99 -77 -152.5t-207 -53.5zM435 696q-51 0 -83 15.5t-32 54.5v13q0 40 32 56.5t83 16.5t83 -16.5t32 -56.5v-13q0 -39 -32 -54.5t-83 -15.5z" />
    <glyph glyph-name="ljecyrillic" unicode="&#x459;" 
d="M213 489l-5 -352q-1 -70 -40.5 -106.5t-108.5 -36.5q-17 0 -35.5 2.5t-37.5 7.5l20 121q8 -3 16 -4.5t15 -1.5q16 0 27.5 11t12.5 45l7 425h344v-173h66q78 0 121.5 -44.5t43.5 -124.5v-74q0 -87 -43.5 -135.5t-121.5 -48.5h-198v489h-83zM428 110h37q32 0 47 19.5
t15 64.5v52q0 39 -15 56t-47 17h-37v-209z" />
    <glyph glyph-name="njecyrillic" unicode="&#x45a;" 
d="M425 110h37q33 0 47.5 17t14.5 57v76q0 39 -14.5 56t-47.5 17h-37v-223zM177 287v-287h-132v600h132v-196h116v196h132v-159h66q78 0 121.5 -43t43.5 -119v-109q0 -81 -43.5 -125.5t-121.5 -44.5h-198v287h-116z" />
    <glyph glyph-name="tshecyrillic" unicode="&#x45b;" 
d="M242 321v-321h-170v609h-100v94h100v97h170v-97h172v-94h-172v-180h30q23 54 72.5 85.5t110.5 31.5q77 0 125 -50t48 -131v-365h-170v319q0 46 -20 70t-57 24q-35 0 -70.5 -24.5t-68.5 -67.5z" />
    <glyph glyph-name="kjecyrillic" unicode="&#x45c;" 
d="M264 253v-253h-170v600h170v-230h41l165 230h180l-204 -272l201 -328h-183l-159 253h-41zM285 700l115 200h220l-216 -200h-119z" />
    <glyph glyph-name="igravecyrillic" unicode="&#x45d;" 
d="M481 0v406l-227 -406h-182v600h148v-427l239 427h169v-600h-147zM351 700l-216 200h220l115 -200h-119z" />
    <glyph glyph-name="ushortcyrillic" unicode="&#x45e;" 
d="M188 -210q-31 0 -65 3t-74 8l12 125q39 -7 69 -11t53 -4q54 0 83.5 23.5t48.5 86.5l2 7h-100l-178 572h175l135 -466l143 466h168l-195 -595q-39 -119 -102 -167t-175 -48zM350 693q-100 0 -174 49.5t-73 171.5l149 10q-1 -66 20 -95t78 -29t78 29t20 95l149 -10
q1 -122 -73 -171.5t-174 -49.5z" />
    <glyph glyph-name="dzhecyrillic" unicode="&#x45f;" 
d="M269 -150v150h-197v600h170v-468h216v468h170v-600h-197v-150h-162z" />
    <glyph glyph-name="Gheupturncyrillic" unicode="&#x490;" 
d="M100 0v800h385v150h170v-282h-385v-668h-170z" />
    <glyph glyph-name="gheupturncyrillic" unicode="&#x491;" 
d="M115 0v600h341v150h161v-282h-332v-468h-170z" />
    <glyph glyph-name="Wgrave" unicode="&#x1e80;" 
d="M433 0l-81 390l-82 -390h-152l-104 800h148l47 -606l78 406h126l80 -395l47 595h147l-105 -800h-149zM340 900l-216 200h220l115 -200h-119z" />
    <glyph glyph-name="wgrave" unicode="&#x1e81;" 
d="M431 0l-81 317l-77 -317h-156l-99 600h147l56 -430l69 323h116l76 -313l53 420h147l-99 -600h-152zM337 700l-216 200h220l115 -200h-119z" />
    <glyph glyph-name="Wacute" unicode="&#x1e82;" 
d="M433 0l-81 390l-82 -390h-152l-104 800h148l47 -606l78 406h126l80 -395l47 595h147l-105 -800h-149zM225 900l115 200h220l-216 -200h-119z" />
    <glyph glyph-name="wacute" unicode="&#x1e83;" 
d="M431 0l-81 317l-77 -317h-156l-99 600h147l56 -430l69 323h116l76 -313l53 420h147l-99 -600h-152zM257 700l115 200h220l-216 -200h-119z" />
    <glyph glyph-name="Wdieresis" unicode="&#x1e84;" 
d="M433 0l-81 390l-82 -390h-152l-104 800h148l47 -606l78 406h126l80 -395l47 595h147l-105 -800h-149zM231 896q-39 0 -63.5 15.5t-24.5 54.5v13q0 40 24.5 56.5t63.5 16.5q40 0 64.5 -16.5t24.5 -56.5v-13q0 -39 -25 -54.5t-64 -15.5zM483 896q-40 0 -64.5 15.5
t-24.5 54.5v13q0 40 24.5 56.5t64.5 16.5t64 -16.5t24 -56.5v-13q0 -39 -25 -54.5t-63 -15.5z" />
    <glyph glyph-name="wdieresis" unicode="&#x1e85;" 
d="M431 0l-81 317l-77 -317h-156l-99 600h147l56 -430l69 323h116l76 -313l53 420h147l-99 -600h-152zM231 696q-39 0 -63.5 15.5t-24.5 54.5v13q0 40 24.5 56.5t63.5 16.5q40 0 64.5 -16.5t24.5 -56.5v-13q0 -39 -25 -54.5t-64 -15.5zM483 696q-40 0 -64.5 15.5t-24.5 54.5
v13q0 40 24.5 56.5t64.5 16.5t64 -16.5t24 -56.5v-13q0 -39 -25 -54.5t-63 -15.5z" />
    <glyph glyph-name="Ygrave" unicode="&#x1ef2;" 
d="M435 0h-170v300l-251 500h173l164 -358l162 358h172l-250 -500v-300zM337 900l-216 200h220l115 -200h-119z" />
    <glyph glyph-name="ygrave" unicode="&#x1ef3;" 
d="M188 -210q-31 0 -65 3t-74 8l12 125q39 -7 69 -11t53 -4q54 0 83.5 23.5t48.5 86.5l2 7h-100l-178 572h175l135 -466l143 466h168l-195 -595q-39 -119 -102 -167t-175 -48zM337 700l-216 200h220l115 -200h-119z" />
    <glyph glyph-name="uni2000" unicode="&#x2000;" 
 />
    <glyph glyph-name="uni2001" unicode="&#x2001;" 
 />
    <glyph glyph-name="uni2002" unicode="&#x2002;" 
 />
    <glyph glyph-name="uni2003" unicode="&#x2003;" 
 />
    <glyph glyph-name="uni2004" unicode="&#x2004;" 
 />
    <glyph glyph-name="uni2005" unicode="&#x2005;" 
 />
    <glyph glyph-name="uni2007" unicode="&#x2007;" 
 />
    <glyph glyph-name="uni2009" unicode="&#x2009;" 
 />
    <glyph glyph-name="uni200A" unicode="&#x200a;" 
 />
    <glyph glyph-name="uni200B" unicode="&#x200b;" horiz-adv-x="0" 
 />
    <glyph glyph-name="endash" unicode="&#x2013;" 
d="M58 279v149h584v-149h-584z" />
    <glyph glyph-name="emdash" unicode="&#x2014;" 
d="M0 279v149h700v-149h-700z" />
    <glyph glyph-name="horizontalbar" unicode="&#x2015;" 
d="M0 279v149h700v-149h-700z" />
    <glyph glyph-name="underscoredbl" unicode="&#x2017;" 
d="M63 0v149h574v-149h-574zM63 -270v149h574v-149h-574z" />
    <glyph glyph-name="quoteright" unicode="&#x2019;" 
d="M171 365l100 435h257l-243 -435h-114z" />
    <glyph glyph-name="quotesinglbase" unicode="&#x201a;" 
d="M181 -165l80 435h257l-223 -435h-114z" />
    <glyph glyph-name="quotereversed" unicode="&#x201b;" 
d="M394 365l-243 435h258l99 -435h-114z" />
    <glyph glyph-name="quotedblleft" unicode="&#x201c;" 
d="M343 365l222 435h97l-86 -435h-233zM43 365l229 435h97l-93 -435h-233z" />
    <glyph glyph-name="quotedblright" unicode="&#x201d;" 
d="M331 365l93 435h233l-229 -435h-97zM38 365l86 435h233l-222 -435h-97z" />
    <glyph glyph-name="quotedblbase" unicode="&#x201e;" 
d="M301 -165l93 435h233l-229 -435h-97zM8 -165l86 435h233l-222 -435h-97z" />
    <glyph glyph-name="dagger" unicode="&#x2020;" 
d="M276 -200v675h-76l-33 -217h-122l30 342h200l-9 200h169l-10 -200h200l30 -342h-122l-33 217h-75v-675h-149z" />
    <glyph glyph-name="daggerdbl" unicode="&#x2021;" 
d="M266 -200l7 179h-201l-30 251h115l40 -126h79v392h-79l-40 -126h-115l30 251h201l-7 179h169l-7 -179h201l30 -251h-115l-40 126h-79v-392h79l40 126h115l-30 -251h-201l7 -179h-169z" />
    <glyph glyph-name="bullet" unicode="&#x2022;" 
d="M351 236q-75 0 -121.5 30.5t-46.5 95.5v72q0 66 46.5 97.5t121.5 31.5t121 -31.5t46 -97.5v-72q0 -65 -47 -95.5t-120 -30.5z" />
    <glyph glyph-name="ellipsis" unicode="&#x2026;" 
d="M589 -9q-34 0 -56 20.5t-22 63.5v112q0 44 22 65t56 21q35 0 56.5 -21t21.5 -65v-112q0 -43 -22 -63.5t-56 -20.5zM350 -9q-34 0 -56 20.5t-22 63.5v112q0 44 22 65t56 21q35 0 56.5 -21t21.5 -65v-112q0 -43 -22 -63.5t-56 -20.5zM112 -9q-35 0 -57 20.5t-22 63.5v112
q0 44 22 65t57 21q34 0 55.5 -21t21.5 -65v-112q0 -43 -21.5 -63.5t-55.5 -20.5z" />
    <glyph glyph-name="perthousand" unicode="&#x2030;" 
d="M179 462q-69 0 -111 37t-42 115v52q0 78 42.5 116t110.5 38t109.5 -38t41.5 -116v-52q0 -78 -42 -115t-109 -37zM136 609q0 -30 12 -42.5t31 -12.5t30 12.5t11 42.5v63q0 29 -11 43t-30 14t-31 -14t-12 -43v-63zM670 606l-601 -433l-50 73l597 431zM559 -22q-30 0 -53 13
t-36 41q-16 -28 -40 -41t-55 -13q-51 0 -83 37t-32 115v45q0 78 34 116t88 38q29 0 52 -13t36 -41q14 28 37 41t52 13q54 0 87.5 -38t33.5 -116v-45q0 -78 -33.5 -115t-87.5 -37zM356 122q0 -30 9 -42.5t24 -12.5t23 12.5t8 42.5v62q0 29 -8 43t-23 14t-24 -14t-9 -43v-62z
M520 122q0 -30 8.5 -42.5t23.5 -12.5t23 12.5t8 42.5v62q0 29 -8 43t-23 14t-23.5 -14t-8.5 -43v-62z" />
    <glyph glyph-name="minute" unicode="&#x2032;" 
d="M171 365l100 435h257l-243 -435h-114z" />
    <glyph glyph-name="second" unicode="&#x2033;" 
d="M301 365l93 435h233l-229 -435h-97zM8 365l86 435h233l-222 -435h-97z" />
    <glyph glyph-name="guilsinglleft" unicode="&#x2039;" 
d="M535 44l-370 221v170l370 221v-151l-259 -155l259 -155v-151z" />
    <glyph glyph-name="guilsinglright" unicode="&#x203a;" 
d="M165 44v151l259 155l-259 155v151l370 -221v-170z" />
    <glyph glyph-name="exclamdbl" unicode="&#x203c;" 
d="M461 300l-30 500h182l-30 -500h-122zM125 300l-30 500h182l-30 -500h-122zM526 -10q-30 0 -52 5t-37 15q-14 11 -21.5 26.5t-7.5 37.5v28q0 22 7.5 38.5t21.5 26.5q15 11 37 16t52 5t52 -5t36 -16q15 -10 22 -26.5t7 -38.5v-28q0 -22 -7.5 -37.5t-22.5 -26.5
q-14 -10 -36 -15t-51 -5zM190 -10q-30 0 -52 5t-37 15q-14 11 -21.5 26.5t-7.5 37.5v28q0 22 7.5 38.5t21.5 26.5q15 11 37 16t52 5t52 -5t36 -16q15 -10 22 -26.5t7 -38.5v-28q0 -22 -7.5 -37.5t-22.5 -26.5q-14 -10 -36 -15t-51 -5z" />
    <glyph glyph-name="overline" unicode="&#x203e;" 
d="M63 851v149h574v-149h-574z" />
    <glyph glyph-name="fraction" unicode="&#x2215;" 
d="M79 0l400 800h142l-400 -800h-142z" />
    <glyph glyph-name="fraction" unicode="&#x2044;" 
d="M79 0l400 800h142l-400 -800h-142z" />
    <glyph glyph-name="zero.sups" unicode="&#x2070;" 
d="M349 298q-107 0 -163 54t-56 153v91q0 99 56.5 154.5t163.5 55.5t163.5 -55.5t56.5 -154.5v-91q0 -99 -56.5 -153t-164.5 -54zM349 389q56 0 72 32.5t16 96.5v65q0 65 -16 98.5t-72 33.5q-55 0 -71 -33.5t-16 -98.5v-65q0 -64 16 -96.5t71 -32.5z" />
    <glyph glyph-name="four.sups" unicode="&#x2074;" 
d="M235 515h141v175zM602 424h-93v-120h-133v120h-254v91l226 285h161v-285h93v-91z" />
    <glyph glyph-name="five.sups" unicode="&#x2075;" 
d="M354 298q-121 0 -174.5 37t-57.5 128l133 6q6 -48 26.5 -64t74.5 -16q46 0 64 15t18 55v16q0 36 -24 49.5t-87 13.5h-187v262h414v-91h-281v-74h106q96 0 144 -33.5t48 -102.5v-60q0 -59 -50.5 -100t-166.5 -41z" />
    <glyph glyph-name="six.sups" unicode="&#x2076;" 
d="M349 298q-117 0 -169 48t-52 129v150q0 84 50 132.5t173 48.5q115 0 158.5 -37t55.5 -98l-138 -14q-8 39 -27 48.5t-61 9.5q-55 0 -66.5 -25.5t-11.5 -65.5v-50h6q16 19 48.5 29.5t75.5 10.5q109 0 144.5 -39.5t35.5 -108.5v-13q0 -61 -51.5 -108t-170.5 -47zM349 389
q51 0 69.5 18.5t18.5 47.5v8q0 34 -18.5 54t-69.5 20t-69.5 -20t-18.5 -54v-8q0 -34 18.5 -50t69.5 -16z" />
    <glyph glyph-name="seven.sups" unicode="&#x2077;" 
d="M252 304q39 133 80.5 219t105.5 180h-310v97h443v-97q-62 -104 -107 -196t-73 -203h-139z" />
    <glyph glyph-name="eight.sups" unicode="&#x2078;" 
d="M349 298q-126 0 -173.5 37.5t-47.5 103.5v14q0 43 28 71t77 32v18q-40 4 -66.5 26.5t-26.5 59.5v20q0 66 54.5 96t154.5 30q101 0 155 -29t54 -97v-20q0 -37 -26 -59.5t-65 -26.5v-18q49 -4 76.5 -32t27.5 -71v-14q0 -67 -47.5 -104t-174.5 -37zM349 603q37 0 57 10.5
t20 36.5v19q0 27 -20 37t-57 10q-35 0 -55.5 -10t-20.5 -37v-19q0 -26 20.5 -36.5t55.5 -10.5zM349 388q54 0 71.5 16.5t17.5 44.5v14q0 28 -17.5 45.5t-71.5 17.5t-71 -17.5t-17 -45.5v-14q0 -28 17 -44.5t71 -16.5z" />
    <glyph glyph-name="nine.sups" unicode="&#x2079;" 
d="M350 568q52 0 70 19.5t18 54.5v8q0 34 -18.5 49.5t-69.5 15.5t-69.5 -18.5t-18.5 -46.5v-8q0 -35 18.5 -54.5t69.5 -19.5zM348 298q-114 0 -158 37.5t-56 97.5l138 15q8 -39 27 -49t62 -10q55 0 66 25.5t11 65.5v51h-7q-17 -20 -50.5 -30.5t-76.5 -10.5
q-97 0 -136.5 36.5t-39.5 111.5v13q0 61 52 108t169 47t169.5 -47.5t52.5 -129.5v-149q0 -84 -49.5 -133t-173.5 -49z" />
    <glyph glyph-name="nsuperior" unicode="&#x207f;" 
d="M115 301v500h144v-88h28q11 24 26.5 42.5t35.5 30.5q19 12 41.5 18t46.5 6q34 0 61.5 -13.5t46.5 -38.5q20 -26 30 -63t10 -84v-310h-144v302q0 23 -4.5 40t-12.5 29q-8 11 -19.5 17t-25.5 6q-16 0 -31.5 -6t-30.5 -18q-14 -11 -28.5 -26.5t-29.5 -35.5v-308h-144z" />
    <glyph glyph-name="zero.sinf" unicode="&#x2080;" 
d="M349 -6q-107 0 -163 54t-56 153v91q0 99 56.5 154.5t163.5 55.5t163.5 -55.5t56.5 -154.5v-91q0 -99 -56.5 -153t-164.5 -54zM349 85q56 0 72 32.5t16 96.5v65q0 65 -16 98.5t-72 33.5q-55 0 -71 -33.5t-16 -98.5v-65q0 -64 16 -96.5t71 -32.5z" />
    <glyph glyph-name="one.sinf" unicode="&#x2081;" 
d="M178 0v98h136v285h-19q-9 -43 -45 -67t-79 -27l-6 96q43 5 88.5 32t62.5 79h131v-398h124v-98h-393z" />
    <glyph glyph-name="two.sinf" unicode="&#x2082;" 
d="M128 1v115q0 52 27 90t90 51l122 25q35 7 50 20.5t15 44.5v9q0 34 -22.5 45t-60.5 11q-37 0 -57.5 -13t-24.5 -58l-133 7q4 77 53.5 116t161.5 39q113 0 164.5 -38.5t51.5 -110.5v-23q0 -57 -32 -90.5t-83 -43.5l-122 -25q-37 -8 -52 -19t-15 -36v-18h310v-98h-443z" />
    <glyph glyph-name="three.sinf" unicode="&#x2083;" 
d="M353 -6q-113 0 -170 38t-61 113l133 6q4 -35 24.5 -47.5t72.5 -12.5q49 0 67.5 11.5t18.5 38.5v16q0 29 -20.5 41t-68.5 12h-103v96h103q41 0 59 9t18 35v10q0 27 -20 36t-63 9t-57.5 -9.5t-18.5 -37.5l-133 6q5 78 59.5 108t149.5 30q94 0 154.5 -25.5t60.5 -98.5v-11
q0 -43 -26 -67.5t-63 -29.5v-18q37 -3 69.5 -30t32.5 -76v-10q0 -82 -59.5 -112t-158.5 -30z" />
    <glyph glyph-name="four.sinf" unicode="&#x2084;" 
d="M235 211h141v175zM602 120h-93v-120h-133v120h-254v91l226 285h161v-285h93v-91z" />
    <glyph glyph-name="five.sinf" unicode="&#x2085;" 
d="M354 -6q-121 0 -174.5 37t-57.5 128l133 6q6 -48 26.5 -64t74.5 -16q46 0 64 15t18 55v16q0 36 -24 49.5t-87 13.5h-187v262h414v-91h-281v-74h106q96 0 144 -33.5t48 -102.5v-60q0 -59 -50.5 -100t-166.5 -41z" />
    <glyph glyph-name="six.sinf" unicode="&#x2086;" 
d="M349 -6q-117 0 -169 48t-52 129v150q0 84 50 132.5t173 48.5q115 0 158.5 -37t55.5 -98l-138 -14q-8 39 -27 48.5t-61 9.5q-55 0 -66.5 -25.5t-11.5 -65.5v-50h6q16 19 48.5 29.5t75.5 10.5q109 0 144.5 -39.5t35.5 -108.5v-13q0 -61 -51.5 -108t-170.5 -47zM349 85
q51 0 69.5 18.5t18.5 47.5v8q0 34 -18.5 54t-69.5 20t-69.5 -20t-18.5 -54v-8q0 -34 18.5 -50t69.5 -16z" />
    <glyph glyph-name="seven.sinf" unicode="&#x2087;" 
d="M252 0q39 133 80.5 219t105.5 180h-310v97h443v-97q-62 -104 -107 -196t-73 -203h-139z" />
    <glyph glyph-name="eight.sinf" unicode="&#x2088;" 
d="M349 -6q-126 0 -173.5 37.5t-47.5 103.5v14q0 43 28 71t77 32v18q-40 4 -66.5 26.5t-26.5 59.5v20q0 66 54.5 96t154.5 30q101 0 155 -29t54 -97v-20q0 -37 -26 -59.5t-65 -26.5v-18q49 -4 76.5 -32t27.5 -71v-14q0 -67 -47.5 -104t-174.5 -37zM349 299q37 0 57 10.5
t20 36.5v19q0 27 -20 37t-57 10q-35 0 -55.5 -10t-20.5 -37v-19q0 -26 20.5 -36.5t55.5 -10.5zM349 84q54 0 71.5 16.5t17.5 44.5v14q0 28 -17.5 45.5t-71.5 17.5t-71 -17.5t-17 -45.5v-14q0 -28 17 -44.5t71 -16.5z" />
    <glyph glyph-name="nine.sinf" unicode="&#x2089;" 
d="M350 264q52 0 70 19.5t18 54.5v8q0 34 -18.5 49.5t-69.5 15.5t-69.5 -18.5t-18.5 -46.5v-8q0 -35 18.5 -54.5t69.5 -19.5zM348 -6q-114 0 -158 37.5t-56 97.5l138 15q8 -39 27 -49t62 -10q55 0 66 25.5t11 65.5v51h-7q-17 -20 -50.5 -30.5t-76.5 -10.5q-97 0 -136.5 36.5
t-39.5 111.5v13q0 61 52 108t169 47t169.5 -47.5t52.5 -129.5v-149q0 -84 -49.5 -133t-173.5 -49z" />
    <glyph glyph-name="franc" unicode="&#x20a3;" 
d="M421 150h-165v-150h-170v150h-100v111h100v539h555v-132h-385v-147h315v-132h-315v-128h165v-111z" />
    <glyph glyph-name="lira" unicode="&#x20a4;" 
d="M677 259q-4 -66 -20.5 -116t-44.5 -84q-29 -34 -69 -51.5t-90 -17.5q-20 0 -40.5 4.5t-39.5 11.5q-9 4 -28.5 12.5t-48.5 22.5q-21 10 -37.5 15.5t-32.5 8.5q-16 2 -31.5 -1t-30.5 -13l-92 -60l-74 106l99 60q14 9 28.5 22.5t26.5 29.5q12 17 20 35.5t10 36.5h-158v94
h137l-4 8l-4 8l-4 8t-5 9q-4 6 -11 19t-10 17q-3 5 -7 12.5t-8 14.5h-84v94h59q2 56 19.5 101t52.5 77q34 32 85 49.5t118 17.5q74 0 127 -16.5t86 -48.5q34 -33 51.5 -82t21.5 -116l-156 -10q-3 37 -10 61.5t-20 40.5t-35.5 24t-57.5 8q-28 0 -49 -7.5t-35 -21.5
t-20.5 -33.5t-6.5 -43.5h175v-94h-157q1 -4 3 -8l3 -6l4.5 -9t4.5 -10q4 -8 7 -15t6 -15t5.5 -16t4.5 -17h119v-94h-116q-4 -14 -12 -28.5t-19 -28.5q-11 -13 -25.5 -24.5t-31.5 -20.5l17 -32q16 9 31 13.5t28 5.5t25 -0.5t24 -5.5q7 -2 20.5 -7t22.5 -8t19 -5t20 -2
q26 0 42 7.5t25 22.5q9 16 14 39.5t8 61.5z" />
    <glyph glyph-name="peseta" unicode="&#x20a7;" 
d="M124 372h16q10 0 17 3.5t13 11.5q5 9 7.5 22.5t2.5 33.5v192q0 20 -2.5 33.5t-7.5 22.5q-6 8 -13 11.5t-17 3.5h-16v-334zM680 151q0 -40 -10.5 -70.5t-28.5 -50.5q-19 -20 -43.5 -30t-53.5 -10q-8 0 -15 0.5t-13 1.5q-7 2 -13.5 3.5t-12.5 4.5q-9 -3 -18.5 -5t-17.5 -2
q-9 -1 -17.5 -1.5t-17.5 -0.5q-22 0 -40 8.5t-31 27.5t-20.5 49t-7.5 71v359h-46v-65q0 -46 -9.5 -77.5t-25.5 -49.5t-37.5 -26t-47.5 -8h-23v-280h-101v800h125q26 0 47 -7.5t37 -26.5q17 -18 26 -49.5t9 -77.5v-39h46v200h94v-200h101v-7q6 4 13 7l14 6q7 2 14.5 3t15.5 1
q15 0 28.5 -2.5t26.5 -7.5t26 -13t27 -19l-45 -76q-11 9 -18.5 14.5t-14.5 9.5q-7 3 -14 5t-15 2q-6 0 -10.5 -3.5t-7.5 -11.5t-4.5 -21t-1.5 -31q0 -21 5.5 -39t14.5 -34t17.5 -27.5t28.5 -37.5q15 -20 25.5 -36t19.5 -36q9 -19 14.5 -43t5.5 -52zM544 77q10 0 17.5 3.5
t13.5 10.5q6 8 9 21t3 32q0 17 -5.5 33.5t-13.5 32.5q-9 15 -9.5 15.5t-36.5 51.5q-15 21 -26 38t-20 37q-9 21 -14.5 45t-5.5 52q0 8 0.5 15.5t1.5 14.5q0 7 1.5 14t2.5 13h-48v-363q0 -16 2 -28t5 -20t7.5 -12t10.5 -4h6.5t6.5 1q3 0 6.5 1t7.5 2l15 25q13 -10 19.5 -14.5
t13.5 -8.5t14.5 -6t15.5 -2z" />
    <glyph glyph-name="Euro" unicode="&#x20ac;" 
d="M366 -10q-139 0 -206 69t-67 190v2h-87v93h86v110h-86v93h87v2q0 122 69.5 191.5t211.5 69.5q139 0 202.5 -65t70.5 -205l-149 -10q-6 83 -32 115.5t-100 32.5q-69 0 -96.5 -34.5t-27.5 -94.5v-2h171v-93h-172v-110h172v-93h-171v-2q0 -60 27 -93.5t97 -33.5
q84 0 105 34.5t27 109.5l149 -10q-7 -138 -72 -202t-209 -64z" />
    <glyph glyph-name="careof" unicode="&#x2105;" 
d="M239 588l110 -8q-3 -30 -14.5 -52t-31.5 -37t-48 -22t-63 -7q-38 0 -68.5 9.5t-52.5 28.5t-33.5 48.5t-11.5 68.5v46q0 39 12 69t34 49q21 20 51.5 29.5t68.5 9.5q36 0 64 -7.5t48 -22.5q19 -15 30.5 -37.5t14.5 -52.5l-110 -15q0 10 -3 17.5t-10 12.5q-6 5 -14.5 7.5
t-19.5 2.5t-20 -3.5t-16 -11.5q-6 -7 -9.5 -18.5t-3.5 -26.5v-57q0 -15 3.5 -26t9.5 -18q7 -7 16 -10.5t20 -3.5t19.5 2t14.5 7q7 5 10 12t3 17zM35 186l566 510l71 -80l-572 -512zM510 -22q-38 0 -68.5 9.5t-52.5 28.5t-33.5 48.5t-11.5 68.5v46q0 39 12 69t34 49
q21 20 51.5 29.5t68.5 9.5t68 -9.5t51 -29.5q22 -19 33.5 -49t11.5 -69v-46q0 -39 -11.5 -68.5t-33.5 -48.5t-52 -28.5t-67 -9.5zM510 66q11 0 19.5 3.5t14.5 10.5q7 7 10 18t3 26v57q0 15 -3 26.5t-10 18.5q-6 8 -14.5 11.5t-19.5 3.5t-20 -3.5t-16 -11.5q-6 -7 -9.5 -18.5
t-3.5 -26.5v-57q0 -15 3.5 -26t9.5 -18q7 -7 16 -10.5t20 -3.5z" />
    <glyph glyph-name="lsquare" unicode="&#x2113;" 
d="M339 361q17 0 29 2.5t21 9.5q10 8 16.5 21t10.5 34l30 173q3 20 2 34.5t-7 23.5q-5 10 -16.5 14.5t-29.5 4.5q-17 0 -29.5 -2.5t-21.5 -10.5q-10 -7 -16.5 -21t-10.5 -37l-32 -184q-3 -16 -1 -27.5t8 -19.5q7 -7 18.5 -11t28.5 -4zM522 43q-27 -12 -54.5 -21.5
t-54.5 -15.5q-27 -7 -54 -10t-53 -3q-58 0 -103.5 15t-76.5 46t-42.5 78.5t-0.5 110.5l65 370q9 53 32.5 91.5t58.5 61.5t77.5 33.5t92.5 10.5q62 0 105.5 -11t69.5 -35t34.5 -62.5t-1.5 -92.5l-35 -202q-7 -40 -26.5 -70t-48.5 -49q-30 -19 -67 -28.5t-80 -9.5
q-16 0 -30 1.5t-27 4.5t-24 7t-20 10l-8 -43q-4 -26 0.5 -46t17.5 -33q12 -13 31.5 -19t44.5 -6q18 0 38.5 3t43.5 10q23 6 47 15t48 20v-131z" />
    <glyph glyph-name="numero" unicode="&#x2116;" 
d="M229 632v-243h-146v411h173l216 -257v257h146v-411h-186zM423 -11q-87 0 -141 36t-54 110v46q0 74 54 111t141 37q88 0 141 -37t53 -111v-46q0 -74 -53.5 -110t-140.5 -36zM423 80q29 0 45 14t16 48v32q0 28 -15.5 42.5t-45.5 14.5q-31 0 -46 -14.5t-15 -42.5v-32
q0 -34 15 -48t46 -14z" />
    <glyph glyph-name="uni2117" unicode="&#x2117;" 
d="M350 -110q-160 0 -238 93t-78 274v222q0 183 78.5 277t238.5 94t237.5 -94t77.5 -277v-222q0 -181 -78 -274t-238 -93zM350 -41q131 0 188.5 73t57.5 239v194q0 168 -57.5 242t-188.5 74t-188.5 -74t-57.5 -242v-194q0 -166 57.5 -239t188.5 -73zM192 102v544h170
q90 0 135.5 -43.5t45.5 -128.5v-41q0 -82 -46 -124t-136 -42h-37v-165h-132zM324 367h37q24 0 40.5 12.5t16.5 53.5v41q0 41 -16.5 55.5t-40.5 14.5h-37v-177z" />
    <glyph glyph-name="trademark" unicode="&#x2122;" 
d="M81 351v364h-78v85h252v-85h-67v-364h-107zM388 723l15 -372h-92v449h124l53 -235l55 235h121v-449h-92l14 370l-63 -233h-73z" />
    <glyph glyph-name="Ohm" unicode="&#x2126;" 
d="M314 0h-265v111h116v90q-58 27 -87 82t-29 128v115q0 139 77.5 211.5t223.5 72.5q147 0 224 -72.5t77 -211.5v-115q0 -73 -29 -128t-87 -82v-90h116v-111h-265v230q50 13 72.5 59.5t22.5 121.5v122q0 79 -32.5 112t-98.5 33t-98.5 -33t-32.5 -112v-122q0 -75 22.5 -121.5
t72.5 -59.5v-230z" />
    <glyph glyph-name="estimated" unicode="&#x212e;" 
d="M345 -12q-142 0 -229.5 121t-87.5 293q0 175 86.5 294t234.5 119q147 0 231.5 -135t88.5 -330h-457v-237q27 -25 60 -38.5t73 -13.5q78 0 132 33t91 90l48 -60q-43 -65 -109.5 -100.5t-161.5 -35.5zM212 430h269v257q-25 24 -58.5 39.5t-75.5 15.5q-39 0 -74.5 -12
t-60.5 -40v-260z" />
    <glyph glyph-name="oneeighth" unicode="&#x215b;" 
d="M172 411v85h136v198h-19q-4 -20 -16 -37t-28 -29q-17 -12 -37.5 -19t-42.5 -9l-6 96q23 3 46 11t44 22q20 14 36.5 33.5t24.5 44.5h131v-311h124v-85h-393zM0 246v121l318 -20v-81zM396 266v81l304 20v-121zM357 -214q-62 0 -105 8t-68 23q-26 15 -37 36.5t-11 49.5v14
q0 19 7 34t21 26q13 11 32.5 18t43.5 9v18q-20 2 -36.5 7.5t-29.5 14.5q-12 8 -19 20t-7 27v20q0 27 13.5 46.5t40.5 31.5q27 13 65.5 19t89.5 6q52 0 90.5 -6t64.5 -18q27 -12 40.5 -32t13.5 -47v-20q0 -15 -6.5 -27t-19.5 -20q-12 -9 -28.5 -14.5t-36.5 -7.5v-18
q24 -2 43.5 -9t32.5 -19q14 -11 21 -26t7 -33v-14q0 -29 -11 -50.5t-37 -36.5q-25 -15 -68 -22.5t-106 -7.5zM357 44q19 0 33 1.5t24 5.5t15 10.5t5 16.5v19q0 10 -5 16.5t-15 10.5t-24 5.5t-33 1.5q-18 0 -32 -1.5t-24 -5.5t-15 -10.5t-5 -16.5v-19q0 -10 5 -16.5t15 -10.5
t24 -5.5t32 -1.5zM357 -131q27 0 44.5 2.5t27.5 8.5q9 5 13 12.5t4 17.5v13q0 11 -4 18.5t-13 13.5q-10 5 -27.5 8t-44.5 3q-26 0 -43.5 -3t-27.5 -8q-9 -6 -13 -13.5t-4 -18.5v-13q0 -10 4 -17.5t13 -12.5q10 -6 27.5 -8.5t43.5 -2.5z" />
    <glyph glyph-name="threeeighths" unicode="&#x215c;" 
d="M353 404q-57 0 -99.5 8t-71.5 24q-28 17 -43 41.5t-17 57.5l133 6q2 -16 7.5 -26.5t16.5 -16.5t28.5 -8.5t44.5 -2.5q25 0 41 2t26 6t14.5 10t4.5 16v16q0 11 -5 18t-15 11q-11 4 -27.5 6t-41.5 2h-94v82h94q21 0 35.5 1.5t23.5 5.5t13.5 10.5t4.5 16.5v10q0 9 -5 14.5
t-15 8.5q-10 4 -25 5t-38 1q-22 0 -36 -1.5t-22 -5.5t-12 -10.5t-6 -16.5l-133 6q2 31 17 52.5t41 34.5q27 13 64.5 18.5t86.5 5.5q50 0 88.5 -4.5t67.5 -15.5q28 -10 43.5 -28.5t15.5 -45.5v-11q0 -17 -7 -31t-19 -24t-28 -16t-35 -9v-18q19 -2 37 -8t33 -16
q15 -11 23.5 -26t8.5 -33v-10q0 -32 -15 -53.5t-43 -34.5t-68 -18.5t-92 -5.5zM0 246v121l318 -20v-81zM396 266v81l304 20v-121zM357 -214q-62 0 -105 8t-68 23q-26 15 -37 36.5t-11 49.5v14q0 19 7 34t21 26q13 11 32.5 18t43.5 9v18q-20 2 -36.5 7.5t-29.5 14.5
q-12 8 -19 20t-7 27v20q0 27 13.5 46.5t40.5 31.5q27 13 65.5 19t89.5 6q52 0 90.5 -6t64.5 -18q27 -12 40.5 -32t13.5 -47v-20q0 -15 -6.5 -27t-19.5 -20q-12 -9 -28.5 -14.5t-36.5 -7.5v-18q24 -2 43.5 -9t32.5 -19q14 -11 21 -26t7 -33v-14q0 -29 -11 -50.5t-37 -36.5
q-25 -15 -68 -22.5t-106 -7.5zM357 44q19 0 33 1.5t24 5.5t15 10.5t5 16.5v19q0 10 -5 16.5t-15 10.5t-24 5.5t-33 1.5q-18 0 -32 -1.5t-24 -5.5t-15 -10.5t-5 -16.5v-19q0 -10 5 -16.5t15 -10.5t24 -5.5t32 -1.5zM357 -131q27 0 44.5 2.5t27.5 8.5q9 5 13 12.5t4 17.5v13
q0 11 -4 18.5t-13 13.5q-10 5 -27.5 8t-44.5 3q-26 0 -43.5 -3t-27.5 -8q-9 -6 -13 -13.5t-4 -18.5v-13q0 -10 4 -17.5t13 -12.5q10 -6 27.5 -8.5t43.5 -2.5z" />
    <glyph glyph-name="fiveeighths" unicode="&#x215d;" 
d="M354 398q-62 0 -104.5 7t-70.5 23q-27 16 -41 41.5t-16 63.5l133 6q2 -17 7.5 -27.5t17.5 -17.5q11 -6 29.5 -9t46.5 -3q26 0 42 2.5t25 8.5q9 5 12 14t3 23v16q0 11 -4 18.5t-16 11.5q-11 5 -33 7t-58 2h-187v222h414v-84h-281v-55h106q48 0 84 -7t60 -21t36 -35.5
t12 -50.5v-34q0 -26 -12.5 -48t-38.5 -39t-68 -26t-98 -9zM0 246v121l318 -20v-81zM396 266v81l304 20v-121zM357 -214q-62 0 -105 8t-68 23q-26 15 -37 36.5t-11 49.5v14q0 19 7 34t21 26q13 11 32.5 18t43.5 9v18q-20 2 -36.5 7.5t-29.5 14.5q-12 9 -19 21t-7 27v20
q0 27 13.5 46t40.5 32q27 12 65.5 18t89.5 6q52 0 90.5 -5.5t65.5 -17.5q26 -13 39.5 -32.5t13.5 -46.5v-20q0 -15 -7 -27t-19 -21t-28.5 -14.5t-36.5 -7.5v-18q24 -2 43.5 -9t32.5 -19q14 -11 21 -26t7 -33v-14q0 -29 -11 -50.5t-37 -36.5q-25 -15 -68 -22.5t-106 -7.5z
M357 44q19 0 33 1.5t24 5.5t15 10.5t5 16.5v19q0 10 -5 16.5t-15 10.5t-24 5.5t-33 1.5q-18 0 -32 -1.5t-24 -5.5t-15 -10.5t-5 -16.5v-19q0 -10 5 -16.5t15 -10.5t24 -5.5t32 -1.5zM357 -131q27 0 44.5 2.5t27.5 8.5q9 5 13 12.5t4 17.5v13q0 11 -4 18.5t-13 13.5
q-10 5 -27.5 8t-44.5 3q-26 0 -43.5 -3t-27.5 -8q-9 -6 -13 -13.5t-4 -18.5v-13q0 -10 4 -17.5t13 -12.5q10 -6 27.5 -8.5t43.5 -2.5z" />
    <glyph glyph-name="seveneighths" unicode="&#x215e;" 
d="M273 411q13 46 30.5 85.5t39.5 75.5q23 36 51.5 69.5t64.5 68.5h-310v97h443v-97q-36 -36 -64.5 -72t-50.5 -73t-38.5 -75t-26.5 -79h-139zM0 246v121l318 -20v-81zM396 266v81l304 20v-121zM357 -214q-62 0 -105 8t-68 23q-26 15 -37 36.5t-11 49.5v14q0 19 7 34t21 26
q13 11 32.5 18t43.5 9v18q-20 2 -36.5 7.5t-29.5 14.5q-12 8 -19 20t-7 27v20q0 27 13.5 46.5t40.5 31.5q27 13 65.5 19t89.5 6q52 0 90.5 -6t64.5 -18q27 -12 40.5 -32t13.5 -47v-20q0 -15 -6.5 -27t-19.5 -20q-12 -9 -28.5 -14.5t-36.5 -7.5v-18q24 -2 43.5 -9t32.5 -19
q14 -11 21 -26t7 -33v-14q0 -29 -11 -50.5t-37 -36.5q-25 -15 -68 -22.5t-106 -7.5zM357 44q19 0 33 1.5t24 5.5t15 10.5t5 16.5v19q0 10 -5 16.5t-15 10.5t-24 5.5t-33 1.5q-18 0 -32 -1.5t-24 -5.5t-15 -10.5t-5 -16.5v-19q0 -10 5 -16.5t15 -10.5t24 -5.5t32 -1.5z
M357 -131q27 0 44.5 2.5t27.5 8.5q9 5 13 12.5t4 17.5v13q0 11 -4 18.5t-13 13.5q-10 5 -27.5 8t-44.5 3q-26 0 -43.5 -3t-27.5 -8q-9 -6 -13 -13.5t-4 -18.5v-13q0 -10 4 -17.5t13 -12.5q10 -6 27.5 -8.5t43.5 -2.5z" />
    <glyph glyph-name="arrowleft" unicode="&#x2190;" 
d="M365 40l-365 350v20l365 350h20v-275h315v-170h-315v-275h-20z" />
    <glyph glyph-name="arrowup" unicode="&#x2191;" 
d="M265 -35v450h-257v20l332 400h20l333 -400v-20h-258v-450h-170z" />
    <glyph glyph-name="arrowright" unicode="&#x2192;" 
d="M315 40v275h-315v170h315v275h20l365 -350v-20l-365 -350h-20z" />
    <glyph glyph-name="arrowdown" unicode="&#x2193;" 
d="M340 -70l-350 400v20h275v450h170v-450h275v-20l-350 -400h-20z" />
    <glyph glyph-name="arrowboth" unicode="&#x2194;" 
d="M273 315v-275h-20l-253 350v20l253 350h20v-275h154v275h20l253 -350v-20l-253 -350h-20v275h-154z" />
    <glyph glyph-name="arrowupdn" unicode="&#x2195;" 
d="M360 -135h-20l-332 365v20h257v300h-257v20l332 365h20l333 -365v-20h-258v-300h258v-20z" />
    <glyph glyph-name="arrowupdnbse" unicode="&#x21a8;" 
d="M63 -242v142h574v-142h-574zM360 -135h-20l-332 365v20h257v300h-257v20l332 365h20l333 -365v-20h-258v-300h258v-20z" />
    <glyph glyph-name="partialdiff" unicode="&#x2202;" 
d="M290 -10q-63 0 -112 14.5t-81 43.5q-32 30 -44 74.5t-1 103.5l11 58q9 49 31.5 88.5t57.5 67.5q34 28 77.5 42.5t92.5 14.5q29 0 53 -5.5t42 -15.5t30 -23.5t17 -28.5h21q6 57 -3.5 98.5t-39.5 73.5t-85.5 58t-143.5 49l120 114q100 -28 166 -67.5t102 -93.5t44.5 -125
t-8.5 -163l-25 -136q-11 -62 -39 -108t-70 -76q-41 -29 -95 -43.5t-118 -14.5zM311 114q29 0 50.5 6.5t36.5 18.5q15 13 24.5 32t14.5 46l13 63q5 24 2.5 41t-13.5 28q-11 12 -30.5 17.5t-48.5 5.5q-30 0 -51.5 -5.5t-35.5 -17.5q-15 -11 -24 -28t-14 -41l-13 -63
q-5 -26 -3 -45t13 -32t30.5 -19.5t48.5 -6.5z" />
    <glyph glyph-name="Delta#1" unicode="&#x2206;" 
d="M33 0v132l204 668h231l199 -668v-132h-634zM505 132l-155 552l-162 -552h317z" />
    <glyph glyph-name="product" unicode="&#x220f;" 
d="M65 -200v1000h570v-1000h-170v868h-230v-868h-170z" />
    <glyph glyph-name="summation" unicode="&#x2211;" 
d="M620 -68v-132h-550v132l324 378l-324 358v132h550v-132h-382l265 -299v-106l-278 -331h395z" />
    <glyph glyph-name="minus" unicode="&#x2212;" 
d="M63 279v142h574v-142h-574z" />
    <glyph glyph-name="radical" unicode="&#x221a;" 
d="M302 0l-155 362l-131 -19v127l215 30l146 -362l173 762h162l-215 -900h-195z" />
    <glyph glyph-name="infinity" unicode="&#x221e;" 
d="M199 113q-32 0 -61 19t-52 56q-23 36 -36.5 90.5t-13.5 122.5t14 122t39 91q25 36 57.5 54.5t68.5 18.5q29 0 52.5 -12.5t41.5 -34.5q18 -23 31.5 -51.5t23.5 -63.5q14 37 27.5 65.5t30.5 50.5t37.5 34t45.5 12q30 0 58.5 -19t51.5 -56t36 -91t13 -121q0 -69 -14 -123
t-39 -90q-26 -37 -59 -55.5t-71 -18.5q-27 0 -49.5 12t-39.5 34q-17 21 -30.5 49t-25.5 63q-13 -36 -26 -64t-30 -49q-16 -21 -36.5 -33t-44.5 -12zM484 227q12 0 21.5 9.5t17.5 31.5q8 21 12 55t4 82q-1 45 -5 77.5t-12 52.5q-7 20 -16.5 29t-21.5 9q-14 0 -27 -10.5
t-24 -29.5q-10 -19 -20 -43t-21 -57q13 -56 24 -93t21 -63q11 -25 22.5 -37.5t24.5 -12.5zM216 227q14 0 27 10.5t24 28.5q10 19 20 42.5t21 55.5q-13 57 -23.5 94.5t-21.5 63.5q-10 25 -21.5 38t-25.5 13q-12 0 -21.5 -9.5t-17.5 -31.5q-8 -21 -12 -55t-4 -82
q1 -45 5 -77.5t12 -52.5q7 -20 16.5 -29t21.5 -9z" />
    <glyph glyph-name="orthogonal" unicode="&#x221f;" 
d="M100 0v700h170v-561h350v-139h-520z" />
    <glyph glyph-name="intersection" unicode="&#x2229;" 
d="M79 0v444q0 63 19 112.5t54 84.5q36 34 86.5 51.5t112.5 17.5t112 -17.5t85 -51.5q36 -35 54.5 -84.5t18.5 -112.5v-444h-170v434q0 37 -5.5 64t-18.5 45q-12 17 -31 26t-46 9t-46 -9t-31 -27q-13 -18 -18.5 -45.5t-5.5 -64.5v-432h-170z" />
    <glyph glyph-name="integral" unicode="&#x222b;" 
d="M192 -205q-19 0 -38 1.5t-36 4.5q-18 3 -35 7t-34 10l20 114q15 -5 29 -8.5t27 -5.5q12 -3 24 -4t23 -1q24 0 41.5 6t28.5 19q12 13 17.5 35t5.5 53v593q0 52 18.5 92t51.5 66q33 27 77 40t94 13q19 0 37.5 -1.5t37.5 -4.5q18 -3 35 -7t34 -10l-20 -114q-14 5 -27.5 8.5
t-26.5 5.5q-13 3 -25 4t-24 1q-24 0 -41 -6t-28 -19q-12 -13 -17.5 -35t-5.5 -53v-593q0 -52 -18.5 -92t-52.5 -66q-33 -27 -77 -40t-95 -13z" />
    <glyph glyph-name="approxequal" unicode="&#x2248;" 
d="M479 383q-24 0 -45.5 6.5t-41.5 19.5q-19 13 -37 33.5t-35 48.5q-40 65 -50.5 78.5t-21.5 20.5q-6 3 -12 5t-13 2q-12 0 -21.5 -5.5t-16.5 -17.5q-7 -13 -10.5 -33t-3.5 -48v-79h-118v85q0 56 11 99t33 73q21 30 50.5 45t66.5 15q24 0 45.5 -6.5t40.5 -19.5
q20 -13 38 -32.5t36 -47.5q27 -46 33.5 -56.5t16.5 -23.5q11 -13 22.5 -20.5t24.5 -7.5q12 0 21.5 5.5t15.5 18.5q7 12 10.5 32.5t3.5 48.5v78h118v-85q0 -56 -11 -99t-33 -73q-21 -30 -50.5 -45t-66.5 -15zM479 -17q-24 0 -45.5 6.5t-41.5 19.5q-19 13 -37 33.5t-35 48.5
q-25 40 -33 52.5t-19 25.5q-11 14 -23 21t-25 7q-12 0 -21 -5.5t-15 -17.5q-7 -13 -10 -33t-3 -48v-79h-118v85q0 56 11 99t33 73q21 30 50.5 45t66.5 15q24 0 45.5 -6.5t40.5 -19.5q20 -13 38 -32.5t36 -47.5q19 -33 29.5 -49.5t22.5 -30.5q11 -13 23 -20.5t25 -7.5
q12 0 21 5.5t15 18.5q6 12 9 32t3 49v78h118v-85q0 -56 -11 -99t-33 -73q-21 -30 -50.5 -45t-66.5 -15z" />
    <glyph glyph-name="notequal" unicode="&#x2260;" 
d="M637 173h-280l-43 -173h-128l43 173h-166v135h200l46 185h-246v135h280l43 172h128l-43 -172h166v-135h-200l-46 -185h246v-135z" />
    <glyph glyph-name="equivalence" unicode="&#x2261;" 
d="M63 514v142h574v-142h-574zM63 272v142h574v-142h-574zM63 30v142h574v-142h-574z" />
    <glyph glyph-name="lessequal" unicode="&#x2264;" 
d="M607 200l-514 215v170l514 215v-137l-387 -163l387 -163v-137zM93 0v122h514v-122h-514z" />
    <glyph glyph-name="greaterequal" unicode="&#x2265;" 
d="M93 200v137l387 163l-387 163v137l514 -215v-170zM607 0h-514v122h514v-122z" />
    <glyph glyph-name="logicalnotreversed" unicode="&#x2310;" 
d="M21 0v421h658v-142h-516v-279h-142z" />
    <glyph glyph-name="integralbt" unicode="&#x2321;" 
d="M229 -205q-17 0 -35.5 1.5t-37.5 4.5q-19 2 -37.5 6.5t-34.5 10.5l20 114q15 -5 29 -8.5t27 -5.5q12 -3 24 -4t23 -1q24 0 41.5 6.5t29.5 19.5q11 14 16.5 35.5t5.5 51.5v774h170v-794q0 -53 -19 -93t-52 -66q-34 -26 -77.5 -39t-92.5 -13z" />
    <glyph glyph-name="uni23af" unicode="&#x23af;" 
d="M0 315v170h700v-170h-700z" />
    <glyph glyph-name="lighthorzbxd" unicode="&#x2500;" 
d="M-20 350h740v-100h-740v100z" />
    <glyph glyph-name="heavyhorzbxd" unicode="&#x2501;" 
d="M-20 400h740v-200h-740v200z" />
    <glyph glyph-name="lightvertbxd" unicode="&#x2502;" 
d="M300 1050h100v-1500h-100v1500z" />
    <glyph glyph-name="heavyvertbxd" unicode="&#x2503;" 
d="M250 1050h200v-1500h-200v1500z" />
    <glyph glyph-name="lighttrpldashhorzbxd" unicode="&#x2504;" 
d="M38 350h156v-100h-156v100zM271 350h156v-100h-156v100zM504 350h156v-100h-156v100z" />
    <glyph glyph-name="heavytrpldashhorzbxd" unicode="&#x2505;" 
d="M38 400h156v-200h-156v200zM271 400h156v-200h-156v200zM504 400h156v-200h-156v200z" />
    <glyph glyph-name="lighttrpldashvertbxd" unicode="&#x2506;" 
d="M300 55h100v-244h-100v244zM300 421h100v-244h-100v244zM300 787h100v-244h-100v244zM300 1153h100v-244h-100v244z" />
    <glyph glyph-name="heavytrpldashvertbxd" unicode="&#x2507;" 
d="M250 55h200v-244h-200v244zM250 421h200v-244h-200v244zM250 787h200v-244h-200v244zM250 1153h200v-244h-200v244z" />
    <glyph glyph-name="lightquaddashhorzbxd" unicode="&#x2508;" 
d="M21 350h132v-100h-132v100zM196 350h132v-100h-132v100zM371 350h132v-100h-132v100zM546 350h132v-100h-132v100z" />
    <glyph glyph-name="heavyquaddashhorzbxd" unicode="&#x2509;" 
d="M21 400h132v-200h-132v200zM196 400h132v-200h-132v200zM371 400h132v-200h-132v200zM546 400h132v-200h-132v200z" />
    <glyph glyph-name="lightquaddashvertbxd" unicode="&#x250a;" 
d="M300 -9h100v-207h-100v207zM300 266h100v-207h-100v207zM300 541h100v-207h-100v207zM300 816h100v-207h-100v207z" />
    <glyph glyph-name="heavyquaddashvertbxd" unicode="&#x250b;" 
d="M250 -9h200v-207h-200v207zM250 266h200v-207h-200v207zM250 541h200v-207h-200v207zM250 816h200v-207h-200v207z" />
    <glyph glyph-name="lightdnrightbxd" unicode="&#x250c;" 
d="M300 350h420v-100h-320v-700h-100v800z" />
    <glyph glyph-name="dnlightrightheavybxd" unicode="&#x250d;" 
d="M300 400h420v-200h-320v-650h-100v850z" />
    <glyph glyph-name="dnheavyrightlightbxd" unicode="&#x250e;" 
d="M250 350h470v-100h-270v-700h-200v800z" />
    <glyph glyph-name="heavydnrightbxd" unicode="&#x250f;" 
d="M250 400h470v-200h-270v-650h-200v850z" />
    <glyph glyph-name="lightdnleftbxd" unicode="&#x2510;" 
d="M-20 350h420v-800h-100v700h-320v100z" />
    <glyph glyph-name="dnlightleftheavybxd" unicode="&#x2511;" 
d="M-20 400h420v-850h-100v650h-320v200z" />
    <glyph glyph-name="dnheavyleftlightbxd" unicode="&#x2512;" 
d="M-20 350h470v-800h-200v700h-270v100z" />
    <glyph glyph-name="heavydnleftbxd" unicode="&#x2513;" 
d="M-20 400h470v-850h-200v650h-270v200z" />
    <glyph glyph-name="lightuprightbxd" unicode="&#x2514;" 
d="M300 1050h100v-700h320v-100h-420v800z" />
    <glyph glyph-name="uplightrightheavybxd" unicode="&#x2515;" 
d="M300 1050h100v-650h320v-200h-420v850z" />
    <glyph glyph-name="upheavyrightlightbxd" unicode="&#x2516;" 
d="M250 1050h200v-700h270v-100h-470v800z" />
    <glyph glyph-name="heavyuprightbxd" unicode="&#x2517;" 
d="M250 1050h200v-650h270v-200h-470v850z" />
    <glyph glyph-name="lightupleftbxd" unicode="&#x2518;" 
d="M-20 350h320v700h100v-800h-420v100z" />
    <glyph glyph-name="uplightleftheavybxd" unicode="&#x2519;" 
d="M-20 400h320v650h100v-850h-420v200z" />
    <glyph glyph-name="upheavyleftlightbxd" unicode="&#x251a;" 
d="M-20 350h270v700h200v-800h-470v100z" />
    <glyph glyph-name="heavyupleftbxd" unicode="&#x251b;" 
d="M-20 400h270v650h200v-850h-470v200z" />
    <glyph glyph-name="lightvertrightbxd" unicode="&#x251c;" 
d="M300 1050h100v-700h320v-100h-320v-700h-100v1500z" />
    <glyph glyph-name="vertlightrightheavybxd" unicode="&#x251d;" 
d="M300 1050h100v-650h320v-200h-320v-650h-100v1500z" />
    <glyph glyph-name="upheavyrightdnlightbxd" unicode="&#x251e;" 
d="M250 1050h200v-700h270v-100h-320v-700h-100v700h-50v800z" />
    <glyph glyph-name="dnheavyrightuplightbxd" unicode="&#x251f;" 
d="M250 350h50v700h100v-700h320v-100h-270v-700h-200v800z" />
    <glyph glyph-name="vertheavyrightlightbxd" unicode="&#x2520;" 
d="M250 1050h200v-700h270v-100h-270v-700h-200v1500z" />
    <glyph glyph-name="dnlightrightupheavybxd" unicode="&#x2521;" 
d="M250 1050h200v-650h270v-200h-320v-650h-100v650h-50v850z" />
    <glyph glyph-name="uplightrightdnheavybxd" unicode="&#x2522;" 
d="M250 400h50v650h100v-650h320v-200h-270v-650h-200v850z" />
    <glyph glyph-name="heavyvertrightbxd" unicode="&#x2523;" 
d="M250 1050h200v-650h270v-200h-270v-650h-200v1500z" />
    <glyph glyph-name="lightvertleftbxd" unicode="&#x2524;" 
d="M-20 350h320v700h100v-1500h-100v700h-320v100z" />
    <glyph glyph-name="vertlightleftheavybxd" unicode="&#x2525;" 
d="M-20 400h320v650h100v-1500h-100v650h-320v200z" />
    <glyph glyph-name="upheavyleftdnlightbxd" unicode="&#x2526;" 
d="M-20 350h270v700h200v-800h-50v-700h-100v700h-320v100z" />
    <glyph glyph-name="dnheavyleftuplightbxd" unicode="&#x2527;" 
d="M-20 350h320v700h100v-700h50v-800h-200v700h-270v100z" />
    <glyph glyph-name="vertheavyleftlightbxd" unicode="&#x2528;" 
d="M-20 350h270v700h200v-1500h-200v700h-270v100z" />
    <glyph glyph-name="dnlightleftupheavybxd" unicode="&#x2529;" 
d="M-20 400h270v650h200v-850h-50v-650h-100v650h-320v200z" />
    <glyph glyph-name="uplightleftdnheavybxd" unicode="&#x252a;" 
d="M-20 400h320v650h100v-650h50v-850h-200v650h-270v200z" />
    <glyph glyph-name="heavyvertleftbxd" unicode="&#x252b;" 
d="M-20 400h270v650h200v-1500h-200v650h-270v200z" />
    <glyph glyph-name="lightdnhorzbxd" unicode="&#x252c;" 
d="M-20 350h740v-100h-320v-700h-100v700h-320v100z" />
    <glyph glyph-name="leftheavyrightdnlightbxd" unicode="&#x252d;" 
d="M-20 400h420v-50h320v-100h-320v-700h-100v650h-320v200z" />
    <glyph glyph-name="rightheavyleftdnlightbxd" unicode="&#x252e;" 
d="M-20 350h320v50h420v-200h-320v-650h-100v700h-320v100z" />
    <glyph glyph-name="dnlighthorzheavybxd" unicode="&#x252f;" 
d="M-20 400h740v-200h-320v-650h-100v650h-320v200z" />
    <glyph glyph-name="dnheavyhorzlightbxd" unicode="&#x2530;" 
d="M-20 350h740v-100h-270v-700h-200v700h-270v100z" />
    <glyph glyph-name="rightlightleftdnheavybxd" unicode="&#x2531;" 
d="M-20 400h470v-50h270v-100h-270v-700h-200v650h-270v200z" />
    <glyph glyph-name="leftlightrightdnheavybxd" unicode="&#x2532;" 
d="M-20 350h270v50h470v-200h-270v-650h-200v700h-270v100z" />
    <glyph glyph-name="heavydnhorzbxd" unicode="&#x2533;" 
d="M-20 400h740v-200h-270v-650h-200v650h-270v200z" />
    <glyph glyph-name="lightuphorzbxd" unicode="&#x2534;" 
d="M-20 350h320v700h100v-700h320v-100h-740v100z" />
    <glyph glyph-name="leftheavyrightuplightbxd" unicode="&#x2535;" 
d="M-20 400h320v650h100v-700h320v-100h-320v-50h-420v200z" />
    <glyph glyph-name="rightheavyleftuplightbxd" unicode="&#x2536;" 
d="M-20 350h320v700h100v-650h320v-200h-420v50h-320v100z" />
    <glyph glyph-name="uplighthorzheavybxd" unicode="&#x2537;" 
d="M-20 400h320v650h100v-650h320v-200h-740v200z" />
    <glyph glyph-name="upheavyhorzlightbxd" unicode="&#x2538;" 
d="M-20 350h270v700h200v-700h270v-100h-740v100z" />
    <glyph glyph-name="rightlightleftupheavybxd" unicode="&#x2539;" 
d="M-20 400h270v650h200v-700h270v-100h-270v-50h-470v200z" />
    <glyph glyph-name="leftlightrightupheavybxd" unicode="&#x253a;" 
d="M-20 350h270v700h200v-650h270v-200h-470v50h-270v100z" />
    <glyph glyph-name="heavyuphorzbxd" unicode="&#x253b;" 
d="M-20 400h270v650h200v-650h270v-200h-740v200z" />
    <glyph glyph-name="lightverthorzbxd" unicode="&#x253c;" 
d="M-20 350h320v700h100v-700h320v-100h-320v-700h-100v700h-320v100z" />
    <glyph glyph-name="leftheavyrightvertlightbxd" unicode="&#x253d;" 
d="M-20 400h320v650h100v-700h320v-100h-320v-700h-100v650h-320v200z" />
    <glyph glyph-name="rightheavyleftvertlightbxd" unicode="&#x253e;" 
d="M-20 350h320v700h100v-650h320v-200h-320v-650h-100v700h-320v100z" />
    <glyph glyph-name="vertlighthorzheavybxd" unicode="&#x253f;" 
d="M-20 400h320v650h100v-650h320v-200h-320v-650h-100v650h-320v200z" />
    <glyph glyph-name="upheavydnhorzlightbxd" unicode="&#x2540;" 
d="M-20 350h270v700h200v-700h270v-100h-320v-700h-100v700h-320v100z" />
    <glyph glyph-name="dnheavyuphorzlightbxd" unicode="&#x2541;" 
d="M-20 350h320v700h100v-700h320v-100h-270v-700h-200v700h-270v100z" />
    <glyph glyph-name="vertheavyhorzlightbxd" unicode="&#x2542;" 
d="M-20 350h270v700h200v-700h270v-100h-270v-700h-200v700h-270v100z" />
    <glyph glyph-name="leftupheavyrightdnlightbxd" unicode="&#x2543;" 
d="M-20 400h270v650h200v-700h270v-100h-270v-50h-50v-650h-100v650h-320v200z" />
    <glyph glyph-name="rightupheavyleftdnlightbxd" unicode="&#x2544;" 
d="M-20 350h270v700h200v-650h270v-200h-320v-650h-100v650h-50v50h-270v100z" />
    <glyph glyph-name="leftdnheavyrightuplightbxd" unicode="&#x2545;" 
d="M-20 400h320v650h100v-650h50v-50h270v-100h-270v-700h-200v650h-270v200z" />
    <glyph glyph-name="rightdnheavyleftuplightbxd" unicode="&#x2546;" 
d="M-20 350h270v50h50v650h100v-650h320v-200h-270v-650h-200v700h-270v100z" />
    <glyph glyph-name="dnlightuphorzheavybxd" unicode="&#x2547;" 
d="M-20 400h270v650h200v-650h270v-200h-320v-650h-100v650h-320v200z" />
    <glyph glyph-name="uplightdnhorzheavybxd" unicode="&#x2548;" 
d="M-20 400h320v650h100v-650h320v-200h-270v-650h-200v650h-270v200z" />
    <glyph glyph-name="rightlightleftvertheavybxd" unicode="&#x2549;" 
d="M-20 400h270v650h200v-700h270v-100h-270v-700h-200v650h-270v200z" />
    <glyph glyph-name="leftlightrightvertheavybxd" unicode="&#x254a;" 
d="M-20 350h270v700h200v-650h270v-200h-270v-650h-200v700h-270v100z" />
    <glyph glyph-name="heavyverthorzbxd" unicode="&#x254b;" 
d="M-20 400h270v650h200v-650h270v-200h-270v-650h-200v650h-270v200z" />
    <glyph glyph-name="lightdbldashhorzbxd" unicode="&#x254c;" 
d="M87 350h175v-100h-175v100zM437 350h175v-100h-175v100z" />
    <glyph glyph-name="heavydbldashhorzbxd" unicode="&#x254d;" 
d="M87 400h175v-200h-175v200zM437 400h175v-200h-175v200z" />
    <glyph glyph-name="lightdbldashvertbxd" unicode="&#x254e;" 
d="M300 162h100v-275h-100v275zM300 712h100v-275h-100v275z" />
    <glyph glyph-name="heavydbldashvertbxd" unicode="&#x254f;" 
d="M250 162h200v-275h-200v275zM250 712h200v-275h-200v275z" />
    <glyph glyph-name="dblhorzbxd" unicode="&#x2550;" 
d="M-20 450h740v-100h-740v100zM-20 250h740v-100h-740v100z" />
    <glyph glyph-name="dblvertbxd" unicode="&#x2551;" 
d="M200 1050h100v-1500h-100v1500zM400 1050h100v-1500h-100v1500z" />
    <glyph glyph-name="dnsngrightdblbxd" unicode="&#x2552;" 
d="M300 450h420v-100h-320v-100h320v-100h-320v-600h-100v900z" />
    <glyph glyph-name="dndblrightsngbxd" unicode="&#x2553;" 
d="M200 350h520v-100h-220v-700h-100v700h-100v-700h-100v800z" />
    <glyph glyph-name="dbldnrightbxd" unicode="&#x2554;" 
d="M200 450h520v-100h-420v-800h-100v900zM400 250h320v-100h-220v-600h-100v700z" />
    <glyph glyph-name="dnsngleftdblbxd" unicode="&#x2555;" 
d="M-20 450h420v-900h-100v600h-320v100h320v100h-320v100z" />
    <glyph glyph-name="dndblleftsngbxd" unicode="&#x2556;" 
d="M-20 350h520v-800h-100v700h-100v-700h-100v700h-220v100z" />
    <glyph glyph-name="dbldnleftbxd" unicode="&#x2557;" 
d="M-20 450h520v-900h-100v800h-420v100zM-20 250h320v-700h-100v600h-220v100z" />
    <glyph glyph-name="upsngrightdblbxd" unicode="&#x2558;" 
d="M300 1050h100v-600h320v-100h-320v-100h320v-100h-420v900z" />
    <glyph glyph-name="updblrightsngbxd" unicode="&#x2559;" 
d="M200 1050h100v-700h100v700h100v-700h220v-100h-520v800z" />
    <glyph glyph-name="dbluprightbxd" unicode="&#x255a;" 
d="M200 1050h100v-800h420v-100h-520v900zM400 1050h100v-600h220v-100h-320v700z" />
    <glyph glyph-name="upsngleftdblbxd" unicode="&#x255b;" 
d="M-20 450h320v600h100v-900h-420v100h320v100h-320v100z" />
    <glyph glyph-name="updblleftsngbxd" unicode="&#x255c;" 
d="M-20 350h220v700h100v-700h100v700h100v-800h-520v100z" />
    <glyph glyph-name="dblupleftbxd" unicode="&#x255d;" 
d="M-20 250h420v800h100v-900h-520v100zM-20 450h220v600h100v-700h-320v100z" />
    <glyph glyph-name="vertsngrightdblbxd" unicode="&#x255e;" 
d="M300 1050h100v-600h320v-100h-320v-100h320v-100h-320v-600h-100v1500z" />
    <glyph glyph-name="vertdblrightsngbxd" unicode="&#x255f;" 
d="M400 1050h100v-700h220v-100h-220v-700h-100v1500zM200 1050h100v-1500h-100v1500z" />
    <glyph glyph-name="dblvertrightbxd" unicode="&#x2560;" 
d="M200 1050h100v-1500h-100v1500zM400 1050h100v-600h220v-100h-320v700zM400 250h320v-100h-220v-600h-100v700z" />
    <glyph glyph-name="vertsngleftdblbxd" unicode="&#x2561;" 
d="M-20 450h320v600h100v-1500h-100v600h-320v100h320v100h-320v100z" />
    <glyph glyph-name="vertdblleftsngbxd" unicode="&#x2562;" 
d="M-20 350h220v700h100v-1500h-100v700h-220v100zM400 1050h100v-1500h-100v1500z" />
    <glyph glyph-name="dblvertleftbxd" unicode="&#x2563;" 
d="M400 1050h100v-1500h-100v1500zM-20 250h320v-700h-100v600h-220v100zM-20 450h220v600h100v-700h-320v100z" />
    <glyph glyph-name="dnsnghorzdblbxd" unicode="&#x2564;" 
d="M-20 250h740v-100h-320v-600h-100v600h-320v100zM-20 450h740v-100h-740v100z" />
    <glyph glyph-name="dndblhorzsngbxd" unicode="&#x2565;" 
d="M-20 350h740v-100h-220v-700h-100v700h-100v-700h-100v700h-220v100z" />
    <glyph glyph-name="dbldnhorzbxd" unicode="&#x2566;" 
d="M-20 250h320v-700h-100v600h-220v100zM400 250h320v-100h-220v-600h-100v700zM-20 450h740v-100h-740v100z" />
    <glyph glyph-name="upsnghorzdblbxd" unicode="&#x2567;" 
d="M-20 450h320v600h100v-600h320v-100h-740v100zM-20 250h740v-100h-740v100z" />
    <glyph glyph-name="updblhorzsngbxd" unicode="&#x2568;" 
d="M-20 350h220v700h100v-700h100v700h100v-700h220v-100h-740v100z" />
    <glyph glyph-name="dbluphorzbxd" unicode="&#x2569;" 
d="M-20 450h220v600h100v-700h-320v100zM400 1050h100v-600h220v-100h-320v700zM-20 250h740v-100h-740v100z" />
    <glyph glyph-name="vertsnghorzdblbxd" unicode="&#x256a;" 
d="M-20 450h320v600h100v-600h320v-100h-320v-100h320v-100h-320v-600h-100v600h-320v100h320v100h-320v100z" />
    <glyph glyph-name="vertdblhorzsngbxd" unicode="&#x256b;" 
d="M-20 350h220v700h100v-700h100v700h100v-700h220v-100h-220v-700h-100v700h-100v-700h-100v700h-220v100z" />
    <glyph glyph-name="dblverthorzbxd" unicode="&#x256c;" 
d="M-20 450h220v600h100v-700h-320v100zM-20 250h320v-700h-100v600h-220v100zM400 1050h100v-600h220v-100h-320v700zM400 250h320v-100h-220v-600h-100v700z" />
    <glyph glyph-name="lightarcdnrightbxd" unicode="&#x256d;" 
d="M300 -50q0 83 31.5 156t85.5 127t127 85.5t156 31.5h20v-100h-20q-62 0 -117 -23.5t-95.5 -64t-64 -95.5t-23.5 -117v-400h-100v400z" />
    <glyph glyph-name="lightarcdnleftbxd" unicode="&#x256e;" 
d="M400 -450h-100v400q0 62 -23.5 117t-64 95.5t-95.5 64t-117 23.5h-20v100h20q83 0 156 -31.5t127 -85.5t85.5 -127t31.5 -156v-400z" />
    <glyph glyph-name="lightarcupleftbxd" unicode="&#x256f;" 
d="M400 650q0 -83 -31.5 -156t-85.5 -127t-127 -85.5t-156 -31.5h-20v100h20q62 0 117 23.5t95.5 64t64 95.5t23.5 117v400h100v-400z" />
    <glyph glyph-name="lightarcuprightbxd" unicode="&#x2570;" 
d="M300 1050h100v-400q0 -62 23.5 -117t64 -95.5t95.5 -64t117 -23.5h20v-100h-20q-83 0 -156 31.5t-127 85.5t-85.5 127t-31.5 156v400z" />
    <glyph glyph-name="lightdiaguprightdnleftbxd" unicode="&#x2571;" 
d="M641 850h59v-93l-641 -1007h-59v93z" />
    <glyph glyph-name="lightdiagupleftdnrightbxd" unicode="&#x2572;" 
d="M700 -157v-93h-59l-641 1007v93h59z" />
    <glyph glyph-name="lightdiagcrossbxd" unicode="&#x2573;" 
d="M291 300l-291 457v93h59l291 -458l291 458h59v-93l-291 -457l291 -457v-93h-59l-291 457l-291 -457h-59v93z" />
    <glyph glyph-name="lightleftbxd" unicode="&#x2574;" 
d="M-20 350h420v-100h-420v100z" />
    <glyph glyph-name="lightupbxd" unicode="&#x2575;" 
d="M300 1050h100v-800h-100v800z" />
    <glyph glyph-name="lightrightbxd" unicode="&#x2576;" 
d="M300 350h420v-100h-420v100z" />
    <glyph glyph-name="lightdnbxd" unicode="&#x2577;" 
d="M300 350h100v-800h-100v800z" />
    <glyph glyph-name="heavyleftbxd" unicode="&#x2578;" 
d="M-20 400h420v-200h-420v200z" />
    <glyph glyph-name="heavyupbxd" unicode="&#x2579;" 
d="M250 1050h200v-800h-200v800z" />
    <glyph glyph-name="heavyrightbxd" unicode="&#x257a;" 
d="M300 400h420v-200h-420v200z" />
    <glyph glyph-name="heavydnbxd" unicode="&#x257b;" 
d="M250 350h200v-800h-200v800z" />
    <glyph glyph-name="lightleftheavyrightbxd" unicode="&#x257c;" 
d="M-20 350h320v50h420v-200h-420v50h-320v100z" />
    <glyph glyph-name="lightupheavydnbxd" unicode="&#x257d;" 
d="M250 350h50v700h100v-700h50v-800h-200v800z" />
    <glyph glyph-name="heavyleftlightrightbxd" unicode="&#x257e;" 
d="M-20 400h420v-50h320v-100h-320v-50h-420v200z" />
    <glyph glyph-name="heavyuplightdnbxd" unicode="&#x257f;" 
d="M250 1050h200v-800h-50v-700h-100v700h-50v800z" />
    <glyph glyph-name="uphalfblock" unicode="&#x2580;" 
d="M0 850h700v-550h-700v550z" />
    <glyph glyph-name="dneighthblock" unicode="&#x2581;" 
d="M0 -113h700v-137h-700v137z" />
    <glyph glyph-name="dnquarterblock" unicode="&#x2582;" 
d="M0 25h700v-275h-700v275z" />
    <glyph glyph-name="dnthreeeighthsblock" unicode="&#x2583;" 
d="M0 162h700v-412h-700v412z" />
    <glyph glyph-name="dnhalfblock" unicode="&#x2584;" 
d="M0 300h700v-550h-700v550z" />
    <glyph glyph-name="dnfiveeighthsblock" unicode="&#x2585;" 
d="M0 437h700v-687h-700v687z" />
    <glyph glyph-name="dnthreequartersblock" unicode="&#x2586;" 
d="M0 575h700v-825h-700v825z" />
    <glyph glyph-name="dnseveneighthsblock" unicode="&#x2587;" 
d="M0 712h700v-962h-700v962z" />
    <glyph glyph-name="fullblock" unicode="&#x2588;" 
d="M0 850h700v-1100h-700v1100z" />
    <glyph glyph-name="leftseveneighthsblock" unicode="&#x2589;" 
d="M0 850h612v-1100h-612v1100z" />
    <glyph glyph-name="leftthreequartersblock" unicode="&#x258a;" 
d="M0 850h525v-1100h-525v1100z" />
    <glyph glyph-name="leftfiveeighthsblock" unicode="&#x258b;" 
d="M0 850h437v-1100h-437v1100z" />
    <glyph glyph-name="lefthalfblock" unicode="&#x258c;" 
d="M0 850h350v-1100h-350v1100z" />
    <glyph glyph-name="leftthreeeighthsblock" unicode="&#x258d;" 
d="M0 850h262v-1100h-262v1100z" />
    <glyph glyph-name="leftquarterblock" unicode="&#x258e;" 
d="M0 850h175v-1100h-175v1100z" />
    <glyph glyph-name="lefteighthblock" unicode="&#x258f;" 
d="M0 850h87v-1100h-87v1100z" />
    <glyph glyph-name="righthalfblock" unicode="&#x2590;" 
d="M350 850h350v-1100h-350v1100z" />
    <glyph glyph-name="lightshade" unicode="&#x2591;" 
d="M0 -220h20v-30h-20v30zM50 -170h20v-30h-20v30zM0 -120h20v-30h-20v30zM50 -70h20v-30h-20v30zM0 -20h20v-30h-20v30zM50 30h20v-30h-20v30zM0 80h20v-30h-20v30zM50 130h20v-30h-20v30zM0 180h20v-30h-20v30zM50 230h20v-30h-20v30zM0 280h20v-30h-20v30zM50 330h20v-30
h-20v30zM0 380h20v-30h-20v30zM50 430h20v-30h-20v30zM0 480h20v-30h-20v30zM50 530h20v-30h-20v30zM0 580h20v-30h-20v30zM50 630h20v-30h-20v30zM0 680h20v-30h-20v30zM50 730h20v-30h-20v30zM0 780h20v-30h-20v30zM50 830h20v-30h-20v30zM100 -220h20v-30h-20v30z
M150 -170h20v-30h-20v30zM100 -120h20v-30h-20v30zM150 -70h20v-30h-20v30zM100 -20h20v-30h-20v30zM150 30h20v-30h-20v30zM100 80h20v-30h-20v30zM150 130h20v-30h-20v30zM100 180h20v-30h-20v30zM150 230h20v-30h-20v30zM100 280h20v-30h-20v30zM150 330h20v-30h-20v30z
M100 380h20v-30h-20v30zM150 430h20v-30h-20v30zM100 480h20v-30h-20v30zM150 530h20v-30h-20v30zM100 580h20v-30h-20v30zM150 630h20v-30h-20v30zM100 680h20v-30h-20v30zM150 730h20v-30h-20v30zM100 780h20v-30h-20v30zM150 830h20v-30h-20v30zM200 -220h20v-30h-20v30z
M250 -170h20v-30h-20v30zM200 -120h20v-30h-20v30zM250 -70h20v-30h-20v30zM200 -20h20v-30h-20v30zM250 30h20v-30h-20v30zM200 80h20v-30h-20v30zM250 130h20v-30h-20v30zM200 180h20v-30h-20v30zM250 230h20v-30h-20v30zM200 280h20v-30h-20v30zM250 330h20v-30h-20v30z
M200 380h20v-30h-20v30zM250 430h20v-30h-20v30zM200 480h20v-30h-20v30zM250 530h20v-30h-20v30zM200 580h20v-30h-20v30zM250 630h20v-30h-20v30zM200 680h20v-30h-20v30zM250 730h20v-30h-20v30zM200 780h20v-30h-20v30zM250 830h20v-30h-20v30zM300 -220h20v-30h-20v30z
M350 -170h20v-30h-20v30zM300 -120h20v-30h-20v30zM350 -70h20v-30h-20v30zM300 -20h20v-30h-20v30zM350 30h20v-30h-20v30zM300 80h20v-30h-20v30zM350 130h20v-30h-20v30zM300 180h20v-30h-20v30zM350 230h20v-30h-20v30zM300 280h20v-30h-20v30zM350 330h20v-30h-20v30z
M300 380h20v-30h-20v30zM350 430h20v-30h-20v30zM300 480h20v-30h-20v30zM350 530h20v-30h-20v30zM300 580h20v-30h-20v30zM350 630h20v-30h-20v30zM300 680h20v-30h-20v30zM350 730h20v-30h-20v30zM300 780h20v-30h-20v30zM350 830h20v-30h-20v30zM400 -220h20v-30h-20v30z
M450 -170h20v-30h-20v30zM400 -120h20v-30h-20v30zM450 -70h20v-30h-20v30zM400 -20h20v-30h-20v30zM450 30h20v-30h-20v30zM400 80h20v-30h-20v30zM450 130h20v-30h-20v30zM400 180h20v-30h-20v30zM450 230h20v-30h-20v30zM400 280h20v-30h-20v30zM450 330h20v-30h-20v30z
M400 380h20v-30h-20v30zM450 430h20v-30h-20v30zM400 480h20v-30h-20v30zM450 530h20v-30h-20v30zM400 580h20v-30h-20v30zM450 630h20v-30h-20v30zM400 680h20v-30h-20v30zM450 730h20v-30h-20v30zM400 780h20v-30h-20v30zM450 830h20v-30h-20v30zM500 -220h20v-30h-20v30z
M550 -170h20v-30h-20v30zM500 -120h20v-30h-20v30zM550 -70h20v-30h-20v30zM500 -20h20v-30h-20v30zM550 30h20v-30h-20v30zM500 80h20v-30h-20v30zM550 130h20v-30h-20v30zM500 180h20v-30h-20v30zM550 230h20v-30h-20v30zM500 280h20v-30h-20v30zM550 330h20v-30h-20v30z
M500 380h20v-30h-20v30zM550 430h20v-30h-20v30zM500 480h20v-30h-20v30zM550 530h20v-30h-20v30zM500 580h20v-30h-20v30zM550 630h20v-30h-20v30zM500 680h20v-30h-20v30zM550 730h20v-30h-20v30zM500 780h20v-30h-20v30zM550 830h20v-30h-20v30zM600 -220h20v-30h-20v30z
M650 -170h20v-30h-20v30zM600 -120h20v-30h-20v30zM650 -70h20v-30h-20v30zM600 -20h20v-30h-20v30zM650 30h20v-30h-20v30zM600 80h20v-30h-20v30zM650 130h20v-30h-20v30zM600 180h20v-30h-20v30zM650 230h20v-30h-20v30zM600 280h20v-30h-20v30zM650 330h20v-30h-20v30z
M600 380h20v-30h-20v30zM650 430h20v-30h-20v30zM600 480h20v-30h-20v30zM650 530h20v-30h-20v30zM600 580h20v-30h-20v30zM650 630h20v-30h-20v30zM600 680h20v-30h-20v30zM650 730h20v-30h-20v30zM600 780h20v-30h-20v30zM650 830h20v-30h-20v30z" />
    <glyph glyph-name="mediumshade" unicode="&#x2592;" 
d="M0 -200h40v-50h-40v50zM50 -150h40v-50h-40v50zM0 -100h40v-50h-40v50zM50 -50h40v-50h-40v50zM0 0h40v-50h-40v50zM50 50h40v-50h-40v50zM0 100h40v-50h-40v50zM50 150h40v-50h-40v50zM0 200h40v-50h-40v50zM50 250h40v-50h-40v50zM0 300h40v-50h-40v50zM50 350h40v-50
h-40v50zM0 400h40v-50h-40v50zM50 450h40v-50h-40v50zM0 500h40v-50h-40v50zM50 550h40v-50h-40v50zM0 600h40v-50h-40v50zM50 650h40v-50h-40v50zM0 700h40v-50h-40v50zM50 750h40v-50h-40v50zM0 800h40v-50h-40v50zM50 850h40v-50h-40v50zM100 -200h40v-50h-40v50z
M150 -150h40v-50h-40v50zM100 -100h40v-50h-40v50zM150 -50h40v-50h-40v50zM100 0h40v-50h-40v50zM150 50h40v-50h-40v50zM100 100h40v-50h-40v50zM150 150h40v-50h-40v50zM100 200h40v-50h-40v50zM150 250h40v-50h-40v50zM100 300h40v-50h-40v50zM150 350h40v-50h-40v50z
M100 400h40v-50h-40v50zM150 450h40v-50h-40v50zM100 500h40v-50h-40v50zM150 550h40v-50h-40v50zM100 600h40v-50h-40v50zM150 650h40v-50h-40v50zM100 700h40v-50h-40v50zM150 750h40v-50h-40v50zM100 800h40v-50h-40v50zM150 850h40v-50h-40v50zM200 -200h40v-50h-40v50z
M250 -150h40v-50h-40v50zM200 -100h40v-50h-40v50zM250 -50h40v-50h-40v50zM200 0h40v-50h-40v50zM250 50h40v-50h-40v50zM200 100h40v-50h-40v50zM250 150h40v-50h-40v50zM200 200h40v-50h-40v50zM250 250h40v-50h-40v50zM200 300h40v-50h-40v50zM250 350h40v-50h-40v50z
M200 400h40v-50h-40v50zM250 450h40v-50h-40v50zM200 500h40v-50h-40v50zM250 550h40v-50h-40v50zM200 600h40v-50h-40v50zM250 650h40v-50h-40v50zM200 700h40v-50h-40v50zM250 750h40v-50h-40v50zM200 800h40v-50h-40v50zM250 850h40v-50h-40v50zM300 -200h40v-50h-40v50z
M350 -150h40v-50h-40v50zM300 -100h40v-50h-40v50zM350 -50h40v-50h-40v50zM300 0h40v-50h-40v50zM350 50h40v-50h-40v50zM300 100h40v-50h-40v50zM350 150h40v-50h-40v50zM300 200h40v-50h-40v50zM350 250h40v-50h-40v50zM300 300h40v-50h-40v50zM350 350h40v-50h-40v50z
M300 400h40v-50h-40v50zM350 450h40v-50h-40v50zM300 500h40v-50h-40v50zM350 550h40v-50h-40v50zM300 600h40v-50h-40v50zM350 650h40v-50h-40v50zM300 700h40v-50h-40v50zM350 750h40v-50h-40v50zM300 800h40v-50h-40v50zM350 850h40v-50h-40v50zM400 -200h40v-50h-40v50z
M450 -150h40v-50h-40v50zM400 -100h40v-50h-40v50zM450 -50h40v-50h-40v50zM400 0h40v-50h-40v50zM450 50h40v-50h-40v50zM400 100h40v-50h-40v50zM450 150h40v-50h-40v50zM400 200h40v-50h-40v50zM450 250h40v-50h-40v50zM400 300h40v-50h-40v50zM450 350h40v-50h-40v50z
M400 400h40v-50h-40v50zM450 450h40v-50h-40v50zM400 500h40v-50h-40v50zM450 550h40v-50h-40v50zM400 600h40v-50h-40v50zM450 650h40v-50h-40v50zM400 700h40v-50h-40v50zM450 750h40v-50h-40v50zM400 800h40v-50h-40v50zM450 850h40v-50h-40v50zM500 -200h40v-50h-40v50z
M550 -150h40v-50h-40v50zM500 -100h40v-50h-40v50zM550 -50h40v-50h-40v50zM500 0h40v-50h-40v50zM550 50h40v-50h-40v50zM500 100h40v-50h-40v50zM550 150h40v-50h-40v50zM500 200h40v-50h-40v50zM550 250h40v-50h-40v50zM500 300h40v-50h-40v50zM550 350h40v-50h-40v50z
M500 400h40v-50h-40v50zM550 450h40v-50h-40v50zM500 500h40v-50h-40v50zM550 550h40v-50h-40v50zM500 600h40v-50h-40v50zM550 650h40v-50h-40v50zM500 700h40v-50h-40v50zM550 750h40v-50h-40v50zM500 800h40v-50h-40v50zM550 850h40v-50h-40v50zM600 -200h40v-50h-40v50z
M650 -150h40v-50h-40v50zM600 -100h40v-50h-40v50zM650 -50h40v-50h-40v50zM600 0h40v-50h-40v50zM650 50h40v-50h-40v50zM600 100h40v-50h-40v50zM650 150h40v-50h-40v50zM600 200h40v-50h-40v50zM650 250h40v-50h-40v50zM600 300h40v-50h-40v50zM650 350h40v-50h-40v50z
M600 400h40v-50h-40v50zM650 450h40v-50h-40v50zM600 500h40v-50h-40v50zM650 550h40v-50h-40v50zM600 600h40v-50h-40v50zM650 650h40v-50h-40v50zM600 700h40v-50h-40v50zM650 750h40v-50h-40v50zM600 800h40v-50h-40v50zM650 850h40v-50h-40v50z" />
    <glyph glyph-name="darkshade" unicode="&#x2593;" 
d="M0 -185h45v-65h-45v65zM50 -135h45v-65h-45v65zM0 -85h45v-65h-45v65zM50 -35h45v-65h-45v65zM0 15h45v-65h-45v65zM50 65h45v-65h-45v65zM0 115h45v-65h-45v65zM50 165h45v-65h-45v65zM0 215h45v-65h-45v65zM50 265h45v-65h-45v65zM0 315h45v-65h-45v65zM50 365h45v-65
h-45v65zM0 415h45v-65h-45v65zM50 465h45v-65h-45v65zM0 515h45v-65h-45v65zM50 565h45v-65h-45v65zM0 615h45v-65h-45v65zM50 665h45v-65h-45v65zM0 715h45v-65h-45v65zM50 765h45v-65h-45v65zM0 815h45v-65h-45v65zM50 865h45v-65h-45v65zM100 -185h45v-65h-45v65z
M150 -135h45v-65h-45v65zM100 -85h45v-65h-45v65zM150 -35h45v-65h-45v65zM100 15h45v-65h-45v65zM150 65h45v-65h-45v65zM100 115h45v-65h-45v65zM150 165h45v-65h-45v65zM100 215h45v-65h-45v65zM150 265h45v-65h-45v65zM100 315h45v-65h-45v65zM150 365h45v-65h-45v65z
M100 415h45v-65h-45v65zM150 465h45v-65h-45v65zM100 515h45v-65h-45v65zM150 565h45v-65h-45v65zM100 615h45v-65h-45v65zM150 665h45v-65h-45v65zM100 715h45v-65h-45v65zM150 765h45v-65h-45v65zM100 815h45v-65h-45v65zM150 865h45v-65h-45v65zM200 -185h45v-65h-45v65z
M250 -135h45v-65h-45v65zM200 -85h45v-65h-45v65zM250 -35h45v-65h-45v65zM200 15h45v-65h-45v65zM250 65h45v-65h-45v65zM200 115h45v-65h-45v65zM250 165h45v-65h-45v65zM200 215h45v-65h-45v65zM250 265h45v-65h-45v65zM200 315h45v-65h-45v65zM250 365h45v-65h-45v65z
M200 415h45v-65h-45v65zM250 465h45v-65h-45v65zM200 515h45v-65h-45v65zM250 565h45v-65h-45v65zM200 615h45v-65h-45v65zM250 665h45v-65h-45v65zM200 715h45v-65h-45v65zM250 765h45v-65h-45v65zM200 815h45v-65h-45v65zM250 865h45v-65h-45v65zM300 -185h45v-65h-45v65z
M350 -135h45v-65h-45v65zM300 -85h45v-65h-45v65zM350 -35h45v-65h-45v65zM300 15h45v-65h-45v65zM350 65h45v-65h-45v65zM300 115h45v-65h-45v65zM350 165h45v-65h-45v65zM300 215h45v-65h-45v65zM350 265h45v-65h-45v65zM300 315h45v-65h-45v65zM350 365h45v-65h-45v65z
M300 415h45v-65h-45v65zM350 465h45v-65h-45v65zM300 515h45v-65h-45v65zM350 565h45v-65h-45v65zM300 615h45v-65h-45v65zM350 665h45v-65h-45v65zM300 715h45v-65h-45v65zM350 765h45v-65h-45v65zM300 815h45v-65h-45v65zM350 865h45v-65h-45v65zM400 -185h45v-65h-45v65z
M450 -135h45v-65h-45v65zM400 -85h45v-65h-45v65zM450 -35h45v-65h-45v65zM400 15h45v-65h-45v65zM450 65h45v-65h-45v65zM400 115h45v-65h-45v65zM450 165h45v-65h-45v65zM400 215h45v-65h-45v65zM450 265h45v-65h-45v65zM400 315h45v-65h-45v65zM450 365h45v-65h-45v65z
M400 415h45v-65h-45v65zM450 465h45v-65h-45v65zM400 515h45v-65h-45v65zM450 565h45v-65h-45v65zM400 615h45v-65h-45v65zM450 665h45v-65h-45v65zM400 715h45v-65h-45v65zM450 765h45v-65h-45v65zM400 815h45v-65h-45v65zM450 865h45v-65h-45v65zM500 -185h45v-65h-45v65z
M550 -135h45v-65h-45v65zM500 -85h45v-65h-45v65zM550 -35h45v-65h-45v65zM500 15h45v-65h-45v65zM550 65h45v-65h-45v65zM500 115h45v-65h-45v65zM550 165h45v-65h-45v65zM500 215h45v-65h-45v65zM550 265h45v-65h-45v65zM500 315h45v-65h-45v65zM550 365h45v-65h-45v65z
M500 415h45v-65h-45v65zM550 465h45v-65h-45v65zM500 515h45v-65h-45v65zM550 565h45v-65h-45v65zM500 615h45v-65h-45v65zM550 665h45v-65h-45v65zM500 715h45v-65h-45v65zM550 765h45v-65h-45v65zM500 815h45v-65h-45v65zM550 865h45v-65h-45v65zM600 -185h45v-65h-45v65z
M650 -135h45v-65h-45v65zM600 -85h45v-65h-45v65zM650 -35h45v-65h-45v65zM600 15h45v-65h-45v65zM650 65h45v-65h-45v65zM600 115h45v-65h-45v65zM650 165h45v-65h-45v65zM600 215h45v-65h-45v65zM650 265h45v-65h-45v65zM600 315h45v-65h-45v65zM650 365h45v-65h-45v65z
M600 415h45v-65h-45v65zM650 465h45v-65h-45v65zM600 515h45v-65h-45v65zM650 565h45v-65h-45v65zM600 615h45v-65h-45v65zM650 665h45v-65h-45v65zM600 715h45v-65h-45v65zM650 765h45v-65h-45v65zM600 815h45v-65h-45v65zM650 865h45v-65h-45v65z" />
    <glyph glyph-name="upeighthblock" unicode="&#x2594;" 
d="M0 850h700v-138h-700v138z" />
    <glyph glyph-name="righteighthblock" unicode="&#x2595;" 
d="M612 850h88v-1100h-88v1100z" />
    <glyph glyph-name="dnleftquadrant" unicode="&#x2596;" 
d="M0 300h350v-550h-350v550z" />
    <glyph glyph-name="dnrightquadrant" unicode="&#x2597;" 
d="M350 300h350v-550h-350v550z" />
    <glyph glyph-name="upleftquadrant" unicode="&#x2598;" 
d="M0 850h350v-550h-350v550z" />
    </font>
</defs>
</svg>
